<?xml version="1.0" encoding="UTF-8"?>
<!--Generator: Apple Native CoreSVG 149-->
<!DOCTYPE svg
PUBLIC "-//W3C//DTD SVG 1.1//EN"
       "http://www.w3.org/Graphics/SVG/1.1/DTD/svg11.dtd">
<svg version="1.1" xmlns="http://www.w3.org/2000/svg" xmlns:xlink="http://www.w3.org/1999/xlink" width="3300" height="2200">
 <!--glyph: "uni1003DA.medium", point size: 100.0, font version: "17.0d8e1", template writer version: "58"-->
 <g id="Notes">
  <rect height="2200" id="artboard" style="fill:white;opacity:1" width="3300" x="0" y="0"/>
  <line style="fill:none;stroke:black;opacity:1;stroke-width:0.5;" x1="263" x2="3036" y1="292" y2="292"/>
  <text style="stroke:none;fill:black;font-family:SF Pro,SF Pro Display,SF Pro Text,sans-serif;font-size:13;font-weight:bold;" transform="matrix(1 0 0 1 263 322)">Weight/Scale Variations</text>
  <text style="stroke:none;fill:black;font-family:SF Pro,SF Pro Display,SF Pro Text,sans-serif;font-size:13;text-anchor:middle;" transform="matrix(1 0 0 1 559.711 322)">Ultralight</text>
  <text style="stroke:none;fill:black;font-family:SF Pro,SF Pro Display,SF Pro Text,sans-serif;font-size:13;text-anchor:middle;" transform="matrix(1 0 0 1 856.422 322)">Thin</text>
  <text style="stroke:none;fill:black;font-family:SF Pro,SF Pro Display,SF Pro Text,sans-serif;font-size:13;text-anchor:middle;" transform="matrix(1 0 0 1 1153.13 322)">Light</text>
  <text style="stroke:none;fill:black;font-family:SF Pro,SF Pro Display,SF Pro Text,sans-serif;font-size:13;text-anchor:middle;" transform="matrix(1 0 0 1 1449.84 322)">Regular</text>
  <text style="stroke:none;fill:black;font-family:SF Pro,SF Pro Display,SF Pro Text,sans-serif;font-size:13;text-anchor:middle;" transform="matrix(1 0 0 1 1746.56 322)">Medium</text>
  <text style="stroke:none;fill:black;font-family:SF Pro,SF Pro Display,SF Pro Text,sans-serif;font-size:13;text-anchor:middle;" transform="matrix(1 0 0 1 2043.27 322)">Semibold</text>
  <text style="stroke:none;fill:black;font-family:SF Pro,SF Pro Display,SF Pro Text,sans-serif;font-size:13;text-anchor:middle;" transform="matrix(1 0 0 1 2339.98 322)">Bold</text>
  <text style="stroke:none;fill:black;font-family:SF Pro,SF Pro Display,SF Pro Text,sans-serif;font-size:13;text-anchor:middle;" transform="matrix(1 0 0 1 2636.69 322)">Heavy</text>
  <text style="stroke:none;fill:black;font-family:SF Pro,SF Pro Display,SF Pro Text,sans-serif;font-size:13;text-anchor:middle;" transform="matrix(1 0 0 1 2933.4 322)">Black</text>
  <line style="fill:none;stroke:black;opacity:1;stroke-width:0.5;" x1="263" x2="3036" y1="1903" y2="1903"/>
  <g transform="matrix(1 0 0 1 263 1933)">
   <path d="M9.24805 0.830078Q10.8691 0.830078 12.2949 0.214844Q13.7207-0.400391 14.8096-1.49414Q15.8984-2.58789 16.5186-4.01367Q17.1387-5.43945 17.1387-7.05078Q17.1387-8.66211 16.5186-10.0879Q15.8984-11.5137 14.8047-12.6074Q13.7109-13.7012 12.2852-14.3164Q10.8594-14.9316 9.23828-14.9316Q7.62695-14.9316 6.20117-14.3164Q4.77539-13.7012 3.69141-12.6074Q2.60742-11.5137 1.9873-10.0879Q1.36719-8.66211 1.36719-7.05078Q1.36719-5.43945 1.9873-4.01367Q2.60742-2.58789 3.69629-1.49414Q4.78516-0.400391 6.21094 0.214844Q7.63672 0.830078 9.24805 0.830078ZM9.24805-0.654297Q7.91992-0.654297 6.7627-1.14746Q5.60547-1.64062 4.73145-2.51953Q3.85742-3.39844 3.36426-4.56055Q2.87109-5.72266 2.87109-7.05078Q2.87109-8.37891 3.35938-9.54102Q3.84766-10.7031 4.72168-11.582Q5.5957-12.4609 6.75293-12.9541Q7.91016-13.4473 9.23828-13.4473Q10.5762-13.4473 11.7334-12.9541Q12.8906-12.4609 13.7695-11.582Q14.6484-10.7031 15.1465-9.54102Q15.6445-8.37891 15.6445-7.05078Q15.6445-5.72266 15.1514-4.56055Q14.6582-3.39844 13.7842-2.51953Q12.9102-1.64062 11.748-1.14746Q10.5859-0.654297 9.24805-0.654297ZM5.83984-7.04102Q5.83984-6.71875 6.04492-6.51855Q6.25-6.31836 6.5918-6.31836L8.50586-6.31836L8.50586-4.39453Q8.50586-4.0625 8.70605-3.85742Q8.90625-3.65234 9.22852-3.65234Q9.56055-3.65234 9.76562-3.85742Q9.9707-4.0625 9.9707-4.39453L9.9707-6.31836L11.8945-6.31836Q12.2266-6.31836 12.4316-6.51855Q12.6367-6.71875 12.6367-7.04102Q12.6367-7.37305 12.4316-7.57812Q12.2266-7.7832 11.8945-7.7832L9.9707-7.7832L9.9707-9.69727Q9.9707-10.0391 9.76562-10.2441Q9.56055-10.4492 9.22852-10.4492Q8.90625-10.4492 8.70605-10.2441Q8.50586-10.0391 8.50586-9.69727L8.50586-7.7832L6.5918-7.7832Q6.25-7.7832 6.04492-7.57812Q5.83984-7.37305 5.83984-7.04102Z"/>
  </g>
  <g transform="matrix(1 0 0 1 281.867 1933)">
   <path d="M11.709 2.91016Q13.75 2.91016 15.5518 2.12891Q17.3535 1.34766 18.7305-0.0292969Q20.1074-1.40625 20.8887-3.20801Q21.6699-5.00977 21.6699-7.05078Q21.6699-9.0918 20.8887-10.8936Q20.1074-12.6953 18.7305-14.0723Q17.3535-15.4492 15.5469-16.2305Q13.7402-17.0117 11.6992-17.0117Q9.6582-17.0117 7.85645-16.2305Q6.05469-15.4492 4.68262-14.0723Q3.31055-12.6953 2.5293-10.8936Q1.74805-9.0918 1.74805-7.05078Q1.74805-5.00977 2.5293-3.20801Q3.31055-1.40625 4.6875-0.0292969Q6.06445 1.34766 7.86621 2.12891Q9.66797 2.91016 11.709 2.91016ZM11.709 1.25Q9.98047 1.25 8.47656 0.605469Q6.97266-0.0390625 5.83496-1.17676Q4.69727-2.31445 4.05762-3.81836Q3.41797-5.32227 3.41797-7.05078Q3.41797-8.7793 4.05762-10.2832Q4.69727-11.7871 5.83008-12.9297Q6.96289-14.0723 8.4668-14.7119Q9.9707-15.3516 11.6992-15.3516Q13.4277-15.3516 14.9316-14.7119Q16.4355-14.0723 17.5781-12.9297Q18.7207-11.7871 19.3652-10.2832Q20.0098-8.7793 20.0098-7.05078Q20.0098-5.32227 19.3701-3.81836Q18.7305-2.31445 17.5928-1.17676Q16.4551-0.0390625 14.9463 0.605469Q13.4375 1.25 11.709 1.25ZM7.39258-7.04102Q7.39258-6.68945 7.62695-6.46484Q7.86133-6.24023 8.23242-6.24023L10.8789-6.24023L10.8789-3.57422Q10.8789-3.21289 11.1035-2.9834Q11.3281-2.75391 11.6797-2.75391Q12.0508-2.75391 12.2852-2.9834Q12.5195-3.21289 12.5195-3.57422L12.5195-6.24023L15.1758-6.24023Q15.5371-6.24023 15.7715-6.46484Q16.0059-6.68945 16.0059-7.04102Q16.0059-7.41211 15.7715-7.6416Q15.5371-7.87109 15.1758-7.87109L12.5195-7.87109L12.5195-10.5176Q12.5195-10.8984 12.2852-11.1279Q12.0508-11.3574 11.6797-11.3574Q11.3281-11.3574 11.1035-11.1279Q10.8789-10.8984 10.8789-10.5176L10.8789-7.87109L8.23242-7.87109Q7.85156-7.87109 7.62207-7.6416Q7.39258-7.41211 7.39258-7.04102Z"/>
  </g>
  <g transform="matrix(1 0 0 1 305.646 1933)">
   <path d="M14.9707 5.66406Q17.0605 5.66406 18.96 5.01465Q20.8594 4.36523 22.4512 3.19336Q24.043 2.02148 25.2197 0.429688Q26.3965-1.16211 27.0459-3.06641Q27.6953-4.9707 27.6953-7.05078Q27.6953-9.14062 27.0459-11.04Q26.3965-12.9395 25.2197-14.5312Q24.043-16.123 22.4512-17.2998Q20.8594-18.4766 18.9551-19.126Q17.0508-19.7754 14.9609-19.7754Q12.8711-19.7754 10.9717-19.126Q9.07227-18.4766 7.48535-17.2998Q5.89844-16.123 4.72168-14.5312Q3.54492-12.9395 2.90039-11.04Q2.25586-9.14062 2.25586-7.05078Q2.25586-4.9707 2.90527-3.06641Q3.55469-1.16211 4.72656 0.429688Q5.89844 2.02148 7.49023 3.19336Q9.08203 4.36523 10.9814 5.01465Q12.8809 5.66406 14.9707 5.66406ZM14.9707 3.84766Q13.1641 3.84766 11.5283 3.2959Q9.89258 2.74414 8.53516 1.74805Q7.17773 0.751953 6.17676-0.610352Q5.17578-1.97266 4.62891-3.6084Q4.08203-5.24414 4.08203-7.05078Q4.08203-8.86719 4.62891-10.5029Q5.17578-12.1387 6.17188-13.501Q7.16797-14.8633 8.52539-15.8594Q9.88281-16.8555 11.5186-17.4023Q13.1543-17.9492 14.9609-17.9492Q16.7773-17.9492 18.4131-17.4023Q20.0488-16.8555 21.4111-15.8594Q22.7734-14.8633 23.7695-13.501Q24.7656-12.1387 25.3174-10.5029Q25.8691-8.86719 25.8691-7.05078Q25.8789-5.24414 25.332-3.6084Q24.7852-1.97266 23.7842-0.610352Q22.7832 0.751953 21.4209 1.74805Q20.0586 2.74414 18.4229 3.2959Q16.7871 3.84766 14.9707 3.84766ZM9.45312-7.04102Q9.45312-6.66016 9.71191-6.41113Q9.9707-6.16211 10.3711-6.16211L14.0625-6.16211L14.0625-2.46094Q14.0625-2.06055 14.3115-1.80664Q14.5605-1.55273 14.9414-1.55273Q15.3516-1.55273 15.6055-1.80664Q15.8594-2.06055 15.8594-2.46094L15.8594-6.16211L19.5605-6.16211Q19.9609-6.16211 20.2148-6.41113Q20.4688-6.66016 20.4688-7.04102Q20.4688-7.45117 20.2148-7.70508Q19.9609-7.95898 19.5605-7.95898L15.8594-7.95898L15.8594-11.6504Q15.8594-12.0605 15.6055-12.3145Q15.3516-12.5684 14.9414-12.5684Q14.5605-12.5684 14.3115-12.3096Q14.0625-12.0508 14.0625-11.6504L14.0625-7.95898L10.3711-7.95898Q9.96094-7.95898 9.70703-7.70508Q9.45312-7.45117 9.45312-7.04102Z"/>
  </g>
  <text style="stroke:none;fill:black;font-family:SF Pro,SF Pro Display,SF Pro Text,sans-serif;font-size:13;font-weight:bold;" transform="matrix(1 0 0 1 263 1953)">Design Variations</text>
  <text style="stroke:none;fill:black;font-family:SF Pro,SF Pro Display,SF Pro Text,sans-serif;font-size:13;" transform="matrix(1 0 0 1 263 1971)">Symbols are supported in up to nine weights and three scales.</text>
  <text style="stroke:none;fill:black;font-family:SF Pro,SF Pro Display,SF Pro Text,sans-serif;font-size:13;" transform="matrix(1 0 0 1 263 1989)">For optimal layout with text and other symbols, vertically align</text>
  <text style="stroke:none;fill:black;font-family:SF Pro,SF Pro Display,SF Pro Text,sans-serif;font-size:13;" transform="matrix(1 0 0 1 263 2007)">symbols with the adjacent text.</text>
  <line style="fill:none;stroke:#00AEEF;stroke-width:0.5;opacity:1.0;" x1="776" x2="776" y1="1919" y2="1933"/>
  <g transform="matrix(1 0 0 1 776 1933)">
   <path d="M3.31055 0.15625Q3.70117 0.15625 3.91602-0.00976562Q4.13086-0.175781 4.26758-0.585938L5.52734-4.0332L11.2891-4.0332L12.5488-0.585938Q12.6855-0.175781 12.9004-0.00976562Q13.1152 0.15625 13.4961 0.15625Q13.8867 0.15625 14.1162-0.0585938Q14.3457-0.273438 14.3457-0.644531Q14.3457-0.869141 14.2383-1.17188L9.6582-13.3691Q9.48242-13.8184 9.17969-14.043Q8.87695-14.2676 8.4082-14.2676Q7.5-14.2676 7.17773-13.3789L2.59766-1.16211Q2.49023-0.859375 2.49023-0.634766Q2.49023-0.263672 2.70996-0.0537109Q2.92969 0.15625 3.31055 0.15625ZM6.00586-5.51758L8.37891-12.0898L8.42773-12.0898L10.8008-5.51758Z"/>
  </g>
  <line style="fill:none;stroke:#00AEEF;stroke-width:0.5;opacity:1.0;" x1="793.197" x2="793.197" y1="1919" y2="1933"/>
  <text style="stroke:none;fill:black;font-family:SF Pro,SF Pro Display,SF Pro Text,sans-serif;font-size:13;font-weight:bold;" transform="matrix(1 0 0 1 776 1953)">Margins</text>
  <text style="stroke:none;fill:black;font-family:SF Pro,SF Pro Display,SF Pro Text,sans-serif;font-size:13;" transform="matrix(1 0 0 1 776 1971)">Leading and trailing margins on the left and right side of each symbol</text>
  <text style="stroke:none;fill:black;font-family:SF Pro,SF Pro Display,SF Pro Text,sans-serif;font-size:13;" transform="matrix(1 0 0 1 776 1989)">can be adjusted by modifying the x-location of the margin guidelines.</text>
  <text style="stroke:none;fill:black;font-family:SF Pro,SF Pro Display,SF Pro Text,sans-serif;font-size:13;" transform="matrix(1 0 0 1 776 2007)">Modifications are automatically applied proportionally to all</text>
  <text style="stroke:none;fill:black;font-family:SF Pro,SF Pro Display,SF Pro Text,sans-serif;font-size:13;" transform="matrix(1 0 0 1 776 2025)">scales and weights.</text>
  <g transform="matrix(1 0 0 1 1289 1933)">
   <path d="M2.8418 1.86523L4.54102 3.57422Q5.18555 4.22852 5.90332 4.17969Q6.62109 4.13086 7.31445 3.35938L18.0078-8.42773L17.041-9.4043L6.42578 2.27539Q6.16211 2.57812 5.89355 2.61719Q5.625 2.65625 5.27344 2.30469L4.10156 1.14258Q3.75 0.791016 3.79395 0.522461Q3.83789 0.253906 4.14062-0.0195312L15.6152-10.8203L14.6387-11.7871L3.04688-0.898438Q2.30469-0.214844 2.25098 0.498047Q2.19727 1.21094 2.8418 1.86523ZM9.25781-16.3281Q8.94531-16.0254 8.90625-15.6348Q8.86719-15.2441 9.04297-14.9512Q9.21875-14.6777 9.55566-14.541Q9.89258-14.4043 10.3809-14.5215Q11.4746-14.7754 12.5977-14.7314Q13.7207-14.6875 14.7949-13.9844L14.209-12.5293Q13.9551-11.9043 14.0674-11.4404Q14.1797-10.9766 14.5801-10.5664L16.875-8.25195Q17.2363-7.88086 17.5781-7.82227Q17.9199-7.76367 18.3398-7.8418L19.4043-8.03711L20.0684-7.36328L20.0293-6.80664Q20-6.43555 20.1221-6.12305Q20.2441-5.81055 20.6055-5.44922L21.3672-4.70703Q21.7285-4.3457 22.1533-4.33105Q22.5781-4.31641 22.9297-4.66797L25.8398-7.58789Q26.1914-7.93945 26.1816-8.35449Q26.1719-8.76953 25.8105-9.13086L25.0391-9.89258Q24.6875-10.2539 24.3799-10.3857Q24.0723-10.5176 23.7109-10.4883L23.1348-10.4395L22.4902-11.0742L22.7344-12.1973Q22.832-12.6172 22.6953-12.9834Q22.5586-13.3496 22.1191-13.7891L19.9219-15.9766Q18.6719-17.2168 17.2607-17.8369Q15.8496-18.457 14.4189-18.4814Q12.9883-18.5059 11.665-17.959Q10.3418-17.4121 9.25781-16.3281ZM10.752-15.957Q11.6602-16.6211 12.7002-16.9043Q13.7402-17.1875 14.8047-17.085Q15.8691-16.9824 16.8701-16.5137Q17.8711-16.0449 18.7012-15.2051L21.1328-12.793Q21.3086-12.6172 21.3525-12.4512Q21.3965-12.2852 21.3379-12.0312L21.0156-10.5469L22.5195-9.0625L23.5059-9.12109Q23.6914-9.13086 23.7891-9.09668Q23.8867-9.0625 24.0332-8.91602L24.6094-8.33984L22.168-5.89844L21.5918-6.47461Q21.4453-6.62109 21.4062-6.71875Q21.3672-6.81641 21.377-7.01172L21.4453-7.98828L19.9512-9.47266L18.4277-9.21875Q18.1836-9.16992 18.042-9.2041Q17.9004-9.23828 17.7148-9.41406L15.7129-11.416Q15.5176-11.5918 15.4932-11.7529Q15.4688-11.9141 15.5859-12.1875L16.4648-14.2773Q15.293-15.3711 13.8281-15.791Q12.3633-16.2109 10.8398-15.7617Q10.7227-15.7324 10.6885-15.8057Q10.6543-15.8789 10.752-15.957Z"/>
  </g>
  <text style="stroke:none;fill:black;font-family:SF Pro,SF Pro Display,SF Pro Text,sans-serif;font-size:13;font-weight:bold;" transform="matrix(1 0 0 1 1289 1953)">Exporting</text>
  <text style="stroke:none;fill:black;font-family:SF Pro,SF Pro Display,SF Pro Text,sans-serif;font-size:13;" transform="matrix(1 0 0 1 1289 1971)">Symbols should be outlined when exporting to ensure the</text>
  <text style="stroke:none;fill:black;font-family:SF Pro,SF Pro Display,SF Pro Text,sans-serif;font-size:13;" transform="matrix(1 0 0 1 1289 1989)">design is preserved when submitting to Xcode.</text>
  <text id="template-version" style="stroke:none;fill:black;font-family:SF Pro,SF Pro Display,SF Pro Text,sans-serif;font-size:13;text-anchor:end;" transform="matrix(1 0 0 1 3036 1933)">Template v.2.0</text>
  <text style="stroke:none;fill:black;font-family:SF Pro,SF Pro Display,SF Pro Text,sans-serif;font-size:13;text-anchor:end;" transform="matrix(1 0 0 1 3036 1951)">Requires Xcode 13 or greater</text>
  <text id="descriptive-name" style="stroke:none;fill:black;font-family:SF Pro,SF Pro Display,SF Pro Text,sans-serif;font-size:13;text-anchor:end;" transform="matrix(1 0 0 1 3036 1969)">Generated from sidebar.left</text>
  <text style="stroke:none;fill:black;font-family:SF Pro,SF Pro Display,SF Pro Text,sans-serif;font-size:13;text-anchor:end;" transform="matrix(1 0 0 1 3036 1987)">Typeset at 100 points</text>
  <text style="stroke:none;fill:black;font-family:SF Pro,SF Pro Display,SF Pro Text,sans-serif;font-size:13;" transform="matrix(1 0 0 1 263 726)">Small</text>
  <text style="stroke:none;fill:black;font-family:SF Pro,SF Pro Display,SF Pro Text,sans-serif;font-size:13;" transform="matrix(1 0 0 1 263 1156)">Medium</text>
  <text style="stroke:none;fill:black;font-family:SF Pro,SF Pro Display,SF Pro Text,sans-serif;font-size:13;" transform="matrix(1 0 0 1 263 1586)">Large</text>
 </g>
 <g id="Guides">
  <g id="H-reference" style="fill:#27AAE1;stroke:none;" transform="matrix(1 0 0 1 339 696)">
   <path d="M0.976562 0L3.66211 0L29.3457-67.1387L30.0293-67.1387L30.0293-70.459L28.125-70.459ZM11.6699-24.4629L46.9727-24.4629L46.2402-26.709L12.4512-26.709ZM55.127 0L57.7637 0L30.6152-70.459L29.4434-70.459L29.4434-67.1387Z"/>
  </g>
  <line id="Baseline-S" style="fill:none;stroke:#27AAE1;opacity:1;stroke-width:0.5;" x1="263" x2="3036" y1="696" y2="696"/>
  <line id="Capline-S" style="fill:none;stroke:#27AAE1;opacity:1;stroke-width:0.5;" x1="263" x2="3036" y1="625.541" y2="625.541"/>
  <g id="H-reference" style="fill:#27AAE1;stroke:none;" transform="matrix(1 0 0 1 339 1126)">
   <path d="M0.976562 0L3.66211 0L29.3457-67.1387L30.0293-67.1387L30.0293-70.459L28.125-70.459ZM11.6699-24.4629L46.9727-24.4629L46.2402-26.709L12.4512-26.709ZM55.127 0L57.7637 0L30.6152-70.459L29.4434-70.459L29.4434-67.1387Z"/>
  </g>
  <line id="Baseline-M" style="fill:none;stroke:#27AAE1;opacity:1;stroke-width:0.5;" x1="263" x2="3036" y1="1126" y2="1126"/>
  <line id="Capline-M" style="fill:none;stroke:#27AAE1;opacity:1;stroke-width:0.5;" x1="263" x2="3036" y1="1055.54" y2="1055.54"/>
  <g id="H-reference" style="fill:#27AAE1;stroke:none;" transform="matrix(1 0 0 1 339 1556)">
   <path d="M0.976562 0L3.66211 0L29.3457-67.1387L30.0293-67.1387L30.0293-70.459L28.125-70.459ZM11.6699-24.4629L46.9727-24.4629L46.2402-26.709L12.4512-26.709ZM55.127 0L57.7637 0L30.6152-70.459L29.4434-70.459L29.4434-67.1387Z"/>
  </g>
  <line id="Baseline-L" style="fill:none;stroke:#27AAE1;opacity:1;stroke-width:0.5;" x1="263" x2="3036" y1="1556" y2="1556"/>
  <line id="Capline-L" style="fill:none;stroke:#27AAE1;opacity:1;stroke-width:0.5;" x1="263" x2="3036" y1="1485.54" y2="1485.54"/>
  <line id="left-margin" style="fill:none;stroke:#00AEEF;stroke-width:0.5;opacity:1.0;" x1="1379.82" x2="1379.82" y1="1030.79" y2="1150.12"/>
  <line id="right-margin" style="fill:none;stroke:#00AEEF;stroke-width:0.5;opacity:1.0;" x1="1519.86" x2="1519.86" y1="1030.79" y2="1150.12"/>
 </g>
 <g id="Symbols">
  <g id="Black-L" transform="matrix(1 0 0 1 2841.51 1556)">
   <path d="M39.9902 26.5137L143.799 26.5137Q155.225 26.5137 161.475 20.3125Q167.725 14.1113 167.725 2.68555L167.725-73.0957Q167.725-84.4727 161.475-90.6738Q155.225-96.875 143.799-96.875L39.9902-96.875Q28.5645-96.875 22.3145-90.6738Q16.0645-84.4727 16.0645-73.0957L16.0645 2.68555Q16.0645 14.1113 22.3145 20.3125Q28.5645 26.5137 39.9902 26.5137ZM42.6758 6.29883Q39.5508 6.29883 37.9395 4.78516Q36.3281 3.27148 36.3281-0.146484L36.3281-70.2148Q36.3281-73.6328 37.9395-75.1465Q39.5508-76.6602 42.6758-76.6602L141.064-76.6602Q144.238-76.6602 145.85-75.1465Q147.461-73.6328 147.461-70.2148L147.461-0.146484Q147.461 3.27148 145.85 4.78516Q144.238 6.29883 141.064 6.29883ZM73.3887 8.49609L91.748 8.49609L91.748-79.4922L73.3887-79.4922ZM60.2539-54.6387Q62.793-54.6387 64.5508-56.3477Q66.3086-58.0566 66.3086-60.3516Q66.3086-62.6953 64.5508-64.4043Q62.793-66.1133 60.2539-66.1133L49.4629-66.1133Q46.9238-66.1133 45.166-64.4043Q43.4082-62.6953 43.4082-60.3516Q43.4082-58.0566 45.166-56.3477Q46.9238-54.6387 49.4629-54.6387ZM60.2539-35.9375Q62.793-35.9375 64.5508-37.6465Q66.3086-39.3555 66.3086-41.6504Q66.3086-43.9941 64.5508-45.6787Q62.793-47.3633 60.2539-47.3633L49.4629-47.3633Q46.9238-47.3633 45.166-45.6787Q43.4082-43.9941 43.4082-41.6504Q43.4082-39.3555 45.166-37.6465Q46.9238-35.9375 49.4629-35.9375ZM60.2539-17.1875Q62.793-17.1875 64.5508-18.8965Q66.3086-20.6055 66.3086-22.9492Q66.3086-25.293 64.5508-26.9775Q62.793-28.6621 60.2539-28.6621L49.4629-28.6621Q46.9238-28.6621 45.166-26.9775Q43.4082-25.293 43.4082-22.9492Q43.4082-20.6055 45.166-18.8965Q46.9238-17.1875 49.4629-17.1875Z"/>
  </g>
  <g id="Heavy-L" transform="matrix(1 0 0 1 2545.23 1556)">
   <path d="M38.8184 25.4883L144.092 25.4883Q155.029 25.4883 160.938 19.6289Q166.846 13.7695 166.846 2.88086L166.846-73.2422Q166.846-84.1309 160.938-89.9902Q155.029-95.8496 144.092-95.8496L38.8184-95.8496Q27.8809-95.8496 21.9727-89.9902Q16.0645-84.1309 16.0645-73.2422L16.0645 2.88086Q16.0645 13.8184 21.9727 19.6533Q27.8809 25.4883 38.8184 25.4883ZM40.918 8.00781Q37.3047 8.00781 35.4492 6.22559Q33.5938 4.44336 33.5938 0.585938L33.5938-70.9473Q33.5938-74.8047 35.4492-76.5869Q37.3047-78.3691 40.918-78.3691L141.943-78.3691Q145.557-78.3691 147.437-76.5869Q149.316-74.8047 149.316-70.9473L149.316 0.585938Q149.316 4.44336 147.437 6.22559Q145.557 8.00781 141.943 8.00781ZM70.9961 10.1074L87.0117 10.1074L87.0117-80.957L70.9961-80.957ZM58.1055-56.0059Q60.3516-56.0059 61.9141-57.5439Q63.4766-59.082 63.4766-61.1328Q63.4766-63.1836 61.9141-64.7217Q60.3516-66.2598 58.1055-66.2598L46.4844-66.2598Q44.2383-66.2598 42.6758-64.7217Q41.1133-63.1836 41.1133-61.1328Q41.1133-59.082 42.6758-57.5439Q44.2383-56.0059 46.4844-56.0059ZM58.1055-37.8418Q60.3516-37.8418 61.9141-39.3555Q63.4766-40.8691 63.4766-42.9199Q63.4766-45.0195 61.9141-46.5088Q60.3516-47.998 58.1055-47.998L46.4844-47.998Q44.2383-47.998 42.6758-46.5088Q41.1133-45.0195 41.1133-42.9199Q41.1133-40.8691 42.6758-39.3555Q44.2383-37.8418 46.4844-37.8418ZM58.1055-19.6289Q60.3516-19.6289 61.9141-21.1426Q63.4766-22.6562 63.4766-24.7559Q63.4766-26.8066 61.9141-28.3203Q60.3516-29.834 58.1055-29.834L46.4844-29.834Q44.2383-29.834 42.6758-28.3203Q41.1133-26.8066 41.1133-24.7559Q41.1133-22.6562 42.6758-21.1426Q44.2383-19.6289 46.4844-19.6289Z"/>
  </g>
  <g id="Bold-L" transform="matrix(1 0 0 1 2249.01 1556)">
   <path d="M37.5488 24.3652L144.385 24.3652Q154.834 24.3652 160.352 18.8965Q165.869 13.4277 165.869 3.07617L165.869-73.4375Q165.869-83.7891 160.352-89.2578Q154.834-94.7266 144.385-94.7266L37.5488-94.7266Q27.0996-94.7266 21.582-89.2578Q16.0645-83.7891 16.0645-73.4375L16.0645 3.07617Q16.0645 13.4766 21.582 18.9209Q27.0996 24.3652 37.5488 24.3652ZM38.9648 9.96094Q34.8633 9.96094 32.6904 7.86133Q30.5176 5.76172 30.5176 1.41602L30.5176-71.7773Q30.5176-76.0742 32.6904-78.1738Q34.8633-80.2734 38.9648-80.2734L142.969-80.2734Q147.07-80.2734 149.243-78.1738Q151.416-76.0742 151.416-71.7773L151.416 1.41602Q151.416 5.76172 149.243 7.86133Q147.07 9.96094 142.969 9.96094ZM68.3594 11.9141L81.7871 11.9141L81.7871-82.6172L68.3594-82.6172ZM55.7617-57.5684Q57.666-57.5684 59.0332-58.8867Q60.4004-60.2051 60.4004-61.9629Q60.4004-63.7695 59.0332-65.0879Q57.666-66.4062 55.7617-66.4062L43.2129-66.4062Q41.2598-66.4062 39.917-65.0879Q38.5742-63.7695 38.5742-61.9629Q38.5742-60.2051 39.917-58.8867Q41.2598-57.5684 43.2129-57.5684ZM55.7617-39.9414Q57.666-39.9414 59.0332-41.2598Q60.4004-42.5781 60.4004-44.3848Q60.4004-46.1914 59.0332-47.4854Q57.666-48.7793 55.7617-48.7793L43.2129-48.7793Q41.2598-48.7793 39.917-47.4854Q38.5742-46.1914 38.5742-44.3848Q38.5742-42.5781 39.917-41.2598Q41.2598-39.9414 43.2129-39.9414ZM55.7617-22.3145Q57.666-22.3145 59.0332-23.6328Q60.4004-24.9512 60.4004-26.7578Q60.4004-28.5645 59.0332-29.8584Q57.666-31.1523 55.7617-31.1523L43.2129-31.1523Q41.2598-31.1523 39.917-29.8584Q38.5742-28.5645 38.5742-26.7578Q38.5742-24.9512 39.917-23.6328Q41.2598-22.3145 43.2129-22.3145Z"/>
  </g>
  <g id="Semibold-L" transform="matrix(1 0 0 1 1952.64 1556)">
   <path d="M36.6211 23.584L144.58 23.584Q154.688 23.584 159.937 18.3838Q165.186 13.1836 165.186 3.17383L165.186-73.5352Q165.186-83.4961 159.937-88.6963Q154.688-93.8965 144.58-93.8965L36.6211-93.8965Q26.5625-93.8965 21.3135-88.7207Q16.0645-83.5449 16.0645-73.5352L16.0645 3.17383Q16.0645 13.2324 21.3135 18.4082Q26.5625 23.584 36.6211 23.584ZM37.5977 11.2793Q33.1055 11.2793 30.7617 8.95996Q28.418 6.64062 28.418 2.00195L28.418-72.3145Q28.418-76.9531 30.7617-79.2725Q33.1055-81.5918 37.5977-81.5918L143.652-81.5918Q148.047-81.5918 150.439-79.2725Q152.832-76.9531 152.832-72.3145L152.832 2.00195Q152.832 6.64062 150.439 8.95996Q148.047 11.2793 143.652 11.2793ZM66.5527 13.1348L78.125 13.1348L78.125-83.7402L66.5527-83.7402ZM54.1504-58.5938Q55.8105-58.5938 57.0068-59.79Q58.2031-60.9863 58.2031-62.5488Q58.2031-64.1602 57.0068-65.332Q55.8105-66.5039 54.1504-66.5039L40.918-66.5039Q39.209-66.5039 38.0127-65.332Q36.8164-64.1602 36.8164-62.5488Q36.8164-60.9863 38.0127-59.79Q39.209-58.5938 40.918-58.5938ZM54.1504-41.4062Q55.8105-41.4062 57.0068-42.5781Q58.2031-43.75 58.2031-45.3613Q58.2031-46.9727 57.0068-48.1201Q55.8105-49.2676 54.1504-49.2676L40.918-49.2676Q39.209-49.2676 38.0127-48.1201Q36.8164-46.9727 36.8164-45.3613Q36.8164-43.75 38.0127-42.5781Q39.209-41.4062 40.918-41.4062ZM54.1504-24.1699Q55.8105-24.1699 57.0068-25.3418Q58.2031-26.5137 58.2031-28.125Q58.2031-29.7363 57.0068-30.8838Q55.8105-32.0312 54.1504-32.0312L40.918-32.0312Q39.209-32.0312 38.0127-30.8838Q36.8164-29.7363 36.8164-28.125Q36.8164-26.5137 38.0127-25.3418Q39.209-24.1699 40.918-24.1699Z"/>
  </g>
  <g id="Medium-L" transform="matrix(1 0 0 1 1656.17 1556)">
   <path d="M35.9375 22.998L144.775 22.998Q154.59 22.998 159.644 17.9932Q164.697 12.9883 164.697 3.27148L164.697-73.6328Q164.697-83.3008 159.644-88.3057Q154.59-93.3105 144.775-93.3105L35.9375-93.3105Q26.1719-93.3105 21.1182-88.3301Q16.0645-83.3496 16.0645-73.6328L16.0645 3.27148Q16.0645 13.0371 21.1182 18.0176Q26.1719 22.998 35.9375 22.998ZM36.5723 12.2559Q31.8359 12.2559 29.3213 9.79004Q26.8066 7.32422 26.8066 2.39258L26.8066-72.7539Q26.8066-77.6367 29.3213-80.1025Q31.8359-82.5684 36.5723-82.5684L144.141-82.5684Q148.828-82.5684 151.367-80.1025Q153.906-77.6367 153.906-72.7539L153.906 2.39258Q153.906 7.32422 151.367 9.79004Q148.828 12.2559 144.141 12.2559ZM65.1367 14.0625L75.3906 14.0625L75.3906-84.6191L65.1367-84.6191ZM52.8809-59.4238Q54.3945-59.4238 55.4932-60.498Q56.5918-61.5723 56.5918-62.9883Q56.5918-64.4531 55.4932-65.5273Q54.3945-66.6016 52.8809-66.6016L39.209-66.6016Q37.6465-66.6016 36.5723-65.5273Q35.498-64.4531 35.498-62.9883Q35.498-61.5723 36.5723-60.498Q37.6465-59.4238 39.209-59.4238ZM52.8809-42.4805Q54.3945-42.4805 55.4932-43.5547Q56.5918-44.6289 56.5918-46.0938Q56.5918-47.5586 55.4932-48.6084Q54.3945-49.6582 52.8809-49.6582L39.209-49.6582Q37.6465-49.6582 36.5723-48.6084Q35.498-47.5586 35.498-46.0938Q35.498-44.6289 36.5723-43.5547Q37.6465-42.4805 39.209-42.4805ZM52.8809-25.5859Q54.3945-25.5859 55.4932-26.6357Q56.5918-27.6855 56.5918-29.1504Q56.5918-30.6152 55.4932-31.665Q54.3945-32.7148 52.8809-32.7148L39.209-32.7148Q37.6465-32.7148 36.5723-31.665Q35.498-30.6152 35.498-29.1504Q35.498-27.6855 36.5723-26.6357Q37.6465-25.5859 39.209-25.5859Z"/>
  </g>
  <g id="Regular-L" transform="matrix(1 0 0 1 1359.81 1556)">
   <path d="M35.0586 22.2168L144.971 22.2168Q154.443 22.2168 159.229 17.4805Q164.014 12.7441 164.014 3.41797L164.014-73.7305Q164.014-83.0566 159.229-87.793Q154.443-92.5293 144.971-92.5293L35.0586-92.5293Q25.6348-92.5293 20.8496-87.8174Q16.0645-83.1055 16.0645-73.7305L16.0645 3.41797Q16.0645 12.793 20.8496 17.5049Q25.6348 22.2168 35.0586 22.2168ZM35.2539 13.5742Q30.127 13.5742 27.417 10.8887Q24.707 8.20312 24.707 2.97852L24.707-73.291Q24.707-78.5156 27.417-81.2012Q30.127-83.8867 35.2539-83.8867L144.824-83.8867Q149.854-83.8867 152.588-81.2012Q155.322-78.5156 155.322-73.291L155.322 2.97852Q155.322 8.20312 152.588 10.8887Q149.854 13.5742 144.824 13.5742ZM63.3301 15.2832L71.7773 15.2832L71.7773-85.7422L63.3301-85.7422ZM51.2695-60.4492Q52.5391-60.4492 53.4912-61.4014Q54.4434-62.3535 54.4434-63.5742Q54.4434-64.8438 53.4912-65.7715Q52.5391-66.6992 51.2695-66.6992L36.9141-66.6992Q35.5957-66.6992 34.668-65.7715Q33.7402-64.8438 33.7402-63.5742Q33.7402-62.3535 34.668-61.4014Q35.5957-60.4492 36.9141-60.4492ZM51.2695-43.9453Q52.5391-43.9453 53.4912-44.873Q54.4434-45.8008 54.4434-47.0703Q54.4434-48.3398 53.4912-49.2432Q52.5391-50.1465 51.2695-50.1465L36.9141-50.1465Q35.5957-50.1465 34.668-49.2432Q33.7402-48.3398 33.7402-47.0703Q33.7402-45.8008 34.668-44.873Q35.5957-43.9453 36.9141-43.9453ZM51.2695-27.4414Q52.5391-27.4414 53.4912-28.3447Q54.4434-29.248 54.4434-30.5176Q54.4434-31.7871 53.4912-32.6904Q52.5391-33.5938 51.2695-33.5938L36.9141-33.5938Q35.5957-33.5938 34.668-32.6904Q33.7402-31.7871 33.7402-30.5176Q33.7402-29.248 34.668-28.3447Q35.5957-27.4414 36.9141-27.4414Z"/>
  </g>
  <g id="Light-L" transform="matrix(1 0 0 1 1063.53 1556)">
   <path d="M34.0332 21.4355L145.117 21.4355Q154.053 21.4355 158.594 16.8945Q163.135 12.3535 163.135 3.56445L163.135-73.8281Q163.135-82.6172 158.594-87.1582Q154.053-91.6992 145.117-91.6992L34.0332-91.6992Q25.1465-91.6992 20.6055-87.207Q16.0645-82.7148 16.0645-73.8281L16.0645 3.56445Q16.0645 12.4023 20.6055 16.9189Q25.1465 21.4355 34.0332 21.4355ZM34.2285 14.7949Q28.5645 14.7949 25.6104 11.8652Q22.6562 8.93555 22.6562 3.22266L22.6562-73.4863Q22.6562-79.1992 25.6104-82.1289Q28.5645-85.0586 34.2285-85.0586L144.971-85.0586Q150.488-85.0586 153.491-82.1289Q156.494-79.1992 156.494-73.4863L156.494 3.22266Q156.494 8.93555 153.491 11.8652Q150.488 14.7949 144.971 14.7949ZM62.3535 16.1133L68.8477 16.1133L68.8477-86.8164L62.3535-86.8164ZM50.3418-61.5723Q51.416-61.5723 52.1973-62.3291Q52.9785-63.0859 52.9785-64.1113Q52.9785-65.1855 52.1973-65.918Q51.416-66.6504 50.3418-66.6504L34.8145-66.6504Q33.6914-66.6504 32.9346-65.918Q32.1777-65.1855 32.1777-64.1113Q32.1777-63.0859 32.9346-62.3291Q33.6914-61.5723 34.8145-61.5723ZM50.3418-44.7266Q51.416-44.7266 52.1973-45.4834Q52.9785-46.2402 52.9785-47.2656Q52.9785-48.3398 52.1973-49.0723Q51.416-49.8047 50.3418-49.8047L34.8145-49.8047Q33.6914-49.8047 32.9346-49.0723Q32.1777-48.3398 32.1777-47.2656Q32.1777-46.2402 32.9346-45.4834Q33.6914-44.7266 34.8145-44.7266ZM50.3418-27.9297Q51.416-27.9297 52.1973-28.6621Q52.9785-29.3945 52.9785-30.4688Q52.9785-31.4941 52.1973-32.251Q51.416-33.0078 50.3418-33.0078L34.8145-33.0078Q33.6914-33.0078 32.9346-32.251Q32.1777-31.4941 32.1777-30.4688Q32.1777-29.3945 32.9346-28.6621Q33.6914-27.9297 34.8145-27.9297Z"/>
  </g>
  <g id="Thin-L" transform="matrix(1 0 0 1 767.409 1556)">
   <path d="M32.666 20.3613L145.312 20.3613Q153.516 20.3613 157.739 16.0889Q161.963 11.8164 161.963 3.75977L161.963-73.9746Q161.963-82.0312 157.739-86.3037Q153.516-90.5762 145.312-90.5762L32.666-90.5762Q24.5117-90.5762 20.2881-86.377Q16.0645-82.1777 16.0645-73.9746L16.0645 3.75977Q16.0645 11.9141 20.2881 16.1377Q24.5117 20.3613 32.666 20.3613ZM32.8125 16.4062Q26.5137 16.4062 23.2666 13.1592Q20.0195 9.91211 20.0195 3.56445L20.0195-73.7793Q20.0195-80.127 23.2666-83.374Q26.5137-86.6211 32.8125-86.6211L145.166-86.6211Q151.318-86.6211 154.663-83.374Q158.008-80.127 158.008-73.7793L158.008 3.56445Q158.008 9.91211 154.663 13.1592Q151.318 16.4062 145.166 16.4062ZM61.1328 17.2363L65.0391 17.2363L65.0391-88.1836L61.1328-88.1836ZM49.1699-63.0371Q49.9512-63.0371 50.5127-63.5742Q51.0742-64.1113 51.0742-64.8438Q51.0742-65.5762 50.5127-66.1133Q49.9512-66.6504 49.1699-66.6504L32.0312-66.6504Q31.25-66.6504 30.7129-66.1133Q30.1758-65.5762 30.1758-64.8438Q30.1758-64.1113 30.7129-63.5742Q31.25-63.0371 32.0312-63.0371ZM49.1699-45.752Q49.9512-45.752 50.5127-46.2891Q51.0742-46.8262 51.0742-47.5586Q51.0742-48.3398 50.5127-48.8525Q49.9512-49.3652 49.1699-49.3652L32.0312-49.3652Q31.25-49.3652 30.7129-48.8525Q30.1758-48.3398 30.1758-47.5586Q30.1758-46.8262 30.7129-46.2891Q31.25-45.752 32.0312-45.752ZM49.1699-28.6133Q49.9512-28.6133 50.5127-29.126Q51.0742-29.6387 51.0742-30.3711Q51.0742-31.1035 50.5127-31.6406Q49.9512-32.1777 49.1699-32.1777L32.0312-32.1777Q31.25-32.1777 30.7129-31.6406Q30.1758-31.1035 30.1758-30.3711Q30.1758-29.6387 30.7129-29.126Q31.25-28.6133 32.0312-28.6133Z"/>
  </g>
  <g id="Ultralight-L" transform="matrix(1 0 0 1 471.015 1556)">
   <path d="M31.9824 19.8242L145.41 19.8242Q153.223 19.8242 157.275 15.6738Q161.328 11.5234 161.328 3.85742L161.328-74.0723Q161.328-81.7383 157.275-85.8643Q153.223-89.9902 145.41-89.9902L31.9824-89.9902Q24.1699-89.9902 20.1172-85.9375Q16.0645-81.8848 16.0645-74.0723L16.0645 3.85742Q16.0645 11.6699 20.1172 15.7471Q24.1699 19.8242 31.9824 19.8242ZM32.1289 17.2363Q25.4395 17.2363 22.0215 13.8184Q18.6035 10.4004 18.6035 3.75977L18.6035-73.9258Q18.6035-80.6152 22.0215-84.0332Q25.4395-87.4512 32.1289-87.4512L145.264-87.4512Q151.709-87.4512 155.249-84.0332Q158.789-80.6152 158.789-73.9258L158.789 3.75977Q158.789 10.4004 155.249 13.8184Q151.709 17.2363 145.264 17.2363ZM60.4492 17.8223L63.0371 17.8223L63.0371-88.916L60.4492-88.916ZM48.4863-63.7695Q49.1699-63.7695 49.6094-64.1846Q50.0488-64.5996 50.0488-65.1855Q50.0488-65.8203 49.6094-66.2109Q49.1699-66.6016 48.4863-66.6016L30.6152-66.6016Q29.9805-66.6016 29.541-66.2109Q29.1016-65.8203 29.1016-65.1855Q29.1016-64.5996 29.541-64.1846Q29.9805-63.7695 30.6152-63.7695ZM48.4863-46.2891Q49.1699-46.2891 49.6094-46.7041Q50.0488-47.1191 50.0488-47.7051Q50.0488-48.3398 49.6094-48.7549Q49.1699-49.1699 48.4863-49.1699L30.6152-49.1699Q29.9805-49.1699 29.541-48.7549Q29.1016-48.3398 29.1016-47.7051Q29.1016-47.1191 29.541-46.7041Q29.9805-46.2891 30.6152-46.2891ZM48.4863-28.9551Q49.1699-28.9551 49.6094-29.3457Q50.0488-29.7363 50.0488-30.3223Q50.0488-30.9082 49.6094-31.3477Q49.1699-31.7871 48.4863-31.7871L30.6152-31.7871Q29.9805-31.7871 29.541-31.3477Q29.1016-30.9082 29.1016-30.3223Q29.1016-29.7363 29.541-29.3457Q29.9805-28.9551 30.6152-28.9551Z"/>
  </g>
  <g id="Black-M" transform="matrix(1 0 0 1 2861.96 1126)">
   <path d="M31.5918 13.2324L111.279 13.2324Q120.312 13.2324 125.366 8.17871Q130.42 3.125 130.42-5.9082L130.42-64.4531Q130.42-73.5352 125.366-78.5645Q120.312-83.5938 111.279-83.5938L31.5918-83.5938Q22.5586-83.5938 17.5049-78.5645Q12.4512-73.5352 12.4512-64.4531L12.4512-5.9082Q12.4512 3.125 17.5049 8.17871Q22.5586 13.2324 31.5918 13.2324ZM34.2285-4.10156Q31.9824-4.10156 30.8838-5.12695Q29.7852-6.15234 29.7852-8.59375L29.7852-61.8164Q29.7852-64.2578 30.8838-65.2588Q31.9824-66.2598 34.2285-66.2598L108.643-66.2598Q110.889-66.2598 111.987-65.2588Q113.086-64.2578 113.086-61.8164L113.086-8.59375Q113.086-6.15234 111.987-5.12695Q110.889-4.10156 108.643-4.10156ZM58.5449-2.44141L74.1699-2.44141L74.1699-68.6523L58.5449-68.6523ZM48.1934-49.4629Q50.3906-49.4629 51.8555-50.8789Q53.3203-52.2949 53.3203-54.248Q53.3203-56.2012 51.8555-57.6416Q50.3906-59.082 48.1934-59.082L40.1855-59.082Q38.0371-59.082 36.5723-57.6416Q35.1074-56.2012 35.1074-54.248Q35.1074-52.2949 36.5723-50.8789Q38.0371-49.4629 40.1855-49.4629ZM48.1934-34.4238Q50.3906-34.4238 51.8555-35.8398Q53.3203-37.2559 53.3203-39.209Q53.3203-41.1621 51.8555-42.5781Q50.3906-43.9941 48.1934-43.9941L40.1855-43.9941Q38.0371-43.9941 36.5723-42.5781Q35.1074-41.1621 35.1074-39.209Q35.1074-37.2559 36.5723-35.8398Q38.0371-34.4238 40.1855-34.4238ZM48.1934-19.3359Q50.3906-19.3359 51.8555-20.7764Q53.3203-22.2168 53.3203-24.1699Q53.3203-26.123 51.8555-27.5391Q50.3906-28.9551 48.1934-28.9551L40.1855-28.9551Q38.0371-28.9551 36.5723-27.5391Q35.1074-26.123 35.1074-24.1699Q35.1074-22.2168 36.5723-20.7764Q38.0371-19.3359 40.1855-19.3359Z"/>
  </g>
  <g id="Heavy-M" transform="matrix(1 0 0 1 2565.6 1126)">
   <path d="M30.7129 12.4023L111.523 12.4023Q120.215 12.4023 124.976 7.66602Q129.736 2.92969 129.736-5.76172L129.736-64.5996Q129.736-73.291 124.976-78.0273Q120.215-82.7637 111.523-82.7637L30.7129-82.7637Q21.9727-82.7637 17.2119-78.0273Q12.4512-73.291 12.4512-64.5996L12.4512-5.76172Q12.4512 2.92969 17.2119 7.66602Q21.9727 12.4023 30.7129 12.4023ZM32.7148-2.68555Q30.127-2.68555 28.833-3.93066Q27.5391-5.17578 27.5391-7.91016L27.5391-62.4512Q27.5391-65.2344 28.833-66.4551Q30.127-67.6758 32.7148-67.6758L109.473-67.6758Q112.061-67.6758 113.354-66.4551Q114.648-65.2344 114.648-62.4512L114.648-7.91016Q114.648-5.17578 113.354-3.93066Q112.061-2.68555 109.473-2.68555ZM56.4453-1.07422L70.2148-1.07422L70.2148-69.873L56.4453-69.873ZM46.3379-50.5859Q48.2422-50.5859 49.5605-51.8555Q50.8789-53.125 50.8789-54.8828Q50.8789-56.6406 49.5605-57.9346Q48.2422-59.2285 46.3379-59.2285L37.7441-59.2285Q35.8398-59.2285 34.5215-57.9346Q33.2031-56.6406 33.2031-54.8828Q33.2031-53.125 34.5215-51.8555Q35.8398-50.5859 37.7441-50.5859ZM46.3379-36.084Q48.2422-36.084 49.5605-37.3779Q50.8789-38.6719 50.8789-40.4297Q50.8789-42.1387 49.5605-43.4082Q48.2422-44.6777 46.3379-44.6777L37.7441-44.6777Q35.8398-44.6777 34.5215-43.4082Q33.2031-42.1387 33.2031-40.4297Q33.2031-38.6719 34.5215-37.3779Q35.8398-36.084 37.7441-36.084ZM46.3379-21.582Q48.2422-21.582 49.5605-22.876Q50.8789-24.1699 50.8789-25.9277Q50.8789-27.6855 49.5605-28.9551Q48.2422-30.2246 46.3379-30.2246L37.7441-30.2246Q35.8398-30.2246 34.5215-28.9551Q33.2031-27.6855 33.2031-25.9277Q33.2031-24.1699 34.5215-22.876Q35.8398-21.582 37.7441-21.582Z"/>
  </g>
  <g id="Bold-M" transform="matrix(1 0 0 1 2269.25 1126)">
   <path d="M29.6875 11.5234L111.768 11.5234Q120.166 11.5234 124.585 7.10449Q129.004 2.68555 129.004-5.66406L129.004-64.7461Q129.004-73.0469 124.585-77.4658Q120.166-81.8848 111.768-81.8848L29.6875-81.8848Q21.3379-81.8848 16.8945-77.4658Q12.4512-73.0469 12.4512-64.7461L12.4512-5.66406Q12.4512 2.68555 16.8945 7.10449Q21.3379 11.5234 29.6875 11.5234ZM31.0547-1.12305Q28.125-1.12305 26.5869-2.58789Q25.0488-4.05273 25.0488-7.17773L25.0488-63.2324Q25.0488-66.3574 26.5869-67.8223Q28.125-69.2871 31.0547-69.2871L110.4-69.2871Q113.33-69.2871 114.868-67.8223Q116.406-66.3574 116.406-63.2324L116.406-7.17773Q116.406-4.05273 114.868-2.58789Q113.33-1.12305 110.4-1.12305ZM54.1016 0.488281L65.7715 0.488281L65.7715-71.1914L54.1016-71.1914ZM44.2871-51.8066Q45.8984-51.8066 47.0703-52.9541Q48.2422-54.1016 48.2422-55.5664Q48.2422-57.1289 47.0703-58.252Q45.8984-59.375 44.2871-59.375L35.0098-59.375Q33.3984-59.375 32.251-58.252Q31.1035-57.1289 31.1035-55.5664Q31.1035-54.1016 32.251-52.9541Q33.3984-51.8066 35.0098-51.8066ZM44.2871-37.9883Q45.8984-37.9883 47.0703-39.1113Q48.2422-40.2344 48.2422-41.748Q48.2422-43.2617 47.0703-44.3848Q45.8984-45.5078 44.2871-45.5078L35.0098-45.5078Q33.3984-45.5078 32.251-44.3848Q31.1035-43.2617 31.1035-41.748Q31.1035-40.2344 32.251-39.1113Q33.3984-37.9883 35.0098-37.9883ZM44.2871-24.1211Q45.8984-24.1211 47.0703-25.2441Q48.2422-26.3672 48.2422-27.8809Q48.2422-29.4434 47.0703-30.542Q45.8984-31.6406 44.2871-31.6406L35.0098-31.6406Q33.3984-31.6406 32.251-30.542Q31.1035-29.4434 31.1035-27.8809Q31.1035-26.3672 32.251-25.2441Q33.3984-24.1211 35.0098-24.1211Z"/>
  </g>
  <g id="Semibold-M" transform="matrix(1 0 0 1 1972.81 1126)">
   <path d="M29.0039 10.8887L111.963 10.8887Q120.068 10.8887 124.268 6.68945Q128.467 2.49023 128.467-5.51758L128.467-64.8438Q128.467-72.8516 124.268-77.0508Q120.068-81.25 111.963-81.25L29.0039-81.25Q20.8984-81.25 16.6748-77.0508Q12.4512-72.8516 12.4512-64.8438L12.4512-5.51758Q12.4512 2.49023 16.6748 6.68945Q20.8984 10.8887 29.0039 10.8887ZM29.8828 0Q26.709 0 25.0244-1.63574Q23.3398-3.27148 23.3398-6.64062L23.3398-63.7207Q23.3398-67.0898 25.0244-68.7256Q26.709-70.3613 29.8828-70.3613L111.035-70.3613Q114.209-70.3613 115.918-68.7256Q117.627-67.0898 117.627-63.7207L117.627-6.64062Q117.627-3.27148 115.918-1.63574Q114.209 0 111.035 0ZM52.4902 1.5625L62.6953 1.5625L62.6953-72.1191L52.4902-72.1191ZM42.7734-52.6367Q44.1895-52.6367 45.2393-53.6865Q46.2891-54.7363 46.2891-56.0547Q46.2891-57.4219 45.2393-58.4473Q44.1895-59.4727 42.7734-59.4727L33.0566-59.4727Q31.6406-59.4727 30.6152-58.4473Q29.5898-57.4219 29.5898-56.0547Q29.5898-54.7363 30.6152-53.6865Q31.6406-52.6367 33.0566-52.6367ZM42.7734-39.2578Q44.1895-39.2578 45.2393-40.2832Q46.2891-41.3086 46.2891-42.6758Q46.2891-44.043 45.2393-45.0439Q44.1895-46.0449 42.7734-46.0449L33.0566-46.0449Q31.6406-46.0449 30.6152-45.0439Q29.5898-44.043 29.5898-42.6758Q29.5898-41.3086 30.6152-40.2832Q31.6406-39.2578 33.0566-39.2578ZM42.7734-25.8789Q44.1895-25.8789 45.2393-26.8799Q46.2891-27.8809 46.2891-29.248Q46.2891-30.6152 45.2393-31.6162Q44.1895-32.6172 42.7734-32.6172L33.0566-32.6172Q31.6406-32.6172 30.6152-31.6162Q29.5898-30.6152 29.5898-29.248Q29.5898-27.8809 30.6152-26.8799Q31.6406-25.8789 33.0566-25.8789Z"/>
  </g>
  <g id="Medium-M" transform="matrix(1 0 0 1 1676.29 1126)">
   <path d="M28.4668 10.4004L112.061 10.4004Q120.02 10.4004 124.048 6.37207Q128.076 2.34375 128.076-5.46875L128.076-64.8926Q128.076-72.7539 124.048-76.7578Q120.02-80.7617 112.061-80.7617L28.4668-80.7617Q20.5566-80.7617 16.5039-76.7578Q12.4512-72.7539 12.4512-64.8926L12.4512-5.46875Q12.4512 2.34375 16.5039 6.37207Q20.5566 10.4004 28.4668 10.4004ZM29.0039 0.830078Q25.6348 0.830078 23.8281-0.927734Q22.0215-2.68555 22.0215-6.25L22.0215-64.1113Q22.0215-67.6758 23.8281-69.4336Q25.6348-71.1914 29.0039-71.1914L111.523-71.1914Q114.893-71.1914 116.724-69.4336Q118.555-67.6758 118.555-64.1113L118.555-6.25Q118.555-2.68555 116.724-0.927734Q114.893 0.830078 111.523 0.830078ZM51.2695 2.34375L60.3516 2.34375L60.3516-72.8027L51.2695-72.8027ZM41.6992-53.3203Q43.0176-53.3203 43.9697-54.2725Q44.9219-55.2246 44.9219-56.3965Q44.9219-57.666 43.9697-58.5938Q43.0176-59.5215 41.6992-59.5215L31.6895-59.5215Q30.4199-59.5215 29.4678-58.5938Q28.5156-57.666 28.5156-56.3965Q28.5156-55.2246 29.4678-54.2725Q30.4199-53.3203 31.6895-53.3203ZM41.6992-40.2344Q43.0176-40.2344 43.9697-41.1621Q44.9219-42.0898 44.9219-43.3594Q44.9219-44.6289 43.9697-45.5322Q43.0176-46.4355 41.6992-46.4355L31.6895-46.4355Q30.4199-46.4355 29.4678-45.5322Q28.5156-44.6289 28.5156-43.3594Q28.5156-42.0898 29.4678-41.1621Q30.4199-40.2344 31.6895-40.2344ZM41.6992-27.1973Q43.0176-27.1973 43.9697-28.1006Q44.9219-29.0039 44.9219-30.2734Q44.9219-31.543 43.9697-32.4463Q43.0176-33.3496 41.6992-33.3496L31.6895-33.3496Q30.4199-33.3496 29.4678-32.4463Q28.5156-31.543 28.5156-30.2734Q28.5156-29.0039 29.4678-28.1006Q30.4199-27.1973 31.6895-27.1973Z"/>
  </g>
  <g id="Regular-M" transform="matrix(1 0 0 1 1379.82 1126)">
   <path d="M27.7832 9.76562L112.256 9.76562Q119.971 9.76562 123.779 5.98145Q127.588 2.19727 127.588-5.37109L127.588-64.9902Q127.588-72.5586 123.779-76.3428Q119.971-80.127 112.256-80.127L27.7832-80.127Q20.1172-80.127 16.2842-76.3428Q12.4512-72.5586 12.4512-64.9902L12.4512-5.37109Q12.4512 2.19727 16.2842 5.98145Q20.1172 9.76562 27.7832 9.76562ZM27.8809 1.9043Q24.2188 1.9043 22.2656-0.0244141Q20.3125-1.95312 20.3125-5.76172L20.3125-64.5996Q20.3125-68.4082 22.2656-70.3369Q24.2188-72.2656 27.8809-72.2656L112.158-72.2656Q115.771-72.2656 117.749-70.3369Q119.727-68.4082 119.727-64.5996L119.727-5.76172Q119.727-1.95312 117.749-0.0244141Q115.771 1.9043 112.158 1.9043ZM49.6582 3.41797L57.3242 3.41797L57.3242-73.7305L49.6582-73.7305ZM40.2832-54.1504Q41.3574-54.1504 42.2119-55.0049Q43.0664-55.8594 43.0664-56.8848Q43.0664-58.0078 42.2119-58.8135Q41.3574-59.6191 40.2832-59.6191L29.7852-59.6191Q28.7109-59.6191 27.8809-58.8135Q27.0508-58.0078 27.0508-56.8848Q27.0508-55.8594 27.8809-55.0049Q28.7109-54.1504 29.7852-54.1504ZM40.2832-41.5039Q41.3574-41.5039 42.2119-42.334Q43.0664-43.1641 43.0664-44.2871Q43.0664-45.3613 42.2119-46.167Q41.3574-46.9727 40.2832-46.9727L29.7852-46.9727Q28.7109-46.9727 27.8809-46.167Q27.0508-45.3613 27.0508-44.2871Q27.0508-43.1641 27.8809-42.334Q28.7109-41.5039 29.7852-41.5039ZM40.2832-28.9062Q41.3574-28.9062 42.2119-29.7119Q43.0664-30.5176 43.0664-31.5918Q43.0664-32.7148 42.2119-33.5205Q41.3574-34.3262 40.2832-34.3262L29.7852-34.3262Q28.7109-34.3262 27.8809-33.5205Q27.0508-32.7148 27.0508-31.5918Q27.0508-30.5176 27.8809-29.7119Q28.7109-28.9062 29.7852-28.9062Z"/>
  </g>
  <g id="Light-M" transform="matrix(1 0 0 1 1083.5 1126)">
   <path d="M26.8555 9.0332L112.402 9.0332Q119.58 9.0332 123.193 5.44434Q126.807 1.85547 126.807-5.22461L126.807-65.0879Q126.807-72.168 123.193-75.7812Q119.58-79.3945 112.402-79.3945L26.8555-79.3945Q19.6777-79.3945 16.0645-75.8057Q12.4512-72.2168 12.4512-65.0879L12.4512-5.22461Q12.4512 1.85547 16.0645 5.44434Q19.6777 9.0332 26.8555 9.0332ZM26.9531 2.97852Q22.8027 2.97852 20.6543 0.830078Q18.5059-1.31836 18.5059-5.51758L18.5059-64.7949Q18.5059-69.043 20.6543-71.1914Q22.8027-73.3398 26.9531-73.3398L112.305-73.3398Q116.309-73.3398 118.53-71.1914Q120.752-69.043 120.752-64.7949L120.752-5.51758Q120.752-1.31836 118.53 0.830078Q116.309 2.97852 112.305 2.97852ZM48.7793 4.19922L54.6875 4.19922L54.6875-74.707L48.7793-74.707ZM39.4043-55.127Q40.332-55.127 41.0156-55.835Q41.6992-56.543 41.6992-57.373Q41.6992-58.3008 41.0156-58.96Q40.332-59.6191 39.4043-59.6191L27.8809-59.6191Q26.9531-59.6191 26.2939-58.96Q25.6348-58.3008 25.6348-57.373Q25.6348-56.543 26.2939-55.835Q26.9531-55.127 27.8809-55.127ZM39.4043-42.2363Q40.332-42.2363 41.0156-42.8955Q41.6992-43.5547 41.6992-44.4824Q41.6992-45.3613 41.0156-46.0205Q40.332-46.6797 39.4043-46.6797L27.8809-46.6797Q26.9531-46.6797 26.2939-46.0205Q25.6348-45.3613 25.6348-44.4824Q25.6348-43.5547 26.2939-42.8955Q26.9531-42.2363 27.8809-42.2363ZM39.4043-29.3457Q40.332-29.3457 41.0156-30.0049Q41.6992-30.6641 41.6992-31.543Q41.6992-32.4707 41.0156-33.1299Q40.332-33.7891 39.4043-33.7891L27.8809-33.7891Q26.9531-33.7891 26.2939-33.1299Q25.6348-32.4707 25.6348-31.543Q25.6348-30.6641 26.2939-30.0049Q26.9531-29.3457 27.8809-29.3457Z"/>
  </g>
  <g id="Thin-M" transform="matrix(1 0 0 1 787.306 1126)">
   <path d="M25.5859 8.05664L112.549 8.05664Q119.092 8.05664 122.437 4.71191Q125.781 1.36719 125.781-5.07812L125.781-65.2344Q125.781-71.6309 122.437-75Q119.092-78.3691 112.549-78.3691L25.5859-78.3691Q19.1406-78.3691 15.7959-75.0488Q12.4512-71.7285 12.4512-65.2344L12.4512-5.07812Q12.4512 1.41602 15.7959 4.73633Q19.1406 8.05664 25.5859 8.05664ZM25.7324 4.44336Q20.9961 4.44336 18.5547 2.00195Q16.1133-0.439453 16.1133-5.22461L16.1133-65.0391Q16.1133-69.873 18.5547-72.29Q20.9961-74.707 25.7324-74.707L112.451-74.707Q117.09-74.707 119.604-72.29Q122.119-69.873 122.119-65.0391L122.119-5.22461Q122.119-0.439453 119.604 2.00195Q117.09 4.44336 112.451 4.44336ZM47.6562 5.22461L51.2207 5.22461L51.2207-75.9766L47.6562-75.9766ZM38.3789-56.4941Q39.0137-56.4941 39.502-56.958Q39.9902-57.4219 39.9902-58.0078Q39.9902-58.6914 39.502-59.1309Q39.0137-59.5703 38.3789-59.5703L25.4395-59.5703Q24.7559-59.5703 24.292-59.1309Q23.8281-58.6914 23.8281-58.0078Q23.8281-57.4219 24.292-56.958Q24.7559-56.4941 25.4395-56.4941ZM38.3789-43.1641Q39.0137-43.1641 39.502-43.6279Q39.9902-44.0918 39.9902-44.7266Q39.9902-45.3613 39.502-45.8252Q39.0137-46.2891 38.3789-46.2891L25.4395-46.2891Q24.7559-46.2891 24.292-45.8252Q23.8281-45.3613 23.8281-44.7266Q23.8281-44.0918 24.292-43.6279Q24.7559-43.1641 25.4395-43.1641ZM38.3789-29.9316Q39.0137-29.9316 39.502-30.3955Q39.9902-30.8594 39.9902-31.4941Q39.9902-32.1289 39.502-32.5928Q39.0137-33.0566 38.3789-33.0566L25.4395-33.0566Q24.7559-33.0566 24.292-32.5928Q23.8281-32.1289 23.8281-31.4941Q23.8281-30.8594 24.292-30.3955Q24.7559-29.9316 25.4395-29.9316Z"/>
  </g>
  <g id="Ultralight-M" transform="matrix(1 0 0 1 490.863 1126)">
   <path d="M24.9512 7.56836L112.646 7.56836Q118.848 7.56836 122.046 4.3457Q125.244 1.12305 125.244-4.98047L125.244-65.332Q125.244-71.3867 122.046-74.6338Q118.848-77.8809 112.646-77.8809L24.9512-77.8809Q18.8477-77.8809 15.6494-74.6826Q12.4512-71.4844 12.4512-65.332L12.4512-4.98047Q12.4512 1.2207 15.6494 4.39453Q18.8477 7.56836 24.9512 7.56836ZM25.0977 5.17578Q20.0195 5.17578 17.4316 2.58789Q14.8438 0 14.8438-5.07812L14.8438-65.1855Q14.8438-70.2637 17.4316-72.8516Q20.0195-75.4395 25.0977-75.4395L112.549-75.4395Q117.432-75.4395 120.117-72.8516Q122.803-70.2637 122.803-65.1855L122.803-5.07812Q122.803 0 120.117 2.58789Q117.432 5.17578 112.549 5.17578ZM47.0703 5.71289L49.4629 5.71289L49.4629-76.6602L47.0703-76.6602ZM37.7441-57.1289Q38.2812-57.1289 38.6719-57.4951Q39.0625-57.8613 39.0625-58.3496Q39.0625-58.8867 38.6719-59.2285Q38.2812-59.5703 37.7441-59.5703L24.1211-59.5703Q23.5352-59.5703 23.1934-59.2285Q22.8516-58.8867 22.8516-58.3496Q22.8516-57.8613 23.1934-57.4951Q23.5352-57.1289 24.1211-57.1289ZM37.7441-43.6523Q38.2812-43.6523 38.6719-43.9941Q39.0625-44.3359 39.0625-44.873Q39.0625-45.3613 38.6719-45.7275Q38.2812-46.0938 37.7441-46.0938L24.1211-46.0938Q23.5352-46.0938 23.1934-45.7275Q22.8516-45.3613 22.8516-44.873Q22.8516-44.3359 23.1934-43.9941Q23.5352-43.6523 24.1211-43.6523ZM37.7441-30.2246Q38.2812-30.2246 38.6719-30.5908Q39.0625-30.957 39.0625-31.4453Q39.0625-31.9336 38.6719-32.3242Q38.2812-32.7148 37.7441-32.7148L24.1211-32.7148Q23.5352-32.7148 23.1934-32.3242Q22.8516-31.9336 22.8516-31.4453Q22.8516-30.957 23.1934-30.5908Q23.5352-30.2246 24.1211-30.2246Z"/>
  </g>
  <g id="Black-S" transform="matrix(1 0 0 1 2877.35 696)">
   <path d="M25 2.92969L87.1094 2.92969Q94.2871 2.92969 98.3154-1.09863Q102.344-5.12695 102.344-12.3047L102.344-58.1055Q102.344-65.2832 98.3154-69.3115Q94.2871-73.3398 87.1094-73.3398L25-73.3398Q17.8223-73.3398 13.7939-69.3115Q9.76562-65.2832 9.76562-58.1055L9.76562-12.3047Q9.76562-5.12695 13.7939-1.09863Q17.8223 2.92969 25 2.92969ZM27.2461-11.2305Q25.5859-11.2305 24.7559-11.9873Q23.9258-12.7441 23.9258-14.5508L23.9258-55.8594Q23.9258-57.7148 24.7559-58.4473Q25.5859-59.1797 27.2461-59.1797L84.8633-59.1797Q86.5723-59.1797 87.3779-58.4473Q88.1836-57.7148 88.1836-55.8594L88.1836-14.5508Q88.1836-12.7441 87.3779-11.9873Q86.5723-11.2305 84.8633-11.2305ZM46.4844-9.91211L59.1797-9.91211L59.1797-61.084L46.4844-61.084ZM38.2812-46.0938Q40.0391-46.0938 41.2354-47.2412Q42.4316-48.3887 42.4316-49.9512Q42.4316-51.5137 41.2354-52.6855Q40.0391-53.8574 38.2812-53.8574L32.1289-53.8574Q30.3711-53.8574 29.1748-52.6855Q27.9785-51.5137 27.9785-49.9512Q27.9785-48.3887 29.1748-47.2412Q30.3711-46.0938 32.1289-46.0938ZM38.2812-34.1309Q40.0391-34.1309 41.2354-35.2783Q42.4316-36.4258 42.4316-37.9883Q42.4316-39.5508 41.2354-40.6982Q40.0391-41.8457 38.2812-41.8457L32.1289-41.8457Q30.3711-41.8457 29.1748-40.6982Q27.9785-39.5508 27.9785-37.9883Q27.9785-36.4258 29.1748-35.2783Q30.3711-34.1309 32.1289-34.1309ZM38.2812-22.1191Q40.0391-22.1191 41.2354-23.291Q42.4316-24.4629 42.4316-26.0254Q42.4316-27.5879 41.2354-28.7354Q40.0391-29.8828 38.2812-29.8828L32.1289-29.8828Q30.3711-29.8828 29.1748-28.7354Q27.9785-27.5879 27.9785-26.0254Q27.9785-24.4629 29.1748-23.291Q30.3711-22.1191 32.1289-22.1191Z"/>
  </g>
  <g id="Heavy-S" transform="matrix(1 0 0 1 2580.88 696)">
   <path d="M24.3652 2.34375L87.3047 2.34375Q94.2871 2.34375 98.0713-1.46484Q101.855-5.27344 101.855-12.207L101.855-58.2031Q101.855-65.1367 98.0713-68.9453Q94.2871-72.7539 87.3047-72.7539L24.3652-72.7539Q17.3828-72.7539 13.5742-68.9453Q9.76562-65.1367 9.76562-58.2031L9.76562-12.207Q9.76562-5.27344 13.5742-1.46484Q17.3828 2.34375 24.3652 2.34375ZM26.0742-10.1562Q24.1699-10.1562 23.2178-11.0596Q22.2656-11.9629 22.2656-14.0137L22.2656-56.3965Q22.2656-58.4473 23.2178-59.3506Q24.1699-60.2539 26.0742-60.2539L85.5469-60.2539Q87.5-60.2539 88.4521-59.3506Q89.4043-58.4473 89.4043-56.3965L89.4043-14.0137Q89.4043-11.9629 88.4521-11.0596Q87.5-10.1562 85.5469-10.1562ZM44.7754-8.83789L56.1035-8.83789L56.1035-62.0117L44.7754-62.0117ZM36.7676-46.9238Q38.3301-46.9238 39.4287-47.9736Q40.5273-49.0234 40.5273-50.4395Q40.5273-51.8555 39.4287-52.9053Q38.3301-53.9551 36.7676-53.9551L30.2734-53.9551Q28.7109-53.9551 27.6123-52.9053Q26.5137-51.8555 26.5137-50.4395Q26.5137-49.0234 27.6123-47.9736Q28.7109-46.9238 30.2734-46.9238ZM36.7676-35.4492Q38.3301-35.4492 39.4287-36.499Q40.5273-37.5488 40.5273-39.0137Q40.5273-40.3809 39.4287-41.4307Q38.3301-42.4805 36.7676-42.4805L30.2734-42.4805Q28.7109-42.4805 27.6123-41.4307Q26.5137-40.3809 26.5137-39.0137Q26.5137-37.5488 27.6123-36.499Q28.7109-35.4492 30.2734-35.4492ZM36.7676-23.9746Q38.3301-23.9746 39.4287-25.0488Q40.5273-26.123 40.5273-27.5391Q40.5273-28.9551 39.4287-30.0049Q38.3301-31.0547 36.7676-31.0547L30.2734-31.0547Q28.7109-31.0547 27.6123-30.0049Q26.5137-28.9551 26.5137-27.5391Q26.5137-26.123 27.6123-25.0488Q28.7109-23.9746 30.2734-23.9746Z"/>
  </g>
  <g id="Bold-S" transform="matrix(1 0 0 1 2284.41 696)">
   <path d="M23.6328 1.66016L87.5 1.66016Q94.2383 1.66016 97.8027-1.9043Q101.367-5.46875 101.367-12.1094L101.367-58.3008Q101.367-64.9902 97.8027-68.5303Q94.2383-72.0703 87.5-72.0703L23.6328-72.0703Q16.9434-72.0703 13.3545-68.5303Q9.76562-64.9902 9.76562-58.3008L9.76562-12.1094Q9.76562-5.46875 13.3545-1.9043Q16.9434 1.66016 23.6328 1.66016ZM24.8047-8.98438Q22.6562-8.98438 21.5088-10.0586Q20.3613-11.1328 20.3613-13.4277L20.3613-57.0312Q20.3613-59.3262 21.5088-60.4004Q22.6562-61.4746 24.8047-61.4746L86.3281-61.4746Q88.5254-61.4746 89.6484-60.4004Q90.7715-59.3262 90.7715-57.0312L90.7715-13.4277Q90.7715-11.1328 89.6484-10.0586Q88.5254-8.98438 86.3281-8.98438ZM42.9199-7.61719L52.6855-7.61719L52.6855-63.0371L42.9199-63.0371ZM35.1562-47.8516Q36.5234-47.8516 37.4756-48.8037Q38.4277-49.7559 38.4277-50.9766Q38.4277-52.2461 37.4756-53.1738Q36.5234-54.1016 35.1562-54.1016L28.2227-54.1016Q26.9043-54.1016 25.9277-53.1738Q24.9512-52.2461 24.9512-50.9766Q24.9512-49.7559 25.9277-48.8037Q26.9043-47.8516 28.2227-47.8516ZM35.1562-36.9629Q36.5234-36.9629 37.4756-37.915Q38.4277-38.8672 38.4277-40.1367Q38.4277-41.3574 37.4756-42.2852Q36.5234-43.2129 35.1562-43.2129L28.2227-43.2129Q26.9043-43.2129 25.9277-42.2852Q24.9512-41.3574 24.9512-40.1367Q24.9512-38.8672 25.9277-37.915Q26.9043-36.9629 28.2227-36.9629ZM35.1562-26.0742Q36.5234-26.0742 37.4756-27.0264Q38.4277-27.9785 38.4277-29.248Q38.4277-30.4688 37.4756-31.3965Q36.5234-32.3242 35.1562-32.3242L28.2227-32.3242Q26.9043-32.3242 25.9277-31.3965Q24.9512-30.4688 24.9512-29.248Q24.9512-27.9785 25.9277-27.0264Q26.9043-26.0742 28.2227-26.0742Z"/>
  </g>
  <g id="Semibold-S" transform="matrix(1 0 0 1 1987.9 696)">
   <path d="M23.0957 1.2207L87.6465 1.2207Q94.2383 1.2207 97.6074-2.17285Q100.977-5.56641 100.977-12.0605L100.977-58.3496Q100.977-64.8438 97.6074-68.2373Q94.2383-71.6309 87.6465-71.6309L23.0957-71.6309Q16.6016-71.6309 13.1836-68.2373Q9.76562-64.8438 9.76562-58.3496L9.76562-12.0605Q9.76562-5.56641 13.1836-2.17285Q16.6016 1.2207 23.0957 1.2207ZM23.877-8.1543Q21.5332-8.1543 20.2881-9.32617Q19.043-10.498 19.043-12.9883L19.043-57.4219Q19.043-59.8633 20.2881-61.0596Q21.5332-62.2559 23.877-62.2559L86.8652-62.2559Q89.209-62.2559 90.4541-61.0596Q91.6992-59.8633 91.6992-57.4219L91.6992-12.9883Q91.6992-10.498 90.4541-9.32617Q89.209-8.1543 86.8652-8.1543ZM41.6016-6.78711L50.3418-6.78711L50.3418-63.7207L41.6016-63.7207ZM33.9844-48.4375Q35.2051-48.4375 36.084-49.3408Q36.9629-50.2441 36.9629-51.3672Q36.9629-52.4902 36.084-53.3447Q35.2051-54.1992 33.9844-54.1992L26.7578-54.1992Q25.5859-54.1992 24.707-53.3447Q23.8281-52.4902 23.8281-51.3672Q23.8281-50.2441 24.707-49.3408Q25.5859-48.4375 26.7578-48.4375ZM33.9844-37.9883Q35.2051-37.9883 36.084-38.8672Q36.9629-39.7461 36.9629-40.8691Q36.9629-41.9922 36.084-42.8467Q35.2051-43.7012 33.9844-43.7012L26.7578-43.7012Q25.5859-43.7012 24.707-42.8467Q23.8281-41.9922 23.8281-40.8691Q23.8281-39.7461 24.707-38.8672Q25.5859-37.9883 26.7578-37.9883ZM33.9844-27.4902Q35.2051-27.4902 36.084-28.3691Q36.9629-29.248 36.9629-30.3711Q36.9629-31.4941 36.084-32.3486Q35.2051-33.2031 33.9844-33.2031L26.7578-33.2031Q25.5859-33.2031 24.707-32.3486Q23.8281-31.4941 23.8281-30.3711Q23.8281-29.248 24.707-28.3691Q25.5859-27.4902 26.7578-27.4902Z"/>
  </g>
  <g id="Medium-S" transform="matrix(1 0 0 1 1691.33 696)">
   <path d="M22.7051 0.830078L87.7441 0.830078Q94.1895 0.830078 97.4365-2.41699Q100.684-5.66406 100.684-11.9629L100.684-58.4473Q100.684-64.7461 97.4365-67.9932Q94.1895-71.2402 87.7441-71.2402L22.7051-71.2402Q16.3574-71.2402 13.0615-67.9932Q9.76562-64.7461 9.76562-58.4473L9.76562-11.9629Q9.76562-5.66406 13.0615-2.41699Q16.3574 0.830078 22.7051 0.830078ZM23.1934-7.51953Q20.752-7.51953 19.4092-8.78906Q18.0664-10.0586 18.0664-12.6465L18.0664-57.7637Q18.0664-60.3027 19.4092-61.5967Q20.752-62.8906 23.1934-62.8906L87.2559-62.8906Q89.7461-62.8906 91.0645-61.5967Q92.3828-60.3027 92.3828-57.7637L92.3828-12.6465Q92.3828-10.0586 91.0645-8.78906Q89.7461-7.51953 87.2559-7.51953ZM40.5762-6.15234L48.5352-6.15234L48.5352-64.2578L40.5762-64.2578ZM33.1055-48.9258Q34.1797-48.9258 34.9854-49.7559Q35.791-50.5859 35.791-51.6113Q35.791-52.6855 34.9854-53.4668Q34.1797-54.248 33.1055-54.248L25.6348-54.248Q24.5605-54.248 23.7549-53.4668Q22.9492-52.6855 22.9492-51.6113Q22.9492-50.5859 23.7549-49.7559Q24.5605-48.9258 25.6348-48.9258ZM33.1055-38.7695Q34.1797-38.7695 34.9854-39.5752Q35.791-40.3809 35.791-41.4551Q35.791-42.5293 34.9854-43.3105Q34.1797-44.0918 33.1055-44.0918L25.6348-44.0918Q24.5605-44.0918 23.7549-43.3105Q22.9492-42.5293 22.9492-41.4551Q22.9492-40.3809 23.7549-39.5752Q24.5605-38.7695 25.6348-38.7695ZM33.1055-28.6133Q34.1797-28.6133 34.9854-29.3945Q35.791-30.1758 35.791-31.25Q35.791-32.3242 34.9854-33.1055Q34.1797-33.8867 33.1055-33.8867L25.6348-33.8867Q24.5605-33.8867 23.7549-33.1055Q22.9492-32.3242 22.9492-31.25Q22.9492-30.1758 23.7549-29.3945Q24.5605-28.6133 25.6348-28.6133Z"/>
  </g>
  <g id="Regular-S" transform="matrix(1 0 0 1 1394.79 696)">
   <path d="M22.2168 0.390625L87.8906 0.390625Q94.1895 0.390625 97.2656-2.68555Q100.342-5.76172 100.342-11.9141L100.342-58.4961Q100.342-64.6484 97.2656-67.7246Q94.1895-70.8008 87.8906-70.8008L22.2168-70.8008Q16.0156-70.8008 12.8906-67.7246Q9.76562-64.6484 9.76562-58.4961L9.76562-11.9141Q9.76562-5.76172 12.8906-2.68555Q16.0156 0.390625 22.2168 0.390625ZM22.3145-6.68945Q19.6777-6.68945 18.2373-8.08105Q16.7969-9.47266 16.7969-12.2559L16.7969-58.1543Q16.7969-60.8887 18.2373-62.3047Q19.6777-63.7207 22.3145-63.7207L87.793-63.7207Q90.4297-63.7207 91.8701-62.3047Q93.3105-60.8887 93.3105-58.1543L93.3105-12.2559Q93.3105-9.47266 91.8701-8.08105Q90.4297-6.68945 87.793-6.68945ZM39.3066-5.32227L46.1914-5.32227L46.1914-64.9414L39.3066-64.9414ZM31.9824-49.5605Q32.9102-49.5605 33.6426-50.3174Q34.375-51.0742 34.375-52.002Q34.375-52.9297 33.6426-53.6377Q32.9102-54.3457 31.9824-54.3457L24.2676-54.3457Q23.3398-54.3457 22.6074-53.6377Q21.875-52.9297 21.875-52.002Q21.875-51.0742 22.6074-50.3174Q23.3398-49.5605 24.2676-49.5605ZM31.9824-39.7949Q32.9102-39.7949 33.6426-40.5273Q34.375-41.2598 34.375-42.2363Q34.375-43.1641 33.6426-43.8721Q32.9102-44.5801 31.9824-44.5801L24.2676-44.5801Q23.3398-44.5801 22.6074-43.8721Q21.875-43.1641 21.875-42.2363Q21.875-41.2598 22.6074-40.5273Q23.3398-39.7949 24.2676-39.7949ZM31.9824-30.0293Q32.9102-30.0293 33.6426-30.7373Q34.375-31.4453 34.375-32.4219Q34.375-33.3496 33.6426-34.0576Q32.9102-34.7656 31.9824-34.7656L24.2676-34.7656Q23.3398-34.7656 22.6074-34.0576Q21.875-33.3496 21.875-32.4219Q21.875-31.4453 22.6074-30.7373Q23.3398-30.0293 24.2676-30.0293Z"/>
  </g>
  <g id="Light-S" transform="matrix(1 0 0 1 1098.42 696)">
   <path d="M21.3867-0.244141L87.9883-0.244141Q93.8477-0.244141 96.7529-3.17383Q99.6582-6.10352 99.6582-11.8164L99.6582-58.5938Q99.6582-64.3066 96.7529-67.2119Q93.8477-70.1172 87.9883-70.1172L21.3867-70.1172Q15.625-70.1172 12.6953-67.2119Q9.76562-64.3066 9.76562-58.5938L9.76562-11.8164Q9.76562-6.05469 12.6953-3.14941Q15.625-0.244141 21.3867-0.244141ZM21.4844-5.71289Q18.457-5.71289 16.8213-7.2998Q15.1855-8.88672 15.1855-12.0605L15.1855-58.3008Q15.1855-61.4258 16.8213-63.0371Q18.457-64.6484 21.4844-64.6484L87.8906-64.6484Q90.918-64.6484 92.5781-63.0371Q94.2383-61.4258 94.2383-58.3008L94.2383-12.0605Q94.2383-8.88672 92.5781-7.2998Q90.918-5.71289 87.8906-5.71289ZM38.5742-4.63867L43.8965-4.63867L43.8965-65.7715L38.5742-65.7715ZM31.25-50.4395Q32.0312-50.4395 32.6172-51.0498Q33.2031-51.6602 33.2031-52.4414Q33.2031-53.1738 32.6172-53.7598Q32.0312-54.3457 31.25-54.3457L22.6074-54.3457Q21.8262-54.3457 21.2402-53.7598Q20.6543-53.1738 20.6543-52.4414Q20.6543-51.6602 21.2402-51.0498Q21.8262-50.4395 22.6074-50.4395ZM31.25-40.4297Q32.0312-40.4297 32.6172-41.0156Q33.2031-41.6016 33.2031-42.3828Q33.2031-43.1641 32.6172-43.75Q32.0312-44.3359 31.25-44.3359L22.6074-44.3359Q21.8262-44.3359 21.2402-43.75Q20.6543-43.1641 20.6543-42.3828Q20.6543-41.6016 21.2402-41.0156Q21.8262-40.4297 22.6074-40.4297ZM31.25-30.4199Q32.0312-30.4199 32.6172-31.0059Q33.2031-31.5918 33.2031-32.373Q33.2031-33.1543 32.6172-33.7158Q32.0312-34.2773 31.25-34.2773L22.6074-34.2773Q21.8262-34.2773 21.2402-33.7158Q20.6543-33.1543 20.6543-32.373Q20.6543-31.5918 21.2402-31.0059Q21.8262-30.4199 22.6074-30.4199Z"/>
  </g>
  <g id="Thin-S" transform="matrix(1 0 0 1 802.174 696)">
   <path d="M20.3125-1.12305L88.1836-1.12305Q93.4082-1.12305 96.0693-3.80859Q98.7305-6.49414 98.7305-11.6211L98.7305-58.6914Q98.7305-63.8184 96.0693-66.5283Q93.4082-69.2383 88.1836-69.2383L20.3125-69.2383Q15.0879-69.2383 12.4268-66.5771Q9.76562-63.916 9.76562-58.6914L9.76562-11.6211Q9.76562-6.44531 12.4268-3.78418Q15.0879-1.12305 20.3125-1.12305ZM20.4102-4.44336Q16.7969-4.44336 14.9414-6.29883Q13.0859-8.1543 13.0859-11.8164L13.0859-58.5449Q13.0859-62.207 14.9414-64.0625Q16.7969-65.918 20.4102-65.918L88.0859-65.918Q91.6016-65.918 93.5059-64.0625Q95.4102-62.207 95.4102-58.5449L95.4102-11.8164Q95.4102-8.1543 93.5059-6.29883Q91.6016-4.44336 88.0859-4.44336ZM37.5488-3.75977L40.8203-3.75977L40.8203-66.8945L37.5488-66.8945ZM30.2734-51.6113Q30.8105-51.6113 31.2256-52.0264Q31.6406-52.4414 31.6406-52.9785Q31.6406-53.5156 31.2256-53.9062Q30.8105-54.2969 30.2734-54.2969L20.3613-54.2969Q19.8242-54.2969 19.4092-53.9062Q18.9941-53.5156 18.9941-52.9785Q18.9941-52.4414 19.4092-52.0264Q19.8242-51.6113 20.3613-51.6113ZM30.2734-41.2598Q30.8105-41.2598 31.2256-41.6748Q31.6406-42.0898 31.6406-42.627Q31.6406-43.1641 31.2256-43.5791Q30.8105-43.9941 30.2734-43.9941L20.3613-43.9941Q19.8242-43.9941 19.4092-43.5791Q18.9941-43.1641 18.9941-42.627Q18.9941-42.0898 19.4092-41.6748Q19.8242-41.2598 20.3613-41.2598ZM30.2734-30.957Q30.8105-30.957 31.2256-31.3477Q31.6406-31.7383 31.6406-32.3242Q31.6406-32.8613 31.2256-33.252Q30.8105-33.6426 30.2734-33.6426L20.3613-33.6426Q19.8242-33.6426 19.4092-33.252Q18.9941-32.8613 18.9941-32.3242Q18.9941-31.7383 19.4092-31.3477Q19.8242-30.957 20.3613-30.957Z"/>
  </g>
  <g id="Ultralight-S" transform="matrix(1 0 0 1 505.707 696)">
   <path d="M19.7754-1.5625L88.2324-1.5625Q93.2129-1.5625 95.7275-4.15039Q98.2422-6.73828 98.2422-11.5723L98.2422-58.7891Q98.2422-63.623 95.7275-66.1865Q93.2129-68.75 88.2324-68.75L19.7754-68.75Q14.8438-68.75 12.3047-66.2109Q9.76562-63.6719 9.76562-58.7891L9.76562-11.5723Q9.76562-6.64062 12.3047-4.10156Q14.8438-1.5625 19.7754-1.5625ZM19.873-3.75977Q15.9668-3.75977 13.9648-5.76172Q11.9629-7.76367 11.9629-11.6699L11.9629-58.6426Q11.9629-62.5488 13.9648-64.5508Q15.9668-66.5527 19.873-66.5527L88.1348-66.5527Q91.9434-66.5527 93.9941-64.5508Q96.0449-62.5488 96.0449-58.6426L96.0449-11.6699Q96.0449-7.76367 93.9941-5.76172Q91.9434-3.75977 88.1348-3.75977ZM37.0605-3.27148L39.2578-3.27148L39.2578-67.4805L37.0605-67.4805ZM29.7852-52.1973Q30.1758-52.1973 30.5176-52.5146Q30.8594-52.832 30.8594-53.2715Q30.8594-53.7109 30.5176-54.0039Q30.1758-54.2969 29.7852-54.2969L19.2383-54.2969Q18.7988-54.2969 18.4814-54.0039Q18.1641-53.7109 18.1641-53.2715Q18.1641-52.832 18.4814-52.5146Q18.7988-52.1973 19.2383-52.1973ZM29.7852-41.6992Q30.1758-41.6992 30.5176-41.9922Q30.8594-42.2852 30.8594-42.7246Q30.8594-43.1641 30.5176-43.4814Q30.1758-43.7988 29.7852-43.7988L19.2383-43.7988Q18.7988-43.7988 18.4814-43.4814Q18.1641-43.1641 18.1641-42.7246Q18.1641-42.2852 18.4814-41.9922Q18.7988-41.6992 19.2383-41.6992ZM29.7852-31.25Q30.1758-31.25 30.5176-31.543Q30.8594-31.8359 30.8594-32.2754Q30.8594-32.7148 30.5176-33.0078Q30.1758-33.3008 29.7852-33.3008L19.2383-33.3008Q18.7988-33.3008 18.4814-33.0078Q18.1641-32.7148 18.1641-32.2754Q18.1641-31.8359 18.4814-31.543Q18.7988-31.25 19.2383-31.25Z"/>
  </g>
 </g>
</svg>
