<?xml version="1.0" encoding="UTF-8"?>
<!--Generator: Apple Native CoreSVG 175-->
<!DOCTYPE svg
PUBLIC "-//W3C//DTD SVG 1.1//EN"
       "http://www.w3.org/Graphics/SVG/1.1/DTD/svg11.dtd">
<svg version="1.1" xmlns="http://www.w3.org/2000/svg" xmlns:xlink="http://www.w3.org/1999/xlink" width="3300" height="2200">
 <!--glyph: "uni10010F.medium", point size: 100.0, font version: "17.0d12e1", template writer version: "65.1"-->
 <g id="Notes">
  <rect height="2200" id="artboard" style="fill:white;opacity:1" width="3300" x="0" y="0"/>
  <line style="fill:none;stroke:black;opacity:1;stroke-width:0.5;" x1="263" x2="3036" y1="292" y2="292"/>
  <text style="stroke:none;fill:black;font-family:sans-serif;font-size:13;font-weight:bold;" transform="matrix(1 0 0 1 263 322)">Weight/Scale Variations</text>
  <text style="stroke:none;fill:black;font-family:sans-serif;font-size:13;text-anchor:middle;" transform="matrix(1 0 0 1 559.711 322)">Ultralight</text>
  <text style="stroke:none;fill:black;font-family:sans-serif;font-size:13;text-anchor:middle;" transform="matrix(1 0 0 1 856.422 322)">Thin</text>
  <text style="stroke:none;fill:black;font-family:sans-serif;font-size:13;text-anchor:middle;" transform="matrix(1 0 0 1 1153.13 322)">Light</text>
  <text style="stroke:none;fill:black;font-family:sans-serif;font-size:13;text-anchor:middle;" transform="matrix(1 0 0 1 1449.84 322)">Regular</text>
  <text style="stroke:none;fill:black;font-family:sans-serif;font-size:13;text-anchor:middle;" transform="matrix(1 0 0 1 1746.56 322)">Medium</text>
  <text style="stroke:none;fill:black;font-family:sans-serif;font-size:13;text-anchor:middle;" transform="matrix(1 0 0 1 2043.27 322)">Semibold</text>
  <text style="stroke:none;fill:black;font-family:sans-serif;font-size:13;text-anchor:middle;" transform="matrix(1 0 0 1 2339.98 322)">Bold</text>
  <text style="stroke:none;fill:black;font-family:sans-serif;font-size:13;text-anchor:middle;" transform="matrix(1 0 0 1 2636.69 322)">Heavy</text>
  <text style="stroke:none;fill:black;font-family:sans-serif;font-size:13;text-anchor:middle;" transform="matrix(1 0 0 1 2933.4 322)">Black</text>
  <line style="fill:none;stroke:black;opacity:1;stroke-width:0.5;" x1="263" x2="3036" y1="1903" y2="1903"/>
  <g transform="matrix(1 0 0 1 263 1933)">
   <path d="M9.24805 0.830078Q10.8691 0.830078 12.2949 0.214844Q13.7207-0.400391 14.8096-1.49414Q15.8984-2.58789 16.5186-4.01367Q17.1387-5.43945 17.1387-7.05078Q17.1387-8.66211 16.5186-10.0879Q15.8984-11.5137 14.8047-12.6074Q13.7109-13.7012 12.2852-14.3164Q10.8594-14.9316 9.23828-14.9316Q7.62695-14.9316 6.20117-14.3164Q4.77539-13.7012 3.69141-12.6074Q2.60742-11.5137 1.9873-10.0879Q1.36719-8.66211 1.36719-7.05078Q1.36719-5.43945 1.9873-4.01367Q2.60742-2.58789 3.69629-1.49414Q4.78516-0.400391 6.21094 0.214844Q7.63672 0.830078 9.24805 0.830078ZM9.24805-0.654297Q7.91992-0.654297 6.7627-1.14746Q5.60547-1.64062 4.73145-2.51953Q3.85742-3.39844 3.36426-4.56055Q2.87109-5.72266 2.87109-7.05078Q2.87109-8.37891 3.35938-9.54102Q3.84766-10.7031 4.72168-11.582Q5.5957-12.4609 6.75293-12.9541Q7.91016-13.4473 9.23828-13.4473Q10.5762-13.4473 11.7334-12.9541Q12.8906-12.4609 13.7695-11.582Q14.6484-10.7031 15.1465-9.54102Q15.6445-8.37891 15.6445-7.05078Q15.6445-5.72266 15.1514-4.56055Q14.6582-3.39844 13.7842-2.51953Q12.9102-1.64062 11.748-1.14746Q10.5859-0.654297 9.24805-0.654297ZM5.6543-7.05078Q5.6543-6.72852 5.85938-6.52832Q6.06445-6.32812 6.40625-6.32812L8.51562-6.32812L8.51562-4.20898Q8.51562-3.88672 8.71094-3.67676Q8.90625-3.4668 9.23828-3.4668Q9.56055-3.4668 9.77051-3.67676Q9.98047-3.88672 9.98047-4.20898L9.98047-6.32812L12.0898-6.32812Q12.4219-6.32812 12.627-6.52832Q12.832-6.72852 12.832-7.05078Q12.832-7.38281 12.627-7.58789Q12.4219-7.79297 12.0898-7.79297L9.98047-7.79297L9.98047-9.90234Q9.98047-10.2344 9.77051-10.4443Q9.56055-10.6543 9.23828-10.6543Q8.90625-10.6543 8.71094-10.4443Q8.51562-10.2344 8.51562-9.90234L8.51562-7.79297L6.40625-7.79297Q6.06445-7.79297 5.85938-7.58789Q5.6543-7.38281 5.6543-7.05078Z"/>
  </g>
  <g transform="matrix(1 0 0 1 281.867 1933)">
   <path d="M11.709 2.91016Q13.75 2.91016 15.5518 2.12891Q17.3535 1.34766 18.7305-0.0292969Q20.1074-1.40625 20.8887-3.20801Q21.6699-5.00977 21.6699-7.05078Q21.6699-9.0918 20.8887-10.8936Q20.1074-12.6953 18.7305-14.0723Q17.3535-15.4492 15.5469-16.2305Q13.7402-17.0117 11.6992-17.0117Q9.6582-17.0117 7.85645-16.2305Q6.05469-15.4492 4.68262-14.0723Q3.31055-12.6953 2.5293-10.8936Q1.74805-9.0918 1.74805-7.05078Q1.74805-5.00977 2.5293-3.20801Q3.31055-1.40625 4.6875-0.0292969Q6.06445 1.34766 7.86621 2.12891Q9.66797 2.91016 11.709 2.91016ZM11.709 1.25Q9.98047 1.25 8.47656 0.605469Q6.97266-0.0390625 5.83496-1.17676Q4.69727-2.31445 4.05762-3.81836Q3.41797-5.32227 3.41797-7.05078Q3.41797-8.7793 4.05762-10.2832Q4.69727-11.7871 5.83008-12.9297Q6.96289-14.0723 8.4668-14.7119Q9.9707-15.3516 11.6992-15.3516Q13.4277-15.3516 14.9316-14.7119Q16.4355-14.0723 17.5781-12.9297Q18.7207-11.7871 19.3652-10.2832Q20.0098-8.7793 20.0098-7.05078Q20.0098-5.32227 19.3701-3.81836Q18.7305-2.31445 17.5928-1.17676Q16.4551-0.0390625 14.9463 0.605469Q13.4375 1.25 11.709 1.25ZM7.17773-7.05078Q7.17773-6.69922 7.41211-6.47461Q7.64648-6.25 8.01758-6.25L10.8887-6.25L10.8887-3.36914Q10.8887-2.99805 11.1133-2.76855Q11.3379-2.53906 11.6895-2.53906Q12.0605-2.53906 12.29-2.76855Q12.5195-2.99805 12.5195-3.36914L12.5195-6.25L15.4004-6.25Q15.7715-6.25 16.001-6.47461Q16.2305-6.69922 16.2305-7.05078Q16.2305-7.42188 16.001-7.65137Q15.7715-7.88086 15.4004-7.88086L12.5195-7.88086L12.5195-10.752Q12.5195-11.1328 12.29-11.3623Q12.0605-11.5918 11.6895-11.5918Q11.3379-11.5918 11.1133-11.3574Q10.8887-11.123 10.8887-10.752L10.8887-7.88086L8.01758-7.88086Q7.63672-7.88086 7.40723-7.65137Q7.17773-7.42188 7.17773-7.05078Z"/>
  </g>
  <g transform="matrix(1 0 0 1 305.646 1933)">
   <path d="M14.9707 5.66406Q17.0605 5.66406 18.96 5.01465Q20.8594 4.36523 22.4512 3.19336Q24.043 2.02148 25.2197 0.429688Q26.3965-1.16211 27.0459-3.06641Q27.6953-4.9707 27.6953-7.05078Q27.6953-9.14062 27.0459-11.04Q26.3965-12.9395 25.2197-14.5312Q24.043-16.123 22.4512-17.2998Q20.8594-18.4766 18.9551-19.126Q17.0508-19.7754 14.9609-19.7754Q12.8711-19.7754 10.9717-19.126Q9.07227-18.4766 7.48535-17.2998Q5.89844-16.123 4.72168-14.5312Q3.54492-12.9395 2.90039-11.04Q2.25586-9.14062 2.25586-7.05078Q2.25586-4.9707 2.90527-3.06641Q3.55469-1.16211 4.72656 0.429688Q5.89844 2.02148 7.49023 3.19336Q9.08203 4.36523 10.9814 5.01465Q12.8809 5.66406 14.9707 5.66406ZM14.9707 3.84766Q13.1641 3.84766 11.5283 3.2959Q9.89258 2.74414 8.53516 1.74805Q7.17773 0.751953 6.17676-0.610352Q5.17578-1.97266 4.62891-3.6084Q4.08203-5.24414 4.08203-7.05078Q4.08203-8.86719 4.62891-10.5029Q5.17578-12.1387 6.17188-13.501Q7.16797-14.8633 8.52539-15.8594Q9.88281-16.8555 11.5186-17.4023Q13.1543-17.9492 14.9609-17.9492Q16.7773-17.9492 18.4131-17.4023Q20.0488-16.8555 21.4111-15.8594Q22.7734-14.8633 23.7695-13.501Q24.7656-12.1387 25.3174-10.5029Q25.8691-8.86719 25.8691-7.05078Q25.8789-5.24414 25.332-3.6084Q24.7852-1.97266 23.7842-0.610352Q22.7832 0.751953 21.4209 1.74805Q20.0586 2.74414 18.4229 3.2959Q16.7871 3.84766 14.9707 3.84766ZM9.19922-7.05078Q9.19922-6.66992 9.45801-6.4209Q9.7168-6.17188 10.1172-6.17188L14.0625-6.17188L14.0625-2.2168Q14.0625-1.81641 14.3115-1.55762Q14.5605-1.29883 14.9512-1.29883Q15.3516-1.29883 15.6104-1.55273Q15.8691-1.80664 15.8691-2.2168L15.8691-6.17188L19.8242-6.17188Q20.2246-6.17188 20.4785-6.4209Q20.7324-6.66992 20.7324-7.05078Q20.7324-7.46094 20.4785-7.71484Q20.2246-7.96875 19.8242-7.96875L15.8691-7.96875L15.8691-11.9141Q15.8691-12.3242 15.6104-12.583Q15.3516-12.8418 14.9512-12.8418Q14.5605-12.8418 14.3115-12.583Q14.0625-12.3242 14.0625-11.9141L14.0625-7.96875L10.1172-7.96875Q9.70703-7.96875 9.45312-7.71484Q9.19922-7.46094 9.19922-7.05078Z"/>
  </g>
  <text style="stroke:none;fill:black;font-family:sans-serif;font-size:13;font-weight:bold;" transform="matrix(1 0 0 1 263 1953)">Design Variations</text>
  <text style="stroke:none;fill:black;font-family:sans-serif;font-size:13;" transform="matrix(1 0 0 1 263 1971)">Symbols are supported in up to nine weights and three scales.</text>
  <text style="stroke:none;fill:black;font-family:sans-serif;font-size:13;" transform="matrix(1 0 0 1 263 1989)">For optimal layout with text and other symbols, vertically align</text>
  <text style="stroke:none;fill:black;font-family:sans-serif;font-size:13;" transform="matrix(1 0 0 1 263 2007)">symbols with the adjacent text.</text>
  <line style="fill:none;stroke:#00AEEF;stroke-width:0.5;opacity:1.0;" x1="776" x2="776" y1="1919" y2="1933"/>
  <g transform="matrix(1 0 0 1 776 1933)">
   <path d="M3.31055 0.15625Q3.70117 0.15625 3.91602-0.00976562Q4.13086-0.175781 4.26758-0.585938L5.52734-4.0332L11.2891-4.0332L12.5488-0.585938Q12.6855-0.175781 12.9004-0.00976562Q13.1152 0.15625 13.4961 0.15625Q13.8867 0.15625 14.1162-0.0585938Q14.3457-0.273438 14.3457-0.644531Q14.3457-0.869141 14.2383-1.17188L9.6582-13.3691Q9.48242-13.8184 9.17969-14.043Q8.87695-14.2676 8.4082-14.2676Q7.5-14.2676 7.17773-13.3789L2.59766-1.16211Q2.49023-0.859375 2.49023-0.634766Q2.49023-0.263672 2.70996-0.0537109Q2.92969 0.15625 3.31055 0.15625ZM6.00586-5.51758L8.37891-12.0898L8.42773-12.0898L10.8008-5.51758Z"/>
  </g>
  <line style="fill:none;stroke:#00AEEF;stroke-width:0.5;opacity:1.0;" x1="793.197" x2="793.197" y1="1919" y2="1933"/>
  <text style="stroke:none;fill:black;font-family:sans-serif;font-size:13;font-weight:bold;" transform="matrix(1 0 0 1 776 1953)">Margins</text>
  <text style="stroke:none;fill:black;font-family:sans-serif;font-size:13;" transform="matrix(1 0 0 1 776 1971)">Leading and trailing margins on the left and right side of each symbol</text>
  <text style="stroke:none;fill:black;font-family:sans-serif;font-size:13;" transform="matrix(1 0 0 1 776 1989)">can be adjusted by modifying the x-location of the margin guidelines.</text>
  <text style="stroke:none;fill:black;font-family:sans-serif;font-size:13;" transform="matrix(1 0 0 1 776 2007)">Modifications are automatically applied proportionally to all</text>
  <text style="stroke:none;fill:black;font-family:sans-serif;font-size:13;" transform="matrix(1 0 0 1 776 2025)">scales and weights.</text>
  <g transform="matrix(1 0 0 1 1289 1933)">
   <path d="M2.8418 1.86523L4.54102 3.57422Q5.18555 4.22852 5.90332 4.17969Q6.62109 4.13086 7.31445 3.35938L18.0078-8.42773L17.041-9.4043L6.42578 2.27539Q6.16211 2.57812 5.89355 2.61719Q5.625 2.65625 5.27344 2.30469L4.10156 1.14258Q3.75 0.791016 3.79395 0.522461Q3.83789 0.253906 4.14062-0.0195312L15.6152-10.8203L14.6387-11.7871L3.04688-0.898438Q2.30469-0.214844 2.25098 0.498047Q2.19727 1.21094 2.8418 1.86523ZM9.25781-16.3281Q8.94531-16.0254 8.90625-15.6348Q8.86719-15.2441 9.04297-14.9512Q9.21875-14.6777 9.55566-14.541Q9.89258-14.4043 10.3809-14.5215Q11.4746-14.7754 12.5977-14.7314Q13.7207-14.6875 14.7949-13.9844L14.209-12.5293Q13.9551-11.9043 14.0674-11.4404Q14.1797-10.9766 14.5801-10.5664L16.875-8.25195Q17.2363-7.88086 17.5781-7.82227Q17.9199-7.76367 18.3398-7.8418L19.4043-8.03711L20.0684-7.36328L20.0293-6.80664Q20-6.43555 20.1221-6.12305Q20.2441-5.81055 20.6055-5.44922L21.3672-4.70703Q21.7285-4.3457 22.1533-4.33105Q22.5781-4.31641 22.9297-4.66797L25.8398-7.58789Q26.1914-7.93945 26.1816-8.35449Q26.1719-8.76953 25.8105-9.13086L25.0391-9.89258Q24.6875-10.2539 24.3799-10.3857Q24.0723-10.5176 23.7109-10.4883L23.1348-10.4395L22.4902-11.0742L22.7344-12.1973Q22.832-12.6172 22.6953-12.9834Q22.5586-13.3496 22.1191-13.7891L19.9219-15.9766Q18.6719-17.2168 17.2607-17.8369Q15.8496-18.457 14.4189-18.4814Q12.9883-18.5059 11.665-17.959Q10.3418-17.4121 9.25781-16.3281ZM10.752-15.957Q11.6602-16.6211 12.7002-16.9043Q13.7402-17.1875 14.8047-17.085Q15.8691-16.9824 16.8701-16.5137Q17.8711-16.0449 18.7012-15.2051L21.1328-12.793Q21.3086-12.6172 21.3525-12.4512Q21.3965-12.2852 21.3379-12.0312L21.0156-10.5469L22.5195-9.0625L23.5059-9.12109Q23.6914-9.13086 23.7891-9.09668Q23.8867-9.0625 24.0332-8.91602L24.6094-8.33984L22.168-5.89844L21.5918-6.47461Q21.4453-6.62109 21.4062-6.71875Q21.3672-6.81641 21.377-7.01172L21.4453-7.98828L19.9512-9.47266L18.4277-9.21875Q18.1836-9.16992 18.042-9.2041Q17.9004-9.23828 17.7148-9.41406L15.7129-11.416Q15.5176-11.5918 15.4932-11.7529Q15.4688-11.9141 15.5859-12.1875L16.4648-14.2773Q15.293-15.3711 13.8281-15.791Q12.3633-16.2109 10.8398-15.7617Q10.7227-15.7324 10.6885-15.8057Q10.6543-15.8789 10.752-15.957Z"/>
  </g>
  <text style="stroke:none;fill:black;font-family:sans-serif;font-size:13;font-weight:bold;" transform="matrix(1 0 0 1 1289 1953)">Exporting</text>
  <text style="stroke:none;fill:black;font-family:sans-serif;font-size:13;" transform="matrix(1 0 0 1 1289 1971)">Symbols should be outlined when exporting to ensure the</text>
  <text style="stroke:none;fill:black;font-family:sans-serif;font-size:13;" transform="matrix(1 0 0 1 1289 1989)">design is preserved when submitting to Xcode.</text>
  <text id="template-version" style="stroke:none;fill:black;font-family:sans-serif;font-size:13;text-anchor:end;" transform="matrix(1 0 0 1 3036 1933)">Template v.2.0</text>
  <text style="stroke:none;fill:black;font-family:sans-serif;font-size:13;text-anchor:end;" transform="matrix(1 0 0 1 3036 1951)">Requires Xcode 13 or greater</text>
  <text id="descriptive-name" style="stroke:none;fill:black;font-family:sans-serif;font-size:13;text-anchor:end;" transform="matrix(1 0 0 1 3036 1969)">Generated from arrow.up.arrow.down.square.fill</text>
  <text style="stroke:none;fill:black;font-family:sans-serif;font-size:13;text-anchor:end;" transform="matrix(1 0 0 1 3036 1987)">Typeset at 100 points</text>
  <text style="stroke:none;fill:black;font-family:sans-serif;font-size:13;" transform="matrix(1 0 0 1 263 726)">Small</text>
  <text style="stroke:none;fill:black;font-family:sans-serif;font-size:13;" transform="matrix(1 0 0 1 263 1156)">Medium</text>
  <text style="stroke:none;fill:black;font-family:sans-serif;font-size:13;" transform="matrix(1 0 0 1 263 1586)">Large</text>
 </g>
 <g id="Guides">
  <g id="H-reference" style="fill:#27AAE1;stroke:none;" transform="matrix(1 0 0 1 339 696)">
   <path d="M0.993347 0L3.6377 0L29.3282-67.1326L30.0301-67.1326L30.0301-70.459L28.1227-70.459ZM11.6882-24.4797L46.9818-24.4797L46.2311-26.7288L12.4382-26.7288ZM55.1193 0L57.7637 0L30.6381-70.459L29.4327-70.459L29.4327-67.1326Z"/>
  </g>
  <line id="Baseline-S" style="fill:none;stroke:#27AAE1;opacity:1;stroke-width:0.5;" x1="263" x2="3036" y1="696" y2="696"/>
  <line id="Capline-S" style="fill:none;stroke:#27AAE1;opacity:1;stroke-width:0.5;" x1="263" x2="3036" y1="625.541" y2="625.541"/>
  <g id="H-reference" style="fill:#27AAE1;stroke:none;" transform="matrix(1 0 0 1 339 1126)">
   <path d="M0.993347 0L3.6377 0L29.3282-67.1326L30.0301-67.1326L30.0301-70.459L28.1227-70.459ZM11.6882-24.4797L46.9818-24.4797L46.2311-26.7288L12.4382-26.7288ZM55.1193 0L57.7637 0L30.6381-70.459L29.4327-70.459L29.4327-67.1326Z"/>
  </g>
  <line id="Baseline-M" style="fill:none;stroke:#27AAE1;opacity:1;stroke-width:0.5;" x1="263" x2="3036" y1="1126" y2="1126"/>
  <line id="Capline-M" style="fill:none;stroke:#27AAE1;opacity:1;stroke-width:0.5;" x1="263" x2="3036" y1="1055.54" y2="1055.54"/>
  <g id="H-reference" style="fill:#27AAE1;stroke:none;" transform="matrix(1 0 0 1 339 1556)">
   <path d="M0.993347 0L3.6377 0L29.3282-67.1326L30.0301-67.1326L30.0301-70.459L28.1227-70.459ZM11.6882-24.4797L46.9818-24.4797L46.2311-26.7288L12.4382-26.7288ZM55.1193 0L57.7637 0L30.6381-70.459L29.4327-70.459L29.4327-67.1326Z"/>
  </g>
  <line id="Baseline-L" style="fill:none;stroke:#27AAE1;opacity:1;stroke-width:0.5;" x1="263" x2="3036" y1="1556" y2="1556"/>
  <line id="Capline-L" style="fill:none;stroke:#27AAE1;opacity:1;stroke-width:0.5;" x1="263" x2="3036" y1="1485.54" y2="1485.54"/>
  <line id="left-margin" style="fill:none;stroke:#00AEEF;stroke-width:0.5;opacity:1.0;" x1="1392.45" x2="1392.45" y1="1030.79" y2="1150.12"/>
  <line id="right-margin" style="fill:none;stroke:#00AEEF;stroke-width:0.5;opacity:1.0;" x1="1507.24" x2="1507.24" y1="1030.79" y2="1150.12"/>
 </g>
 <g id="Symbols">
  <g id="Black-L" transform="matrix(1 0 0 1 2855.62 1556)">
   <path d="M39.9902 26.5137L115.576 26.5137Q127.002 26.5137 133.252 20.3125Q139.502 14.1113 139.502 2.68555L139.502-73.0957Q139.502-84.4727 133.252-90.6738Q127.002-96.875 115.576-96.875L39.9902-96.875Q28.5645-96.875 22.3145-90.6738Q16.0645-84.4727 16.0645-73.0957L16.0645 2.68555Q16.0645 14.1113 22.3145 20.3125Q28.5645 26.5137 39.9902 26.5137ZM55.4688-65.4785Q57.1777-67.334 59.5459-67.2852Q61.9141-67.2363 63.5742-65.4785L79.0527-49.5117Q79.7852-48.7305 80.2979-47.7051Q80.8105-46.6797 80.8105-45.6055Q80.8105-43.2129 79.2725-41.6992Q77.7344-40.1855 75.3418-40.1855Q72.9492-40.1855 71.4844-41.748L65.3809-48.0957L65.0391-48.584L65.0879-45.0684L65.0879-8.69141Q65.0879-6.34766 63.5254-4.78516Q61.9629-3.22266 59.5215-3.22266Q57.2266-3.22266 55.6152-4.78516Q54.0039-6.34766 54.0039-8.69141L54.0039-45.0684L54.0039-48.584L53.6621-48.0957L47.5586-41.748Q46.0938-40.1855 43.7988-40.1855Q41.4062-40.1855 39.8682-41.7236Q38.3301-43.2617 38.3301-45.6055Q38.3301-47.7539 39.9902-49.5117ZM101.367-5.0293Q99.6582-3.27148 97.2656-3.2959Q94.873-3.32031 93.2129-5.0293L77.7344-21.0449Q76.0742-22.8027 76.0742-24.9023Q76.0742-27.2949 77.5879-28.833Q79.1016-30.3711 81.4941-30.3711Q83.8867-30.3711 85.3516-28.7598L91.4062-22.4609L91.7969-21.9727L91.748-25.4395L91.748-61.8652Q91.748-64.1602 93.3105-65.7471Q94.873-67.334 97.2656-67.334Q99.6094-67.334 101.221-65.7471Q102.832-64.1602 102.832-61.8652L102.832-25.4883L102.783-22.0215L103.174-22.4609L109.229-28.7598Q110.742-30.3711 113.037-30.3711Q115.43-30.3711 116.968-28.833Q118.506-27.2949 118.506-24.9023Q118.506-22.7539 116.895-21.0449Z"/>
  </g>
  <g id="Heavy-L" transform="matrix(1 0 0 1 2559.93 1556)">
   <path d="M38.8184 25.4883L114.697 25.4883Q125.684 25.4883 131.567 19.6289Q137.451 13.7695 137.451 2.88086L137.451-73.2422Q137.451-84.1309 131.567-89.9902Q125.684-95.8496 114.697-95.8496L38.8184-95.8496Q27.8809-95.8496 21.9727-89.9902Q16.0645-84.1309 16.0645-73.2422L16.0645 2.88086Q16.0645 13.8184 21.9727 19.6533Q27.8809 25.4883 38.8184 25.4883ZM54.3945-65.5273Q56.0059-67.2363 58.1787-67.1875Q60.3516-67.1387 61.8652-65.5273L77.5879-49.4141Q78.2715-48.6816 78.7354-47.7295Q79.1992-46.7773 79.1992-45.8008Q79.1992-43.6035 77.7832-42.2119Q76.3672-40.8203 74.1699-40.8203Q71.9727-40.8203 70.6055-42.2363L64.209-48.877L63.1836-50.0488L63.2812-46.4844L63.2812-8.30078Q63.2812-6.15234 61.8408-4.73633Q60.4004-3.32031 58.1543-3.32031Q56.0059-3.32031 54.541-4.73633Q53.0762-6.15234 53.0762-8.30078L53.0762-46.4844L53.0762-50.0488L52.0508-48.877L45.7031-42.2852Q44.2871-40.8203 42.1875-40.8203Q39.9902-40.8203 38.5742-42.2363Q37.1582-43.6523 37.1582-45.8008Q37.1582-47.7539 38.7207-49.4141ZM100.146-4.93164Q98.584-3.32031 96.3623-3.34473Q94.1406-3.36914 92.627-4.93164L76.9043-21.0938Q75.3906-22.7539 75.3906-24.707Q75.3906-26.9043 76.7822-28.3203Q78.1738-29.7363 80.3711-29.7363Q82.5684-29.7363 83.9355-28.2227L90.2832-21.6797L91.3574-20.5078L91.2598-23.9746L91.2598-62.207Q91.2598-64.3066 92.7002-65.7715Q94.1406-67.2363 96.3867-67.2363Q98.5352-67.2363 100-65.7715Q101.465-64.3066 101.465-62.207L101.465-24.0234L101.416-20.5566L102.49-21.6797L108.838-28.2227Q110.254-29.7363 112.354-29.7363Q114.551-29.7363 115.967-28.3203Q117.383-26.9043 117.383-24.707Q117.383-22.7539 115.869-21.0938Z"/>
  </g>
  <g id="Bold-L" transform="matrix(1 0 0 1 2264.36 1556)">
   <path d="M37.5488 24.3652L113.721 24.3652Q124.17 24.3652 129.688 18.8965Q135.205 13.4277 135.205 3.07617L135.205-73.4375Q135.205-83.7891 129.688-89.2578Q124.17-94.7266 113.721-94.7266L37.5488-94.7266Q27.0996-94.7266 21.582-89.2578Q16.0645-83.7891 16.0645-73.4375L16.0645 3.07617Q16.0645 13.4766 21.582 18.9209Q27.0996 24.3652 37.5488 24.3652ZM53.2227-65.625Q54.6875-67.1387 56.6406-67.0898Q58.5938-67.041 59.9609-65.625L75.9277-49.3164Q76.5625-48.6328 76.9775-47.7783Q77.3926-46.9238 77.3926-45.9961Q77.3926-44.043 76.123-42.7734Q74.8535-41.5039 72.8516-41.5039Q70.8984-41.5039 69.6289-42.8223L62.9395-49.707L61.1328-51.709L61.2305-48.0957L61.2305-7.91016Q61.2305-6.00586 59.9365-4.71191Q58.6426-3.41797 56.5918-3.41797Q54.6875-3.41797 53.3447-4.71191Q52.002-6.00586 52.002-7.91016L52.002-48.0469L52.0508-51.709L50.293-49.707L43.6035-42.8711Q42.2852-41.5039 40.4297-41.5039Q38.4277-41.5039 37.1338-42.7734Q35.8398-44.043 35.8398-45.9961Q35.8398-47.7051 37.2559-49.3164ZM98.7793-4.83398Q97.3633-3.41797 95.3613-3.44238Q93.3594-3.4668 91.9922-4.83398L76.0254-21.1914Q74.6582-22.7051 74.6582-24.5117Q74.6582-26.4648 75.9033-27.7344Q77.1484-29.0039 79.1504-29.0039Q81.1523-29.0039 82.373-27.6855L89.0137-20.8496L90.8691-18.8477L90.7715-22.4121L90.7715-62.5977Q90.7715-64.502 92.0654-65.8203Q93.3594-67.1387 95.3613-67.1387Q97.3145-67.1387 98.6572-65.8203Q100-64.502 100-62.5977L100-22.4609L99.9023-18.8965L101.709-20.8496L108.398-27.6855Q109.717-29.0039 111.572-29.0039Q113.574-29.0039 114.868-27.7344Q116.162-26.4648 116.162-24.5117Q116.162-22.7051 114.746-21.1914Z"/>
  </g>
  <g id="Semibold-L" transform="matrix(1 0 0 1 1968.43 1556)">
   <path d="M36.6211 23.584L112.988 23.584Q123.145 23.584 128.369 18.3838Q133.594 13.1836 133.594 3.17383L133.594-73.5352Q133.594-83.4961 128.369-88.6963Q123.145-93.8965 112.988-93.8965L36.6211-93.8965Q26.5625-93.8965 21.3135-88.7207Q16.0645-83.5449 16.0645-73.5352L16.0645 3.17383Q16.0645 13.2324 21.3135 18.4082Q26.5625 23.584 36.6211 23.584ZM52.3926-65.6738Q53.7109-67.0898 55.5176-67.041Q57.3242-66.9922 58.6426-65.6738L74.7559-49.2188Q75.3906-48.584 75.7324-47.7783Q76.0742-46.9727 76.0742-46.1426Q76.0742-44.3359 74.9023-43.1396Q73.7305-41.9434 71.9238-41.9434Q70.1172-41.9434 68.8965-43.1641L62.0117-50.293L59.668-52.832L59.8145-49.1699L59.8145-7.61719Q59.8145-5.85938 58.5938-4.66309Q57.373-3.4668 55.5176-3.4668Q53.7109-3.4668 52.4902-4.66309Q51.2695-5.85938 51.2695-7.61719L51.2695-49.1211L51.3184-52.832L49.0234-50.293L42.0898-43.2617Q40.8691-41.9434 39.1602-41.9434Q37.3047-41.9434 36.1084-43.1396Q34.9121-44.3359 34.9121-46.1426Q34.9121-47.7051 36.2305-49.2188ZM97.8027-4.78516Q96.4844-3.4668 94.6289-3.4668Q92.7734-3.4668 91.5039-4.78516L75.3418-21.2402Q74.0723-22.6562 74.0723-24.3164Q74.0723-26.1719 75.2197-27.3438Q76.3672-28.5156 78.2227-28.5156Q80.0781-28.5156 81.25-27.2461L88.1348-20.2148L90.4785-17.6758L90.3809-21.2891L90.3809-62.8418Q90.3809-64.6484 91.5771-65.8447Q92.7734-67.041 94.6289-67.041Q96.4355-67.041 97.6807-65.8447Q98.9258-64.6484 98.9258-62.8418L98.9258-21.3379L98.8281-17.7246L101.172-20.2148L108.057-27.2461Q109.326-28.5156 111.035-28.5156Q112.891-28.5156 114.062-27.3438Q115.234-26.1719 115.234-24.3164Q115.234-22.7051 113.916-21.2402Z"/>
  </g>
  <g id="Medium-L" transform="matrix(1 0 0 1 1672.32 1556)">
   <path d="M35.9375 22.998L112.5 22.998Q122.363 22.998 127.393 17.9932Q132.422 12.9883 132.422 3.27148L132.422-73.6328Q132.422-83.3008 127.393-88.3057Q122.363-93.3105 112.5-93.3105L35.9375-93.3105Q26.1719-93.3105 21.1182-88.3301Q16.0645-83.3496 16.0645-73.6328L16.0645 3.27148Q16.0645 13.0371 21.1182 18.0176Q26.1719 22.998 35.9375 22.998ZM51.7578-65.7227Q53.0273-66.9922 54.7119-66.9434Q56.3965-66.8945 57.6172-65.7227L73.9258-49.1699Q74.4629-48.584 74.8047-47.8027Q75.1465-47.0215 75.1465-46.2402Q75.1465-44.5312 74.0479-43.4082Q72.9492-42.2852 71.2402-42.2852Q69.5312-42.2852 68.4082-43.457L61.3281-50.7324L58.5938-53.6621L58.7402-50L58.7402-7.42188Q58.7402-5.76172 57.5928-4.63867Q56.4453-3.51562 54.6875-3.51562Q53.0273-3.51562 51.8555-4.63867Q50.6836-5.76172 50.6836-7.42188L50.6836-49.9512L50.7812-53.6621L48.0957-50.7324L41.0156-43.5547Q39.8438-42.2852 38.2324-42.2852Q36.5234-42.2852 35.376-43.4082Q34.2285-44.5312 34.2285-46.2402Q34.2285-47.6562 35.498-49.1699ZM97.1191-4.6875Q95.8984-3.51562 94.1162-3.51562Q92.334-3.51562 91.1621-4.6875L74.8535-21.2891Q73.6816-22.6074 73.6816-24.2188Q73.6816-25.9277 74.7559-27.0264Q75.8301-28.125 77.5879-28.125Q79.3457-28.125 80.4688-26.9531L87.4512-19.7754L90.2344-16.7969L90.0879-20.4102L90.0879-63.0371Q90.0879-64.6973 91.2354-65.8447Q92.3828-66.9922 94.1406-66.9922Q95.8496-66.9922 96.9971-65.8447Q98.1445-64.6973 98.1445-63.0371L98.1445-20.459L98.0469-16.8457L100.732-19.7754L107.812-26.9531Q109.033-28.125 110.596-28.125Q112.354-28.125 113.477-27.0264Q114.6-25.9277 114.6-24.2188Q114.6-22.6562 113.33-21.2891Z"/>
  </g>
  <g id="Regular-L" transform="matrix(1 0 0 1 1376.38 1556)">
   <path d="M35.0586 22.2168L111.816 22.2168Q121.338 22.2168 126.099 17.4805Q130.859 12.7441 130.859 3.41797L130.859-73.7305Q130.859-83.0566 126.099-87.793Q121.338-92.5293 111.816-92.5293L35.0586-92.5293Q25.6348-92.5293 20.8496-87.8174Q16.0645-83.1055 16.0645-73.7305L16.0645 3.41797Q16.0645 12.793 20.8496 17.5049Q25.6348 22.2168 35.0586 22.2168ZM50.9277-65.7715Q52.0996-66.9434 53.6377-66.8945Q55.1758-66.8457 56.2988-65.7715L72.7539-49.0723Q73.291-48.5352 73.584-47.8271Q73.877-47.1191 73.877-46.3867Q73.877-44.8242 72.876-43.7988Q71.875-42.7734 70.3125-42.7734Q68.75-42.7734 67.6758-43.8477L60.4004-51.3184L57.1777-54.7852L57.3242-51.0742L57.3242-7.12891Q57.3242-5.61523 56.2744-4.58984Q55.2246-3.56445 53.6133-3.56445Q52.0508-3.56445 51.001-4.58984Q49.9512-5.61523 49.9512-7.12891L49.9512-51.0254L50.0488-54.7852L46.8262-51.3184L39.5508-43.9453Q38.4277-42.7734 36.9629-42.7734Q35.4004-42.7734 34.3506-43.7988Q33.3008-44.8242 33.3008-46.3867Q33.3008-47.6562 34.4727-49.0723ZM96.1426-4.63867Q95.0195-3.56445 93.3838-3.56445Q91.748-3.56445 90.6738-4.63867L74.2188-21.3379Q73.1445-22.5586 73.1445-24.0723Q73.1445-25.6348 74.1211-26.6357Q75.0977-27.6367 76.709-27.6367Q78.3203-27.6367 79.3457-26.5625L86.5723-19.1895L89.8438-15.6738L89.6973-19.3359L89.6973-63.2812Q89.6973-64.8438 90.7471-65.8691Q91.7969-66.8945 93.4082-66.8945Q94.9707-66.8945 96.0205-65.8691Q97.0703-64.8438 97.0703-63.2812L97.0703-19.3848L96.9727-15.7227L100.195-19.1895L107.471-26.5625Q108.643-27.6367 110.059-27.6367Q111.67-27.6367 112.695-26.6357Q113.721-25.6348 113.721-24.0723Q113.721-22.6562 112.5-21.3379Z"/>
  </g>
  <g id="Light-L" transform="matrix(1 0 0 1 1080.5 1556)">
   <path d="M34.0332 21.4355L111.182 21.4355Q120.117 21.4355 124.658 16.8945Q129.199 12.3535 129.199 3.56445L129.199-73.8281Q129.199-82.6172 124.658-87.1582Q120.117-91.6992 111.182-91.6992L34.0332-91.6992Q25.1465-91.6992 20.6055-87.207Q16.0645-82.7148 16.0645-73.8281L16.0645 3.56445Q16.0645 12.4023 20.6055 16.9189Q25.1465 21.4355 34.0332 21.4355ZM51.0254-66.0645Q51.9531-66.9922 53.1494-66.9434Q54.3457-66.8945 55.2246-66.0645L72.4121-48.8281Q72.8516-48.3887 73.0713-47.8271Q73.291-47.2656 73.291-46.6309Q73.291-45.4102 72.4854-44.6045Q71.6797-43.7988 70.459-43.7988Q69.2383-43.7988 68.3105-44.6777L60.2539-52.8809L55.9082-57.4219L56.0547-52.8809L56.0547-6.44531Q56.0547-5.22461 55.2246-4.41895Q54.3945-3.61328 53.1738-3.61328Q51.9531-3.61328 51.0986-4.41895Q50.2441-5.22461 50.2441-6.44531L50.2441-52.8809L50.3418-57.4219L45.9961-52.8809L37.9395-44.7754Q37.0117-43.7988 35.8398-43.7988Q34.6191-43.7988 33.7891-44.6045Q32.959-45.4102 32.959-46.6309Q32.959-47.7051 33.8867-48.8281ZM94.3848-4.44336Q93.5059-3.61328 92.2363-3.61328Q90.9668-3.61328 90.0879-4.44336L72.9492-21.6797Q72.0703-22.6074 72.0703-23.9258Q72.0703-25.0977 72.8516-25.9033Q73.6328-26.709 74.9023-26.709Q76.2207-26.709 77.0508-25.8301L85.0586-17.6758L89.4531-13.0859L89.3066-17.5781L89.3066-64.0625Q89.3066-65.2832 90.1367-66.0889Q90.9668-66.8945 92.2363-66.8945Q93.457-66.8945 94.2871-66.0889Q95.1172-65.2832 95.1172-64.0625L95.1172-17.627L95.0195-13.1348L99.3652-17.6758L107.422-25.8301Q108.398-26.709 109.57-26.709Q110.791-26.709 111.597-25.9033Q112.402-25.0977 112.402-23.9258Q112.402-22.7051 111.426-21.6797Z"/>
  </g>
  <g id="Thin-L" transform="matrix(1 0 0 1 784.894 1556)">
   <path d="M32.666 20.3613L110.352 20.3613Q118.506 20.3613 122.754 16.0889Q127.002 11.8164 127.002 3.75977L127.002-73.9746Q127.002-82.0312 122.754-86.3037Q118.506-90.5762 110.352-90.5762L32.666-90.5762Q24.5117-90.5762 20.2881-86.377Q16.0645-82.1777 16.0645-73.9746L16.0645 3.75977Q16.0645 11.9141 20.2881 16.1377Q24.5117 20.3613 32.666 20.3613ZM51.123-66.4551Q51.709-66.9922 52.4658-66.9678Q53.2227-66.9434 53.7598-66.4551L71.875-48.4863Q72.2168-48.1445 72.3389-47.7783Q72.4609-47.4121 72.4609-46.9727Q72.4609-46.1914 71.9238-45.6543Q71.3867-45.1172 70.6543-45.1172Q69.8242-45.1172 69.1406-45.8008L60.0586-54.8828L54.1992-60.8887L54.3457-55.2734L54.3457-5.51758Q54.3457-4.73633 53.833-4.1748Q53.3203-3.61328 52.5391-3.61328Q51.7578-3.61328 51.1719-4.15039Q50.5859-4.6875 50.5859-5.51758L50.5859-55.2734L50.7324-60.8887L44.873-54.8828L35.791-45.8496Q35.1074-45.1172 34.2773-45.1172Q33.5449-45.1172 33.0078-45.6543Q32.4707-46.1914 32.4707-46.9727Q32.4707-47.8027 33.1055-48.4863ZM91.9922-4.15039Q91.4551-3.61328 90.6738-3.61328Q89.8926-3.61328 89.3066-4.15039L71.2402-22.1191Q70.6543-22.7051 70.6543-23.6816Q70.6543-24.4629 71.167-24.9512Q71.6797-25.4395 72.4609-25.4395Q73.3887-25.4395 74.0234-24.8535L83.0566-15.7227L88.9648-9.7168L88.7695-15.2832L88.7695-65.0879Q88.7695-65.8691 89.2822-66.4062Q89.7949-66.9434 90.625-66.9434Q91.3574-66.9434 91.9434-66.4307Q92.5293-65.918 92.5293-65.0879L92.5293-15.2832L92.3828-9.7168L98.291-15.7227L107.324-24.8535Q108.105-25.4395 108.838-25.4395Q109.57-25.4395 110.107-24.9268Q110.645-24.4141 110.645-23.6816Q110.645-22.8027 110.01-22.1191Z"/>
  </g>
  <g id="Ultralight-L" transform="matrix(1 0 0 1 488.747 1556)">
   <path d="M31.9824 19.8242L109.961 19.8242Q117.725 19.8242 121.802 15.6738Q125.879 11.5234 125.879 3.85742L125.879-74.0723Q125.879-81.7383 121.802-85.8643Q117.725-89.9902 109.961-89.9902L31.9824-89.9902Q24.1699-89.9902 20.1172-85.9375Q16.0645-81.8848 16.0645-74.0723L16.0645 3.85742Q16.0645 11.6699 20.1172 15.7471Q24.1699 19.8242 31.9824 19.8242ZM51.1719-66.6504Q51.5625-67.041 52.0996-67.0166Q52.6367-66.9922 53.0273-66.6504L71.6309-48.291Q71.875-48.0469 71.9482-47.7783Q72.0215-47.5098 72.0215-47.1191Q72.0215-46.582 71.6309-46.1914Q71.2402-45.8008 70.752-45.8008Q70.1172-45.8008 69.5312-46.3867L59.9609-55.957L53.3203-62.6953L53.4668-56.543L53.4668-5.0293Q53.4668-4.49219 53.1006-4.07715Q52.7344-3.66211 52.1973-3.66211Q51.6602-3.66211 51.2207-4.05273Q50.7812-4.44336 50.7812-5.0293L50.7812-56.543L50.9277-62.6953L44.2871-55.957L34.7168-46.3867Q34.1309-45.8008 33.4961-45.8008Q33.0078-45.8008 32.6172-46.1914Q32.2266-46.582 32.2266-47.1191Q32.2266-47.8516 32.7148-48.291ZM90.8203-4.00391Q90.3809-3.66211 89.8682-3.66211Q89.3555-3.66211 88.916-4.00391L70.3613-22.3145Q69.9219-22.7539 69.9219-23.584Q69.9219-24.0723 70.2881-24.4385Q70.6543-24.8047 71.2402-24.8047Q71.9238-24.8047 72.4609-24.3164L82.0312-14.6973L88.6719-7.95898L88.4766-14.1113L88.4766-65.5762Q88.4766-66.1621 88.8428-66.5527Q89.209-66.9434 89.7949-66.9434Q90.332-66.9434 90.7715-66.5771Q91.2109-66.2109 91.2109-65.5762L91.2109-14.1113L91.0156-7.95898L97.7051-14.6973L107.275-24.3164Q107.91-24.8047 108.496-24.8047Q108.984-24.8047 109.351-24.4141Q109.717-24.0234 109.717-23.584Q109.717-22.8516 109.277-22.3145Z"/>
  </g>
  <g id="Black-M" transform="matrix(1 0 0 1 2872.54 1126)">
   <path d="M31.5918 13.2324L90.1367 13.2324Q99.1699 13.2324 104.224 8.17871Q109.277 3.125 109.277-5.9082L109.277-64.4531Q109.277-73.5352 104.224-78.5645Q99.1699-83.5938 90.1367-83.5938L31.5918-83.5938Q22.5586-83.5938 17.5049-78.5645Q12.4512-73.5352 12.4512-64.4531L12.4512-5.9082Q12.4512 3.125 17.5049 8.17871Q22.5586 13.2324 31.5918 13.2324ZM43.9453-58.7402Q45.2637-60.2051 47.168-60.1562Q49.0723-60.1074 50.3906-58.7402L62.4023-46.2891Q63.8184-44.873 63.8184-43.2129Q63.8184-41.3086 62.5977-40.1123Q61.377-38.916 59.4727-38.916Q57.5195-38.916 56.3965-40.1367L51.6602-45.1172L51.5625-45.2148L51.5625-42.2363L51.5625-14.7461Q51.5625-12.8906 50.3174-11.6211Q49.0723-10.3516 47.2168-10.3516Q45.3613-10.3516 44.0674-11.6211Q42.7734-12.8906 42.7734-14.7461L42.7734-42.2363L42.7734-45.2148L42.6758-45.1172L37.9395-40.1367Q36.8164-38.916 34.9121-38.916Q33.0566-38.916 31.8359-40.1123Q30.6152-41.3086 30.6152-43.2129Q30.6152-44.0918 30.957-44.8975Q31.2988-45.7031 31.9336-46.2891ZM79.0527-11.8164Q77.6855-10.4004 75.8057-10.4248Q73.9258-10.4492 72.5586-11.8164L60.5469-24.2676Q59.2285-25.6348 59.2285-27.3438Q59.2285-29.248 60.4248-30.4688Q61.6211-31.6895 63.5254-31.6895Q65.4297-31.6895 66.6016-30.4199L71.3379-25.4883L71.3867-25.3418L71.3867-28.3203L71.3867-55.8594Q71.3867-57.666 72.6318-58.9355Q73.877-60.2051 75.7812-60.2051Q77.6367-60.2051 78.9307-58.9355Q80.2246-57.666 80.2246-55.8594L80.2246-28.3203L80.2246-25.3418L80.2734-25.4883L85.0098-30.4199Q86.1816-31.6895 88.0371-31.6895Q89.9414-31.6895 91.1621-30.4688Q92.3828-29.248 92.3828-27.3438Q92.3828-25.6348 91.1133-24.2676Z"/>
  </g>
  <g id="Heavy-M" transform="matrix(1 0 0 1 2576.64 1126)">
   <path d="M30.7129 12.4023L89.4043 12.4023Q98.0957 12.4023 102.856 7.66602Q107.617 2.92969 107.617-5.76172L107.617-64.5996Q107.617-73.291 102.856-78.0273Q98.0957-82.7637 89.4043-82.7637L30.7129-82.7637Q21.9727-82.7637 17.2119-78.0273Q12.4512-73.291 12.4512-64.5996L12.4512-5.76172Q12.4512 2.92969 17.2119 7.66602Q21.9727 12.4023 30.7129 12.4023ZM42.8711-58.7402Q44.1406-60.1074 45.9229-60.0586Q47.7051-60.0098 48.9258-58.7402L61.0352-46.2402Q62.3535-44.9219 62.3535-43.3594Q62.3535-41.5527 61.2061-40.4297Q60.0586-39.3066 58.3008-39.3066Q56.4453-39.3066 55.3711-40.4297L50.5371-45.5078L50.0488-46.0938L50.0488-43.2617L50.0488-14.5508Q50.0488-12.793 48.877-11.6211Q47.7051-10.4492 45.9473-10.4492Q44.1895-10.4492 42.9932-11.6211Q41.7969-12.793 41.7969-14.5508L41.7969-43.2129L41.7969-46.0938L41.3086-45.5078L36.4746-40.4785Q35.3516-39.3066 33.5938-39.3066Q31.8359-39.3066 30.6885-40.4297Q29.541-41.5527 29.541-43.3594Q29.541-44.1406 29.8828-44.8975Q30.2246-45.6543 30.8105-46.2402ZM78.2227-11.7676Q76.9531-10.4492 75.1709-10.4736Q73.3887-10.498 72.1191-11.7676L60.0098-24.2676Q58.7891-25.5859 58.7891-27.1973Q58.7891-28.9551 59.9121-30.1025Q61.0352-31.25 62.8418-31.25Q64.5996-31.25 65.7227-30.0781L70.5566-25.0488L71.0449-24.4629L70.9961-27.2949L70.9961-56.0059Q70.9961-57.7148 72.168-58.9111Q73.3398-60.1074 75.1465-60.1074Q76.9043-60.1074 78.1006-58.9111Q79.2969-57.7148 79.2969-56.0059L79.2969-27.2949L79.2969-24.4629L79.7852-25.0488L84.6191-30.0781Q85.7422-31.25 87.4512-31.25Q89.2578-31.25 90.4053-30.1025Q91.5527-28.9551 91.5527-27.1973Q91.5527-25.5859 90.332-24.2676Z"/>
  </g>
  <g id="Bold-M" transform="matrix(1 0 0 1 2280.85 1126)">
   <path d="M29.6875 11.5234L88.5742 11.5234Q96.9238 11.5234 101.367 7.10449Q105.811 2.68555 105.811-5.66406L105.811-64.7461Q105.811-73.0469 101.367-77.4658Q96.9238-81.8848 88.5742-81.8848L29.6875-81.8848Q21.3379-81.8848 16.8945-77.4658Q12.4512-73.0469 12.4512-64.7461L12.4512-5.66406Q12.4512 2.68555 16.8945 7.10449Q21.3379 11.5234 29.6875 11.5234ZM41.6992-58.7402Q42.9199-60.0098 44.5557-59.9609Q46.1914-59.9121 47.3145-58.7402L59.5215-46.1914Q60.7422-45.0195 60.7422-43.5059Q60.7422-41.7969 59.668-40.7471Q58.5938-39.6973 56.9824-39.6973Q55.2734-39.6973 54.248-40.7715L49.3164-45.9961L48.291-47.0703L48.3887-44.3848L48.3887-14.3066Q48.3887-12.6953 47.29-11.6211Q46.1914-10.5469 44.5312-10.5469Q42.9199-10.5469 41.7969-11.6211Q40.6738-12.6953 40.6738-14.3066L40.6738-44.3359L40.7227-47.0703L39.7461-45.9961L34.7656-40.8203Q33.7402-39.6973 32.1289-39.6973Q30.4688-39.6973 29.3945-40.7715Q28.3203-41.8457 28.3203-43.5059Q28.3203-44.1895 28.6377-44.9219Q28.9551-45.6543 29.4922-46.1914ZM77.2949-11.7676Q76.123-10.5469 74.4385-10.5713Q72.7539-10.5957 71.582-11.7676L59.4238-24.2676Q58.252-25.5371 58.252-27.002Q58.252-28.6621 59.3018-29.7363Q60.3516-30.8105 62.0117-30.8105Q63.6719-30.8105 64.6973-29.6875L69.6777-24.5605L70.6543-23.4375L70.5566-26.123L70.5566-56.2012Q70.5566-57.8125 71.6553-58.9111Q72.7539-60.0098 74.4629-60.0098Q76.0742-60.0098 77.1729-58.9111Q78.2715-57.8125 78.2715-56.2012L78.2715-26.123L78.2715-23.4863L79.248-24.5605L84.1797-29.6875Q85.2539-30.8105 86.8164-30.8105Q88.5254-30.8105 89.5996-29.7363Q90.6738-28.6621 90.6738-27.002Q90.6738-25.5371 89.502-24.2676Z"/>
  </g>
  <g id="Semibold-M" transform="matrix(1 0 0 1 1984.77 1126)">
   <path d="M29.0039 10.8887L87.9883 10.8887Q96.0938 10.8887 100.317 6.68945Q104.541 2.49023 104.541-5.51758L104.541-64.8438Q104.541-72.8516 100.317-77.0508Q96.0938-81.25 87.9883-81.25L29.0039-81.25Q20.8984-81.25 16.6748-77.0508Q12.4512-72.8516 12.4512-64.8438L12.4512-5.51758Q12.4512 2.49023 16.6748 6.68945Q20.8984 10.8887 29.0039 10.8887ZM40.8203-58.7402Q41.9922-59.9609 43.5303-59.9121Q45.0684-59.8633 46.1426-58.7402L58.3984-46.1426Q59.5215-45.0195 59.5215-43.6035Q59.5215-41.9922 58.5205-40.9912Q57.5195-39.9902 56.0059-39.9902Q54.3945-39.9902 53.418-41.0156L48.3887-46.2891L47.0703-47.7051L47.168-45.1172L47.168-14.1602Q47.168-12.6465 46.1426-11.6211Q45.1172-10.5957 43.5059-10.5957Q41.9434-10.5957 40.8936-11.6211Q39.8438-12.6465 39.8438-14.1602L39.8438-45.1172L39.9414-47.7051L38.623-46.2891L33.5449-41.0645Q32.5195-39.9902 31.0547-39.9902Q29.4922-39.9902 28.4668-40.9912Q27.4414-41.9922 27.4414-43.6035Q27.4414-44.2383 27.7588-44.9219Q28.0762-45.6055 28.5645-46.1426ZM76.6113-11.7188Q75.4883-10.5957 73.877-10.5957Q72.2656-10.5957 71.1914-11.7188L58.9355-24.2676Q57.8613-25.4883 57.8613-26.8555Q57.8613-28.4668 58.8379-29.4678Q59.8145-30.4688 61.4258-30.4688Q62.9883-30.4688 63.9648-29.3945L68.9941-24.2188L70.3125-22.7539L70.2148-25.293L70.2148-56.3477Q70.2148-57.8125 71.2646-58.8623Q72.3145-59.9121 73.9258-59.9121Q75.4395-59.9121 76.4893-58.8623Q77.5391-57.8125 77.5391-56.3477L77.5391-25.3418L77.4902-22.7539L78.8086-24.2188L83.8379-29.3945Q84.8633-30.4688 86.3281-30.4688Q87.9395-30.4688 88.9648-29.4678Q89.9902-28.4668 89.9902-26.8555Q89.9902-25.4883 88.8184-24.2676Z"/>
  </g>
  <g id="Medium-M" transform="matrix(1 0 0 1 1688.53 1126)">
   <path d="M28.4668 10.4004L87.5977 10.4004Q95.5078 10.4004 99.5605 6.37207Q103.613 2.34375 103.613-5.46875L103.613-64.8926Q103.613-72.7539 99.5605-76.7578Q95.5078-80.7617 87.5977-80.7617L28.4668-80.7617Q20.5566-80.7617 16.5039-76.7578Q12.4512-72.7539 12.4512-64.8926L12.4512-5.46875Q12.4512 2.34375 16.5039 6.37207Q20.5566 10.4004 28.4668 10.4004ZM40.2344-58.7402Q41.3574-59.8633 42.7979-59.8145Q44.2383-59.7656 45.3125-58.7402L57.5684-46.1426Q58.6914-45.0684 58.6914-43.6523Q58.6914-42.0898 57.7393-41.1377Q56.7871-40.1855 55.3223-40.1855Q53.8086-40.1855 52.832-41.1621L47.7539-46.5332L46.1426-48.2422L46.2891-45.7031L46.2891-14.0137Q46.2891-12.5488 45.2881-11.5967Q44.2871-10.6445 42.7734-10.6445Q41.2598-10.6445 40.2832-11.5967Q39.3066-12.5488 39.3066-14.0137L39.3066-45.7031L39.3555-48.2422L37.793-46.5332L32.666-41.2598Q31.6895-40.1855 30.2734-40.1855Q28.7598-40.1855 27.7832-41.1621Q26.8066-42.1387 26.8066-43.6523Q26.8066-44.2383 27.0996-44.9219Q27.3926-45.6055 27.8809-46.1426ZM76.123-11.7188Q75.0488-10.6445 73.5107-10.6445Q71.9727-10.6445 70.8984-11.7188L58.6426-24.2676Q57.5684-25.4395 57.5684-26.8066Q57.5684-28.2715 58.5205-29.248Q59.4727-30.2246 60.9863-30.2246Q62.5-30.2246 63.4277-29.1992L68.5547-23.9746L70.1172-22.2168L69.9707-24.6582L69.9707-56.3965Q69.9707-57.8613 70.9717-58.8623Q71.9727-59.8633 73.5352-59.8633Q75-59.8633 75.9766-58.8623Q76.9531-57.8613 76.9531-56.3965L76.9531-24.707L76.9531-22.2656L78.5156-23.9746L83.5938-29.1992Q84.6191-30.2246 85.9863-30.2246Q87.5488-30.2246 88.5254-29.248Q89.502-28.2715 89.502-26.8066Q89.502-25.4883 88.3789-24.2676Z"/>
  </g>
  <g id="Regular-M" transform="matrix(1 0 0 1 1392.45 1126)">
   <path d="M27.7832 9.76562L87.0117 9.76562Q94.6777 9.76562 98.5107 5.98145Q102.344 2.19727 102.344-5.37109L102.344-64.9902Q102.344-72.5586 98.5107-76.3428Q94.6777-80.127 87.0117-80.127L27.7832-80.127Q20.1172-80.127 16.2842-76.3428Q12.4512-72.5586 12.4512-64.9902L12.4512-5.37109Q12.4512 2.19727 16.2842 5.98145Q20.1172 9.76562 27.7832 9.76562ZM39.4043-58.7402Q40.4785-59.8145 41.8457-59.7656Q43.2129-59.7168 44.1895-58.7402L56.543-46.0938Q57.5684-45.1172 57.5684-43.75Q57.5684-42.2852 56.665-41.3818Q55.7617-40.4785 54.3945-40.4785Q52.9785-40.4785 52.0508-41.4062L46.875-46.8262L44.9707-48.877L45.1172-46.4844L45.1172-13.8672Q45.1172-12.5 44.1895-11.5967Q43.2617-10.6934 41.7969-10.6934Q40.3809-10.6934 39.4531-11.5967Q38.5254-12.5 38.5254-13.8672L38.5254-46.4355L38.623-48.877L36.7188-46.8262L31.543-41.5039Q30.5664-40.4785 29.248-40.4785Q27.832-40.4785 26.9043-41.4062Q25.9766-42.334 25.9766-43.75Q25.9766-44.2871 26.2695-44.9219Q26.5625-45.5566 27.002-46.0938ZM75.4883-11.6699Q74.4629-10.6934 72.998-10.6934Q71.5332-10.6934 70.5566-11.6699L58.2031-24.2676Q57.2266-25.3906 57.2266-26.6602Q57.2266-28.0762 58.1055-28.9795Q58.9844-29.8828 60.4492-29.8828Q61.8652-29.8828 62.7441-28.9062L67.9199-23.6328L69.8242-21.5332L69.6777-23.877L69.6777-56.543Q69.6777-57.9102 70.6299-58.8379Q71.582-59.7656 73.0469-59.7656Q74.4141-59.7656 75.3418-58.8379Q76.2695-57.9102 76.2695-56.543L76.2695-23.9258L76.2207-21.582L78.125-23.6328L83.3008-28.9062Q84.2773-29.8828 85.5469-29.8828Q87.0117-29.8828 87.9395-28.9795Q88.8672-28.0762 88.8672-26.6602Q88.8672-25.4395 87.793-24.2676Z"/>
  </g>
  <g id="Light-M" transform="matrix(1 0 0 1 1096.48 1126)">
   <path d="M26.8555 9.0332L86.4746 9.0332Q93.6035 9.0332 97.2412 5.44434Q100.879 1.85547 100.879-5.22461L100.879-65.0879Q100.879-72.168 97.2412-75.7812Q93.6035-79.3945 86.4746-79.3945L26.8555-79.3945Q19.6777-79.3945 16.0645-75.8057Q12.4512-72.2168 12.4512-65.0879L12.4512-5.22461Q12.4512 1.85547 16.0645 5.44434Q19.6777 9.0332 26.8555 9.0332ZM39.502-58.9844Q40.332-59.8145 41.4062-59.79Q42.4805-59.7656 43.2617-58.9844L56.25-45.8496Q57.0312-45.0684 57.0312-43.9453Q57.0312-42.8223 56.3232-42.1143Q55.6152-41.4062 54.541-41.4062Q53.418-41.4062 52.6367-42.1875L46.7773-48.2422L43.8477-51.2207L43.9941-48.0957L43.9941-13.2324Q43.9941-12.1582 43.2617-11.4502Q42.5293-10.7422 41.4062-10.7422Q40.2832-10.7422 39.5264-11.4502Q38.7695-12.1582 38.7695-13.2324L38.7695-48.0957L38.916-51.2207L35.9863-48.2422L30.127-42.2363Q29.2969-41.4062 28.2227-41.4062Q27.1484-41.4062 26.416-42.1387Q25.6836-42.8711 25.6836-43.9453Q25.6836-44.4336 25.9033-44.9463Q26.123-45.459 26.5137-45.8496ZM73.9258-11.4746Q73.0957-10.6934 71.9727-10.6934Q70.8496-10.6934 70.0684-11.4746L57.0801-24.5605Q56.2988-25.4395 56.2988-26.5137Q56.2988-27.6367 57.0068-28.3447Q57.7148-29.0527 58.8379-29.0527Q59.9609-29.0527 60.6934-28.2715L66.6016-22.2656L69.4824-19.2383L69.3359-22.3145L69.3359-57.2266Q69.3359-58.3008 70.0928-59.0332Q70.8496-59.7656 71.9727-59.7656Q73.0469-59.7656 73.8037-59.0332Q74.5605-58.3008 74.5605-57.2266L74.5605-22.3633L74.5117-19.2871L77.3926-22.2656L83.252-28.2715Q84.082-29.0527 85.1074-29.0527Q86.2305-29.0527 86.9629-28.3203Q87.6953-27.5879 87.6953-26.5137Q87.6953-25.4883 86.8652-24.5605Z"/>
  </g>
  <g id="Thin-M" transform="matrix(1 0 0 1 800.747 1126)">
   <path d="M25.5859 8.05664L85.6934 8.05664Q92.2363 8.05664 95.5566 4.71191Q98.877 1.36719 98.877-5.07812L98.877-65.2344Q98.877-71.6309 95.5566-75Q92.2363-78.3691 85.6934-78.3691L25.5859-78.3691Q19.1406-78.3691 15.7959-75.0488Q12.4512-71.7285 12.4512-65.2344L12.4512-5.07812Q12.4512 1.41602 15.7959 4.73633Q19.1406 8.05664 25.5859 8.05664ZM39.6484-59.3262Q40.1367-59.8633 40.8203-59.8389Q41.5039-59.8145 42.041-59.3262L55.8105-45.5566Q56.3477-45.0684 56.3477-44.2383Q56.3477-43.5547 55.8594-43.0664Q55.3711-42.5781 54.7363-42.5781Q54.0039-42.5781 53.418-43.2129L46.6309-50.0488L42.3828-54.3457L42.4805-50.293L42.4805-12.4023Q42.4805-11.7188 42.041-11.2305Q41.6016-10.7422 40.8691-10.7422Q40.1367-10.7422 39.6484-11.2061Q39.1602-11.6699 39.1602-12.4023L39.1602-50.2441L39.2578-54.3457L35.0586-50.0488L28.2227-43.2129Q27.6367-42.5781 26.9043-42.5781Q26.2207-42.5781 25.7568-43.0664Q25.293-43.5547 25.293-44.2383Q25.293-44.5801 25.4395-44.9219Q25.5859-45.2637 25.8789-45.5566ZM71.875-11.2305Q71.3379-10.7422 70.6299-10.7422Q69.9219-10.7422 69.4336-11.2305L55.5664-24.9512Q55.0781-25.4883 55.0781-26.3184Q55.0781-27.002 55.5176-27.4658Q55.957-27.9297 56.6895-27.9297Q57.4707-27.9297 58.0078-27.3926L64.7949-20.5078L69.0918-16.2109L68.9453-20.2637L68.9453-58.1543Q68.9453-58.8379 69.4092-59.3262Q69.873-59.8145 70.5566-59.8145Q71.2891-59.8145 71.7773-59.3262Q72.2656-58.8379 72.2656-58.1543L72.2656-20.2637L72.2168-16.2109L76.416-20.5078L83.2031-27.3926Q83.8379-27.9297 84.5215-27.9297Q85.2051-27.9297 85.6934-27.4658Q86.1816-27.002 86.1816-26.3184Q86.1816-25.5859 85.5957-24.9512Z"/>
  </g>
  <g id="Ultralight-M" transform="matrix(1 0 0 1 504.539 1126)">
   <path d="M24.9512 7.56836L85.3516 7.56836Q91.5039 7.56836 94.7021 4.3457Q97.9004 1.12305 97.9004-4.98047L97.9004-65.332Q97.9004-71.3867 94.7021-74.6338Q91.5039-77.8809 85.3516-77.8809L24.9512-77.8809Q18.8477-77.8809 15.6494-74.6826Q12.4512-71.4844 12.4512-65.332L12.4512-4.98047Q12.4512 1.2207 15.6494 4.39453Q18.8477 7.56836 24.9512 7.56836ZM39.6484-59.5215Q39.9902-59.8633 40.4785-59.8633Q40.9668-59.8633 41.3574-59.5215L55.5664-45.4102Q55.957-45.0195 55.957-44.3848Q55.957-43.8965 55.5908-43.5547Q55.2246-43.2129 54.7852-43.2129Q54.2969-43.2129 53.7598-43.7012L46.4844-51.0254L41.6016-55.957L41.6992-51.3672L41.6992-11.9629Q41.6992-11.5234 41.3818-11.1572Q41.0645-10.791 40.5273-10.791Q40.0391-10.791 39.6484-11.1328Q39.2578-11.4746 39.2578-11.9629L39.2578-51.3672L39.4043-55.957L34.5215-51.0254L27.1973-43.75Q26.709-43.2129 26.1719-43.2129Q25.7324-43.2129 25.3906-43.5791Q25.0488-43.9453 25.0488-44.3848Q25.0488-44.6777 25.1465-44.9463Q25.2441-45.2148 25.4883-45.4102ZM70.752-11.084Q70.3613-10.7422 69.8975-10.7422Q69.4336-10.7422 69.043-11.084L54.7852-25.1953Q54.4434-25.5371 54.4434-26.2207Q54.4434-26.709 54.7607-27.0264Q55.0781-27.3438 55.5664-27.3438Q56.1523-27.3438 56.5918-26.9531L63.8672-19.5801L68.7988-14.6484L68.6523-19.1895L68.6523-58.6426Q68.6523-59.082 68.9941-59.4482Q69.3359-59.8145 69.8242-59.8145Q70.3125-59.8145 70.7031-59.4727Q71.0938-59.1309 71.0938-58.6426L71.0938-19.1895L70.9961-14.6484L75.8789-19.5801L83.1543-26.9531Q83.6914-27.3438 84.1797-27.3438Q84.6191-27.3438 84.9854-27.002Q85.3516-26.6602 85.3516-26.2207Q85.3516-25.6348 84.9121-25.1953Z"/>
  </g>
  <g id="Black-S" transform="matrix(1 0 0 1 2885.5 696)">
   <path d="M25 2.92969L70.8008 2.92969Q77.9785 2.92969 82.0068-1.09863Q86.0352-5.12695 86.0352-12.3047L86.0352-58.1055Q86.0352-65.2832 82.0068-69.3115Q77.9785-73.3398 70.8008-73.3398L25-73.3398Q17.8223-73.3398 13.7939-69.3115Q9.76562-65.2832 9.76562-58.1055L9.76562-12.3047Q9.76562-5.12695 13.7939-1.09863Q17.8223 2.92969 25 2.92969ZM34.7168-53.6621Q35.791-54.834 37.2803-54.8096Q38.7695-54.7852 39.8438-53.6621L49.2676-43.8965Q50.3906-42.7734 50.3906-41.4551Q50.3906-39.9414 49.4141-38.9893Q48.4375-38.0371 46.9238-38.0371Q45.4102-38.0371 44.4824-39.0137L40.7715-42.9199L40.7715-42.9199L40.7715-40.5273L40.7715-19.1895Q40.7715-17.7246 39.7949-16.7236Q38.8184-15.7227 37.3047-15.7227Q35.8398-15.7227 34.8145-16.7236Q33.7891-17.7246 33.7891-19.1895L33.7891-40.5273L33.7891-42.9199L33.7891-42.9199L30.0781-39.0137Q29.1504-38.0371 27.6855-38.0371Q26.1719-38.0371 25.2197-38.9893Q24.2676-39.9414 24.2676-41.4551Q24.2676-42.8711 25.293-43.8965ZM62.0605-16.8945Q60.9863-15.7715 59.4971-15.7959Q58.0078-15.8203 56.9336-16.8945L47.5098-26.6602Q46.4355-27.7344 46.4355-29.1016Q46.4355-30.6152 47.3877-31.5674Q48.3398-32.5195 49.8535-32.5195Q51.3672-32.5195 52.2949-31.543L56.0059-27.6367L56.0059-27.6367L56.0059-30.0293L56.0059-51.3672Q56.0059-52.832 56.9824-53.833Q57.959-54.834 59.4727-54.834Q60.9375-54.834 61.9629-53.833Q62.9883-52.832 62.9883-51.3672L62.9883-30.0293L62.9883-27.6367L62.9883-27.6367L66.6992-31.543Q67.627-32.5195 69.0918-32.5195Q70.6055-32.5195 71.5576-31.5674Q72.5098-30.6152 72.5098-29.1016Q72.5098-27.7344 71.5332-26.6602Z"/>
  </g>
  <g id="Heavy-S" transform="matrix(1 0 0 1 2589.39 696)">
   <path d="M24.3652 2.34375L70.2637 2.34375Q77.1973 2.34375 81.0059-1.46484Q84.8145-5.27344 84.8145-12.207L84.8145-58.2031Q84.8145-65.1367 81.0059-68.9453Q77.1973-72.7539 70.2637-72.7539L24.3652-72.7539Q17.3828-72.7539 13.5742-68.9453Q9.76562-65.1367 9.76562-58.2031L9.76562-12.207Q9.76562-5.27344 13.5742-1.46484Q17.3828 2.34375 24.3652 2.34375ZM33.7891-53.6133Q34.8633-54.7363 36.2793-54.7119Q37.6953-54.6875 38.7207-53.6133L48.1445-43.8965Q49.2188-42.8223 49.2188-41.5527Q49.2188-40.0879 48.291-39.1602Q47.3633-38.2324 45.8984-38.2324Q44.4336-38.2324 43.5547-39.1602L39.8438-43.0664L39.5996-43.3594L39.6484-41.1621L39.6484-19.0918Q39.6484-17.6758 38.6963-16.7236Q37.7441-15.7715 36.2793-15.7715Q34.8633-15.7715 33.8867-16.7236Q32.9102-17.6758 32.9102-19.0918L32.9102-41.1621L32.9102-43.3594L32.7148-43.0664L29.0039-39.209Q28.0762-38.2324 26.709-38.2324Q25.2441-38.2324 24.3164-39.1602Q23.3887-40.0879 23.3887-41.5527Q23.3887-42.8223 24.3652-43.8965ZM61.5723-16.8945Q60.5469-15.8203 59.082-15.8447Q57.6172-15.8691 56.5918-16.8945L47.2168-26.6113Q46.1914-27.6855 46.1914-29.0039Q46.1914-30.4199 47.0947-31.3477Q47.998-32.2754 49.4629-32.2754Q50.8789-32.2754 51.8066-31.3477L55.5176-27.4414L55.7617-27.1484L55.7129-29.3457L55.7129-51.416Q55.7129-52.832 56.665-53.7842Q57.6172-54.7363 59.082-54.7363Q60.498-54.7363 61.4746-53.7842Q62.4512-52.832 62.4512-51.416L62.4512-29.3457L62.4023-27.1973L62.6465-27.4414L66.3574-31.3477Q67.2852-32.2754 68.6523-32.2754Q70.1172-32.2754 71.0449-31.3477Q71.9727-30.4199 71.9727-29.0039Q71.9727-27.6855 70.9961-26.6113Z"/>
  </g>
  <g id="Bold-S" transform="matrix(1 0 0 1 2293.36 696)">
   <path d="M23.6328 1.66016L69.6289 1.66016Q76.3672 1.66016 79.9316-1.9043Q83.4961-5.46875 83.4961-12.1094L83.4961-58.3008Q83.4961-64.9902 79.9316-68.5303Q76.3672-72.0703 69.6289-72.0703L23.6328-72.0703Q16.9434-72.0703 13.3545-68.5303Q9.76562-64.9902 9.76562-58.3008L9.76562-12.1094Q9.76562-5.46875 13.3545-1.9043Q16.9434 1.66016 23.6328 1.66016ZM32.8125-53.6133Q33.8379-54.6387 35.1807-54.6143Q36.5234-54.5898 37.5-53.6133L46.9238-43.8965Q47.9004-42.8711 47.9004-41.6504Q47.9004-40.2344 47.0215-39.3555Q46.1426-38.4766 44.7754-38.4766Q43.4082-38.4766 42.5293-39.3555L38.8184-43.2617L38.3301-43.8477L38.3789-41.8945L38.3789-18.9941Q38.3789-17.6758 37.4756-16.7725Q36.5723-15.8691 35.1562-15.8691Q33.7891-15.8691 32.8857-16.7725Q31.9824-17.6758 31.9824-18.9941L31.9824-41.8945L31.9824-43.8477L31.4941-43.2617L27.7832-39.4043Q26.9043-38.4766 25.5859-38.4766Q24.2188-38.4766 23.3154-39.3555Q22.4121-40.2344 22.4121-41.6504Q22.4121-42.8223 23.3887-43.8965ZM61.0352-16.8945Q60.0586-15.8691 58.6426-15.8936Q57.2266-15.918 56.25-16.8945L46.875-26.6113Q45.8984-27.6367 45.8984-28.8574Q45.8984-30.2734 46.7773-31.1279Q47.6562-31.9824 49.0234-31.9824Q50.3906-31.9824 51.2695-31.1035L54.9805-27.2461L55.4688-26.6602L55.4199-28.5645L55.4199-51.4648Q55.4199-52.832 56.3477-53.7354Q57.2754-54.6387 58.6426-54.6387Q60.0098-54.6387 60.9131-53.7354Q61.8164-52.832 61.8164-51.4648L61.8164-28.6133L61.8164-26.6602L62.3047-27.2461L66.0156-31.1035Q66.8945-31.9824 68.2129-31.9824Q69.6289-31.9824 70.5078-31.1279Q71.3867-30.2734 71.3867-28.8574Q71.3867-27.6367 70.4102-26.6113Z"/>
  </g>
  <g id="Semibold-S" transform="matrix(1 0 0 1 1997.11 696)">
   <path d="M23.0957 1.2207L69.1895 1.2207Q75.7324 1.2207 79.126-2.17285Q82.5195-5.56641 82.5195-12.0605L82.5195-58.3496Q82.5195-64.8438 79.126-68.2373Q75.7324-71.6309 69.1895-71.6309L23.0957-71.6309Q16.6016-71.6309 13.1836-68.2373Q9.76562-64.8438 9.76562-58.3496L9.76562-12.0605Q9.76562-5.56641 13.1836-2.17285Q16.6016 1.2207 23.0957 1.2207ZM32.0312-53.5645Q33.0566-54.5898 34.3506-54.5654Q35.6445-54.541 36.5723-53.5645L45.9961-43.8477Q46.9238-42.9199 46.9238-41.6992Q46.9238-40.332 46.0938-39.4775Q45.2637-38.623 43.8965-38.623Q42.5781-38.623 41.748-39.502L38.0371-43.4082L37.3535-44.1895L37.4023-42.3828L37.4023-18.9453Q37.4023-17.627 36.5234-16.748Q35.6445-15.8691 34.3262-15.8691Q33.0078-15.8691 32.1289-16.748Q31.25-17.627 31.25-18.9453L31.25-42.3828L31.25-44.1895L30.6152-43.4082L26.8555-39.5508Q26.0254-38.623 24.7559-38.623Q23.4375-38.623 22.5586-39.4775Q21.6797-40.332 21.6797-41.6992Q21.6797-42.7734 22.6074-43.8477ZM60.5957-16.8457Q59.6191-15.918 58.252-15.918Q56.8848-15.918 55.957-16.8457L46.5332-26.5625Q45.6543-27.5879 45.6543-28.7598Q45.6543-30.127 46.4844-30.957Q47.3145-31.7871 48.6816-31.7871Q50-31.7871 50.8301-30.9082L54.541-27.0508L55.2246-26.2695L55.127-28.0273L55.127-51.5137Q55.127-52.832 56.0303-53.7109Q56.9336-54.5898 58.3008-54.5898Q59.5703-54.5898 60.4492-53.7109Q61.3281-52.832 61.3281-51.5137L61.3281-28.0762L61.2793-26.3184L62.0117-27.0508L65.7227-30.9082Q66.5527-31.7871 67.8223-31.7871Q69.1895-31.7871 70.0439-30.957Q70.8984-30.127 70.8984-28.7598Q70.8984-27.5879 69.9219-26.5625Z"/>
  </g>
  <g id="Medium-S" transform="matrix(1 0 0 1 1700.76 696)">
   <path d="M22.7051 0.830078L68.8965 0.830078Q75.293 0.830078 78.5645-2.41699Q81.8359-5.66406 81.8359-11.9629L81.8359-58.4473Q81.8359-64.7461 78.5645-67.9932Q75.293-71.2402 68.8965-71.2402L22.7051-71.2402Q16.3574-71.2402 13.0615-67.9932Q9.76562-64.7461 9.76562-58.4473L9.76562-11.9629Q9.76562-5.66406 13.0615-2.41699Q16.3574 0.830078 22.7051 0.830078ZM31.543-53.5645Q32.5195-54.4922 33.7891-54.4678Q35.0586-54.4434 35.9863-53.5645L45.3613-43.8477Q46.2891-42.9199 46.2891-41.748Q46.2891-40.4297 45.459-39.5996Q44.6289-38.7695 43.3105-38.7695Q42.041-38.7695 41.2598-39.5508L37.5488-43.457L36.6699-44.4336L36.7676-42.7734L36.7676-18.8477Q36.7676-17.627 35.9131-16.7725Q35.0586-15.918 33.7402-15.918Q32.4219-15.918 31.5918-16.7725Q30.7617-17.627 30.7617-18.8477L30.7617-42.7246L30.8105-44.4336L29.9805-43.457L26.2207-39.6484Q25.4395-38.7695 24.2188-38.7695Q22.9004-38.7695 22.0459-39.5996Q21.1914-40.4297 21.1914-41.748Q21.1914-42.7734 22.1191-43.8477ZM60.3027-16.8457Q59.375-15.918 58.0322-15.918Q56.6895-15.918 55.7617-16.8457L46.3867-26.5625Q45.5078-27.5391 45.5078-28.7109Q45.5078-30.0293 46.3379-30.835Q47.168-31.6406 48.4375-31.6406Q49.7559-31.6406 50.5371-30.7617L54.2969-26.9531L55.0781-25.9766L55.0293-27.6367L55.0293-51.5137Q55.0293-52.832 55.9082-53.6621Q56.7871-54.4922 58.0566-54.4922Q59.3262-54.4922 60.1807-53.6621Q61.0352-52.832 61.0352-51.5137L61.0352-27.6855L60.9863-26.0254L61.8164-26.9531L65.5273-30.7617Q66.4062-31.6406 67.627-31.6406Q68.9453-31.6406 69.7754-30.835Q70.6055-30.0293 70.6055-28.7109Q70.6055-27.5879 69.6777-26.5625Z"/>
  </g>
  <g id="Regular-S" transform="matrix(1 0 0 1 1404.51 696)">
   <path d="M22.2168 0.390625L68.457 0.390625Q74.707 0.390625 77.8076-2.68555Q80.9082-5.76172 80.9082-11.9141L80.9082-58.4961Q80.9082-64.6484 77.8076-67.7246Q74.707-70.8008 68.457-70.8008L22.2168-70.8008Q16.0156-70.8008 12.8906-67.7246Q9.76562-64.6484 9.76562-58.4961L9.76562-11.9141Q9.76562-5.76172 12.8906-2.68555Q16.0156 0.390625 22.2168 0.390625ZM30.8105-53.5156Q31.7871-54.4434 33.0078-54.4189Q34.2285-54.3945 35.1074-53.5156L44.4824-43.8477Q45.3613-42.9688 45.3613-41.7969Q45.3613-40.5273 44.5801-39.7217Q43.7988-38.916 42.5293-38.916Q41.3086-38.916 40.5273-39.6973L36.8164-43.6035L35.791-44.7754L35.8887-43.2617L35.8887-18.7988Q35.8887-17.5781 35.0586-16.7725Q34.2285-15.9668 32.959-15.9668Q31.6895-15.9668 30.8838-16.7725Q30.0781-17.5781 30.0781-18.7988L30.0781-43.2129L30.127-44.7754L29.1504-43.6035L25.3906-39.7949Q24.6094-38.916 23.4375-38.916Q22.168-38.916 21.3379-39.7217Q20.5078-40.5273 20.5078-41.7969Q20.5078-42.7246 21.3867-43.8477ZM59.9121-16.8457Q59.0332-15.9668 57.7148-15.9668Q56.3965-15.9668 55.5176-16.8457L46.1426-26.5137Q45.3125-27.4902 45.3125-28.6133Q45.3125-29.8828 46.0938-30.6641Q46.875-31.4453 48.1445-31.4453Q49.3652-31.4453 50.1465-30.6152L53.9062-26.8066L54.8828-25.6348L54.7852-27.0996L54.7852-51.5625Q54.7852-52.832 55.6396-53.6377Q56.4941-54.4434 57.7637-54.4434Q58.9844-54.4434 59.79-53.6377Q60.5957-52.832 60.5957-51.5625L60.5957-27.1484L60.5469-25.6836L61.5723-26.8066L65.2832-30.6152Q66.1133-31.4453 67.2852-31.4453Q68.5547-31.4453 69.3604-30.6641Q70.166-29.8828 70.166-28.6133Q70.166-27.5391 69.2383-26.5137Z"/>
  </g>
  <g id="Light-S" transform="matrix(1 0 0 1 1108.45 696)">
   <path d="M21.3867-0.244141L67.9688-0.244141Q73.7793-0.244141 76.6846-3.17383Q79.5898-6.10352 79.5898-11.8164L79.5898-58.5938Q79.5898-64.3066 76.6846-67.2119Q73.7793-70.1172 67.9688-70.1172L21.3867-70.1172Q15.625-70.1172 12.6953-67.2119Q9.76562-64.3066 9.76562-58.5938L9.76562-11.8164Q9.76562-6.05469 12.6953-3.14941Q15.625-0.244141 21.3867-0.244141ZM30.8594-53.7598Q31.6406-54.4922 32.5928-54.4678Q33.5449-54.4434 34.2285-53.7598L44.1895-43.6523Q44.873-42.9688 44.873-41.9922Q44.873-41.0156 44.2383-40.3564Q43.6035-39.6973 42.627-39.6973Q41.6504-39.6973 41.0156-40.3809L36.6699-44.8242L34.7656-46.875L34.8633-44.6777L34.8633-18.2617Q34.8633-17.2852 34.2285-16.6504Q33.5938-16.0156 32.5684-16.0156Q31.5918-16.0156 30.9326-16.6504Q30.2734-17.2852 30.2734-18.2617L30.2734-44.6777L30.3711-46.875L28.4668-44.8242L24.1211-40.4297Q23.4375-39.6973 22.5098-39.6973Q21.5332-39.6973 20.874-40.3564Q20.2148-41.0156 20.2148-41.9922Q20.2148-42.7734 20.9473-43.6523ZM58.4961-16.6992Q57.8125-16.0156 56.7871-16.0156Q55.7617-16.0156 55.0781-16.6992L45.1172-26.7578Q44.4824-27.5391 44.4824-28.4668Q44.4824-29.4922 45.0928-30.1025Q45.7031-30.7129 46.6797-30.7129Q47.6562-30.7129 48.3398-30.0293L52.6855-25.6348L54.541-23.584L54.4434-25.7324L54.4434-52.1973Q54.4434-53.1738 55.127-53.8086Q55.8105-54.4434 56.7871-54.4434Q57.7637-54.4434 58.3984-53.8086Q59.0332-53.1738 59.0332-52.1973L59.0332-25.7324L58.9844-23.6328L60.8887-25.6348L65.2344-30.0293Q65.918-30.7129 66.8457-30.7129Q67.8223-30.7129 68.4814-30.0781Q69.1406-29.4434 69.1406-28.4668Q69.1406-27.5879 68.3594-26.7578Z"/>
  </g>
  <g id="Thin-S" transform="matrix(1 0 0 1 812.615 696)">
   <path d="M20.3125-1.12305L67.2852-1.12305Q72.5098-1.12305 75.1709-3.80859Q77.832-6.49414 77.832-11.6211L77.832-58.6914Q77.832-63.8184 75.1709-66.5283Q72.5098-69.2383 67.2852-69.2383L20.3125-69.2383Q15.0879-69.2383 12.4268-66.5771Q9.76562-63.916 9.76562-58.6914L9.76562-11.6211Q9.76562-6.44531 12.4268-3.78418Q15.0879-1.12305 20.3125-1.12305ZM31.0059-54.0527Q31.4453-54.4922 32.0557-54.4678Q32.666-54.4434 33.1543-54.0527L43.7988-43.4082Q44.2871-42.9199 44.2871-42.2363Q44.2871-41.6016 43.8721-41.1865Q43.457-40.7715 42.8223-40.7715Q42.1875-40.7715 41.6992-41.2598L36.5234-46.4844L33.4473-49.6094L33.5449-46.582L33.5449-17.4805Q33.5449-16.8945 33.1543-16.4551Q32.7637-16.0156 32.1289-16.0156Q31.4941-16.0156 31.0547-16.4551Q30.6152-16.8945 30.6152-17.4805L30.6152-46.582L30.6641-49.6094L27.5879-46.4844L22.4609-41.3086Q21.9727-40.7715 21.3379-40.7715Q20.7031-40.7715 20.2881-41.1865Q19.873-41.6016 19.873-42.2363Q19.873-42.8223 20.3613-43.4082ZM56.6406-16.4551Q56.2012-16.0156 55.5664-16.0156Q54.9316-16.0156 54.4922-16.4551L43.7988-27.0996Q43.3594-27.5879 43.3594-28.3203Q43.3594-28.9551 43.7744-29.3457Q44.1895-29.7363 44.8242-29.7363Q45.5078-29.7363 45.9473-29.248L51.123-24.0234L54.1992-20.8984L54.1016-23.877L54.1016-53.0273Q54.1016-53.6621 54.5166-54.0771Q54.9316-54.4922 55.5664-54.4922Q56.1523-54.4922 56.5918-54.0771Q57.0312-53.6621 57.0312-53.0273L57.0312-23.9258L56.9824-20.8984L60.0098-24.0234L65.1855-29.248Q65.7227-29.7363 66.3574-29.7363Q66.9434-29.7363 67.3584-29.3213Q67.7734-28.9062 67.7734-28.3203Q67.7734-27.6367 67.2852-27.0996Z"/>
  </g>
  <g id="Ultralight-S" transform="matrix(1 0 0 1 516.35 696)">
   <path d="M19.7754-1.5625L66.9434-1.5625Q71.875-1.5625 74.4141-4.15039Q76.9531-6.73828 76.9531-11.5723L76.9531-58.7891Q76.9531-63.623 74.4141-66.1865Q71.875-68.75 66.9434-68.75L19.7754-68.75Q14.8438-68.75 12.3047-66.2109Q9.76562-63.6719 9.76562-58.7891L9.76562-11.5723Q9.76562-6.64062 12.3047-4.10156Q14.8438-1.5625 19.7754-1.5625ZM31.0547-54.1992Q31.3477-54.541 31.7871-54.5166Q32.2266-54.4922 32.5684-54.1992L43.6035-43.2617Q43.9453-42.9199 43.9453-42.334Q43.9453-41.9434 43.6279-41.626Q43.3105-41.3086 42.9199-41.3086Q42.4316-41.3086 41.9922-41.748L36.4258-47.3145L32.7637-51.0254L32.8613-47.5586L32.8613-17.1387Q32.8613-16.6504 32.5928-16.3574Q32.3242-16.0645 31.8359-16.0645Q31.3965-16.0645 31.0791-16.3574Q30.7617-16.6504 30.7617-17.1387L30.7617-47.5586L30.8594-51.0254L27.1484-47.3145L21.6309-41.748Q21.1914-41.3086 20.7031-41.3086Q20.3125-41.3086 19.9951-41.626Q19.6777-41.9434 19.6777-42.334Q19.6777-42.8711 20.0684-43.2617ZM55.6641-16.3574Q55.3711-16.0645 54.9316-16.0645Q54.4922-16.0645 54.1992-16.3574L43.1152-27.2949Q42.8223-27.6367 42.8223-28.2227Q42.8223-28.6621 43.0908-28.9307Q43.3594-29.1992 43.7988-29.1992Q44.3359-29.1992 44.7266-28.8574L50.293-23.2422L53.9551-19.4824L53.8574-22.9492L53.8574-53.418Q53.8574-53.8574 54.1504-54.1748Q54.4434-54.4922 54.8828-54.4922Q55.3223-54.4922 55.6641-54.1992Q56.0059-53.9062 56.0059-53.418L56.0059-22.9492L55.9082-19.5312L59.5703-23.2422L65.1367-28.8574Q65.625-29.1992 66.0645-29.1992Q66.4551-29.1992 66.7725-28.9062Q67.0898-28.6133 67.0898-28.2227Q67.0898-27.6855 66.6992-27.2949Z"/>
  </g>
 </g>
</svg>
