<?xml version="1.0" encoding="UTF-8"?>
<!--Generator: Apple Native CoreSVG 175.5-->
<!DOCTYPE svg
PUBLIC "-//W3C//DTD SVG 1.1//EN"
       "http://www.w3.org/Graphics/SVG/1.1/DTD/svg11.dtd">
<svg version="1.1" xmlns="http://www.w3.org/2000/svg" xmlns:xlink="http://www.w3.org/1999/xlink" width="3300" height="2200">
 <!--glyph: "uni1002ED.medium", point size: 100.0, font version: "18.0d11e1", template writer version: "90"-->
 <g id="Notes">
  <rect height="2200" id="artboard" style="fill:white;opacity:1" width="3300" x="0" y="0"/>
  <line style="fill:none;stroke:black;opacity:1;stroke-width:0.5;" x1="263" x2="3036" y1="292" y2="292"/>
  <text style="stroke:none;fill:black;font-family:sans-serif;font-size:13;font-weight:bold;" transform="matrix(1 0 0 1 263 322)">Weight/Scale Variations</text>
  <text style="stroke:none;fill:black;font-family:sans-serif;font-size:13;text-anchor:middle;" transform="matrix(1 0 0 1 559.711 322)">Ultralight</text>
  <text style="stroke:none;fill:black;font-family:sans-serif;font-size:13;text-anchor:middle;" transform="matrix(1 0 0 1 856.422 322)">Thin</text>
  <text style="stroke:none;fill:black;font-family:sans-serif;font-size:13;text-anchor:middle;" transform="matrix(1 0 0 1 1153.13 322)">Light</text>
  <text style="stroke:none;fill:black;font-family:sans-serif;font-size:13;text-anchor:middle;" transform="matrix(1 0 0 1 1449.84 322)">Regular</text>
  <text style="stroke:none;fill:black;font-family:sans-serif;font-size:13;text-anchor:middle;" transform="matrix(1 0 0 1 1746.56 322)">Medium</text>
  <text style="stroke:none;fill:black;font-family:sans-serif;font-size:13;text-anchor:middle;" transform="matrix(1 0 0 1 2043.27 322)">Semibold</text>
  <text style="stroke:none;fill:black;font-family:sans-serif;font-size:13;text-anchor:middle;" transform="matrix(1 0 0 1 2339.98 322)">Bold</text>
  <text style="stroke:none;fill:black;font-family:sans-serif;font-size:13;text-anchor:middle;" transform="matrix(1 0 0 1 2636.69 322)">Heavy</text>
  <text style="stroke:none;fill:black;font-family:sans-serif;font-size:13;text-anchor:middle;" transform="matrix(1 0 0 1 2933.4 322)">Black</text>
  <line style="fill:none;stroke:black;opacity:1;stroke-width:0.5;" x1="263" x2="3036" y1="1903" y2="1903"/>
  <g transform="matrix(1 0 0 1 263 1933)">
   <path d="M9.24805 0.830078C13.5547 0.830078 17.1387-2.74414 17.1387-7.05078C17.1387-11.3574 13.5449-14.9316 9.23828-14.9316C4.94141-14.9316 1.36719-11.3574 1.36719-7.05078C1.36719-2.74414 4.95117 0.830078 9.24805 0.830078ZM9.24805-0.654297C5.70312-0.654297 2.87109-3.49609 2.87109-7.05078C2.87109-10.6055 5.69336-13.4473 9.23828-13.4473C12.793-13.4473 15.6445-10.6055 15.6445-7.05078C15.6445-3.49609 12.8027-0.654297 9.24805-0.654297ZM5.6543-7.05078C5.6543-6.62109 5.95703-6.32812 6.40625-6.32812L8.50586-6.32812L8.50586-4.20898C8.50586-3.76953 8.79883-3.4668 9.22852-3.4668C9.67773-3.4668 9.9707-3.76953 9.9707-4.20898L9.9707-6.32812L12.0898-6.32812C12.5293-6.32812 12.832-6.62109 12.832-7.05078C12.832-7.49023 12.5293-7.79297 12.0898-7.79297L9.9707-7.79297L9.9707-9.90234C9.9707-10.3516 9.67773-10.6543 9.22852-10.6543C8.79883-10.6543 8.50586-10.3516 8.50586-9.90234L8.50586-7.79297L6.40625-7.79297C5.95703-7.79297 5.6543-7.49023 5.6543-7.05078Z"/>
  </g>
  <g transform="matrix(1 0 0 1 281.867 1933)">
   <path d="M11.709 2.91016C17.1582 2.91016 21.6699-1.61133 21.6699-7.05078C21.6699-12.5 17.1484-17.0117 11.6992-17.0117C6.25977-17.0117 1.74805-12.5 1.74805-7.05078C1.74805-1.61133 6.26953 2.91016 11.709 2.91016ZM11.709 1.25C7.09961 1.25 3.41797-2.44141 3.41797-7.05078C3.41797-11.6602 7.08984-15.3516 11.6992-15.3516C16.3086-15.3516 20.0098-11.6602 20.0098-7.05078C20.0098-2.44141 16.3184 1.25 11.709 1.25ZM7.17773-7.05078C7.17773-6.57227 7.50977-6.25 8.00781-6.25L10.8789-6.25L10.8789-3.36914C10.8789-2.88086 11.2109-2.53906 11.6895-2.53906C12.1777-2.53906 12.5195-2.87109 12.5195-3.36914L12.5195-6.25L15.4004-6.25C15.8887-6.25 16.2305-6.57227 16.2305-7.05078C16.2305-7.53906 15.8887-7.88086 15.4004-7.88086L12.5195-7.88086L12.5195-10.752C12.5195-11.25 12.1777-11.5918 11.6895-11.5918C11.2109-11.5918 10.8789-11.25 10.8789-10.752L10.8789-7.88086L8.00781-7.88086C7.50977-7.88086 7.17773-7.53906 7.17773-7.05078Z"/>
  </g>
  <g transform="matrix(1 0 0 1 305.646 1933)">
   <path d="M14.9707 5.66406C21.9336 5.66406 27.6953-0.0976562 27.6953-7.05078C27.6953-14.0137 21.9238-19.7754 14.9609-19.7754C8.00781-19.7754 2.25586-14.0137 2.25586-7.05078C2.25586-0.0976562 8.01758 5.66406 14.9707 5.66406ZM14.9707 3.84766C8.93555 3.84766 4.08203-1.01562 4.08203-7.05078C4.08203-13.0957 8.92578-17.9492 14.9609-17.9492C21.0059-17.9492 25.8691-13.0957 25.8691-7.05078C25.8691-1.01562 21.0156 3.84766 14.9707 3.84766ZM9.19922-7.05078C9.19922-6.5332 9.57031-6.17188 10.1172-6.17188L14.0625-6.17188L14.0625-2.2168C14.0625-1.67969 14.4336-1.29883 14.9512-1.29883C15.4883-1.29883 15.8594-1.66992 15.8594-2.2168L15.8594-6.17188L19.8145-6.17188C20.3516-6.17188 20.7324-6.5332 20.7324-7.05078C20.7324-7.59766 20.3613-7.96875 19.8145-7.96875L15.8594-7.96875L15.8594-11.9141C15.8594-12.4609 15.4883-12.8418 14.9512-12.8418C14.4336-12.8418 14.0625-12.4609 14.0625-11.9141L14.0625-7.96875L10.1172-7.96875C9.57031-7.96875 9.19922-7.59766 9.19922-7.05078Z"/>
  </g>
  <text style="stroke:none;fill:black;font-family:sans-serif;font-size:13;font-weight:bold;" transform="matrix(1 0 0 1 263 1953)">Design Variations</text>
  <text style="stroke:none;fill:black;font-family:sans-serif;font-size:13;" transform="matrix(1 0 0 1 263 1971)">Symbols are supported in up to nine weights and three scales.</text>
  <text style="stroke:none;fill:black;font-family:sans-serif;font-size:13;" transform="matrix(1 0 0 1 263 1989)">For optimal layout with text and other symbols, vertically align</text>
  <text style="stroke:none;fill:black;font-family:sans-serif;font-size:13;" transform="matrix(1 0 0 1 263 2007)">symbols with the adjacent text.</text>
  <line style="fill:none;stroke:#00AEEF;stroke-width:0.5;opacity:1.0;" x1="776" x2="776" y1="1919" y2="1933"/>
  <g transform="matrix(1 0 0 1 776 1933)">
   <path d="M3.31055 0.15625C3.82812 0.15625 4.08203-0.0390625 4.26758-0.585938L5.52734-4.0332L11.2891-4.0332L12.5488-0.585938C12.7344-0.0390625 12.9883 0.15625 13.4961 0.15625C14.0137 0.15625 14.3457-0.15625 14.3457-0.644531C14.3457-0.810547 14.3164-0.966797 14.2383-1.17188L9.6582-13.3691C9.43359-13.9648 9.0332-14.2676 8.4082-14.2676C7.80273-14.2676 7.39258-13.9746 7.17773-13.3789L2.59766-1.16211C2.51953-0.957031 2.49023-0.800781 2.49023-0.634766C2.49023-0.146484 2.80273 0.15625 3.31055 0.15625ZM6.00586-5.51758L8.37891-12.0898L8.42773-12.0898L10.8008-5.51758Z"/>
  </g>
  <line style="fill:none;stroke:#00AEEF;stroke-width:0.5;opacity:1.0;" x1="793.197" x2="793.197" y1="1919" y2="1933"/>
  <text style="stroke:none;fill:black;font-family:sans-serif;font-size:13;font-weight:bold;" transform="matrix(1 0 0 1 776 1953)">Margins</text>
  <text style="stroke:none;fill:black;font-family:sans-serif;font-size:13;" transform="matrix(1 0 0 1 776 1971)">Leading and trailing margins on the left and right side of each symbol</text>
  <text style="stroke:none;fill:black;font-family:sans-serif;font-size:13;" transform="matrix(1 0 0 1 776 1989)">can be adjusted by modifying the x-location of the margin guidelines.</text>
  <text style="stroke:none;fill:black;font-family:sans-serif;font-size:13;" transform="matrix(1 0 0 1 776 2007)">Modifications are automatically applied proportionally to all</text>
  <text style="stroke:none;fill:black;font-family:sans-serif;font-size:13;" transform="matrix(1 0 0 1 776 2025)">scales and weights.</text>
  <g transform="matrix(1 0 0 1 1289 1933)">
   <path d="M2.8418 1.86523L4.54102 3.57422C5.40039 4.44336 6.38672 4.38477 7.31445 3.35938L18.0078-8.42773L17.041-9.4043L6.42578 2.27539C6.07422 2.67578 5.74219 2.77344 5.27344 2.30469L4.10156 1.14258C3.63281 0.683594 3.74023 0.341797 4.14062-0.0195312L15.6152-10.8203L14.6387-11.7871L3.04688-0.898438C2.06055 0.0195312 1.98242 0.996094 2.8418 1.86523ZM9.25781-16.3281C8.83789-15.918 8.80859-15.3418 9.04297-14.9512C9.27734-14.5898 9.73633-14.3555 10.3809-14.5215C11.8457-14.8633 13.3691-14.9219 14.7949-13.9844L14.209-12.5293C13.8672-11.6992 14.043-11.1133 14.5801-10.5664L16.875-8.25195C17.3633-7.76367 17.7734-7.74414 18.3398-7.8418L19.4043-8.03711L20.0684-7.36328L20.0293-6.80664C19.9902-6.30859 20.1172-5.92773 20.6055-5.44922L21.3672-4.70703C21.8457-4.22852 22.4609-4.19922 22.9297-4.66797L25.8398-7.58789C26.3086-8.05664 26.2891-8.65234 25.8105-9.13086L25.0391-9.89258C24.5605-10.3711 24.1895-10.5273 23.7109-10.4883L23.1348-10.4395L22.4902-11.0742L22.7344-12.1973C22.8613-12.7637 22.7051-13.2031 22.1191-13.7891L19.9219-15.9766C16.582-19.2969 12.1484-19.2188 9.25781-16.3281ZM10.752-15.957C13.1836-17.7344 16.4746-17.4316 18.7012-15.2051L21.1328-12.793C21.3672-12.5586 21.4062-12.373 21.3379-12.0312L21.0156-10.5469L22.5195-9.0625L23.5059-9.12109C23.7598-9.13086 23.8379-9.11133 24.0332-8.91602L24.6094-8.33984L22.168-5.89844L21.5918-6.47461C21.3965-6.66992 21.3672-6.74805 21.377-7.01172L21.4453-7.98828L19.9512-9.47266L18.4277-9.21875C18.1055-9.15039 17.959-9.17969 17.7148-9.41406L15.7129-11.416C15.459-11.6504 15.4297-11.8164 15.5859-12.1875L16.4648-14.2773C14.9023-15.7324 12.8711-16.3574 10.8398-15.7617C10.6836-15.7227 10.625-15.8496 10.752-15.957Z"/>
  </g>
  <text style="stroke:none;fill:black;font-family:sans-serif;font-size:13;font-weight:bold;" transform="matrix(1 0 0 1 1289 1953)">Exporting</text>
  <text style="stroke:none;fill:black;font-family:sans-serif;font-size:13;" transform="matrix(1 0 0 1 1289 1971)">Symbols should be outlined when exporting to ensure the</text>
  <text style="stroke:none;fill:black;font-family:sans-serif;font-size:13;" transform="matrix(1 0 0 1 1289 1989)">design is preserved when submitting to Xcode.</text>
  <text id="template-version" style="stroke:none;fill:black;font-family:sans-serif;font-size:13;text-anchor:end;" transform="matrix(1 0 0 1 3036 1933)">Template v.2.0</text>
  <text style="stroke:none;fill:black;font-family:sans-serif;font-size:13;text-anchor:end;" transform="matrix(1 0 0 1 3036 1951)">Requires Xcode 12 or greater</text>
  <text id="descriptive-name" style="stroke:none;fill:black;font-family:sans-serif;font-size:13;text-anchor:end;" transform="matrix(1 0 0 1 3036 1969)">Generated from eye</text>
  <text style="stroke:none;fill:black;font-family:sans-serif;font-size:13;text-anchor:end;" transform="matrix(1 0 0 1 3036 1987)">Typeset at 100 points</text>
  <text style="stroke:none;fill:black;font-family:sans-serif;font-size:13;" transform="matrix(1 0 0 1 263 726)">Small</text>
  <text style="stroke:none;fill:black;font-family:sans-serif;font-size:13;" transform="matrix(1 0 0 1 263 1156)">Medium</text>
  <text style="stroke:none;fill:black;font-family:sans-serif;font-size:13;" transform="matrix(1 0 0 1 263 1586)">Large</text>
 </g>
 <g id="Guides">
  <g id="H-reference" style="fill:#27AAE1;stroke:none;" transform="matrix(1 0 0 1 339 696)">
   <path d="M0.993654 0L3.63775 0L29.3281-67.1323L30.0303-67.1323L30.0303-70.459L28.1226-70.459ZM11.6885-24.4799L46.9815-24.4799L46.2315-26.7285L12.4385-26.7285ZM55.1196 0L57.7637 0L30.6382-70.459L29.4326-70.459L29.4326-67.1323Z"/>
  </g>
  <line id="Baseline-S" style="fill:none;stroke:#27AAE1;opacity:1;stroke-width:0.5;" x1="263" x2="3036" y1="696" y2="696"/>
  <line id="Capline-S" style="fill:none;stroke:#27AAE1;opacity:1;stroke-width:0.5;" x1="263" x2="3036" y1="625.541" y2="625.541"/>
  <g id="H-reference" style="fill:#27AAE1;stroke:none;" transform="matrix(1 0 0 1 339 1126)">
   <path d="M0.993654 0L3.63775 0L29.3281-67.1323L30.0303-67.1323L30.0303-70.459L28.1226-70.459ZM11.6885-24.4799L46.9815-24.4799L46.2315-26.7285L12.4385-26.7285ZM55.1196 0L57.7637 0L30.6382-70.459L29.4326-70.459L29.4326-67.1323Z"/>
  </g>
  <line id="Baseline-M" style="fill:none;stroke:#27AAE1;opacity:1;stroke-width:0.5;" x1="263" x2="3036" y1="1126" y2="1126"/>
  <line id="Capline-M" style="fill:none;stroke:#27AAE1;opacity:1;stroke-width:0.5;" x1="263" x2="3036" y1="1055.54" y2="1055.54"/>
  <g id="H-reference" style="fill:#27AAE1;stroke:none;" transform="matrix(1 0 0 1 339 1556)">
   <path d="M0.993654 0L3.63775 0L29.3281-67.1323L30.0303-67.1323L30.0303-70.459L28.1226-70.459ZM11.6885-24.4799L46.9815-24.4799L46.2315-26.7285L12.4385-26.7285ZM55.1196 0L57.7637 0L30.6382-70.459L29.4326-70.459L29.4326-67.1323Z"/>
  </g>
  <line id="Baseline-L" style="fill:none;stroke:#27AAE1;opacity:1;stroke-width:0.5;" x1="263" x2="3036" y1="1556" y2="1556"/>
  <line id="Capline-L" style="fill:none;stroke:#27AAE1;opacity:1;stroke-width:0.5;" x1="263" x2="3036" y1="1485.54" y2="1485.54"/>
  <line id="left-margin" style="fill:none;stroke:#00AEEF;stroke-width:0.5;opacity:1.0;" x1="1373.17" x2="1373.17" y1="1030.79" y2="1150.12"/>
  <line id="right-margin" style="fill:none;stroke:#00AEEF;stroke-width:0.5;opacity:1.0;" x1="1526.51" x2="1526.51" y1="1030.79" y2="1150.12"/>
 </g>
 <g id="Symbols">
  <g id="Black-L" transform="matrix(1 0 0 1 2832.29 1556)">
   <path d="M101.086 21.2461C155.355 21.2461 189.363-22.1356 189.363-35.1309C189.363-48.0885 155.349-91.4495 101.086-91.4495C47.7312-91.4495 12.8672-48.0885 12.8672-35.1309C12.8672-22.1356 47.7253 21.2461 101.086 21.2461ZM101.086 1.74765C65.013 1.74765 38.3469-26.7196 38.3469-35.1309C38.3469-41.9965 65.013-71.9534 101.086-71.9534C137.138-71.9534 163.862-41.9965 163.862-35.1309C163.862-26.7196 137.138 1.74765 101.086 1.74765ZM101.145-5.66958C117.568-5.66958 130.571-19.1241 130.571-35.1309C130.571-51.4646 117.568-64.4754 101.145-64.4754C84.7526-64.4754 71.6174-51.523 71.6394-35.1309C71.6626-19.1241 84.7526-5.66958 101.145-5.66958ZM101.029-26.561C96.3533-26.561 92.5893-30.4978 92.5893-35.1309C92.5893-39.7859 96.3533-43.6631 101.029-43.6631C105.819-43.6631 109.62-39.7859 109.62-35.1309C109.62-30.4978 105.819-26.561 101.029-26.561Z"/>
  </g>
  <g id="Heavy-L" transform="matrix(1 0 0 1 2536.18 1556)">
   <path d="M100.487 20.6351C153.88 20.6351 188.146-22.2029 188.146-35.1447C188.146-48.0719 153.852-90.8798 100.487-90.8798C47.9545-90.8798 12.8672-48.0719 12.8672-35.1447C12.8672-22.2029 47.9264 20.6351 100.487 20.6351ZM100.487 3.52286C63.0467 3.52286 34.7774-26.5982 34.7774-35.1447C34.7774-42.215 63.0467-73.7788 100.487-73.7788C137.892-73.7788 166.206-42.215 166.206-35.1447C166.206-26.5982 137.892 3.52286 100.487 3.52286ZM100.532-4.3138C117.697-4.3138 131.359-18.3842 131.359-35.1447C131.359-52.2784 117.697-65.8863 100.532-65.8863C83.3534-65.8863 69.5935-52.323 69.6293-35.1447C69.6708-18.3842 83.3534-4.3138 100.532-4.3138ZM100.448-25.8681C95.3522-25.8681 91.2282-30.1147 91.2282-35.1447C91.2282-40.2104 95.3522-44.4068 100.448-44.4068C105.622-44.4068 109.755-40.2104 109.755-35.1447C109.755-30.1147 105.622-25.8681 100.448-25.8681Z"/>
  </g>
  <g id="Bold-L" transform="matrix(1 0 0 1 2240.33 1556)">
   <path d="M99.6376 19.8819C151.894 19.8819 186.424-22.3023 186.424-35.1601C186.424-48.0266 151.828-90.1729 99.6376-90.1729C48.164-90.1729 12.8672-48.0266 12.8672-35.1601C12.8672-22.3023 48.0979 19.8819 99.6376 19.8819ZM99.6376 5.69069C60.4991 5.69069 30.5006-26.4223 30.5006-35.1601C30.5006-42.5585 60.4991-76.0081 99.6376-76.0081C138.725-76.0081 168.753-42.5585 168.753-35.1601C168.753-26.4223 138.725 5.69069 99.6376 5.69069ZM99.6668-2.80252C117.642-2.80252 132.06-17.5591 132.06-35.1601C132.06-53.1807 117.642-67.4592 99.6668-67.4592C81.617-67.4592 67.1556-53.2099 67.2068-35.1601C67.2713-17.5591 81.617-2.80252 99.6668-2.80252ZM99.6216-25.1491C94.0852-25.1491 89.5826-29.7129 89.5826-35.1601C89.5826-40.6585 94.0852-45.1798 99.6216-45.1798C105.19-45.1798 109.671-40.6585 109.671-35.1601C109.671-29.7129 105.19-25.1491 99.6216-25.1491Z"/>
  </g>
  <g id="Semibold-L" transform="matrix(1 0 0 1 1944.21 1556)">
   <path d="M99.0519 19.3627C150.526 19.3627 185.237-22.3709 185.237-35.1707C185.237-47.9953 150.433-89.6856 99.0519-89.6856C48.3085-89.6856 12.8672-47.9953 12.8672-35.1707C12.8672-22.3709 48.2161 19.3627 99.0519 19.3627ZM99.0519 7.18519C58.7428 7.18519 27.5522-26.301 27.5522-35.1707C27.5522-42.7953 58.7428-77.545 99.0519-77.545C139.299-77.545 170.508-42.7953 170.508-35.1707C170.508-26.301 139.299 7.18519 99.0519 7.18519ZM99.0705-1.76066C117.604-1.76066 132.542-16.9904 132.542-35.1707C132.542-53.8027 117.604-68.5436 99.0705-68.5436C80.4199-68.5436 65.4749-53.8213 65.5367-35.1707C65.6171-16.9904 80.4199-1.76066 99.0705-1.76066ZM99.0518-24.6535C93.2117-24.6535 88.4481-29.4359 88.4481-35.1707C88.4481-40.9674 93.2117-45.7127 99.0518-45.7127C104.892-45.7127 109.612-40.9674 109.612-35.1707C109.612-29.4359 104.892-24.6535 99.0518-24.6535Z"/>
  </g>
  <g id="Medium-L" transform="matrix(1 0 0 1 1647.95 1556)">
   <path d="M98.6078 18.969C149.488 18.969 184.336-22.4228 184.336-35.1788C184.336-47.9717 149.376-89.316 98.6078-89.316C48.418-89.316 12.8672-47.9717 12.8672-35.1788C12.8672-22.4228 48.3057 18.969 98.6078 18.969ZM98.6078 8.31838C57.4111 8.31838 25.3167-26.209 25.3167-35.1788C25.3167-42.9749 57.4111-78.7103 98.6078-78.7103C139.735-78.7103 171.84-42.9749 171.84-35.1788C171.84-26.209 139.735 8.31838 98.6078 8.31838ZM98.6183-0.970668C117.575-0.970668 132.908-16.5591 132.908-35.1788C132.908-54.2744 117.575-69.3658 98.6183-69.3658C79.5122-69.3658 64.2005-54.2849 64.2704-35.1788C64.3628-16.5591 79.5122-0.970668 98.6183-0.970668ZM98.6198-24.2777C92.5494-24.2777 87.5879-29.2258 87.5879-35.1788C87.5879-41.2016 92.5494-46.1168 98.6198-46.1168C104.666-46.1168 109.568-41.2016 109.568-35.1788C109.568-29.2258 104.666-24.2777 98.6198-24.2777Z"/>
  </g>
  <g id="Regular-L" transform="matrix(1 0 0 1 1351.83 1556)">
   <path d="M98.0285 18.4555C148.134 18.4555 183.162-22.4906 183.162-35.1893C183.162-47.9407 147.996-88.8341 98.0285-88.8341C48.5609-88.8341 12.8672-47.9407 12.8672-35.1893C12.8672-22.4906 48.4226 18.4555 98.0285 18.4555ZM98.0285 9.79645C55.6741 9.79645 22.4007-26.0891 22.4007-35.1893C22.4007-43.2091 55.6741-80.2303 98.0285-80.2303C140.303-80.2303 173.576-43.2091 173.576-35.1893C173.576-26.0891 140.303 9.79645 98.0285 9.79645ZM98.0285 0.0597501C117.538 0.0597501 133.386-15.9966 133.386-35.1893C133.386-54.8896 117.538-70.4383 98.0285-70.4383C78.3282-70.4383 62.5383-54.8896 62.6187-35.1893C62.7268-15.9966 78.3282 0.0597501 98.0285 0.0597501ZM98.0562-23.7875C91.6856-23.7875 86.4659-28.9518 86.4659-35.1893C86.4659-41.5071 91.6856-46.6438 98.0562-46.6438C104.372-46.6438 109.511-41.5071 109.511-35.1893C109.511-28.9518 104.372-23.7875 98.0562-23.7875Z"/>
  </g>
  <g id="Light-L" transform="matrix(1 0 0 1 1056.41 1556)">
   <path d="M96.7498 17.9593C145.749 17.9593 180.586-22.6624 180.586-35.1893C180.586-47.7499 145.515-88.3379 96.7498-88.3379C48.2746-88.3379 12.8672-47.7499 12.8672-35.1893C12.8672-22.6624 48.0409 17.9593 96.7498 17.9593ZM96.7498 11.0942C53.193 11.0942 20.3776-25.8028 20.3776-35.1893C20.3776-43.9153 53.193-81.5663 96.7498-81.5663C140.226-81.5663 173.042-43.9153 173.042-35.1893C173.042-25.8028 140.226 11.0942 96.7498 11.0942ZM96.7498 0.0215796C116.126 0.0215796 132.088-16.0157 132.088-35.1893C132.088-54.8324 116.126-70.4001 96.7498-70.4001C77.1068-70.4001 61.2977-54.8324 61.3781-35.1893C61.5053-16.0157 77.1068 0.0215796 96.7498 0.0215796ZM96.7966-24.1883C90.6359-24.1883 85.588-29.1427 85.588-35.1893C85.588-41.3163 90.6359-46.2239 96.7966-46.2239C102.864-46.2239 107.831-41.3163 107.831-35.1893C107.831-29.1427 102.864-24.1883 96.7966-24.1883Z"/>
  </g>
  <g id="Thin-L" transform="matrix(1 0 0 1 761.4 1556)">
   <path d="M95.0586 17.303C142.594 17.303 177.178-22.8895 177.178-35.1893C177.178-47.4975 142.234-87.6816 95.0586-87.6816C47.896-87.6816 12.8672-47.4975 12.8672-35.1893C12.8672-22.8895 47.5361 17.303 95.0586 17.303ZM95.0586 12.8107C49.9116 12.8107 17.702-25.4242 17.702-35.1893C17.702-44.8492 49.9116-83.3332 95.0586-83.3332C140.125-83.3332 172.335-44.8492 172.335-35.1893C172.335-25.4242 140.125 12.8107 95.0586 12.8107ZM95.0586-0.0289041C114.258-0.0289041 130.371-16.0409 130.371-35.1893C130.371-54.7566 114.258-70.3497 95.0586-70.3497C75.4913-70.3497 59.657-54.7566 59.7374-35.1893C59.8898-16.0409 75.4913-0.0289041 95.0586-0.0289041ZM95.1306-24.7184C89.2476-24.7184 84.4269-29.3951 84.4269-35.1893C84.4269-41.0639 89.2476-45.6686 95.1306-45.6686C100.87-45.6686 105.61-41.0639 105.61-35.1893C105.61-29.3951 100.87-24.7184 95.1306-24.7184Z"/>
  </g>
  <g id="Ultralight-L" transform="matrix(1 0 0 1 465.561 1556)">
   <path d="M94.1924 16.9669C140.977 16.9669 175.433-23.0059 175.433-35.1893C175.433-47.3682 140.553-87.3454 94.1924-87.3454C47.702-87.3454 12.8672-47.3682 12.8672-35.1893C12.8672-23.0059 47.2775 16.9669 94.1924 16.9669ZM94.1924 13.6898C48.2309 13.6898 16.3316-25.2302 16.3316-35.1893C16.3316-45.3276 48.2309-84.2382 94.1924-84.2382C140.074-84.2382 171.973-45.3276 171.973-35.1893C171.973-25.2302 140.074 13.6898 94.1924 13.6898ZM94.1924-0.0547615C113.301-0.0547615 129.492-16.0538 129.492-35.1893C129.492-54.7178 113.301-70.3238 94.1924-70.3238C74.6638-70.3238 58.8166-54.7178 58.897-35.1893C59.0624-16.0538 74.6638-0.0547615 94.1924-0.0547615ZM94.2773-24.9899C88.5365-24.9899 83.8322-29.5244 83.8322-35.1893C83.8322-40.9346 88.5365-45.3842 94.2773-45.3842C99.8483-45.3842 104.472-40.9346 104.472-35.1893C104.472-29.5244 99.8483-24.9899 94.2773-24.9899Z"/>
  </g>
  <g id="Black-M" transform="matrix(1 0 0 1 2854.71 1126)">
   <path d="M78.6575 8.98246C121.305 8.98246 147.404-25.0505 147.404-35.1412C147.404-45.1803 121.307-79.2078 78.6575-79.2078C36.7488-79.2078 9.96875-45.1803 9.96875-35.1412C9.96875-25.0505 36.7502 8.98246 78.6575 8.98246ZM78.6575-7.93159C51.7221-7.93159 32.5027-28.7021 32.5027-35.1412C32.5027-40.38 51.7221-62.2932 78.6575-62.2932C105.588-62.2932 124.864-40.38 124.864-35.1412C124.864-28.7021 105.588-7.93159 78.6575-7.93159ZM78.7146-13.4986C90.7838-13.4986 100.305-23.3904 100.305-35.1412C100.305-47.1004 90.7838-56.6697 78.7146-56.6697C66.6984-56.6697 57.0563-47.1575 57.0615-35.1412C57.0664-23.3904 66.6984-13.4986 78.7146-13.4986ZM78.6001-29.1635C75.367-29.1635 72.7835-31.9188 72.7835-35.1412C72.7835-38.3689 75.367-41.0674 78.6001-41.0674C81.948-41.0674 84.5834-38.3689 84.5834-35.1412C84.5834-31.9188 81.948-29.1635 78.6001-29.1635Z"/>
  </g>
  <g id="Heavy-M" transform="matrix(1 0 0 1 2558.48 1126)">
   <path d="M78.1898 8.43089C120.083 8.43089 146.452-25.1005 146.452-35.1547C146.452-45.1817 120.071-78.6967 78.1898-78.6967C36.9934-78.6967 9.96875-45.1817 9.96875-35.1547C9.96875-25.1005 36.982 8.43089 78.1898 8.43089ZM78.1898-6.31592C50.0287-6.31592 29.1998-28.6098 29.1998-35.1547C29.1998-40.5285 50.0287-63.9544 78.1898-63.9544C106.332-63.9544 127.205-40.5285 127.205-35.1547C127.205-28.6098 106.332-6.31592 78.1898-6.31592ZM78.2334-12.1697C91.0393-12.1697 101.196-22.6654 101.196-35.1547C101.196-47.9012 91.0393-58.0525 78.2334-58.0525C65.4433-58.0525 55.1923-47.9448 55.211-35.1547C55.2319-22.6654 65.4433-12.1697 78.2334-12.1697ZM78.1484-28.4491C74.4853-28.4491 71.534-31.5267 71.534-35.1547C71.534-38.8015 74.4853-41.8331 78.1484-41.8331C81.8942-41.8331 84.8704-38.8015 84.8704-35.1547C84.8704-31.5267 81.8942-28.4491 78.1484-28.4491Z"/>
  </g>
  <g id="Bold-M" transform="matrix(1 0 0 1 2262.3 1126)">
   <path d="M77.6665 7.81388C118.715 7.81388 145.388-25.1564 145.388-35.1698C145.388-45.1833 118.69-78.1249 77.6665-78.1249C37.267-78.1249 9.96875-45.1833 9.96875-35.1698C9.96875-25.1564 37.2414 7.81388 77.6665 7.81388ZM77.6665-4.50857C48.1345-4.50857 25.5051-28.5066 25.5051-35.1698C25.5051-40.6946 48.1345-65.8127 77.6665-65.8127C107.165-65.8127 129.823-40.6946 129.823-35.1698C129.823-28.5066 107.165-4.50857 77.6665-4.50857ZM77.6951-10.6831C91.3251-10.6831 102.192-21.8543 102.192-35.1698C102.192-48.797 91.3251-59.5994 77.6951-59.5994C64.0393-59.5994 53.1071-48.8255 53.1409-35.1698C53.1798-21.8543 64.0393-10.6831 77.6951-10.6831ZM77.6431-27.65C73.4989-27.65 70.1363-31.088 70.1363-35.1698C70.1363-39.2853 73.4989-42.6897 77.6431-42.6897C81.8341-42.6897 85.1915-39.2853 85.1915-35.1698C85.1915-31.088 81.8341-27.65 77.6431-27.65Z"/>
  </g>
  <g id="Semibold-M" transform="matrix(1 0 0 1 1965.96 1126)">
   <path d="M77.3058 7.38852C117.773 7.38852 144.654-25.1949 144.654-35.1802C144.654-45.1843 117.737-77.7307 77.3058-77.7307C37.4557-77.7307 9.96875-45.1843 9.96875-35.1802C9.96875-25.1949 37.4201 7.38852 77.3058 7.38852ZM77.3058-3.26259C46.8286-3.26259 22.958-28.4355 22.958-35.1802C22.958-40.8091 46.8286-67.0938 77.3058-67.0938C107.739-67.0938 131.628-40.8091 131.628-35.1802C131.628-28.4355 107.739-3.26259 77.3058-3.26259ZM77.3239-9.6583C91.5221-9.6583 102.879-21.2951 102.879-35.1802C102.879-49.4146 91.5221-60.6658 77.3239-60.6658C63.0714-60.6658 51.6696-49.4327 51.7138-35.1802C51.765-21.2951 63.0714-9.6583 77.3239-9.6583ZM77.2947-27.0991C72.8189-27.0991 69.1727-30.7856 69.1727-35.1802C69.1727-39.6189 72.8189-43.2802 77.2947-43.2802C81.7926-43.2802 85.4129-39.6189 85.4129-35.1802C85.4129-30.7856 81.7926-27.0991 77.2947-27.0991Z"/>
  </g>
  <g id="Medium-M" transform="matrix(1 0 0 1 1669.52 1126)">
   <path d="M77.0323 7.06599C117.058 7.06599 144.097-25.2241 144.097-35.1881C144.097-45.1851 117.015-77.4318 77.0323-77.4318C37.5987-77.4318 9.96875-45.1851 9.96875-35.1881C9.96875-25.2241 37.5557 7.06599 77.0323 7.06599ZM77.0323-2.31784C45.8384-2.31784 21.0267-28.3815 21.0267-35.1881C21.0267-40.896 45.8384-68.0652 77.0323-68.0652C108.174-68.0652 132.996-40.896 132.996-35.1881C132.996-28.3815 108.174-2.31784 77.0323-2.31784ZM77.0425-8.88124C91.6715-8.88124 103.4-20.8711 103.4-35.1881C103.4-49.8828 91.6715-61.4743 77.0425-61.4743C62.3375-61.4743 50.5796-49.8931 50.6317-35.1881C50.6923-20.8711 62.3375-8.88124 77.0425-8.88124ZM77.0306-26.6814C72.3033-26.6814 68.4421-30.5563 68.4421-35.1881C68.4421-39.8719 72.3033-43.7279 77.0306-43.7279C81.7612-43.7279 85.5807-39.8719 85.5807-35.1881C85.5807-30.5563 81.7612-26.6814 77.0306-26.6814Z"/>
  </g>
  <g id="Regular-M" transform="matrix(1 0 0 1 1373.17 1126)">
   <path d="M76.6755 6.6453C116.125 6.6453 143.372-25.2622 143.372-35.1983C143.372-45.1862 116.073-77.042 76.6755-77.042C37.7853-77.042 9.96875-45.1862 9.96875-35.1983C9.96875-25.2622 37.7325 6.6453 76.6755 6.6453ZM76.6755-1.08556C44.5469-1.08556 18.5076-28.3112 18.5076-35.1983C18.5076-41.0092 44.5469-69.3322 76.6755-69.3322C108.742-69.3322 134.781-41.0092 134.781-35.1983C134.781-28.3112 108.742-1.08556 76.6755-1.08556ZM76.6755-7.86768C91.8663-7.86768 104.079-20.3181 104.079-35.1983C104.079-50.4936 91.8663-62.529 76.6755-62.529C61.3802-62.529 49.1579-50.4936 49.2202-35.1983C49.2931-20.3181 61.3802-7.86768 76.6755-7.86768ZM76.6861-26.1365C71.6308-26.1365 67.4891-30.2572 67.4891-35.1983C67.4891-40.2018 71.6308-44.3119 76.6861-44.3119C81.7202-44.3119 85.7996-40.2018 85.7996-35.1983C85.7996-30.2572 81.7202-26.1365 76.6861-26.1365Z"/>
  </g>
  <g id="Light-M" transform="matrix(1 0 0 1 1077.62 1126)">
   <path d="M75.5291 6.20042C113.987 6.20042 141.062-25.4162 141.062-35.1983C141.062-45.0151 113.848-76.5971 75.5291-76.5971C37.5286-76.5971 9.96875-45.0151 9.96875-35.1983C9.96875-25.4162 37.3903 6.20042 75.5291 6.20042ZM75.5291 0.077987C42.3225 0.077987 16.6938-28.0545 16.6938-35.1983C16.6938-41.6423 42.3225-70.53 75.5291-70.53C108.673-70.53 134.302-41.6423 134.302-35.1983C134.302-28.0545 108.673 0.077987 75.5291 0.077987ZM75.5291-7.90191C90.6001-7.90191 102.915-20.3352 102.915-35.1983C102.915-50.4423 90.6001-62.4948 75.5291-62.4948C60.2851-62.4948 48.0457-50.4423 48.108-35.1983C48.198-20.3352 60.2851-7.90191 75.5291-7.90191ZM75.5567-26.4958C70.6897-26.4958 66.702-30.4283 66.702-35.1983C66.702-40.0307 70.6897-43.9355 75.5567-43.9355C80.3684-43.9355 84.2939-40.0307 84.2939-35.1983C84.2939-30.4283 80.3684-26.4958 75.5567-26.4958Z"/>
  </g>
  <g id="Thin-M" transform="matrix(1 0 0 1 782.435 1126)">
   <path d="M74.0128 5.61202C111.158 5.61202 138.007-25.6199 138.007-35.1983C138.007-44.7888 110.906-76.0087 74.0128-76.0087C37.1892-76.0087 9.96875-44.7888 9.96875-35.1983C9.96875-25.6199 36.9377 5.61202 74.0128 5.61202ZM74.0128 1.61687C39.3805 1.61687 14.295-27.715 14.295-35.1983C14.295-42.4797 39.3805-72.1141 74.0128-72.1141C108.583-72.1141 133.668-42.4797 133.668-35.1983C133.668-27.715 108.583 1.61687 74.0128 1.61687ZM74.0128-7.94717C88.9254-7.94717 101.377-20.3578 101.377-35.1983C101.377-50.3744 88.9254-62.4495 74.0128-62.4495C58.8367-62.4495 46.5747-50.3744 46.637-35.1983C46.7496-20.3578 58.8367-7.94717 74.0128-7.94717ZM74.0631-26.9711C69.445-26.9711 65.661-30.6546 65.661-35.1983C65.661-39.8044 69.445-43.4376 74.0631-43.4376C78.5806-43.4376 82.3024-39.8044 82.3024-35.1983C82.3024-30.6546 78.5806-26.9711 74.0631-26.9711Z"/>
  </g>
  <g id="Ultralight-M" transform="matrix(1 0 0 1 486.506 1126)">
   <path d="M73.2362 5.31065C109.709 5.31065 136.442-25.7242 136.442-35.1983C136.442-44.6729 109.399-75.7073 73.2362-75.7073C37.0153-75.7073 9.96875-44.6729 9.96875-35.1983C9.96875-25.7242 36.7059 5.31065 73.2362 5.31065ZM73.2362 2.40507C37.8737 2.40507 13.0663-27.5412 13.0663-35.1983C13.0663-42.9086 37.8737-72.9255 73.2362-72.9255C108.536-72.9255 133.344-42.9086 133.344-35.1983C133.344-27.5412 108.536 2.40507 73.2362 2.40507ZM73.2362-7.97035C88.0677-7.97035 100.588-20.3694 100.588-35.1983C100.588-50.3396 88.0677-62.4263 73.2362-62.4263C58.0949-62.4263 45.8213-50.3396 45.8836-35.1983C46.0078-20.3694 58.0949-7.97035 73.2362-7.97035ZM73.2981-27.2145C68.8075-27.2145 65.1278-30.7705 65.1278-35.1983C65.1278-39.6885 68.8075-43.1826 73.2981-43.1826C77.6649-43.1826 81.2823-39.6885 81.2823-35.1983C81.2823-30.7705 77.6649-27.2145 73.2981-27.2145Z"/>
  </g>
  <g id="Black-S" transform="matrix(1 0 0 1 2871.66 696)">
   <path d="M61.7188-0.439453C95.3125-0.439453 115.674-27.2461 115.674-35.1562C115.674-43.0176 95.3125-69.8242 61.7188-69.8242C28.7109-69.8242 7.8125-43.0176 7.8125-35.1562C7.8125-27.2461 28.7109-0.439453 61.7188-0.439453ZM61.7188-14.2578C40.918-14.2578 26.3672-30.127 26.3672-35.1562C26.3672-39.2578 40.918-56.0059 61.7188-56.0059C82.5195-56.0059 97.1191-39.2578 97.1191-35.1562C97.1191-30.127 82.5195-14.2578 61.7188-14.2578ZM61.7676-18.6035C70.9961-18.6035 78.2715-26.1719 78.2715-35.1562C78.2715-44.2871 70.9961-51.6113 61.7676-51.6113C52.5879-51.6113 45.2148-44.3359 45.2148-35.1562C45.2148-26.1719 52.5879-18.6035 61.7676-18.6035ZM61.6699-30.7129C59.2773-30.7129 57.373-32.7637 57.373-35.1562C57.373-37.5488 59.2773-39.5508 61.6699-39.5508C64.1602-39.5508 66.1133-37.5488 66.1133-35.1562C66.1133-32.7637 64.1602-30.7129 61.6699-30.7129Z"/>
  </g>
  <g id="Heavy-S" transform="matrix(1 0 0 1 2575.21 696)">
   <path d="M61.4652-0.854334C94.5404-0.854334 115.155-27.2691 115.155-35.1678C115.155-43.0406 94.5404-69.4439 61.4652-69.4439C28.953-69.4439 7.8125-43.0406 7.8125-35.1678C7.8125-27.2691 28.953-0.854334 61.4652-0.854334ZM61.4652-13.0247C39.754-13.0247 23.7742-30.0809 23.7742-35.1678C23.7742-39.3039 39.754-57.2736 61.4652-57.2736C83.1649-57.2736 99.182-39.3039 99.182-35.1678C99.182-30.0809 83.1649-13.0247 61.4652-13.0247ZM61.5025-17.4626C71.3764-17.4626 79.1819-25.5496 79.1819-35.1678C79.1819-44.9786 71.3764-52.7983 61.5025-52.7983C51.6544-52.7983 43.7628-45.0159 43.7743-35.1678C43.7858-25.5496 51.6544-17.4626 61.5025-17.4626ZM61.4279-30.056C58.6435-30.056 56.405-32.4064 56.405-35.1678C56.405-37.9407 58.6435-40.2538 61.4279-40.2538C64.2869-40.2538 66.5512-37.9407 66.5512-35.1678C66.5512-32.4064 64.2869-30.056 61.4279-30.056Z"/>
  </g>
  <g id="Bold-S" transform="matrix(1 0 0 1 2278.78 696)">
   <path d="M61.1816-1.31836C93.6768-1.31836 114.575-27.2949 114.575-35.1807C114.575-43.0664 93.6768-69.0186 61.1816-69.0186C29.2236-69.0186 7.8125-43.0664 7.8125-35.1807C7.8125-27.2949 29.2236-1.31836 61.1816-1.31836ZM61.1816-11.6455C38.4521-11.6455 20.874-30.0293 20.874-35.1807C20.874-39.3555 38.4521-58.6914 61.1816-58.6914C83.8867-58.6914 101.489-39.3555 101.489-35.1807C101.489-30.0293 83.8867-11.6455 61.1816-11.6455ZM61.2061-16.1865C71.8018-16.1865 80.2002-24.8535 80.2002-35.1807C80.2002-45.752 71.8018-54.126 61.2061-54.126C50.6104-54.126 42.1387-45.7764 42.1631-35.1807C42.1875-24.8535 50.6104-16.1865 61.2061-16.1865ZM61.1572-29.3213C57.9346-29.3213 55.3223-32.0068 55.3223-35.1807C55.3223-38.3789 57.9346-41.04 61.1572-41.04C64.4287-41.04 67.041-38.3789 67.041-35.1807C67.041-32.0068 64.4287-29.3213 61.1572-29.3213Z"/>
  </g>
  <g id="Semibold-S" transform="matrix(1 0 0 1 1982.27 696)">
   <path d="M60.9861-1.63828C93.0813-1.63828 114.175-27.3127 114.175-35.1896C114.175-43.0842 93.0813-68.7253 60.9861-68.7253C29.4103-68.7253 7.8125-43.0842 7.8125-35.1896C7.8125-27.3127 29.4103-1.63828 60.9861-1.63828ZM60.9861-10.6946C37.5546-10.6946 18.8745-29.9937 18.8745-35.1896C18.8745-39.391 37.5546-59.6689 60.9861-59.6689C84.3844-59.6689 103.08-39.391 103.08-35.1896C103.08-29.9937 84.3844-10.6946 60.9861-10.6946ZM61.0017-15.3067C72.095-15.3067 80.9022-24.3736 80.9022-35.1896C80.9022-46.2852 72.095-55.0413 61.0017-55.0413C49.8905-55.0413 41.0189-46.3007 41.0522-35.1896C41.0855-24.3736 49.8905-15.3067 61.0017-15.3067ZM60.9706-28.8147C57.4458-28.8147 54.5758-31.7313 54.5758-35.1896C54.5758-38.6811 57.4458-41.5821 60.9706-41.5821C64.5265-41.5821 67.3787-38.6811 67.3787-35.1896C67.3787-31.7313 64.5265-28.8147 60.9706-28.8147Z"/>
  </g>
  <g id="Medium-S" transform="matrix(1 0 0 1 1685.71 696)">
   <path d="M60.8379-1.88086C92.6299-1.88086 113.872-27.3262 113.872-35.1963C113.872-43.0977 92.6299-68.5029 60.8379-68.5029C29.5518-68.5029 7.8125-43.0977 7.8125-35.1963C7.8125-27.3262 29.5518-1.88086 60.8379-1.88086ZM60.8379-9.97363C36.874-9.97363 17.3584-29.9668 17.3584-35.1963C17.3584-39.418 36.874-60.4102 60.8379-60.4102C84.7617-60.4102 104.286-39.418 104.286-35.1963C104.286-29.9668 84.7617-9.97363 60.8379-9.97363ZM60.8467-14.6396C72.3174-14.6396 81.4346-24.0098 81.4346-35.1963C81.4346-46.6895 72.3174-55.7354 60.8467-55.7354C49.3447-55.7354 40.1699-46.6982 40.21-35.1963C40.25-24.0098 49.3447-14.6396 60.8467-14.6396ZM60.8291-28.4307C57.0752-28.4307 54.0098-31.5225 54.0098-35.1963C54.0098-38.9102 57.0752-41.9932 60.8291-41.9932C64.6006-41.9932 67.6348-38.9102 67.6348-35.1963C67.6348-31.5225 64.6006-28.4307 60.8291-28.4307Z"/>
  </g>
  <g id="Regular-S" transform="matrix(1 0 0 1 1389.2 696)">
   <path d="M60.6445-2.19727C92.041-2.19727 113.477-27.3438 113.477-35.2051C113.477-43.1152 92.041-68.2129 60.6445-68.2129C29.7363-68.2129 7.8125-43.1152 7.8125-35.2051C7.8125-27.3438 29.7363-2.19727 60.6445-2.19727ZM60.6445-9.0332C35.9863-9.0332 15.3809-29.9316 15.3809-35.2051C15.3809-39.4531 35.9863-61.377 60.6445-61.377C85.2539-61.377 105.859-39.4531 105.859-35.2051C105.859-29.9316 85.2539-9.0332 60.6445-9.0332ZM60.6445-13.7695C72.6074-13.7695 82.1289-23.5352 82.1289-35.2051C82.1289-47.2168 72.6074-56.6406 60.6445-56.6406C48.6328-56.6406 39.0625-47.2168 39.1113-35.2051C39.1602-23.5352 48.6328-13.7695 60.6445-13.7695ZM60.6445-27.9297C56.5918-27.9297 53.2715-31.25 53.2715-35.2051C53.2715-39.209 56.5918-42.5293 60.6445-42.5293C64.6973-42.5293 67.9688-39.209 67.9688-35.2051C67.9688-31.25 64.6973-27.9297 60.6445-27.9297Z"/>
  </g>
  <g id="Light-S" transform="matrix(1 0 0 1 1093.51 696)">
   <path d="M59.6304-2.59082C90.1489-2.59082 111.433-27.48 111.433-35.2051C111.433-42.9639 90.0733-67.8193 59.6304-67.8193C29.5093-67.8193 7.8125-42.9639 7.8125-35.2051C7.8125-27.48 29.4336-2.59082 59.6304-2.59082ZM59.6304-8.00391C34.0186-8.00391 13.7764-29.7046 13.7764-35.2051C13.7764-40.0132 34.0186-62.4365 59.6304-62.4365C85.1934-62.4365 105.436-40.0132 105.436-35.2051C105.436-29.7046 85.1934-8.00391 59.6304-8.00391ZM59.6304-13.7998C71.4873-13.7998 81.0996-23.5503 81.0996-35.2051C81.0996-47.1714 71.4873-56.6104 59.6304-56.6104C47.6641-56.6104 38.0786-47.1714 38.1274-35.2051C38.1914-23.5503 47.6641-13.7998 59.6304-13.7998ZM59.6455-28.2476C55.7593-28.2476 52.5752-31.4014 52.5752-35.2051C52.5752-39.0576 55.7593-42.1963 59.6455-42.1963C63.5015-42.1963 66.6367-39.0576 66.6367-35.2051C66.6367-31.4014 63.5015-28.2476 59.6455-28.2476Z"/>
  </g>
  <g id="Thin-S" transform="matrix(1 0 0 1 798.151 696)">
   <path d="M58.2891-3.11132C87.6465-3.11132 108.731-27.6602 108.731-35.2051C108.731-42.7637 87.4707-67.2988 58.2891-67.2988C29.209-67.2988 7.8125-42.7637 7.8125-35.2051C7.8125-27.6602 29.0332-3.11132 58.2891-3.11132ZM58.2891-6.6426C31.4161-6.6426 11.6543-29.4043 11.6543-35.2051C11.6543-40.7539 31.4161-63.8379 58.2891-63.8379C85.1133-63.8379 104.875-40.7539 104.875-35.2051C104.875-29.4043 85.1133-6.6426 58.2891-6.6426ZM58.2891-13.8398C70.0059-13.8398 79.7383-23.5703 79.7383-35.2051C79.7383-47.1113 70.0059-56.5703 58.2891-56.5703C46.3828-56.5703 36.7774-47.1113 36.8262-35.2051C36.9102-23.5703 46.3828-13.8398 58.2891-13.8398ZM58.3242-28.668C54.6582-28.668 51.6543-31.6016 51.6543-35.2051C51.6543-38.8574 54.6582-41.7559 58.3242-41.7559C61.9199-41.7559 64.875-38.8574 64.875-35.2051C64.875-31.6016 61.9199-28.668 58.3242-28.668Z"/>
  </g>
  <g id="Ultralight-S" transform="matrix(1 0 0 1 502.132 696)">
   <path d="M57.6021-3.37792C86.3648-3.37792 107.346-27.7524 107.346-35.2051C107.346-42.6611 86.1377-67.0322 57.6021-67.0322C29.0552-67.0322 7.8125-42.6611 7.8125-35.2051C7.8125-27.7524 28.8281-3.37792 57.6021-3.37792ZM57.6021-5.94534C30.0831-5.94534 10.5674-29.2505 10.5674-35.2051C10.5674-41.1333 30.0831-64.5556 57.6021-64.5556C85.0723-64.5556 104.588-41.1333 104.588-35.2051C104.588-29.2505 85.0723-5.94534 57.6021-5.94534ZM57.6021-13.8604C69.2471-13.8604 79.041-23.5806 79.041-35.2051C79.041-47.0806 69.2471-56.5498 57.6021-56.5498C45.7266-56.5498 36.1109-47.0806 36.1597-35.2051C36.2539-23.5806 45.7266-13.8604 57.6021-13.8604ZM57.6475-28.8833C54.0943-28.8833 51.1826-31.7041 51.1826-35.2051C51.1826-38.7549 54.0943-41.5303 57.6475-41.5303C61.1099-41.5303 63.9727-38.7549 63.9727-35.2051C63.9727-31.7041 61.1099-28.8833 57.6475-28.8833Z"/>
  </g>
 </g>
</svg>
