<?xml version="1.0" encoding="UTF-8"?>
<!--Generator: Apple Native CoreSVG 175-->
<!DOCTYPE svg
PUBLIC "-//W3C//DTD SVG 1.1//EN"
       "http://www.w3.org/Graphics/SVG/1.1/DTD/svg11.dtd">
<svg version="1.1" xmlns="http://www.w3.org/2000/svg" xmlns:xlink="http://www.w3.org/1999/xlink" width="3300" height="2200">
 <!--glyph: "uni100061.medium", point size: 100.0, font version: "17.0d12e1", template writer version: "65.1"-->
 <g id="Notes">
  <rect height="2200" id="artboard" style="fill:white;opacity:1" width="3300" x="0" y="0"/>
  <line style="fill:none;stroke:black;opacity:1;stroke-width:0.5;" x1="263" x2="3036" y1="292" y2="292"/>
  <text style="stroke:none;fill:black;font-family:sans-serif;font-size:13;font-weight:bold;" transform="matrix(1 0 0 1 263 322)">Weight/Scale Variations</text>
  <text style="stroke:none;fill:black;font-family:sans-serif;font-size:13;text-anchor:middle;" transform="matrix(1 0 0 1 559.711 322)">Ultralight</text>
  <text style="stroke:none;fill:black;font-family:sans-serif;font-size:13;text-anchor:middle;" transform="matrix(1 0 0 1 856.422 322)">Thin</text>
  <text style="stroke:none;fill:black;font-family:sans-serif;font-size:13;text-anchor:middle;" transform="matrix(1 0 0 1 1153.13 322)">Light</text>
  <text style="stroke:none;fill:black;font-family:sans-serif;font-size:13;text-anchor:middle;" transform="matrix(1 0 0 1 1449.84 322)">Regular</text>
  <text style="stroke:none;fill:black;font-family:sans-serif;font-size:13;text-anchor:middle;" transform="matrix(1 0 0 1 1746.56 322)">Medium</text>
  <text style="stroke:none;fill:black;font-family:sans-serif;font-size:13;text-anchor:middle;" transform="matrix(1 0 0 1 2043.27 322)">Semibold</text>
  <text style="stroke:none;fill:black;font-family:sans-serif;font-size:13;text-anchor:middle;" transform="matrix(1 0 0 1 2339.98 322)">Bold</text>
  <text style="stroke:none;fill:black;font-family:sans-serif;font-size:13;text-anchor:middle;" transform="matrix(1 0 0 1 2636.69 322)">Heavy</text>
  <text style="stroke:none;fill:black;font-family:sans-serif;font-size:13;text-anchor:middle;" transform="matrix(1 0 0 1 2933.4 322)">Black</text>
  <line style="fill:none;stroke:black;opacity:1;stroke-width:0.5;" x1="263" x2="3036" y1="1903" y2="1903"/>
  <g transform="matrix(1 0 0 1 263 1933)">
   <path d="M9.24805 0.830078Q10.8691 0.830078 12.2949 0.214844Q13.7207-0.400391 14.8096-1.49414Q15.8984-2.58789 16.5186-4.01367Q17.1387-5.43945 17.1387-7.05078Q17.1387-8.66211 16.5186-10.0879Q15.8984-11.5137 14.8047-12.6074Q13.7109-13.7012 12.2852-14.3164Q10.8594-14.9316 9.23828-14.9316Q7.62695-14.9316 6.20117-14.3164Q4.77539-13.7012 3.69141-12.6074Q2.60742-11.5137 1.9873-10.0879Q1.36719-8.66211 1.36719-7.05078Q1.36719-5.43945 1.9873-4.01367Q2.60742-2.58789 3.69629-1.49414Q4.78516-0.400391 6.21094 0.214844Q7.63672 0.830078 9.24805 0.830078ZM9.24805-0.654297Q7.91992-0.654297 6.7627-1.14746Q5.60547-1.64062 4.73145-2.51953Q3.85742-3.39844 3.36426-4.56055Q2.87109-5.72266 2.87109-7.05078Q2.87109-8.37891 3.35938-9.54102Q3.84766-10.7031 4.72168-11.582Q5.5957-12.4609 6.75293-12.9541Q7.91016-13.4473 9.23828-13.4473Q10.5762-13.4473 11.7334-12.9541Q12.8906-12.4609 13.7695-11.582Q14.6484-10.7031 15.1465-9.54102Q15.6445-8.37891 15.6445-7.05078Q15.6445-5.72266 15.1514-4.56055Q14.6582-3.39844 13.7842-2.51953Q12.9102-1.64062 11.748-1.14746Q10.5859-0.654297 9.24805-0.654297ZM5.6543-7.05078Q5.6543-6.72852 5.85938-6.52832Q6.06445-6.32812 6.40625-6.32812L8.51562-6.32812L8.51562-4.20898Q8.51562-3.88672 8.71094-3.67676Q8.90625-3.4668 9.23828-3.4668Q9.56055-3.4668 9.77051-3.67676Q9.98047-3.88672 9.98047-4.20898L9.98047-6.32812L12.0898-6.32812Q12.4219-6.32812 12.627-6.52832Q12.832-6.72852 12.832-7.05078Q12.832-7.38281 12.627-7.58789Q12.4219-7.79297 12.0898-7.79297L9.98047-7.79297L9.98047-9.90234Q9.98047-10.2344 9.77051-10.4443Q9.56055-10.6543 9.23828-10.6543Q8.90625-10.6543 8.71094-10.4443Q8.51562-10.2344 8.51562-9.90234L8.51562-7.79297L6.40625-7.79297Q6.06445-7.79297 5.85938-7.58789Q5.6543-7.38281 5.6543-7.05078Z"/>
  </g>
  <g transform="matrix(1 0 0 1 281.867 1933)">
   <path d="M11.709 2.91016Q13.75 2.91016 15.5518 2.12891Q17.3535 1.34766 18.7305-0.0292969Q20.1074-1.40625 20.8887-3.20801Q21.6699-5.00977 21.6699-7.05078Q21.6699-9.0918 20.8887-10.8936Q20.1074-12.6953 18.7305-14.0723Q17.3535-15.4492 15.5469-16.2305Q13.7402-17.0117 11.6992-17.0117Q9.6582-17.0117 7.85645-16.2305Q6.05469-15.4492 4.68262-14.0723Q3.31055-12.6953 2.5293-10.8936Q1.74805-9.0918 1.74805-7.05078Q1.74805-5.00977 2.5293-3.20801Q3.31055-1.40625 4.6875-0.0292969Q6.06445 1.34766 7.86621 2.12891Q9.66797 2.91016 11.709 2.91016ZM11.709 1.25Q9.98047 1.25 8.47656 0.605469Q6.97266-0.0390625 5.83496-1.17676Q4.69727-2.31445 4.05762-3.81836Q3.41797-5.32227 3.41797-7.05078Q3.41797-8.7793 4.05762-10.2832Q4.69727-11.7871 5.83008-12.9297Q6.96289-14.0723 8.4668-14.7119Q9.9707-15.3516 11.6992-15.3516Q13.4277-15.3516 14.9316-14.7119Q16.4355-14.0723 17.5781-12.9297Q18.7207-11.7871 19.3652-10.2832Q20.0098-8.7793 20.0098-7.05078Q20.0098-5.32227 19.3701-3.81836Q18.7305-2.31445 17.5928-1.17676Q16.4551-0.0390625 14.9463 0.605469Q13.4375 1.25 11.709 1.25ZM7.17773-7.05078Q7.17773-6.69922 7.41211-6.47461Q7.64648-6.25 8.01758-6.25L10.8887-6.25L10.8887-3.36914Q10.8887-2.99805 11.1133-2.76855Q11.3379-2.53906 11.6895-2.53906Q12.0605-2.53906 12.29-2.76855Q12.5195-2.99805 12.5195-3.36914L12.5195-6.25L15.4004-6.25Q15.7715-6.25 16.001-6.47461Q16.2305-6.69922 16.2305-7.05078Q16.2305-7.42188 16.001-7.65137Q15.7715-7.88086 15.4004-7.88086L12.5195-7.88086L12.5195-10.752Q12.5195-11.1328 12.29-11.3623Q12.0605-11.5918 11.6895-11.5918Q11.3379-11.5918 11.1133-11.3574Q10.8887-11.123 10.8887-10.752L10.8887-7.88086L8.01758-7.88086Q7.63672-7.88086 7.40723-7.65137Q7.17773-7.42188 7.17773-7.05078Z"/>
  </g>
  <g transform="matrix(1 0 0 1 305.646 1933)">
   <path d="M14.9707 5.66406Q17.0605 5.66406 18.96 5.01465Q20.8594 4.36523 22.4512 3.19336Q24.043 2.02148 25.2197 0.429688Q26.3965-1.16211 27.0459-3.06641Q27.6953-4.9707 27.6953-7.05078Q27.6953-9.14062 27.0459-11.04Q26.3965-12.9395 25.2197-14.5312Q24.043-16.123 22.4512-17.2998Q20.8594-18.4766 18.9551-19.126Q17.0508-19.7754 14.9609-19.7754Q12.8711-19.7754 10.9717-19.126Q9.07227-18.4766 7.48535-17.2998Q5.89844-16.123 4.72168-14.5312Q3.54492-12.9395 2.90039-11.04Q2.25586-9.14062 2.25586-7.05078Q2.25586-4.9707 2.90527-3.06641Q3.55469-1.16211 4.72656 0.429688Q5.89844 2.02148 7.49023 3.19336Q9.08203 4.36523 10.9814 5.01465Q12.8809 5.66406 14.9707 5.66406ZM14.9707 3.84766Q13.1641 3.84766 11.5283 3.2959Q9.89258 2.74414 8.53516 1.74805Q7.17773 0.751953 6.17676-0.610352Q5.17578-1.97266 4.62891-3.6084Q4.08203-5.24414 4.08203-7.05078Q4.08203-8.86719 4.62891-10.5029Q5.17578-12.1387 6.17188-13.501Q7.16797-14.8633 8.52539-15.8594Q9.88281-16.8555 11.5186-17.4023Q13.1543-17.9492 14.9609-17.9492Q16.7773-17.9492 18.4131-17.4023Q20.0488-16.8555 21.4111-15.8594Q22.7734-14.8633 23.7695-13.501Q24.7656-12.1387 25.3174-10.5029Q25.8691-8.86719 25.8691-7.05078Q25.8789-5.24414 25.332-3.6084Q24.7852-1.97266 23.7842-0.610352Q22.7832 0.751953 21.4209 1.74805Q20.0586 2.74414 18.4229 3.2959Q16.7871 3.84766 14.9707 3.84766ZM9.19922-7.05078Q9.19922-6.66992 9.45801-6.4209Q9.7168-6.17188 10.1172-6.17188L14.0625-6.17188L14.0625-2.2168Q14.0625-1.81641 14.3115-1.55762Q14.5605-1.29883 14.9512-1.29883Q15.3516-1.29883 15.6104-1.55273Q15.8691-1.80664 15.8691-2.2168L15.8691-6.17188L19.8242-6.17188Q20.2246-6.17188 20.4785-6.4209Q20.7324-6.66992 20.7324-7.05078Q20.7324-7.46094 20.4785-7.71484Q20.2246-7.96875 19.8242-7.96875L15.8691-7.96875L15.8691-11.9141Q15.8691-12.3242 15.6104-12.583Q15.3516-12.8418 14.9512-12.8418Q14.5605-12.8418 14.3115-12.583Q14.0625-12.3242 14.0625-11.9141L14.0625-7.96875L10.1172-7.96875Q9.70703-7.96875 9.45312-7.71484Q9.19922-7.46094 9.19922-7.05078Z"/>
  </g>
  <text style="stroke:none;fill:black;font-family:sans-serif;font-size:13;font-weight:bold;" transform="matrix(1 0 0 1 263 1953)">Design Variations</text>
  <text style="stroke:none;fill:black;font-family:sans-serif;font-size:13;" transform="matrix(1 0 0 1 263 1971)">Symbols are supported in up to nine weights and three scales.</text>
  <text style="stroke:none;fill:black;font-family:sans-serif;font-size:13;" transform="matrix(1 0 0 1 263 1989)">For optimal layout with text and other symbols, vertically align</text>
  <text style="stroke:none;fill:black;font-family:sans-serif;font-size:13;" transform="matrix(1 0 0 1 263 2007)">symbols with the adjacent text.</text>
  <line style="fill:none;stroke:#00AEEF;stroke-width:0.5;opacity:1.0;" x1="776" x2="776" y1="1919" y2="1933"/>
  <g transform="matrix(1 0 0 1 776 1933)">
   <path d="M3.31055 0.15625Q3.70117 0.15625 3.91602-0.00976562Q4.13086-0.175781 4.26758-0.585938L5.52734-4.0332L11.2891-4.0332L12.5488-0.585938Q12.6855-0.175781 12.9004-0.00976562Q13.1152 0.15625 13.4961 0.15625Q13.8867 0.15625 14.1162-0.0585938Q14.3457-0.273438 14.3457-0.644531Q14.3457-0.869141 14.2383-1.17188L9.6582-13.3691Q9.48242-13.8184 9.17969-14.043Q8.87695-14.2676 8.4082-14.2676Q7.5-14.2676 7.17773-13.3789L2.59766-1.16211Q2.49023-0.859375 2.49023-0.634766Q2.49023-0.263672 2.70996-0.0537109Q2.92969 0.15625 3.31055 0.15625ZM6.00586-5.51758L8.37891-12.0898L8.42773-12.0898L10.8008-5.51758Z"/>
  </g>
  <line style="fill:none;stroke:#00AEEF;stroke-width:0.5;opacity:1.0;" x1="793.197" x2="793.197" y1="1919" y2="1933"/>
  <text style="stroke:none;fill:black;font-family:sans-serif;font-size:13;font-weight:bold;" transform="matrix(1 0 0 1 776 1953)">Margins</text>
  <text style="stroke:none;fill:black;font-family:sans-serif;font-size:13;" transform="matrix(1 0 0 1 776 1971)">Leading and trailing margins on the left and right side of each symbol</text>
  <text style="stroke:none;fill:black;font-family:sans-serif;font-size:13;" transform="matrix(1 0 0 1 776 1989)">can be adjusted by modifying the x-location of the margin guidelines.</text>
  <text style="stroke:none;fill:black;font-family:sans-serif;font-size:13;" transform="matrix(1 0 0 1 776 2007)">Modifications are automatically applied proportionally to all</text>
  <text style="stroke:none;fill:black;font-family:sans-serif;font-size:13;" transform="matrix(1 0 0 1 776 2025)">scales and weights.</text>
  <g transform="matrix(1 0 0 1 1289 1933)">
   <path d="M2.8418 1.86523L4.54102 3.57422Q5.18555 4.22852 5.90332 4.17969Q6.62109 4.13086 7.31445 3.35938L18.0078-8.42773L17.041-9.4043L6.42578 2.27539Q6.16211 2.57812 5.89355 2.61719Q5.625 2.65625 5.27344 2.30469L4.10156 1.14258Q3.75 0.791016 3.79395 0.522461Q3.83789 0.253906 4.14062-0.0195312L15.6152-10.8203L14.6387-11.7871L3.04688-0.898438Q2.30469-0.214844 2.25098 0.498047Q2.19727 1.21094 2.8418 1.86523ZM9.25781-16.3281Q8.94531-16.0254 8.90625-15.6348Q8.86719-15.2441 9.04297-14.9512Q9.21875-14.6777 9.55566-14.541Q9.89258-14.4043 10.3809-14.5215Q11.4746-14.7754 12.5977-14.7314Q13.7207-14.6875 14.7949-13.9844L14.209-12.5293Q13.9551-11.9043 14.0674-11.4404Q14.1797-10.9766 14.5801-10.5664L16.875-8.25195Q17.2363-7.88086 17.5781-7.82227Q17.9199-7.76367 18.3398-7.8418L19.4043-8.03711L20.0684-7.36328L20.0293-6.80664Q20-6.43555 20.1221-6.12305Q20.2441-5.81055 20.6055-5.44922L21.3672-4.70703Q21.7285-4.3457 22.1533-4.33105Q22.5781-4.31641 22.9297-4.66797L25.8398-7.58789Q26.1914-7.93945 26.1816-8.35449Q26.1719-8.76953 25.8105-9.13086L25.0391-9.89258Q24.6875-10.2539 24.3799-10.3857Q24.0723-10.5176 23.7109-10.4883L23.1348-10.4395L22.4902-11.0742L22.7344-12.1973Q22.832-12.6172 22.6953-12.9834Q22.5586-13.3496 22.1191-13.7891L19.9219-15.9766Q18.6719-17.2168 17.2607-17.8369Q15.8496-18.457 14.4189-18.4814Q12.9883-18.5059 11.665-17.959Q10.3418-17.4121 9.25781-16.3281ZM10.752-15.957Q11.6602-16.6211 12.7002-16.9043Q13.7402-17.1875 14.8047-17.085Q15.8691-16.9824 16.8701-16.5137Q17.8711-16.0449 18.7012-15.2051L21.1328-12.793Q21.3086-12.6172 21.3525-12.4512Q21.3965-12.2852 21.3379-12.0312L21.0156-10.5469L22.5195-9.0625L23.5059-9.12109Q23.6914-9.13086 23.7891-9.09668Q23.8867-9.0625 24.0332-8.91602L24.6094-8.33984L22.168-5.89844L21.5918-6.47461Q21.4453-6.62109 21.4062-6.71875Q21.3672-6.81641 21.377-7.01172L21.4453-7.98828L19.9512-9.47266L18.4277-9.21875Q18.1836-9.16992 18.042-9.2041Q17.9004-9.23828 17.7148-9.41406L15.7129-11.416Q15.5176-11.5918 15.4932-11.7529Q15.4688-11.9141 15.5859-12.1875L16.4648-14.2773Q15.293-15.3711 13.8281-15.791Q12.3633-16.2109 10.8398-15.7617Q10.7227-15.7324 10.6885-15.8057Q10.6543-15.8789 10.752-15.957Z"/>
  </g>
  <text style="stroke:none;fill:black;font-family:sans-serif;font-size:13;font-weight:bold;" transform="matrix(1 0 0 1 1289 1953)">Exporting</text>
  <text style="stroke:none;fill:black;font-family:sans-serif;font-size:13;" transform="matrix(1 0 0 1 1289 1971)">Symbols should be outlined when exporting to ensure the</text>
  <text style="stroke:none;fill:black;font-family:sans-serif;font-size:13;" transform="matrix(1 0 0 1 1289 1989)">design is preserved when submitting to Xcode.</text>
  <text id="template-version" style="stroke:none;fill:black;font-family:sans-serif;font-size:13;text-anchor:end;" transform="matrix(1 0 0 1 3036 1933)">Template v.2.0</text>
  <text style="stroke:none;fill:black;font-family:sans-serif;font-size:13;text-anchor:end;" transform="matrix(1 0 0 1 3036 1951)">Requires Xcode 13 or greater</text>
  <text id="descriptive-name" style="stroke:none;fill:black;font-family:sans-serif;font-size:13;text-anchor:end;" transform="matrix(1 0 0 1 3036 1969)">Generated from xmark.circle.fill</text>
  <text style="stroke:none;fill:black;font-family:sans-serif;font-size:13;text-anchor:end;" transform="matrix(1 0 0 1 3036 1987)">Typeset at 100 points</text>
  <text style="stroke:none;fill:black;font-family:sans-serif;font-size:13;" transform="matrix(1 0 0 1 263 726)">Small</text>
  <text style="stroke:none;fill:black;font-family:sans-serif;font-size:13;" transform="matrix(1 0 0 1 263 1156)">Medium</text>
  <text style="stroke:none;fill:black;font-family:sans-serif;font-size:13;" transform="matrix(1 0 0 1 263 1586)">Large</text>
 </g>
 <g id="Guides">
  <g id="H-reference" style="fill:#27AAE1;stroke:none;" transform="matrix(1 0 0 1 339 696)">
   <path d="M0.993347 0L3.6377 0L29.3282-67.1326L30.0301-67.1326L30.0301-70.459L28.1227-70.459ZM11.6882-24.4797L46.9818-24.4797L46.2311-26.7288L12.4382-26.7288ZM55.1193 0L57.7637 0L30.6381-70.459L29.4327-70.459L29.4327-67.1326Z"/>
  </g>
  <line id="Baseline-S" style="fill:none;stroke:#27AAE1;opacity:1;stroke-width:0.5;" x1="263" x2="3036" y1="696" y2="696"/>
  <line id="Capline-S" style="fill:none;stroke:#27AAE1;opacity:1;stroke-width:0.5;" x1="263" x2="3036" y1="625.541" y2="625.541"/>
  <g id="H-reference" style="fill:#27AAE1;stroke:none;" transform="matrix(1 0 0 1 339 1126)">
   <path d="M0.993347 0L3.6377 0L29.3282-67.1326L30.0301-67.1326L30.0301-70.459L28.1227-70.459ZM11.6882-24.4797L46.9818-24.4797L46.2311-26.7288L12.4382-26.7288ZM55.1193 0L57.7637 0L30.6381-70.459L29.4327-70.459L29.4327-67.1326Z"/>
  </g>
  <line id="Baseline-M" style="fill:none;stroke:#27AAE1;opacity:1;stroke-width:0.5;" x1="263" x2="3036" y1="1126" y2="1126"/>
  <line id="Capline-M" style="fill:none;stroke:#27AAE1;opacity:1;stroke-width:0.5;" x1="263" x2="3036" y1="1055.54" y2="1055.54"/>
  <g id="H-reference" style="fill:#27AAE1;stroke:none;" transform="matrix(1 0 0 1 339 1556)">
   <path d="M0.993347 0L3.6377 0L29.3282-67.1326L30.0301-67.1326L30.0301-70.459L28.1227-70.459ZM11.6882-24.4797L46.9818-24.4797L46.2311-26.7288L12.4382-26.7288ZM55.1193 0L57.7637 0L30.6381-70.459L29.4327-70.459L29.4327-67.1326Z"/>
  </g>
  <line id="Baseline-L" style="fill:none;stroke:#27AAE1;opacity:1;stroke-width:0.5;" x1="263" x2="3036" y1="1556" y2="1556"/>
  <line id="Capline-L" style="fill:none;stroke:#27AAE1;opacity:1;stroke-width:0.5;" x1="263" x2="3036" y1="1485.54" y2="1485.54"/>
  <line id="left-margin" style="fill:none;stroke:#00AEEF;stroke-width:0.5;opacity:1.0;" x1="1391.3" x2="1391.3" y1="1030.79" y2="1150.12"/>
  <line id="right-margin" style="fill:none;stroke:#00AEEF;stroke-width:0.5;opacity:1.0;" x1="1508.39" x2="1508.39" y1="1030.79" y2="1150.12"/>
 </g>
 <g id="Symbols">
  <g id="Black-L" transform="matrix(1 0 0 1 2854.05 1556)">
   <path d="M79.3457 32.8613Q90.5762 32.8613 100.757 29.3945Q110.938 25.9277 119.458 19.6777Q127.979 13.4277 134.229 4.90723Q140.479-3.61328 143.945-13.7939Q147.412-23.9746 147.412-35.2051Q147.412-46.4355 143.945-56.6162Q140.479-66.7969 134.204-75.3174Q127.93-83.8379 119.434-90.1123Q110.938-96.3867 100.732-99.8291Q90.5273-103.271 79.2969-103.271Q68.1152-103.271 57.9102-99.8291Q47.7051-96.3867 39.209-90.1123Q30.7129-83.8379 24.4385-75.3174Q18.1641-66.7969 14.7217-56.6162Q11.2793-46.4355 11.2793-35.2051Q11.2793-23.9746 14.7217-13.7939Q18.1641-3.61328 24.4385 4.90723Q30.7129 13.4277 39.2334 19.6777Q47.7539 25.9277 57.9346 29.3945Q68.1152 32.8613 79.3457 32.8613ZM60.2539-7.66602Q56.6406-7.66602 54.1748-10.1562Q51.709-12.6465 51.709-16.3574Q51.709-19.7266 54.2969-22.2168L67.1387-35.1074L54.2969-48.0469Q51.709-50.5371 51.709-53.9062Q51.709-57.6172 54.1748-60.083Q56.6406-62.5488 60.2539-62.5488Q64.0625-62.5488 66.6016-60.0586L79.3457-47.3633L92.1387-60.0586Q94.6777-62.5977 98.4863-62.5977Q102.1-62.5977 104.565-60.1074Q107.031-57.6172 107.031-53.9551Q107.031-50.5371 104.443-48.0469L91.6504-35.1074L104.443-22.2656Q107.031-19.7754 107.031-16.3574Q107.031-12.6465 104.541-10.1562Q102.051-7.66602 98.4375-7.66602Q94.5312-7.66602 92.041-10.2051L79.3457-22.8027L66.6992-10.2051Q64.1602-7.66602 60.2539-7.66602Z"/>
  </g>
  <g id="Heavy-L" transform="matrix(1 0 0 1 2558.4 1556)">
   <path d="M78.2715 31.7871Q89.3555 31.7871 99.3652 28.3691Q109.375 24.9512 117.749 18.7988Q126.123 12.6465 132.3 4.24805Q138.477-4.15039 141.895-14.1602Q145.312-24.1699 145.312-35.2051Q145.312-46.2402 141.895-56.2744Q138.477-66.3086 132.3-74.6826Q126.123-83.0566 117.749-89.2578Q109.375-95.459 99.3408-98.8525Q89.3066-102.246 78.2227-102.246Q67.2363-102.246 57.2021-98.8525Q47.168-95.459 38.7939-89.2578Q30.4199-83.0566 24.2432-74.6826Q18.0664-66.3086 14.6729-56.2744Q11.2793-46.2402 11.2793-35.2051Q11.2793-24.1699 14.6729-14.1602Q18.0664-4.15039 24.2432 4.24805Q30.4199 12.6465 38.8184 18.7988Q47.2168 24.9512 57.2266 28.3691Q67.2363 31.7871 78.2715 31.7871ZM58.6914-8.10547Q55.5176-8.10547 53.3203-10.3027Q51.123-12.5 51.123-15.8203Q51.123-18.7988 53.418-21.0449L67.4805-35.1074L53.418-49.2676Q51.123-51.4648 51.123-54.4922Q51.123-57.7637 53.3203-59.9609Q55.5176-62.1582 58.6914-62.1582Q62.0117-62.1582 64.3066-59.9121L78.3203-45.9473L92.3828-59.9121Q94.6289-62.207 97.9492-62.207Q101.123-62.207 103.32-59.9854Q105.518-57.7637 105.518-54.541Q105.518-51.5137 103.223-49.2676L89.209-35.1074L103.223-21.0938Q105.518-18.8965 105.518-15.8203Q105.518-12.5 103.296-10.3027Q101.074-8.10547 97.9004-8.10547Q94.4336-8.10547 92.2363-10.3516L78.3203-24.2188L64.4043-10.3516Q62.1582-8.10547 58.6914-8.10547Z"/>
  </g>
  <g id="Bold-L" transform="matrix(1 0 0 1 2262.87 1556)">
   <path d="M77.0996 30.6152Q87.9395 30.6152 97.7783 27.2461Q107.617 23.877 115.869 17.8223Q124.121 11.7676 130.176 3.51562Q136.23-4.73633 139.6-14.5752Q142.969-24.4141 142.969-35.2539Q142.969-46.0938 139.6-55.9326Q136.23-65.7715 130.151-73.999Q124.072-82.2266 115.845-88.3057Q107.617-94.3848 97.7539-97.7295Q87.8906-101.074 77.0508-101.074Q66.2598-101.074 56.3965-97.7295Q46.5332-94.3848 38.3301-88.3057Q30.127-82.2266 24.0479-73.999Q17.9688-65.7715 14.624-55.9326Q11.2793-46.0938 11.2793-35.2539Q11.2793-24.4141 14.624-14.5752Q17.9688-4.73633 24.0479 3.51562Q30.127 11.7676 38.3545 17.8223Q46.582 23.877 56.4209 27.2461Q66.2598 30.6152 77.0996 30.6152ZM56.9824-8.59375Q54.1992-8.59375 52.3193-10.498Q50.4395-12.4023 50.4395-15.1855Q50.4395-17.7734 52.3926-19.7266L67.8223-35.1562L52.3926-50.6348Q50.4395-52.5391 50.4395-55.1758Q50.4395-57.959 52.3193-59.8145Q54.1992-61.6699 56.9824-61.6699Q59.7656-61.6699 61.7188-59.7656L77.0996-44.4336L92.5781-59.8145Q94.5312-61.7676 97.3145-61.7676Q100.049-61.7676 101.953-59.8633Q103.857-57.959 103.857-55.2246Q103.857-52.5879 101.904-50.6836L86.4746-35.1562L101.855-19.7754Q103.809-17.8711 103.809-15.1855Q103.809-12.4023 101.904-10.498Q100-8.59375 97.2656-8.59375Q94.3359-8.59375 92.4316-10.5469L77.0996-25.8301L61.8164-10.5469Q59.8633-8.59375 56.9824-8.59375Z"/>
  </g>
  <g id="Semibold-L" transform="matrix(1 0 0 1 1966.97 1556)">
   <path d="M76.2695 29.7852Q86.9629 29.7852 96.6797 26.4648Q106.396 23.1445 114.551 17.1631Q122.705 11.1816 128.687 3.02734Q134.668-5.12695 137.988-14.8438Q141.309-24.5605 141.309-35.2539Q141.309-45.9473 137.988-55.6641Q134.668-65.3809 128.662-73.5107Q122.656-81.6406 114.526-87.6465Q106.396-93.6523 96.6553-96.9727Q86.9141-100.293 76.2207-100.293Q65.5273-100.293 55.8105-96.9727Q46.0938-93.6523 37.9883-87.6465Q29.8828-81.6406 23.877-73.5107Q17.8711-65.3809 14.5752-55.6641Q11.2793-45.9473 11.2793-35.2539Q11.2793-24.5605 14.5996-14.8438Q17.9199-5.12695 23.9014 3.02734Q29.8828 11.1816 38.0127 17.1631Q46.1426 23.1445 55.8594 26.4648Q65.5762 29.7852 76.2695 29.7852ZM55.7617-8.88672Q53.3203-8.88672 51.6602-10.5713Q50-12.2559 50-14.7461Q50-17.041 51.709-18.7988L68.1152-35.1562L51.709-51.5625Q50-53.2715 50-55.6152Q50-58.0566 51.6602-59.6924Q53.3203-61.3281 55.7617-61.3281Q58.2031-61.3281 59.9121-59.668L76.3184-43.3105L92.7734-59.668Q94.4824-61.4258 96.9238-61.4258Q99.3164-61.4258 101.001-59.7656Q102.686-58.1055 102.686-55.6641Q102.686-53.3203 100.977-51.6113L84.5703-35.1562L100.928-18.8477Q102.637-17.1875 102.637-14.7461Q102.637-12.2559 100.952-10.5713Q99.2676-8.88672 96.8262-8.88672Q94.2383-8.88672 92.5781-10.6445L76.3184-26.9531L60.0586-10.6445Q58.3008-8.88672 55.7617-8.88672Z"/>
  </g>
  <g id="Medium-L" transform="matrix(1 0 0 1 1670.87 1556)">
   <path d="M75.6836 29.1504Q86.2305 29.1504 95.8496 25.8545Q105.469 22.5586 113.55 16.626Q121.631 10.6934 127.563 2.63672Q133.496-5.41992 136.792-15.0635Q140.088-24.707 140.088-35.2539Q140.088-45.8496 136.792-55.4688Q133.496-65.0879 127.539-73.1445Q121.582-81.2012 113.525-87.1582Q105.469-93.1152 95.8252-96.3867Q86.1816-99.6582 75.6348-99.6582Q65.0391-99.6582 55.4199-96.3867Q45.8008-93.1152 37.7441-87.1582Q29.6875-81.2012 23.7549-73.1445Q17.8223-65.0879 14.5508-55.4688Q11.2793-45.8496 11.2793-35.2539Q11.2793-24.707 14.5508-15.0635Q17.8223-5.41992 23.7549 2.63672Q29.6875 10.6934 37.7686 16.626Q45.8496 22.5586 55.4688 25.8545Q65.0879 29.1504 75.6836 29.1504ZM54.834-9.13086Q52.6367-9.13086 51.123-10.6689Q49.6094-12.207 49.6094-14.4531Q49.6094-16.5039 51.1719-18.1152L68.2617-35.2051L51.1719-52.2949Q49.6094-53.8086 49.6094-55.957Q49.6094-58.1543 51.123-59.6191Q52.6367-61.084 54.834-61.084Q56.9336-61.084 58.5449-59.5703L75.6348-42.5293L92.8223-59.6191Q94.4336-61.1816 96.5332-61.1816Q98.7305-61.1816 100.244-59.668Q101.758-58.1543 101.758-56.0547Q101.758-53.8574 100.244-52.3438L83.1055-35.2051L100.195-18.1641Q101.709-16.6504 101.709-14.4531Q101.709-12.207 100.195-10.6689Q98.6816-9.13086 96.4355-9.13086Q94.1406-9.13086 92.6758-10.7422L75.6348-27.7832L58.6914-10.7422Q57.0801-9.13086 54.834-9.13086Z"/>
  </g>
  <g id="Regular-L" transform="matrix(1 0 0 1 1374.97 1556)">
   <path d="M74.8535 28.3203Q85.3027 28.3203 94.7998 25.0732Q104.297 21.8262 112.256 15.9668Q120.215 10.1074 126.099 2.14844Q131.982-5.81055 135.229-15.332Q138.477-24.8535 138.477-35.2539Q138.477-45.7031 135.229-55.2002Q131.982-64.6973 126.099-72.6562Q120.215-80.6152 112.256-86.499Q104.297-92.3828 94.7754-95.6299Q85.2539-98.877 74.8047-98.877Q64.3555-98.877 54.8584-95.6299Q45.3613-92.3828 37.4268-86.499Q29.4922-80.6152 23.6084-72.6562Q17.7246-64.6973 14.502-55.2002Q11.2793-45.7031 11.2793-35.2539Q11.2793-24.8535 14.5264-15.332Q17.7734-5.81055 23.6328 2.14844Q29.4922 10.1074 37.4512 15.9668Q45.4102 21.8262 54.9072 25.0732Q64.4043 28.3203 74.8535 28.3203ZM53.6621-9.47266Q51.7578-9.47266 50.4639-10.791Q49.1699-12.1094 49.1699-14.0137Q49.1699-15.8203 50.4883-17.1875L68.5059-35.2051L50.4883-53.2227Q49.1699-54.541 49.1699-56.3965Q49.1699-58.252 50.4639-59.5215Q51.7578-60.791 53.6621-60.791Q55.4199-60.791 56.7871-59.4727L74.8535-41.4551L93.0176-59.5215Q94.3848-60.8887 96.1426-60.8887Q97.998-60.8887 99.3164-59.5947Q100.635-58.3008 100.635-56.4941Q100.635-54.5898 99.3164-53.2715L81.25-35.2051L99.2676-17.2363Q100.586-15.9668 100.586-14.0137Q100.586-12.1094 99.2676-10.791Q97.9492-9.47266 96.0449-9.47266Q94.0918-9.47266 92.8223-10.8398L74.8535-28.8574L56.9336-10.8398Q55.5664-9.47266 53.6621-9.47266Z"/>
  </g>
  <g id="Light-L" transform="matrix(1 0 0 1 1079.18 1556)">
   <path d="M73.9258 27.3926Q84.2285 27.3926 93.6035 24.1943Q102.979 20.9961 110.815 15.2344Q118.652 9.47266 124.438 1.63574Q130.225-6.20117 133.423-15.5762Q136.621-24.9512 136.621-35.2539Q136.621-45.5566 133.423-54.9316Q130.225-64.3066 124.438-72.1436Q118.652-79.9805 110.815-85.7666Q102.979-91.5527 93.6035-94.751Q84.2285-97.9492 73.877-97.9492Q63.5742-97.9492 54.2236-94.751Q44.873-91.5527 37.0361-85.7666Q29.1992-79.9805 23.4131-72.1436Q17.627-64.3066 14.4531-54.9316Q11.2793-45.5566 11.2793-35.2539Q11.2793-24.9512 14.4775-15.5762Q17.6758-6.20117 23.4375 1.63574Q29.1992 9.47266 37.0361 15.2344Q44.873 20.9961 54.248 24.1943Q63.623 27.3926 73.9258 27.3926ZM52.6855-10.4492Q51.1719-10.4492 50.1709-11.4502Q49.1699-12.4512 49.1699-13.916Q49.1699-15.3809 50.2441-16.4551L68.9941-35.2051L50.2441-53.9551Q49.1699-55.0293 49.1699-56.4941Q49.1699-57.9102 50.1709-58.8867Q51.1719-59.8633 52.6855-59.8633Q54.0527-59.8633 55.1758-58.7402L73.9258-40.0879L92.6758-58.7891Q93.7988-59.9121 95.2148-59.9121Q96.6797-59.9121 97.7051-58.9111Q98.7305-57.9102 98.7305-56.543Q98.7305-55.0293 97.6562-53.9551L78.8574-35.2051L97.6074-16.5039Q98.6816-15.4297 98.6816-13.916Q98.6816-12.4512 97.6562-11.4502Q96.6309-10.4492 95.166-10.4492Q93.6035-10.4492 92.5781-11.5723L73.9258-30.2734L55.3223-11.5723Q54.1504-10.4492 52.6855-10.4492Z"/>
  </g>
  <g id="Thin-L" transform="matrix(1 0 0 1 783.689 1556)">
   <path d="M72.7051 26.1719Q82.8613 26.1719 92.041 23.0469Q101.221 19.9219 108.911 14.2822Q116.602 8.64258 122.266 0.952148Q127.93-6.73828 131.055-15.9424Q134.18-25.1465 134.18-35.2539Q134.18-45.4102 131.055-54.5898Q127.93-63.7695 122.29-71.46Q116.65-79.1504 108.936-84.8145Q101.221-90.4785 92.0166-93.6035Q82.8125-96.7285 72.7051-96.7285Q62.5488-96.7285 53.3691-93.6035Q44.1895-90.4785 36.499-84.8145Q28.8086-79.1504 23.1689-71.46Q17.5293-63.7695 14.4043-54.5898Q11.2793-45.4102 11.2793-35.2539Q11.2793-25.1465 14.4043-15.9424Q17.5293-6.73828 23.1689 0.952148Q28.8086 8.64258 36.5234 14.2822Q44.2383 19.9219 53.418 23.0469Q62.5977 26.1719 72.7051 26.1719ZM51.416-11.7676Q50.4883-11.7676 49.8535-12.3535Q49.2188-12.9395 49.2188-13.8184Q49.2188-14.7461 49.9512-15.4785L69.6289-35.2051L49.9512-54.8828Q49.2188-55.6152 49.2188-56.5918Q49.2188-57.4219 49.8535-58.0078Q50.4883-58.5938 51.416-58.5938Q52.3438-58.5938 53.125-57.7637L72.7051-38.2324L92.2852-57.8125Q93.1152-58.5938 93.9941-58.5938Q94.9707-58.5938 95.6055-58.0078Q96.2402-57.4219 96.2402-56.543Q96.2402-55.6152 95.5078-54.8828L75.7812-35.2051L95.5078-15.5273Q96.1914-14.7949 96.1914-13.8184Q96.1914-12.9395 95.5566-12.3535Q94.9219-11.7676 94.043-11.7676Q93.0664-11.7676 92.2852-12.5488L72.7051-32.1289L53.1738-12.5488Q52.3438-11.7676 51.416-11.7676Z"/>
  </g>
  <g id="Ultralight-L" transform="matrix(1 0 0 1 487.603 1556)">
   <path d="M72.0703 25.5371Q82.1289 25.5371 91.2354 22.4609Q100.342 19.3848 107.935 13.7939Q115.527 8.20312 121.143 0.585938Q126.758-7.03125 129.858-16.1133Q132.959-25.1953 132.959-35.2539Q132.959-45.3125 129.858-54.4189Q126.758-63.5254 121.167-71.1182Q115.576-78.7109 107.959-84.3262Q100.342-89.9414 91.2354-93.0176Q82.1289-96.0938 72.0703-96.0938Q62.0605-96.0938 52.9541-93.0176Q43.8477-89.9414 36.2305-84.3262Q28.6133-78.7109 23.0225-71.1182Q17.4316-63.5254 14.3555-54.4189Q11.2793-45.3125 11.2793-35.2539Q11.2793-25.1953 14.3555-16.1133Q17.4316-7.03125 23.0225 0.585938Q28.6133 8.20312 36.2305 13.7939Q43.8477 19.3848 52.9541 22.4609Q62.0605 25.5371 72.0703 25.5371ZM50.7812-12.4023Q50.0977-12.4023 49.6582-12.793Q49.2188-13.1836 49.2188-13.7695Q49.2188-14.4531 49.7559-14.9902L69.9707-35.2051L49.7559-55.3711Q49.2188-55.957 49.2188-56.6406Q49.2188-57.2266 49.6582-57.5928Q50.0977-57.959 50.7812-57.959Q51.416-57.959 52.0508-57.2754L72.0703-37.3047L92.0898-57.2754Q92.7246-57.959 93.3594-57.959Q94.043-57.959 94.4824-57.5684Q94.9219-57.1777 94.9219-56.5918Q94.9219-55.9082 94.3848-55.3711L74.1699-35.2051L94.3848-14.9902Q94.9219-14.4043 94.9219-13.7695Q94.9219-13.1836 94.4824-12.793Q94.043-12.4023 93.4082-12.4023Q92.7246-12.4023 92.0898-13.0859L72.0703-33.0566L52.0996-13.0859Q51.416-12.4023 50.7812-12.4023Z"/>
  </g>
  <g id="Black-M" transform="matrix(1 0 0 1 2871.32 1126)">
   <path d="M62.0605 18.1152Q73.0957 18.1152 82.7637 13.9648Q92.4316 9.81445 99.7559 2.46582Q107.08-4.88281 111.255-14.5264Q115.43-24.1699 115.43-35.2051Q115.43-46.2402 111.255-55.8838Q107.08-65.5273 99.7559-72.876Q92.4316-80.2246 82.7637-84.375Q73.0957-88.5254 62.0605-88.5254Q51.0742-88.5254 41.4062-84.375Q31.7383-80.2246 24.3896-72.876Q17.041-65.5273 12.8906-55.8838Q8.74023-46.2402 8.74023-35.2051Q8.74023-24.1699 12.8906-14.5264Q17.041-4.88281 24.3896 2.46582Q31.7383 9.81445 41.4062 13.9648Q51.0742 18.1152 62.0605 18.1152ZM47.7539-13.8184Q44.7266-13.8184 42.6758-15.8936Q40.625-17.9688 40.625-21.0449Q40.625-23.877 42.7734-25.9277L51.9531-35.1562L42.7734-44.3359Q40.625-46.4355 40.625-49.2676Q40.625-52.3438 42.6758-54.3945Q44.7266-56.4453 47.7539-56.4453Q50.9766-56.4453 53.125-54.3457L62.1094-45.3613L71.1426-54.3457Q73.2422-56.4453 76.5137-56.4453Q79.541-56.4453 81.5918-54.3945Q83.6426-52.3438 83.6426-49.2676Q83.6426-46.4355 81.4453-44.3359L72.3633-35.1562L81.4453-25.9277Q83.6426-23.877 83.6426-21.0449Q83.6426-17.9688 81.5918-15.8936Q79.541-13.8184 76.4648-13.8184Q73.2422-13.8184 71.1426-15.9668L62.1094-24.8535L53.125-15.9668Q51.0254-13.8184 47.7539-13.8184Z"/>
  </g>
  <g id="Heavy-M" transform="matrix(1 0 0 1 2575.44 1126)">
   <path d="M61.2305 17.2852Q72.0703 17.2852 81.5918 13.1836Q91.1133 9.08203 98.3154 1.85547Q105.518-5.37109 109.644-14.8682Q113.77-24.3652 113.77-35.2051Q113.77-46.0449 109.644-55.542Q105.518-65.0391 98.3154-72.29Q91.1133-79.541 81.5918-83.6182Q72.0703-87.6953 61.2305-87.6953Q50.4395-87.6953 40.918-83.6182Q31.3965-79.541 24.1699-72.29Q16.9434-65.0391 12.8418-55.542Q8.74023-46.0449 8.74023-35.2051Q8.74023-24.3652 12.8418-14.8682Q16.9434-5.37109 24.1699 1.85547Q31.3965 9.08203 40.918 13.1836Q50.4395 17.2852 61.2305 17.2852ZM46.4355-14.0137Q43.75-14.0137 41.8945-15.8936Q40.0391-17.7734 40.0391-20.5078Q40.0391-23.0469 41.9434-24.9023L52.1973-35.1562L41.9434-45.3613Q40.0391-47.2656 40.0391-49.8047Q40.0391-52.5391 41.8945-54.3945Q43.75-56.25 46.4355-56.25Q49.2676-56.25 51.2207-54.3457L61.2793-44.2871L71.4355-54.3945Q73.291-56.25 76.1719-56.25Q78.9062-56.25 80.7373-54.4189Q82.5684-52.5879 82.5684-49.8535Q82.5684-47.2656 80.6152-45.3613L70.459-35.1562L80.6152-24.9023Q82.5684-23.0957 82.5684-20.5078Q82.5684-17.7734 80.7129-15.8936Q78.8574-14.0137 76.123-14.0137Q73.2422-14.0137 71.3867-15.9668L61.2793-25.9277L51.2207-15.9668Q49.3652-14.0137 46.4355-14.0137Z"/>
  </g>
  <g id="Bold-M" transform="matrix(1 0 0 1 2279.66 1126)">
   <path d="M60.3027 16.3574Q70.9473 16.3574 80.2734 12.3291Q89.5996 8.30078 96.7041 1.17188Q103.809-5.95703 107.861-15.2832Q111.914-24.6094 111.914-35.2539Q111.914-45.8496 107.861-55.1758Q103.809-64.502 96.7041-71.6309Q89.5996-78.7598 80.249-82.7881Q70.8984-86.8164 60.3027-86.8164Q49.707-86.8164 40.3564-82.7881Q31.0059-78.7598 23.9014-71.6309Q16.7969-64.502 12.7686-55.1758Q8.74023-45.8496 8.74023-35.2539Q8.74023-24.6094 12.7686-15.2832Q16.7969-5.95703 23.9258 1.17188Q31.0547 8.30078 40.3809 12.3291Q49.707 16.3574 60.3027 16.3574ZM44.9707-14.3066Q42.627-14.3066 41.0156-15.9424Q39.4043-17.5781 39.4043-19.9219Q39.4043-22.168 41.0645-23.7793L52.4414-35.2051L41.0645-46.5332Q39.4043-48.1934 39.4043-50.4395Q39.4043-52.832 41.0156-54.4189Q42.627-56.0059 44.9707-56.0059Q47.4121-56.0059 49.0723-54.3945L60.4004-43.1152L71.7773-54.4434Q73.3887-56.0547 75.8301-56.0547Q78.1738-56.0547 79.7852-54.4434Q81.3965-52.832 81.3965-50.4883Q81.3965-48.2422 79.7363-46.582L68.3594-35.2051L79.6875-23.8281Q81.3965-22.2656 81.3965-19.9219Q81.3965-17.5781 79.7852-15.9424Q78.1738-14.3066 75.7812-14.3066Q73.291-14.3066 71.6797-15.9668L60.4004-27.1973L49.1699-15.9668Q47.5098-14.3066 44.9707-14.3066Z"/>
  </g>
  <g id="Semibold-M" transform="matrix(1 0 0 1 1983.6 1126)">
   <path d="M59.668 15.6738Q70.1172 15.6738 79.3457 11.6943Q88.5742 7.71484 95.6055 0.683594Q102.637-6.34766 106.616-15.5518Q110.596-24.7559 110.596-35.2539Q110.596-45.7031 106.616-54.9072Q102.637-64.1113 95.6055-71.1426Q88.5742-78.1738 79.3457-82.1777Q70.1172-86.1816 59.6191-86.1816Q49.1699-86.1816 39.9658-82.1777Q30.7617-78.1738 23.7305-71.1426Q16.6992-64.1113 12.7197-54.9072Q8.74023-45.7031 8.74023-35.2539Q8.74023-24.7559 12.7197-15.5518Q16.6992-6.34766 23.7305 0.683594Q30.7617 7.71484 39.9902 11.6943Q49.2188 15.6738 59.668 15.6738ZM43.8965-14.4531Q41.7969-14.4531 40.3564-15.918Q38.916-17.3828 38.916-19.5312Q38.916-21.5332 40.3809-22.998L52.5879-35.2051L40.3809-47.3145Q38.916-48.8281 38.916-50.8301Q38.916-52.9785 40.3564-54.4189Q41.7969-55.8594 43.8965-55.8594Q46.0449-55.8594 47.5586-54.3945L59.7168-42.2852L71.9238-54.4434Q73.3887-55.9082 75.5371-55.9082Q77.6367-55.9082 79.0771-54.4678Q80.5176-53.0273 80.5176-50.8789Q80.5176-48.877 79.0527-47.3633L66.8457-35.2051L79.0039-23.0469Q80.5176-21.6309 80.5176-19.5312Q80.5176-17.3828 79.0527-15.918Q77.5879-14.4531 75.4395-14.4531Q73.2422-14.4531 71.7773-15.918L59.7168-28.0273L47.6562-15.918Q46.1426-14.4531 43.8965-14.4531Z"/>
  </g>
  <g id="Medium-M" transform="matrix(1 0 0 1 1687.37 1126)">
   <path d="M59.1797 15.1855Q69.5312 15.1855 78.6621 11.2305Q87.793 7.27539 94.751 0.317383Q101.709-6.64062 105.664-15.7715Q109.619-24.9023 109.619-35.2539Q109.619-45.6055 105.664-54.7363Q101.709-63.8672 94.751-70.8252Q87.793-77.7832 78.6377-81.7383Q69.4824-85.6934 59.1309-85.6934Q48.7793-85.6934 39.6484-81.7383Q30.5176-77.7832 23.584-70.8252Q16.6504-63.8672 12.6953-54.7363Q8.74023-45.6055 8.74023-35.2539Q8.74023-24.9023 12.6953-15.7715Q16.6504-6.64062 23.6084 0.317383Q30.5664 7.27539 39.6973 11.2305Q48.8281 15.1855 59.1797 15.1855ZM43.1641-14.5996Q41.2109-14.5996 39.8926-15.9424Q38.5742-17.2852 38.5742-19.1895Q38.5742-21.0938 39.9414-22.4121L52.6855-35.2051L39.9414-47.9492Q38.5742-49.3164 38.5742-51.1719Q38.5742-53.125 39.8926-54.4189Q41.2109-55.7129 43.1641-55.7129Q45.0195-55.7129 46.4355-54.4434L59.2285-41.6992L72.1191-54.4434Q73.4375-55.8105 75.3418-55.8105Q77.2461-55.8105 78.5889-54.4678Q79.9316-53.125 79.9316-51.2207Q79.9316-49.3652 78.5645-47.998L65.7715-35.2051L78.5156-22.4609Q79.8828-21.1914 79.8828-19.1895Q79.8828-17.2852 78.54-15.9424Q77.1973-14.5996 75.2441-14.5996Q73.2422-14.5996 71.9238-15.918L59.2285-28.6621L46.5332-15.918Q45.166-14.5996 43.1641-14.5996Z"/>
  </g>
  <g id="Regular-M" transform="matrix(1 0 0 1 1391.3 1126)">
   <path d="M58.5449 14.5508Q68.75 14.5508 77.7588 10.6445Q86.7676 6.73828 93.6523-0.146484Q100.537-7.03125 104.443-16.04Q108.35-25.0488 108.35-35.2539Q108.35-45.459 104.443-54.4678Q100.537-63.4766 93.6523-70.3613Q86.7676-77.2461 77.7344-81.1523Q68.7012-85.0586 58.4961-85.0586Q48.291-85.0586 39.2822-81.1523Q30.2734-77.2461 23.4131-70.3613Q16.5527-63.4766 12.6465-54.4678Q8.74023-45.459 8.74023-35.2539Q8.74023-25.0488 12.6465-16.04Q16.5527-7.03125 23.4375-0.146484Q30.3223 6.73828 39.3311 10.6445Q48.3398 14.5508 58.5449 14.5508ZM42.1387-14.7461Q40.4785-14.7461 39.3066-15.9424Q38.1348-17.1387 38.1348-18.7988Q38.1348-20.459 39.3066-21.6309L52.8809-35.2051L39.3066-48.7305Q38.1348-49.9512 38.1348-51.5625Q38.1348-53.2715 39.3066-54.4189Q40.4785-55.5664 42.1387-55.5664Q43.75-55.5664 44.9707-54.4434L58.5938-40.8691L72.3145-54.4922Q73.4863-55.6641 75.0977-55.6641Q76.7578-55.6641 77.9297-54.4922Q79.1016-53.3203 79.1016-51.6602Q79.1016-50 77.9297-48.7793L64.3066-35.2051L77.8809-21.6797Q79.0527-20.6055 79.0527-18.7988Q79.0527-17.1387 77.8809-15.9424Q76.709-14.7461 75-14.7461Q73.2422-14.7461 72.1191-15.918L58.5938-29.4922L45.1172-15.918Q43.8965-14.7461 42.1387-14.7461Z"/>
  </g>
  <g id="Light-M" transform="matrix(1 0 0 1 1095.41 1126)">
   <path d="M57.7148 13.7207Q67.7734 13.7207 76.6357 9.8877Q85.498 6.05469 92.2607-0.708008Q99.0234-7.4707 102.856-16.333Q106.689-25.1953 106.689-35.2539Q106.689-45.3125 102.856-54.1748Q99.0234-63.0371 92.2607-69.7998Q85.498-76.5625 76.6113-80.3955Q67.7246-84.2285 57.666-84.2285Q47.6074-84.2285 38.7451-80.3955Q29.8828-76.5625 23.1445-69.7998Q16.4062-63.0371 12.5732-54.1748Q8.74023-45.3125 8.74023-35.2539Q8.74023-25.1953 12.5732-16.333Q16.4062-7.4707 23.1689-0.708008Q29.9316 6.05469 38.7939 9.8877Q47.6562 13.7207 57.7148 13.7207ZM41.2598-15.625Q39.9414-15.625 39.0381-16.5527Q38.1348-17.4805 38.1348-18.75Q38.1348-20.0684 39.0625-20.9961L53.2715-35.2051L39.0625-49.3652Q38.1348-50.3418 38.1348-51.6602Q38.1348-52.9297 39.0381-53.833Q39.9414-54.7363 41.2598-54.7363Q42.5293-54.7363 43.5547-53.8086L57.7637-39.6484L72.0215-53.8086Q72.9492-54.7852 74.2676-54.7852Q75.5371-54.7852 76.4648-53.8818Q77.3926-52.9785 77.3926-51.709Q77.3926-50.3906 76.416-49.4141L62.207-35.2051L76.416-21.0449Q77.3438-20.166 77.3438-18.75Q77.3438-17.4805 76.4404-16.5527Q75.5371-15.625 74.1699-15.625Q72.8027-15.625 71.875-16.6016L57.7637-30.7617L43.6523-16.6016Q42.627-15.625 41.2598-15.625Z"/>
  </g>
  <g id="Thin-M" transform="matrix(1 0 0 1 799.793 1126)">
   <path d="M56.5918 12.5977Q66.5039 12.5977 75.1709 8.88672Q83.8379 5.17578 90.4297-1.44043Q97.0215-8.05664 100.781-16.7236Q104.541-25.3906 104.541-35.2539Q104.541-45.1172 100.781-53.7842Q97.0215-62.4512 90.4297-69.0674Q83.8379-75.6836 75.1709-79.3945Q66.5039-83.1055 56.5918-83.1055Q46.7285-83.1055 38.0615-79.3945Q29.3945-75.6836 22.8271-69.0674Q16.2598-62.4512 12.5-53.7842Q8.74023-45.1172 8.74023-35.2539Q8.74023-25.3906 12.4756-16.7236Q16.2109-8.05664 22.8027-1.44043Q29.3945 5.17578 38.0859 8.88672Q46.7773 12.5977 56.5918 12.5977ZM40.1367-16.7969Q39.3555-16.7969 38.7695-17.334Q38.1836-17.8711 38.1836-18.6523Q38.1836-19.5312 38.8184-20.166L53.8574-35.2051L38.8184-50.2441Q38.1836-50.8789 38.1836-51.7578Q38.1836-52.5391 38.7695-53.0762Q39.3555-53.6133 40.1367-53.6133Q40.9668-53.6133 41.6992-52.9297L56.6895-37.9883L71.6797-52.9297Q72.3633-53.6133 73.1934-53.6133Q73.9746-53.6133 74.5605-53.0762Q75.1465-52.5391 75.1465-51.7578Q75.1465-50.9277 74.5117-50.2441L59.4238-35.2051L74.5117-20.166Q75.1465-19.5312 75.1465-18.6523Q75.1465-17.8711 74.5605-17.334Q73.9746-16.7969 73.1445-16.7969Q72.3145-16.7969 71.582-17.4805L56.6895-32.4219L41.6992-17.4805Q41.0156-16.7969 40.1367-16.7969Z"/>
  </g>
  <g id="Ultralight-M" transform="matrix(1 0 0 1 503.641 1126)">
   <path d="M56.0547 12.0605Q65.8203 12.0605 74.3896 8.37402Q82.959 4.6875 89.4775-1.83105Q95.9961-8.34961 99.707-16.9189Q103.418-25.4883 103.418-35.2539Q103.418-45.0195 99.707-53.5889Q95.9961-62.1582 89.4775-68.6768Q82.959-75.1953 74.3896-78.8818Q65.8203-82.5684 56.0547-82.5684Q46.2891-82.5684 37.7197-78.8818Q29.1504-75.1953 22.6562-68.6768Q16.1621-62.1582 12.4512-53.5889Q8.74023-45.0195 8.74023-35.2539Q8.74023-25.4883 12.4268-16.9189Q16.1133-8.34961 22.6318-1.83105Q29.1504 4.6875 37.7197 8.37402Q46.2891 12.0605 56.0547 12.0605ZM39.5508-17.3828Q38.9648-17.3828 38.5742-17.749Q38.1836-18.1152 38.1836-18.6035Q38.1836-19.2383 38.6719-19.7266L54.1504-35.2051L38.6719-50.6836Q38.1836-51.1719 38.1836-51.8066Q38.1836-52.2949 38.5742-52.6611Q38.9648-53.0273 39.5508-53.0273Q40.1855-53.0273 40.7227-52.4902L56.1035-37.1582L71.4355-52.4902Q71.9727-53.0273 72.6074-53.0273Q73.1934-53.0273 73.584-52.6855Q73.9746-52.3438 73.9746-51.8066Q73.9746-51.1719 73.4863-50.6836L58.0078-35.2051L73.5352-19.7266Q73.9746-19.2383 73.9746-18.6035Q73.9746-18.1152 73.584-17.749Q73.1934-17.3828 72.6074-17.3828Q72.0215-17.3828 71.4355-17.9199L56.1035-33.252L40.7227-17.9199Q40.1855-17.3828 39.5508-17.3828Z"/>
  </g>
  <g id="Black-S" transform="matrix(1 0 0 1 2884.57 696)">
   <path d="M48.8281 6.78711Q57.5195 6.78711 65.1123 3.51562Q72.7051 0.244141 78.4912-5.54199Q84.2773-11.3281 87.5488-18.9209Q90.8203-26.5137 90.8203-35.2051Q90.8203-43.8965 87.5488-51.4893Q84.2773-59.082 78.4912-64.8682Q72.7051-70.6543 65.1123-73.9258Q57.5195-77.1973 48.8281-77.1973Q40.1367-77.1973 32.5439-73.9258Q24.9512-70.6543 19.165-64.8682Q13.3789-59.082 10.1074-51.4893Q6.83594-43.8965 6.83594-35.2051Q6.83594-26.5137 10.1074-18.9209Q13.3789-11.3281 19.165-5.54199Q24.9512 0.244141 32.5439 3.51562Q40.1367 6.78711 48.8281 6.78711ZM37.7441-18.457Q35.3027-18.457 33.6426-20.1172Q31.9824-21.7773 31.9824-24.2676Q31.9824-26.5625 33.7402-28.2227L40.625-35.1562L33.7402-42.0898Q31.9824-43.75 31.9824-46.0449Q31.9824-48.5352 33.6426-50.1953Q35.3027-51.8555 37.7441-51.8555Q40.3809-51.8555 42.0898-50.1465L48.8281-43.4082L55.6152-50.1465Q57.3242-51.8555 59.9609-51.8555Q62.4023-51.8555 64.0625-50.1953Q65.7227-48.5352 65.7227-46.0449Q65.7227-43.75 63.9648-42.0898L57.1289-35.1562L63.9648-28.2227Q65.7227-26.5625 65.7227-24.2676Q65.7227-21.7773 64.0625-20.1172Q62.4023-18.457 59.9609-18.457Q57.3242-18.457 55.6152-20.166L48.8281-26.8555L42.0898-20.166Q40.3809-18.457 37.7441-18.457Z"/>
  </g>
  <g id="Heavy-S" transform="matrix(1 0 0 1 2588.47 696)">
   <path d="M48.1934 6.15234Q56.7871 6.15234 64.2578 2.92969Q71.7285-0.292969 77.4414-6.00586Q83.1543-11.7188 86.377-19.1895Q89.5996-26.6602 89.5996-35.2051Q89.5996-43.75 86.377-51.2451Q83.1543-58.7402 77.4414-64.4531Q71.7285-70.166 64.2334-73.3887Q56.7383-76.6113 48.1934-76.6113Q39.6484-76.6113 32.1777-73.3887Q24.707-70.166 18.9941-64.4531Q13.2812-58.7402 10.0586-51.2451Q6.83594-43.75 6.83594-35.2051Q6.83594-26.6602 10.0586-19.1895Q13.2812-11.7188 18.9941-6.00586Q24.707-0.292969 32.2021 2.92969Q39.6973 6.15234 48.1934 6.15234ZM36.7188-18.5059Q34.5215-18.5059 33.0078-20.0439Q31.4941-21.582 31.4941-23.8281Q31.4941-25.9277 33.0566-27.4414L40.7715-35.1562L33.0566-42.9199Q31.4941-44.3848 31.4941-46.4844Q31.4941-48.7793 33.0078-50.293Q34.5215-51.8066 36.7188-51.8066Q39.0625-51.8066 40.625-50.2441L48.2422-42.6758L55.9082-50.2441Q57.4707-51.8066 59.8145-51.8066Q62.0117-51.8066 63.5254-50.293Q65.0391-48.7793 65.0391-46.5332Q65.0391-44.4336 63.4766-42.9199L55.8105-35.1562L63.4277-27.4414Q65.0391-25.9277 65.0391-23.8281Q65.0391-21.582 63.5254-20.0439Q62.0117-18.5059 59.7656-18.5059Q57.373-18.5059 55.8594-20.0684L48.2422-27.6367L40.6738-20.0684Q39.1113-18.5059 36.7188-18.5059Z"/>
  </g>
  <g id="Bold-S" transform="matrix(1 0 0 1 2292.43 696)">
   <path d="M47.5586 5.46875Q55.957 5.46875 63.3057 2.29492Q70.6543-0.878906 76.2695-6.51855Q81.8848-12.1582 85.083-19.5068Q88.2812-26.8555 88.2812-35.2539Q88.2812-43.6035 85.083-50.9766Q81.8848-58.3496 76.2695-63.9648Q70.6543-69.5801 63.2812-72.7539Q55.9082-75.9277 47.5098-75.9277Q39.1602-75.9277 31.7871-72.7539Q24.4141-69.5801 18.8232-63.9648Q13.2324-58.3496 10.0342-50.9766Q6.83594-43.6035 6.83594-35.2539Q6.83594-26.8555 10.0342-19.5068Q13.2324-12.1582 18.8477-6.51855Q24.4629-0.878906 31.8115 2.29492Q39.1602 5.46875 47.5586 5.46875ZM35.5957-18.6035Q33.6426-18.6035 32.2754-19.9707Q30.9082-21.3379 30.9082-23.3398Q30.9082-25.2441 32.3242-26.5625L40.918-35.2051L32.3242-43.7988Q30.9082-45.166 30.9082-47.0215Q30.9082-49.0234 32.2754-50.3662Q33.6426-51.709 35.5957-51.709Q37.5977-51.709 38.9648-50.3906L47.5586-41.8457L56.2012-50.3906Q57.5684-51.7578 59.5703-51.7578Q61.5723-51.7578 62.915-50.415Q64.2578-49.0723 64.2578-47.0703Q64.2578-45.166 62.8418-43.8477L54.248-35.2051L62.8418-26.6113Q64.2578-25.293 64.2578-23.3398Q64.2578-21.3379 62.8906-19.9707Q61.5234-18.6035 59.5215-18.6035Q57.4219-18.6035 56.1035-19.9707L47.5586-28.5156L39.0625-19.9707Q37.6953-18.6035 35.5957-18.6035Z"/>
  </g>
  <g id="Semibold-S" transform="matrix(1 0 0 1 1996.19 696)">
   <path d="M47.0703 4.98047Q55.3711 4.98047 62.6465 1.85547Q69.9219-1.26953 75.4639-6.86035Q81.0059-12.4512 84.1553-19.7266Q87.3047-27.002 87.3047-35.2539Q87.3047-43.5059 84.1553-50.7812Q81.0059-58.0566 75.4395-63.623Q69.873-69.1895 62.5977-72.3389Q55.3223-75.4883 47.0215-75.4883Q38.7695-75.4883 31.4941-72.3389Q24.2188-69.1895 18.6768-63.623Q13.1348-58.0566 9.98535-50.7812Q6.83594-43.5059 6.83594-35.2539Q6.83594-27.002 9.98535-19.7266Q13.1348-12.4512 18.7012-6.86035Q24.2676-1.26953 31.543 1.85547Q38.8184 4.98047 47.0703 4.98047ZM34.7656-18.6523Q33.0078-18.6523 31.7627-19.9219Q30.5176-21.1914 30.5176-22.998Q30.5176-24.707 31.7871-25.9766L41.0156-35.2051L31.7871-44.4336Q30.5176-45.6543 30.5176-47.3633Q30.5176-49.2188 31.7627-50.4395Q33.0078-51.6602 34.7656-51.6602Q36.5723-51.6602 37.8418-50.4395L47.0703-41.2598L56.3965-50.4883Q57.6172-51.709 59.4238-51.709Q61.2305-51.709 62.4756-50.4639Q63.7207-49.2188 63.7207-47.4609Q63.7207-45.7031 62.4512-44.4336L53.2227-35.2051L62.4023-25.9766Q63.6719-24.8047 63.6719-22.998Q63.6719-21.1914 62.4268-19.9219Q61.1816-18.6523 59.375-18.6523Q57.4707-18.6523 56.25-19.9219L47.0703-29.1016L37.9395-19.9219Q36.6699-18.6523 34.7656-18.6523Z"/>
  </g>
  <g id="Medium-S" transform="matrix(1 0 0 1 1699.83 696)">
   <path d="M46.7285 4.63867Q54.9316 4.63867 62.1338 1.51367Q69.3359-1.61133 74.8535-7.12891Q80.3711-12.6465 83.4961-19.8486Q86.6211-27.0508 86.6211-35.2539Q86.6211-43.4082 83.4961-50.6348Q80.3711-57.8613 74.8291-63.3789Q69.2871-68.8965 62.085-71.9971Q54.8828-75.0977 46.6797-75.0977Q38.4766-75.0977 31.2744-71.9971Q24.0723-68.8965 18.5791-63.3789Q13.0859-57.8613 9.96094-50.6348Q6.83594-43.4082 6.83594-35.2539Q6.83594-27.0508 9.96094-19.8486Q13.0859-12.6465 18.6035-7.12891Q24.1211-1.61133 31.3232 1.51367Q38.5254 4.63867 46.7285 4.63867ZM34.1797-18.7012Q32.5195-18.7012 31.3721-19.873Q30.2246-21.0449 30.2246-22.7539Q30.2246-24.3652 31.3965-25.4883L41.0645-35.2051L31.3965-44.873Q30.2246-46.0449 30.2246-47.6562Q30.2246-49.3164 31.3721-50.4639Q32.5195-51.6113 34.1797-51.6113Q35.8398-51.6113 36.9629-50.4883L46.7285-40.8203L56.543-50.5371Q57.666-51.709 59.3262-51.709Q60.9863-51.709 62.1582-50.5371Q63.3301-49.3652 63.3301-47.7051Q63.3301-46.0938 62.1094-44.9219L52.3926-35.2051L62.1094-25.5371Q63.2812-24.4629 63.2812-22.7539Q63.2812-21.0449 62.1094-19.873Q60.9375-18.7012 59.2285-18.7012Q57.4707-18.7012 56.3965-19.8242L46.7285-29.541L37.1094-19.8242Q35.9375-18.7012 34.1797-18.7012Z"/>
  </g>
  <g id="Regular-S" transform="matrix(1 0 0 1 1403.58 696)">
   <path d="M46.2402 4.15039Q54.3457 4.15039 61.4746 1.07422Q68.6035-2.00195 74.0479-7.4707Q79.4922-12.9395 82.5928-20.0684Q85.6934-27.1973 85.6934-35.2539Q85.6934-43.3105 82.5928-50.4395Q79.4922-57.5684 74.0234-63.0371Q68.5547-68.5059 61.4258-71.582Q54.2969-74.6582 46.1914-74.6582Q38.1348-74.6582 31.0059-71.582Q23.877-68.5059 18.457-63.0371Q13.0371-57.5684 9.93652-50.4395Q6.83594-43.3105 6.83594-35.2539Q6.83594-27.1973 9.93652-20.0684Q13.0371-12.9395 18.4814-7.4707Q23.9258-2.00195 31.0547 1.07422Q38.1836 4.15039 46.2402 4.15039ZM33.3984-18.75Q31.9336-18.75 30.8838-19.8242Q29.834-20.8984 29.834-22.4121Q29.834-23.877 30.8594-24.9023L41.1621-35.2051L30.8594-45.5078Q29.834-46.5332 29.834-47.998Q29.834-49.5117 30.8838-50.5371Q31.9336-51.5625 33.3984-51.5625Q34.8145-51.5625 35.8398-50.5859L46.2402-40.2344L56.7383-50.6348Q57.7637-51.6602 59.1797-51.6602Q60.6934-51.6602 61.7432-50.6104Q62.793-49.5605 62.793-48.0957Q62.793-46.582 61.7188-45.5566L51.3672-35.2051L61.6699-24.9512Q62.7441-23.9746 62.7441-22.4121Q62.7441-20.8984 61.6699-19.8242Q60.5957-18.75 59.082-18.75Q57.5195-18.75 56.543-19.7754L46.2402-30.127L35.9863-19.7754Q34.9609-18.75 33.3984-18.75Z"/>
  </g>
  <g id="Light-S" transform="matrix(1 0 0 1 1107.6 696)">
   <path d="M45.5078 3.41797Q53.4668 3.41797 60.4736 0.415039Q67.4805-2.58789 72.8271-7.95898Q78.1738-13.3301 81.2012-20.3125Q84.2285-27.2949 84.2285-35.2539Q84.2285-43.2129 81.2012-50.1953Q78.1738-57.1777 72.8027-62.5488Q67.4316-67.9199 60.4492-70.9229Q53.4668-73.9258 45.459-73.9258Q37.5488-73.9258 30.542-70.9229Q23.5352-67.9199 18.2129-62.5488Q12.8906-57.1777 9.86328-50.1953Q6.83594-43.2129 6.83594-35.2539Q6.83594-27.2949 9.86328-20.3125Q12.8906-13.3301 18.2373-7.95898Q23.584-2.58789 30.5908 0.415039Q37.5977 3.41797 45.5078 3.41797ZM32.6172-19.5312Q31.4941-19.5312 30.6641-20.3613Q29.834-21.1914 29.834-22.3633Q29.834-23.4863 30.6641-24.3164L41.5527-35.2051L30.6641-46.0938Q29.834-46.9238 29.834-48.0469Q29.834-49.2188 30.6641-50.0244Q31.4941-50.8301 32.6172-50.8301Q33.7402-50.8301 34.5703-50L45.5078-39.1113L56.4941-50.0488Q57.3242-50.8789 58.4473-50.8789Q59.6191-50.8789 60.4492-50.0732Q61.2793-49.2676 61.2793-48.1445Q61.2793-46.9238 60.4004-46.0938L49.5117-35.2051L60.3516-24.3652Q61.2305-23.584 61.2305-22.3633Q61.2305-21.1914 60.4004-20.3613Q59.5703-19.5312 58.3496-19.5312Q57.1289-19.5312 56.3477-20.3613L45.5078-31.25L34.668-20.3613Q33.8379-19.5312 32.6172-19.5312Z"/>
  </g>
  <g id="Thin-S" transform="matrix(1 0 0 1 811.863 696)">
   <path d="M44.5312 2.44141Q52.3438 2.44141 59.1553-0.488281Q65.9668-3.41797 71.1914-8.64258Q76.416-13.8672 79.3457-20.6787Q82.2754-27.4902 82.2754-35.2539Q82.2754-43.0176 79.3457-49.8291Q76.416-56.6406 71.1914-61.8652Q65.9668-67.0898 59.1553-70.0195Q52.3438-72.9492 44.5312-72.9492Q36.7676-72.9492 29.9316-70.0195Q23.0957-67.0898 17.9199-61.8652Q12.7441-56.6406 9.79004-49.8291Q6.83594-43.0176 6.83594-35.2539Q6.83594-27.4902 9.79004-20.6787Q12.7441-13.8672 17.9199-8.64258Q23.0957-3.41797 29.9316-0.488281Q36.7676 2.44141 44.5312 2.44141ZM31.6406-20.5566Q30.9082-20.5566 30.3955-21.0449Q29.8828-21.5332 29.8828-22.2656Q29.8828-22.998 30.4688-23.584L42.0898-35.2051L30.4688-46.8262Q29.8828-47.4121 29.8828-48.1445Q29.8828-48.877 30.3955-49.3652Q30.9082-49.8535 31.6406-49.8535Q32.373-49.8535 32.959-49.2676L44.5801-37.6465L56.2012-49.2676Q56.7383-49.8535 57.5195-49.8535Q58.252-49.8535 58.7646-49.3652Q59.2773-48.877 59.2773-48.1445Q59.2773-47.4121 58.6914-46.875L47.0703-35.2051L58.6914-23.584Q59.2773-23.0469 59.2773-22.2656Q59.2773-21.5332 58.7402-21.0449Q58.2031-20.5566 57.4707-20.5566Q56.6895-20.5566 56.1523-21.1426L44.5801-32.7148L33.0078-21.1426Q32.4219-20.5566 31.6406-20.5566Z"/>
  </g>
  <g id="Ultralight-S" transform="matrix(1 0 0 1 515.649 696)">
   <path d="M44.043 1.95312Q51.7578 1.95312 58.4717-0.927734Q65.1855-3.80859 70.3369-8.95996Q75.4883-14.1113 78.3936-20.8252Q81.2988-27.5391 81.2988-35.2539Q81.2988-42.9688 78.3936-49.6826Q75.4883-56.3965 70.3369-61.5479Q65.1855-66.6992 58.4717-69.5801Q51.7578-72.4609 44.043-72.4609Q36.377-72.4609 29.6387-69.5801Q22.9004-66.6992 17.7734-61.5479Q12.6465-56.3965 9.74121-49.6826Q6.83594-42.9688 6.83594-35.2539Q6.83594-27.5391 9.74121-20.8252Q12.6465-14.1113 17.7734-8.95996Q22.9004-3.80859 29.6387-0.927734Q36.377 1.95312 44.043 1.95312ZM31.1523-21.0449Q30.6152-21.0449 30.249-21.3867Q29.8828-21.7285 29.8828-22.2168Q29.8828-22.7539 30.3223-23.1934L42.334-35.2051L30.3223-47.2168Q29.8828-47.6562 29.8828-48.1934Q29.8828-48.6816 30.249-48.999Q30.6152-49.3164 31.1523-49.3164Q31.6406-49.3164 32.1289-48.877L44.043-36.9141L56.0059-48.877Q56.4453-49.3652 56.9824-49.3652Q57.5195-49.3652 57.8857-49.0234Q58.252-48.6816 58.252-48.1934Q58.252-47.6562 57.8125-47.2168L45.8008-35.2051L57.8125-23.1934Q58.252-22.7539 58.252-22.2168Q58.252-21.7285 57.8857-21.3867Q57.5195-21.0449 56.9824-21.0449Q56.4453-21.0449 56.0059-21.5332L44.043-33.4961L32.1289-21.5332Q31.6406-21.0449 31.1523-21.0449Z"/>
  </g>
 </g>
</svg>
