<?xml version="1.0" encoding="UTF-8"?>
<!--Generator: Apple Native CoreSVG 175.5-->
<!DOCTYPE svg
PUBLIC "-//W3C//DTD SVG 1.1//EN"
       "http://www.w3.org/Graphics/SVG/1.1/DTD/svg11.dtd">
<svg version="1.1" xmlns="http://www.w3.org/2000/svg" xmlns:xlink="http://www.w3.org/1999/xlink" width="3300" height="2200">
 <!--glyph: "uni100660.medium", point size: 100.0, font version: "18.0d11e1", template writer version: "90"-->
 <g id="Notes">
  <rect height="2200" id="artboard" style="fill:white;opacity:1" width="3300" x="0" y="0"/>
  <line style="fill:none;stroke:black;opacity:1;stroke-width:0.5;" x1="263" x2="3036" y1="292" y2="292"/>
  <text style="stroke:none;fill:black;font-family:sans-serif;font-size:13;font-weight:bold;" transform="matrix(1 0 0 1 263 322)">Weight/Scale Variations</text>
  <text style="stroke:none;fill:black;font-family:sans-serif;font-size:13;text-anchor:middle;" transform="matrix(1 0 0 1 559.711 322)">Ultralight</text>
  <text style="stroke:none;fill:black;font-family:sans-serif;font-size:13;text-anchor:middle;" transform="matrix(1 0 0 1 856.422 322)">Thin</text>
  <text style="stroke:none;fill:black;font-family:sans-serif;font-size:13;text-anchor:middle;" transform="matrix(1 0 0 1 1153.13 322)">Light</text>
  <text style="stroke:none;fill:black;font-family:sans-serif;font-size:13;text-anchor:middle;" transform="matrix(1 0 0 1 1449.84 322)">Regular</text>
  <text style="stroke:none;fill:black;font-family:sans-serif;font-size:13;text-anchor:middle;" transform="matrix(1 0 0 1 1746.56 322)">Medium</text>
  <text style="stroke:none;fill:black;font-family:sans-serif;font-size:13;text-anchor:middle;" transform="matrix(1 0 0 1 2043.27 322)">Semibold</text>
  <text style="stroke:none;fill:black;font-family:sans-serif;font-size:13;text-anchor:middle;" transform="matrix(1 0 0 1 2339.98 322)">Bold</text>
  <text style="stroke:none;fill:black;font-family:sans-serif;font-size:13;text-anchor:middle;" transform="matrix(1 0 0 1 2636.69 322)">Heavy</text>
  <text style="stroke:none;fill:black;font-family:sans-serif;font-size:13;text-anchor:middle;" transform="matrix(1 0 0 1 2933.4 322)">Black</text>
  <line style="fill:none;stroke:black;opacity:1;stroke-width:0.5;" x1="263" x2="3036" y1="1903" y2="1903"/>
  <g transform="matrix(1 0 0 1 263 1933)">
   <path d="M9.24805 0.830078C13.5547 0.830078 17.1387-2.74414 17.1387-7.05078C17.1387-11.3574 13.5449-14.9316 9.23828-14.9316C4.94141-14.9316 1.36719-11.3574 1.36719-7.05078C1.36719-2.74414 4.95117 0.830078 9.24805 0.830078ZM9.24805-0.654297C5.70312-0.654297 2.87109-3.49609 2.87109-7.05078C2.87109-10.6055 5.69336-13.4473 9.23828-13.4473C12.793-13.4473 15.6445-10.6055 15.6445-7.05078C15.6445-3.49609 12.8027-0.654297 9.24805-0.654297ZM5.6543-7.05078C5.6543-6.62109 5.95703-6.32812 6.40625-6.32812L8.50586-6.32812L8.50586-4.20898C8.50586-3.76953 8.79883-3.4668 9.22852-3.4668C9.67773-3.4668 9.9707-3.76953 9.9707-4.20898L9.9707-6.32812L12.0898-6.32812C12.5293-6.32812 12.832-6.62109 12.832-7.05078C12.832-7.49023 12.5293-7.79297 12.0898-7.79297L9.9707-7.79297L9.9707-9.90234C9.9707-10.3516 9.67773-10.6543 9.22852-10.6543C8.79883-10.6543 8.50586-10.3516 8.50586-9.90234L8.50586-7.79297L6.40625-7.79297C5.95703-7.79297 5.6543-7.49023 5.6543-7.05078Z"/>
  </g>
  <g transform="matrix(1 0 0 1 281.867 1933)">
   <path d="M11.709 2.91016C17.1582 2.91016 21.6699-1.61133 21.6699-7.05078C21.6699-12.5 17.1484-17.0117 11.6992-17.0117C6.25977-17.0117 1.74805-12.5 1.74805-7.05078C1.74805-1.61133 6.26953 2.91016 11.709 2.91016ZM11.709 1.25C7.09961 1.25 3.41797-2.44141 3.41797-7.05078C3.41797-11.6602 7.08984-15.3516 11.6992-15.3516C16.3086-15.3516 20.0098-11.6602 20.0098-7.05078C20.0098-2.44141 16.3184 1.25 11.709 1.25ZM7.17773-7.05078C7.17773-6.57227 7.50977-6.25 8.00781-6.25L10.8789-6.25L10.8789-3.36914C10.8789-2.88086 11.2109-2.53906 11.6895-2.53906C12.1777-2.53906 12.5195-2.87109 12.5195-3.36914L12.5195-6.25L15.4004-6.25C15.8887-6.25 16.2305-6.57227 16.2305-7.05078C16.2305-7.53906 15.8887-7.88086 15.4004-7.88086L12.5195-7.88086L12.5195-10.752C12.5195-11.25 12.1777-11.5918 11.6895-11.5918C11.2109-11.5918 10.8789-11.25 10.8789-10.752L10.8789-7.88086L8.00781-7.88086C7.50977-7.88086 7.17773-7.53906 7.17773-7.05078Z"/>
  </g>
  <g transform="matrix(1 0 0 1 305.646 1933)">
   <path d="M14.9707 5.66406C21.9336 5.66406 27.6953-0.0976562 27.6953-7.05078C27.6953-14.0137 21.9238-19.7754 14.9609-19.7754C8.00781-19.7754 2.25586-14.0137 2.25586-7.05078C2.25586-0.0976562 8.01758 5.66406 14.9707 5.66406ZM14.9707 3.84766C8.93555 3.84766 4.08203-1.01562 4.08203-7.05078C4.08203-13.0957 8.92578-17.9492 14.9609-17.9492C21.0059-17.9492 25.8691-13.0957 25.8691-7.05078C25.8691-1.01562 21.0156 3.84766 14.9707 3.84766ZM9.19922-7.05078C9.19922-6.5332 9.57031-6.17188 10.1172-6.17188L14.0625-6.17188L14.0625-2.2168C14.0625-1.67969 14.4336-1.29883 14.9512-1.29883C15.4883-1.29883 15.8594-1.66992 15.8594-2.2168L15.8594-6.17188L19.8145-6.17188C20.3516-6.17188 20.7324-6.5332 20.7324-7.05078C20.7324-7.59766 20.3613-7.96875 19.8145-7.96875L15.8594-7.96875L15.8594-11.9141C15.8594-12.4609 15.4883-12.8418 14.9512-12.8418C14.4336-12.8418 14.0625-12.4609 14.0625-11.9141L14.0625-7.96875L10.1172-7.96875C9.57031-7.96875 9.19922-7.59766 9.19922-7.05078Z"/>
  </g>
  <text style="stroke:none;fill:black;font-family:sans-serif;font-size:13;font-weight:bold;" transform="matrix(1 0 0 1 263 1953)">Design Variations</text>
  <text style="stroke:none;fill:black;font-family:sans-serif;font-size:13;" transform="matrix(1 0 0 1 263 1971)">Symbols are supported in up to nine weights and three scales.</text>
  <text style="stroke:none;fill:black;font-family:sans-serif;font-size:13;" transform="matrix(1 0 0 1 263 1989)">For optimal layout with text and other symbols, vertically align</text>
  <text style="stroke:none;fill:black;font-family:sans-serif;font-size:13;" transform="matrix(1 0 0 1 263 2007)">symbols with the adjacent text.</text>
  <line style="fill:none;stroke:#00AEEF;stroke-width:0.5;opacity:1.0;" x1="776" x2="776" y1="1919" y2="1933"/>
  <g transform="matrix(1 0 0 1 776 1933)">
   <path d="M3.31055 0.15625C3.82812 0.15625 4.08203-0.0390625 4.26758-0.585938L5.52734-4.0332L11.2891-4.0332L12.5488-0.585938C12.7344-0.0390625 12.9883 0.15625 13.4961 0.15625C14.0137 0.15625 14.3457-0.15625 14.3457-0.644531C14.3457-0.810547 14.3164-0.966797 14.2383-1.17188L9.6582-13.3691C9.43359-13.9648 9.0332-14.2676 8.4082-14.2676C7.80273-14.2676 7.39258-13.9746 7.17773-13.3789L2.59766-1.16211C2.51953-0.957031 2.49023-0.800781 2.49023-0.634766C2.49023-0.146484 2.80273 0.15625 3.31055 0.15625ZM6.00586-5.51758L8.37891-12.0898L8.42773-12.0898L10.8008-5.51758Z"/>
  </g>
  <line style="fill:none;stroke:#00AEEF;stroke-width:0.5;opacity:1.0;" x1="793.197" x2="793.197" y1="1919" y2="1933"/>
  <text style="stroke:none;fill:black;font-family:sans-serif;font-size:13;font-weight:bold;" transform="matrix(1 0 0 1 776 1953)">Margins</text>
  <text style="stroke:none;fill:black;font-family:sans-serif;font-size:13;" transform="matrix(1 0 0 1 776 1971)">Leading and trailing margins on the left and right side of each symbol</text>
  <text style="stroke:none;fill:black;font-family:sans-serif;font-size:13;" transform="matrix(1 0 0 1 776 1989)">can be adjusted by modifying the x-location of the margin guidelines.</text>
  <text style="stroke:none;fill:black;font-family:sans-serif;font-size:13;" transform="matrix(1 0 0 1 776 2007)">Modifications are automatically applied proportionally to all</text>
  <text style="stroke:none;fill:black;font-family:sans-serif;font-size:13;" transform="matrix(1 0 0 1 776 2025)">scales and weights.</text>
  <g transform="matrix(1 0 0 1 1289 1933)">
   <path d="M2.8418 1.86523L4.54102 3.57422C5.40039 4.44336 6.38672 4.38477 7.31445 3.35938L18.0078-8.42773L17.041-9.4043L6.42578 2.27539C6.07422 2.67578 5.74219 2.77344 5.27344 2.30469L4.10156 1.14258C3.63281 0.683594 3.74023 0.341797 4.14062-0.0195312L15.6152-10.8203L14.6387-11.7871L3.04688-0.898438C2.06055 0.0195312 1.98242 0.996094 2.8418 1.86523ZM9.25781-16.3281C8.83789-15.918 8.80859-15.3418 9.04297-14.9512C9.27734-14.5898 9.73633-14.3555 10.3809-14.5215C11.8457-14.8633 13.3691-14.9219 14.7949-13.9844L14.209-12.5293C13.8672-11.6992 14.043-11.1133 14.5801-10.5664L16.875-8.25195C17.3633-7.76367 17.7734-7.74414 18.3398-7.8418L19.4043-8.03711L20.0684-7.36328L20.0293-6.80664C19.9902-6.30859 20.1172-5.92773 20.6055-5.44922L21.3672-4.70703C21.8457-4.22852 22.4609-4.19922 22.9297-4.66797L25.8398-7.58789C26.3086-8.05664 26.2891-8.65234 25.8105-9.13086L25.0391-9.89258C24.5605-10.3711 24.1895-10.5273 23.7109-10.4883L23.1348-10.4395L22.4902-11.0742L22.7344-12.1973C22.8613-12.7637 22.7051-13.2031 22.1191-13.7891L19.9219-15.9766C16.582-19.2969 12.1484-19.2188 9.25781-16.3281ZM10.752-15.957C13.1836-17.7344 16.4746-17.4316 18.7012-15.2051L21.1328-12.793C21.3672-12.5586 21.4062-12.373 21.3379-12.0312L21.0156-10.5469L22.5195-9.0625L23.5059-9.12109C23.7598-9.13086 23.8379-9.11133 24.0332-8.91602L24.6094-8.33984L22.168-5.89844L21.5918-6.47461C21.3965-6.66992 21.3672-6.74805 21.377-7.01172L21.4453-7.98828L19.9512-9.47266L18.4277-9.21875C18.1055-9.15039 17.959-9.17969 17.7148-9.41406L15.7129-11.416C15.459-11.6504 15.4297-11.8164 15.5859-12.1875L16.4648-14.2773C14.9023-15.7324 12.8711-16.3574 10.8398-15.7617C10.6836-15.7227 10.625-15.8496 10.752-15.957Z"/>
  </g>
  <text style="stroke:none;fill:black;font-family:sans-serif;font-size:13;font-weight:bold;" transform="matrix(1 0 0 1 1289 1953)">Exporting</text>
  <text style="stroke:none;fill:black;font-family:sans-serif;font-size:13;" transform="matrix(1 0 0 1 1289 1971)">Symbols should be outlined when exporting to ensure the</text>
  <text style="stroke:none;fill:black;font-family:sans-serif;font-size:13;" transform="matrix(1 0 0 1 1289 1989)">design is preserved when submitting to Xcode.</text>
  <text id="template-version" style="stroke:none;fill:black;font-family:sans-serif;font-size:13;text-anchor:end;" transform="matrix(1 0 0 1 3036 1933)">Template v.2.0</text>
  <text style="stroke:none;fill:black;font-family:sans-serif;font-size:13;text-anchor:end;" transform="matrix(1 0 0 1 3036 1951)">Requires Xcode 12 or greater</text>
  <text id="descriptive-name" style="stroke:none;fill:black;font-family:sans-serif;font-size:13;text-anchor:end;" transform="matrix(1 0 0 1 3036 1969)">Generated from arrow.triangle.branch</text>
  <text style="stroke:none;fill:black;font-family:sans-serif;font-size:13;text-anchor:end;" transform="matrix(1 0 0 1 3036 1987)">Typeset at 100 points</text>
  <text style="stroke:none;fill:black;font-family:sans-serif;font-size:13;" transform="matrix(1 0 0 1 263 726)">Small</text>
  <text style="stroke:none;fill:black;font-family:sans-serif;font-size:13;" transform="matrix(1 0 0 1 263 1156)">Medium</text>
  <text style="stroke:none;fill:black;font-family:sans-serif;font-size:13;" transform="matrix(1 0 0 1 263 1586)">Large</text>
 </g>
 <g id="Guides">
  <g id="H-reference" style="fill:#27AAE1;stroke:none;" transform="matrix(1 0 0 1 339 696)">
   <path d="M0.993654 0L3.63775 0L29.3281-67.1323L30.0303-67.1323L30.0303-70.459L28.1226-70.459ZM11.6885-24.4799L46.9815-24.4799L46.2315-26.7285L12.4385-26.7285ZM55.1196 0L57.7637 0L30.6382-70.459L29.4326-70.459L29.4326-67.1323Z"/>
  </g>
  <line id="Baseline-S" style="fill:none;stroke:#27AAE1;opacity:1;stroke-width:0.5;" x1="263" x2="3036" y1="696" y2="696"/>
  <line id="Capline-S" style="fill:none;stroke:#27AAE1;opacity:1;stroke-width:0.5;" x1="263" x2="3036" y1="625.541" y2="625.541"/>
  <g id="H-reference" style="fill:#27AAE1;stroke:none;" transform="matrix(1 0 0 1 339 1126)">
   <path d="M0.993654 0L3.63775 0L29.3281-67.1323L30.0303-67.1323L30.0303-70.459L28.1226-70.459ZM11.6885-24.4799L46.9815-24.4799L46.2315-26.7285L12.4385-26.7285ZM55.1196 0L57.7637 0L30.6382-70.459L29.4326-70.459L29.4326-67.1323Z"/>
  </g>
  <line id="Baseline-M" style="fill:none;stroke:#27AAE1;opacity:1;stroke-width:0.5;" x1="263" x2="3036" y1="1126" y2="1126"/>
  <line id="Capline-M" style="fill:none;stroke:#27AAE1;opacity:1;stroke-width:0.5;" x1="263" x2="3036" y1="1055.54" y2="1055.54"/>
  <g id="H-reference" style="fill:#27AAE1;stroke:none;" transform="matrix(1 0 0 1 339 1556)">
   <path d="M0.993654 0L3.63775 0L29.3281-67.1323L30.0303-67.1323L30.0303-70.459L28.1226-70.459ZM11.6885-24.4799L46.9815-24.4799L46.2315-26.7285L12.4385-26.7285ZM55.1196 0L57.7637 0L30.6382-70.459L29.4326-70.459L29.4326-67.1323Z"/>
  </g>
  <line id="Baseline-L" style="fill:none;stroke:#27AAE1;opacity:1;stroke-width:0.5;" x1="263" x2="3036" y1="1556" y2="1556"/>
  <line id="Capline-L" style="fill:none;stroke:#27AAE1;opacity:1;stroke-width:0.5;" x1="263" x2="3036" y1="1485.54" y2="1485.54"/>
  <line id="left-margin" style="fill:none;stroke:#00AEEF;stroke-width:0.5;opacity:1.0;" x1="1392.38" x2="1392.38" y1="1030.79" y2="1150.12"/>
  <line id="right-margin" style="fill:none;stroke:#00AEEF;stroke-width:0.5;opacity:1.0;" x1="1507.31" x2="1507.31" y1="1030.79" y2="1150.12"/>
 </g>
 <g id="Symbols">
  <g id="Black-L" transform="matrix(1 0 0 1 2850.61 1556)">
   <path d="M82.7518 23.317C88.4991 23.317 91.6603 19.9154 91.6603 13.7042L91.6603-18.4349C91.6603-32.5595 108.922-51.1725 119.83-58.07L125.041-61.3588C127.792-63.1008 129.412-66.0087 129.412-68.9518C129.412-73.8138 126.362-77.6602 120.681-77.6602C118.327-77.6602 115.893-76.928 113.677-75.5024L110.468-73.402C101.031-67.2205 87.015-53.1601 82.8918-42.1692L82.6117-42.1692C78.4302-53.1809 64.4353-67.2205 55.0562-73.402L51.847-75.5024C49.6309-76.9864 47.1394-77.7186 44.8221-77.7186C39.0036-77.7186 36.1124-73.6345 36.1124-68.9726C36.1124-66.0087 37.674-63.1592 40.4038-61.4172L45.6936-58.07C56.4852-51.1725 73.8641-32.5595 73.8641-18.4349L73.8641 13.7042C73.8641 19.9154 77.0252 23.317 82.7518 23.317ZM35.3732-50.3343L59.9538-81.8258C63.5651-86.4898 60.6028-91.1584 54.0081-91.3377L23.2916-92.24C18.0584-92.4192 14.9937-88.3279 16.4045-83.4308L24.696-53.8205C26.4624-47.5411 31.6451-45.6107 35.3732-50.3343ZM128.908-50.5303C132.44-45.5899 137.761-47.3827 139.723-53.5829L149.041-82.8971C150.61-87.7942 147.662-91.9647 142.45-92.0023L111.712-92.1259C105.118-92.1623 101.996-87.6117 105.471-82.8089Z"/>
  </g>
  <g id="Heavy-L" transform="matrix(1 0 0 1 2556.05 1556)">
   <path d="M80.606 23.6302C85.7769 23.6302 88.6248 20.5176 88.6248 14.8305L88.6248-18.4164C88.6248-32.7293 105.715-52.1496 117.807-59.8413L122.961-63.0992C125.462-64.6868 126.909-67.3316 126.909-69.9796C126.909-74.3837 124.099-77.7884 119.064-77.7884C116.909-77.7884 114.684-77.1196 112.653-75.8022L109.404-73.6664C98.4728-66.4597 84.3332-51.1255 80.7366-40.3948L80.4753-40.3948C76.8341-51.1557 62.7247-66.4597 51.8378-73.6664L48.5894-75.8022C46.5586-77.1643 44.2889-77.833 42.1475-77.833C36.9936-77.833 34.3331-74.2039 34.3331-70.0097C34.3331-67.3316 35.7353-64.7314 38.2059-63.1438L43.4294-59.8413C55.4378-52.1496 72.6174-32.7293 72.6174-18.4164L72.6174 14.8305C72.6174 20.5176 75.4652 23.6302 80.606 23.6302ZM34.2112-52.0353L57.1105-81.4763C60.478-85.8286 57.8345-90.0273 51.8459-90.2071L22.6408-91.1342C17.8444-91.314 15.0847-87.6512 16.4001-83.1495L24.4523-55.0457C26.0869-49.3217 30.7545-47.6328 34.2112-52.0353ZM125.91-52.1994C129.203-47.6026 133.99-49.1721 135.789-54.8213L144.767-82.656C146.232-87.1577 143.562-90.8953 138.796-90.9097L109.56-90.9092C103.572-90.9181 100.773-86.8142 104.027-82.3369Z"/>
  </g>
  <g id="Bold-L" transform="matrix(1 0 0 1 2261.94 1556)">
   <path d="M77.9995 23.9698C82.4186 23.9698 84.8598 21.2555 84.8598 16.2885L84.8598-18.4678C84.8598-32.922 101.646-53.2667 115.28-61.9941L120.335-65.1987C122.514-66.5867 123.745-68.8863 123.745-71.1507C123.745-74.949 121.264-77.8006 117.044-77.8006C115.157-77.8006 113.215-77.2162 111.437-76.0519L108.113-73.8551C95.3144-65.3731 81.1031-48.5604 78.1224-38.0779L77.8767-38.0779C74.8667-48.5984 60.6934-65.3731 47.9244-73.8551L44.6-76.0519C42.8221-77.2454 40.8513-77.8298 38.955-77.8298C34.6382-77.8298 32.2918-74.7766 32.2918-71.1887C32.2918-68.8863 33.4943-66.6159 35.6347-65.2279L40.744-61.9941C54.333-53.2667 71.1772-32.922 71.1772-18.4678L71.1772 16.2885C71.1772 21.2555 73.6184 23.9698 77.9995 23.9698ZM32.7668-53.9917L53.7104-81.0906C56.7409-85.0139 54.4968-88.6362 49.2612-88.8086L21.8191-89.7365C17.5756-89.9089 15.1999-86.7763 16.3924-82.7813L24.1823-56.4403C25.6481-51.4152 29.6779-50.026 32.7668-53.9917ZM122.318-54.1173C125.281-49.988 129.407-51.2808 130.999-56.2388L139.577-82.3489C140.904-86.344 138.587-89.5438 134.382-89.535L106.901-89.3957C101.666-89.3737 99.2742-85.823 102.221-81.7901Z"/>
  </g>
  <g id="Semibold-L" transform="matrix(1 0 0 1 1967.03 1556)">
   <path d="M76.2027 24.2039C80.1034 24.2039 82.2643 21.7642 82.2643 17.2936L82.2643-18.5033C82.2643-33.0548 98.8402-54.0368 113.538-63.4782L118.525-66.646C120.481-67.8965 121.564-69.9582 121.564-71.9581C121.564-75.3387 119.31-77.8091 115.651-77.8091C113.949-77.8091 112.203-77.2828 110.599-76.224L107.222-73.9852C93.137-64.624 78.8763-46.7921 76.3201-36.4807L76.0852-36.4807C73.5104-46.8355 59.2931-64.624 45.2265-73.9852L41.8498-76.224C40.2461-77.3014 38.4814-77.8276 36.754-77.8276C33.0143-77.8276 30.8845-75.1715 30.8845-72.0014C30.8845-69.9582 31.9493-67.9151 33.8622-66.6646L38.8927-63.4782C53.5714-54.0368 70.1844-33.0548 70.1844-18.5033L70.1844 17.2936C70.1844 21.7642 72.3452 24.2039 76.2027 24.2039ZM31.771-55.3405L51.3664-80.8247C54.1645-84.4523 52.1958-87.6772 47.4793-87.8444L21.2526-88.773C17.3903-88.9403 15.2793-86.1732 16.3872-82.5274L23.9963-57.4018C25.3456-52.8584 28.9357-51.6758 31.771-55.3405ZM119.842-55.4396C122.578-51.6325 126.248-52.7346 127.697-57.216L136-82.1372C137.231-85.783 135.157-88.612 131.338-88.5872L105.068-88.3523C100.352-88.309 98.2409-85.1398 100.977-81.4132Z"/>
  </g>
  <g id="Medium-L" transform="matrix(1 0 0 1 1671.69 1556)">
   <path d="M74.8402 24.3814C78.348 24.3814 80.2962 22.1499 80.2962 18.0558L80.2962-18.5302C80.2962-33.1555 96.7129-54.6207 112.216-64.6035L117.152-67.7435C118.939-68.8897 119.91-70.7709 119.91-72.5702C119.91-75.6342 117.829-77.8155 114.595-77.8155C113.033-77.8155 111.435-77.3333 109.963-76.3545L106.547-74.0839C91.4861-64.056 77.1878-45.4513 74.9536-35.2696L74.7268-35.2696C72.482-45.4987 58.2313-64.056 43.1808-74.0839L39.7644-76.3545C38.2929-77.3438 36.6845-77.826 35.0852-77.826C31.7831-77.826 29.8175-75.4709 29.8175-72.6177C29.8175-70.7709 30.7779-68.9002 32.5182-67.754L37.489-64.6035C52.9939-54.6207 69.4316-33.1555 69.4316-18.5302L69.4316 18.0558C69.4316 22.1499 71.3799 24.3814 74.8402 24.3814ZM31.016-56.3631L49.5891-80.6231C52.211-84.0265 50.4511-86.95 46.1282-87.1134L20.8231-88.0425C17.2498-88.2058 15.3395-85.7159 16.3832-82.335L23.8552-58.1308C25.1162-53.9528 28.373-52.9268 31.016-56.3631ZM117.964-56.4421C120.528-52.8794 123.853-53.8369 125.193-57.9569L133.287-81.9767C134.446-85.3577 132.557-87.9055 129.031-87.8686L103.679-87.5611C99.3557-87.5017 97.4574-84.6217 100.033-81.1274Z"/>
  </g>
  <g id="Regular-L" transform="matrix(1 0 0 1 1376.75 1556)">
   <path d="M73.0631 24.6129C76.0582 24.6129 77.7292 22.653 77.7292 19.0498L77.7292-18.5653C77.7292-33.2869 93.9383-55.3823 110.493-66.0713L115.361-69.1749C116.929-70.1851 117.753-71.831 117.753-73.3687C117.753-76.0197 115.896-77.8238 113.218-77.8238C111.838-77.8238 110.434-77.3991 109.135-76.5247L105.666-74.2126C89.3326-63.3151 74.9855-43.7024 73.1711-33.6899L72.955-33.6899C71.1406-43.7552 56.8463-63.3151 40.5126-74.2126L37.0444-76.5247C35.7453-77.3991 34.3407-77.8238 32.9084-77.8238C30.1771-77.8238 28.4257-75.8614 28.4257-73.4215C28.4257-71.831 29.2499-70.1851 30.7651-69.1749L35.658-66.0713C52.2406-55.3823 68.4497-33.2869 68.4497-18.5653L68.4497 19.0498C68.4497 22.653 70.1207 24.6129 73.0631 24.6129ZM30.0311-57.6971L47.2708-80.3602C49.663-83.471 48.1755-86.0015 44.3659-86.1598L20.2629-87.0896C17.0665-87.2478 15.4181-85.1195 16.378-82.0839L23.6711-59.0816C24.817-55.3802 27.639-54.5585 30.0311-57.6971ZM115.515-57.7498C117.854-54.5058 120.729-55.2747 121.927-58.9234L129.748-81.7673C130.814-84.8029 129.165-86.984 126.022-86.9313L101.866-86.5292C98.0562-86.4487 96.4354-83.9459 98.8025-80.7546Z"/>
  </g>
  <g id="Light-L" transform="matrix(1 0 0 1 1081.52 1556)">
   <path d="M71.5935 24.5366C73.8252 24.5366 75.0954 23.1111 75.0954 20.4622L75.0954-19.0806C75.0954-33.3059 90.503-55.5541 108.604-67.2928L113.223-70.2628C114.486-71.0821 115.158-72.3653 115.158-73.5214C115.158-75.5043 113.74-76.8886 111.71-76.8886C110.655-76.8886 109.613-76.5594 108.638-75.914L104.941-73.4491C87.2141-61.6356 73.3442-41.6412 71.7207-31.3234L71.4663-31.3234C69.8428-41.6749 56.0065-61.6356 38.2796-73.4491L34.5823-75.914C33.6077-76.5594 32.5657-76.8886 31.477-76.8886C29.4137-76.8886 28.0631-75.4033 28.0631-73.5551C28.0631-72.3653 28.7346-71.0821 29.9635-70.2628L34.5701-67.2928C52.7177-55.5541 68.1253-33.3059 68.1253-19.0806L68.1253 20.4622C68.1253 23.1111 69.3954 24.5366 71.5935 24.5366ZM29.0005-58.0788L45.7058-80.3983C47.64-82.9367 46.4578-85.1045 43.1826-85.2056L19.5949-85.9444C16.8565-86.0455 15.5135-84.2797 16.3589-81.7022L23.6902-59.2534C24.6834-56.1054 27.0664-55.4937 29.0005-58.0788ZM113.816-58.1124C115.716-55.46 118.133-56.0381 119.16-59.1524L126.828-81.5001C127.741-84.0776 126.398-85.8771 123.693-85.8434L100.072-85.4413C96.7966-85.3609 95.5003-83.2398 97.4475-80.621Z"/>
  </g>
  <g id="Thin-L" transform="matrix(1 0 0 1 786.768 1556)">
   <path d="M69.6499 24.4356C70.8719 24.4356 71.612 23.7169 71.612 22.33L71.612-19.7621C71.612-33.3312 85.9594-55.7813 106.105-68.9083L110.396-71.7016C111.255-72.2685 111.725-73.0721 111.725-73.7234C111.725-74.8228 110.887-75.6518 109.716-75.6518C109.09-75.6518 108.528-75.4488 107.982-75.1063L103.982-72.4395C84.4123-59.4143 71.1734-38.9151 69.8023-28.1934L69.4975-28.1934C68.1264-38.9235 54.8959-59.4143 35.3263-72.4395L31.3262-75.1063C30.7806-75.4488 30.2183-75.6518 29.5839-75.6518C28.404-75.6518 27.5835-74.7975 27.5835-73.7318C27.5835-73.0721 28.0531-72.2685 28.9034-71.7016L33.1313-68.9083C53.3488-55.7813 67.6961-33.3312 67.6961-19.7621L67.6961 22.33C67.6961 23.7169 68.4362 24.4356 69.6499 24.4356ZM27.6375-58.5836L43.636-80.4488C44.9643-82.2299 44.186-83.9182 41.6176-83.9435L18.7114-84.4299C16.5789-84.4552 15.6397-83.1691 16.3337-81.1974L23.7154-59.4806C24.5067-57.0646 26.3091-56.7305 27.6375-58.5836ZM111.569-58.592C112.889-56.7221 114.7-57.0477 115.5-59.4553L122.966-81.1467C123.677-83.1184 122.738-84.4131 120.614-84.4046L97.699-84.0025C95.1306-83.9221 94.2634-82.3058 95.6553-80.4443Z"/>
  </g>
  <g id="Ultralight-L" transform="matrix(1 0 0 1 491.059 1556)">
   <path d="M68.6544 24.3839C69.3593 24.3839 69.8279 24.0272 69.8279 23.2868L69.8279-20.1112C69.8279-33.3441 83.6323-55.8976 104.825-69.7357L108.948-72.4385C109.6-72.8761 109.966-73.4341 109.966-73.8268C109.966-74.4737 109.426-75.0183 108.695-75.0183C108.288-75.0183 107.972-74.8799 107.646-74.6925L103.491-71.9223C82.9772-58.2766 70.0615-37.5188 68.8197-26.5902L68.489-26.5902C67.2472-37.5143 54.327-58.2766 33.8137-71.9223L29.6583-74.6925C29.3326-74.8799 29.0159-75.0183 28.6142-75.0183C27.8868-75.0183 27.3378-74.4872 27.3378-73.8223C27.3378-73.4341 27.704-72.8761 28.3604-72.4385L32.3944-69.7357C53.672-55.8976 67.4764-33.3441 67.4764-20.1112L67.4764 23.2868C67.4764 24.0272 67.945 24.3839 68.6544 24.3839ZM26.9393-58.8422L42.5758-80.4747C43.5939-81.8679 43.0224-83.3105 40.816-83.297L18.2589-83.6542C16.4367-83.6407 15.7043-82.6002 16.3208-80.9388L23.7284-59.597C24.4162-57.5559 25.9213-57.3641 26.9393-58.8422ZM110.419-58.8377C111.441-57.3685 112.942-57.5649 113.625-59.6104L120.988-80.9657C121.595-82.6272 120.863-83.6632 119.036-83.6677L96.4837-83.2656C94.2773-83.1852 93.6299-81.8275 94.7374-80.3538Z"/>
  </g>
  <g id="Black-M" transform="matrix(1 0 0 1 2867.61 1126)">
   <path d="M65.7563 9.84947C70.601 9.84947 73.265 7.03803 73.265 1.90487L73.265-22.3038C73.265-33.0176 86.6776-46.7648 94.3191-51.5681L98.3726-54.1246C100.677-55.5811 102.06-58.0109 102.06-60.493C102.06-64.5627 99.5513-67.8655 94.6825-67.8655C92.7308-67.8655 90.7162-67.2566 88.8839-66.0903L86.4003-64.4726C80.184-60.4406 69.4965-50.5904 65.8754-41.8103L65.6372-41.8103C61.959-50.5959 51.277-60.4406 45.1178-64.4726L42.6342-66.0903C40.8019-67.3137 38.7302-67.9226 36.8301-67.9226C31.8417-67.9226 29.4579-64.432 29.4579-60.4984C29.4579-58.0109 30.784-55.6382 33.0829-54.1817L37.1993-51.5681C44.7263-46.7648 58.2531-33.0176 58.2531-22.3038L58.2531 1.90487C58.2531 7.03803 60.9171 9.84947 65.7563 9.84947ZM28.2642-45.5216L48.6802-71.6352C51.6256-75.4389 49.098-79.4105 43.5403-79.5412L18.5138-80.1931C14.1461-80.3238 11.551-76.8349 12.7104-72.7631L19.345-48.6031C20.8061-43.3358 25.2047-41.6611 28.2642-45.5216ZM102.217-45.6984C105.1-41.6556 109.618-43.2107 111.256-48.4153L118.745-72.3305C120.03-76.4023 117.549-79.9538 113.187-80.0054L88.1545-80.2077C82.5969-80.2596 79.9444-76.4018 82.7698-72.4788Z"/>
  </g>
  <g id="Heavy-M" transform="matrix(1 0 0 1 2572.86 1126)">
   <path d="M63.7942 10.1626C68.1458 10.1626 70.5406 7.58449 70.5406 2.87561L70.5406-22.2381C70.5406-33.1818 83.8593-47.7041 92.5164-53.187L96.5366-55.7256C98.6249-57.0487 99.8529-59.2548 99.8529-61.4836C99.8529-65.1674 97.5376-68.077 93.2408-68.077C91.4538-68.077 89.6091-67.5214 87.9281-66.4396L85.4273-64.8015C77.8789-59.8518 67.0264-48.7916 63.9024-40.294L63.686-40.294C60.5185-48.808 49.6823-59.8518 42.1776-64.8015L39.6768-66.4396C37.9957-67.565 36.1074-68.1207 34.3477-68.1207C29.9472-68.1207 27.7519-65.0309 27.7519-61.5C27.7519-59.2548 28.9363-57.0923 31.0082-55.7692L35.0862-53.187C43.6584-47.7041 57.0643-33.1818 57.0643-22.2381L57.0643 2.87561C57.0643 7.58449 59.459 10.1626 63.7942 10.1626ZM27.2233-47.1493L46.0451-71.29C48.7944-74.8418 46.5502-78.3876 41.5358-78.524L17.9392-79.2178C13.9563-79.3542 11.6312-76.2508 12.7079-72.5233L19.105-49.7849C20.4514-45.0095 24.3868-43.5516 27.2233-47.1493ZM99.4431-47.2965C102.132-43.5352 106.171-44.8895 107.665-49.6048L114.837-72.1195C116.034-75.847 113.796-79.0104 109.829-79.0377L86.2164-79.1187C81.2019-79.1437 78.8355-75.6874 81.4833-72.0297Z"/>
  </g>
  <g id="Bold-M" transform="matrix(1 0 0 1 2278.35 1126)">
   <path d="M61.5994 10.513C65.3995 10.513 67.4929 8.19577 67.4929 3.96152L67.4929-22.1646C67.4929-33.3656 80.7066-48.7548 90.4998-54.998L94.4828-57.5166C96.3294-58.6905 97.3838-60.6463 97.3838-62.5918C97.3838-65.8438 95.285-68.3137 91.6281-68.3137C90.0254-68.3137 88.3707-67.8176 86.8589-66.8305L84.3389-65.1695C75.3004-59.1931 64.2631-46.7794 61.6954-38.5978L61.5034-38.5978C58.9071-46.808 47.8984-59.1931 38.8885-65.1695L36.3685-66.8305C34.8567-67.8462 33.1734-68.3423 31.5707-68.3423C27.8281-68.3423 25.8436-65.7009 25.8436-62.6204C25.8436-60.6463 26.8694-58.719 28.6874-57.5451L32.7225-54.998C42.4637-48.7548 55.7344-33.3656 55.7344-22.1646L55.7344 3.96152C55.7344 8.19577 57.8279 10.513 61.5994 10.513ZM26.0589-48.9701L43.0974-70.9038C45.6272-74.1738 43.7002-77.2432 39.2934-77.3862L17.2965-78.1267C13.7439-78.2696 11.7208-75.5974 12.705-72.2551L18.8366-51.107C20.0545-46.8818 23.472-45.6663 26.0589-48.9701ZM96.3397-49.0843C98.8123-45.6377 102.316-46.7675 103.648-50.9355L110.465-71.8835C111.564-75.2258 109.598-77.9552 106.074-77.9551L84.0483-77.9006C79.6415-77.8954 77.595-74.8882 80.0442-71.5273Z"/>
  </g>
  <g id="Semibold-M" transform="matrix(1 0 0 1 1983.15 1126)">
   <path d="M60.0863 10.7545C63.5061 10.7545 65.3919 8.61719 65.3919 4.71015L65.3919-22.114C65.3919-33.4923 78.5331-49.4792 89.1095-56.2465L93.067-58.7512C94.7469-59.8223 95.6816-61.6056 95.6816-63.3557C95.6816-66.3102 93.732-68.4769 90.5163-68.4769C89.0407-68.4769 87.5169-68.0218 86.1218-67.0999L83.5885-65.4231C73.5228-58.739 62.3582-45.3922 60.1738-37.4285L59.9987-37.4285C57.7962-45.4292 46.6686-58.739 36.6211-65.4231L34.0878-67.0999C32.6926-68.04 31.1507-68.4951 29.6562-68.4951C26.3671-68.4951 24.5279-66.1627 24.5279-63.3928C24.5279-61.6056 25.4445-59.8405 27.0874-58.7694L31.0929-56.2465C41.6401-49.4792 54.8176-33.4923 54.8176-22.114L54.8176 4.71015C54.8176 8.61719 56.7034 10.7545 60.0863 10.7545ZM25.2562-50.2253L41.0652-70.6376C43.4438-73.7133 41.7354-76.4543 37.7475-76.6017L16.8534-77.3745C13.5975-77.5219 11.7826-75.1469 12.7031-72.0702L18.6515-52.0184C19.7809-48.1725 22.8413-47.1243 25.2562-50.2253ZM94.2002-50.3168C96.5236-47.0872 99.6573-48.0622 100.878-51.8528L107.451-71.7208C108.482-74.7976 106.704-77.2278 103.485-77.2089L82.5536-77.0608C78.5657-77.0348 76.7398-74.3372 79.0521-71.181Z"/>
  </g>
  <g id="Medium-M" transform="matrix(1 0 0 1 1687.59 1126)">
   <path d="M58.9389 10.9376C62.0705 10.9376 63.7988 8.93673 63.7988 5.27778L63.7988-22.0755C63.7988-33.5883 76.8851-50.0285 88.0554-57.1931L91.9934-59.6874C93.547-60.6805 94.3909-62.3329 94.3909-63.935C94.3909-66.6638 92.5545-68.6006 89.6733-68.6006C88.294-68.6006 86.8696-68.1767 85.5629-67.3042L83.0195-65.6155C72.175-58.3947 60.9137-44.3404 59.0201-36.5418L58.8578-36.5418C56.9539-44.3838 45.7361-58.3947 34.9018-65.6155L32.3584-67.3042C31.0517-68.1869 29.6171-68.6109 28.2046-68.6109C25.2594-68.6109 23.5304-66.5129 23.5304-63.9784C23.5304-62.3329 24.364-60.6908 25.8742-59.6977L29.8573-57.1931C41.0156-50.0285 54.1225-33.5883 54.1225-22.0755L54.1225 5.27778C54.1225 8.93673 55.8508 10.9376 58.9389 10.9376ZM24.6476-51.1771L39.5243-70.4357C41.7883-73.3642 40.2456-75.8561 36.5753-76.007L16.5174-76.8041C13.4865-76.955 11.8295-74.8054 12.7016-71.93L18.5112-52.7095C19.5735-49.1512 22.3631-48.2297 24.6476-51.1771ZM92.5779-51.2513C94.7881-48.1863 97.6417-49.0438 98.7783-52.5484L105.166-71.5975C106.146-74.4729 104.509-76.6762 101.522-76.643L81.4202-76.424C77.75-76.3822 76.0913-73.9195 78.2999-70.9184Z"/>
  </g>
  <g id="Regular-M" transform="matrix(1 0 0 1 1392.38 1126)">
   <path d="M57.4425 11.1764C60.198 11.1764 61.7209 9.35352 61.7209 6.01818L61.7209-22.0254C61.7209-33.7136 74.7356-50.7449 86.6804-58.4279L90.5931-60.9085C91.9819-61.7999 92.7074-63.2817 92.7074-64.6906C92.7074-67.125 91.0187-68.762 88.5737-68.762C87.3201-68.762 86.0252-68.3786 84.8339-67.5707L82.2774-65.8663C70.4169-57.9456 59.0297-42.9684 57.5153-35.3853L57.3696-35.3853C55.8552-43.0202 44.5197-57.9456 32.6593-65.8663L30.1028-67.5707C28.9114-68.3786 27.6166-68.762 26.3112-68.762C23.8145-68.762 22.2292-66.9697 22.2292-64.7423C22.2292-63.2817 22.9548-61.7999 24.2918-60.9085L28.2457-58.4279C40.2011-50.7449 53.2157-33.7136 53.2157-22.0254L53.2157 6.01818C53.2157 9.35352 54.7387 11.1764 57.4425 11.1764ZM23.8537-52.4185L37.5145-70.1724C39.6289-72.9088 38.3024-75.0759 35.0464-75.2311L16.0792-76.0602C13.3418-76.2155 11.8906-74.3599 12.6996-71.7471L18.3281-53.6109C19.3029-50.4278 21.7393-49.6716 23.8537-52.4185ZM90.4619-52.4703C92.5245-49.6198 95.0127-50.3243 96.0392-53.4556L102.185-71.4366C103.098-74.0494 101.647-75.9567 98.961-75.9049L79.942-75.5934C76.6861-75.5311 75.2455-73.3746 77.3186-70.5758Z"/>
  </g>
  <g id="Light-M" transform="matrix(1 0 0 1 1096.99 1126)">
   <path d="M56.1249 11.108C58.196 11.108 59.3596 9.76418 59.3596 7.28439L59.3596-22.4874C59.3596-33.7307 71.6556-50.8989 84.9865-59.523L88.6767-61.8839C89.7917-62.6041 90.3804-63.7608 90.3804-64.8274C90.3804-66.663 89.0851-67.9236 87.2219-67.9236C86.2592-67.9236 85.2894-67.6257 84.389-67.0231L81.6272-65.1819C68.5176-56.4399 57.5582-41.1204 56.2149-33.2636L56.0349-33.2636C54.6916-41.1551 43.7669-56.4399 30.6573-65.1819L27.8955-67.0231C26.995-67.6257 26.0253-67.9236 25.0279-67.9236C23.13-67.9236 21.9041-66.5591 21.9041-64.8621C21.9041-63.7608 22.4928-62.6041 23.5732-61.8839L27.2703-59.523C40.6289-50.8989 52.9249-33.7307 52.9249-22.4874L52.9249 7.28439C52.9249 9.76418 54.0885 11.108 56.1249 11.108ZM22.9297-52.7608L36.1114-70.2066C37.8151-72.4297 36.7624-74.2717 33.9855-74.3756L15.4803-75.0335C13.1535-75.1375 11.9762-73.607 12.6825-71.4049L18.3452-53.7649C19.1831-51.078 21.226-50.51 22.9297-52.7608ZM88.9391-52.7954C90.6081-50.4754 92.6856-51.0087 93.5582-53.6609L99.5673-71.197C100.343-73.3991 99.1656-74.9643 96.8735-74.9296L78.3336-74.6181C75.5567-74.5558 74.4071-72.7414 76.1038-70.4561Z"/>
  </g>
  <g id="Thin-M" transform="matrix(1 0 0 1 802.034 1126)">
   <path d="M54.3824 11.0175C55.5482 11.0175 56.2366 10.3073 56.2366 8.95905L56.2366-23.0984C56.2366-33.7533 67.5821-51.1025 82.746-60.9714L86.142-63.1738C86.895-63.6678 87.3026-64.3944 87.3026-65.0085C87.3026-66.052 86.5279-66.8147 85.4341-66.8147C84.8561-66.8147 84.3163-66.63 83.8006-66.2989L80.7672-64.2767C66.0056-54.4484 55.6119-38.6763 54.495-30.4574L54.2698-30.4574C53.1528-38.6883 42.7711-54.4484 28.0095-64.2767L24.9761-66.2989C24.4604-66.63 23.9206-66.8147 23.3306-66.8147C22.2248-66.8147 21.4741-66.0159 21.4741-65.0205C21.4741-64.3944 21.8817-63.6678 22.6227-63.1738L25.9804-60.9714C41.1946-51.1025 52.5401-33.7533 52.5401-23.0984L52.5401 8.95905C52.5401 10.3073 53.2285 11.0175 54.3824 11.0175ZM21.7076-53.2134L34.2557-70.2519C35.4163-71.796 34.7256-73.208 32.5824-73.2441L14.6882-73.6757C12.9046-73.7117 12.0894-72.6112 12.6599-70.9523L18.3679-53.9686C19.0247-51.938 20.5471-51.6189 21.7076-53.2134ZM86.9249-53.2254C88.0735-51.6069 89.6079-51.9139 90.2767-53.9325L96.1048-70.8802C96.6994-72.5392 95.8841-73.6517 94.1125-73.6397L76.2063-73.3281C74.0631-73.2658 73.2982-71.9041 74.497-70.2977Z"/>
  </g>
  <g id="Ultralight-M" transform="matrix(1 0 0 1 506.221 1126)">
   <path d="M53.4898 10.9711C54.192 10.9711 54.637 10.5855 54.637 9.81681L54.637-23.4114C54.637-33.7649 65.4957-51.2069 81.5985-61.7132L84.8438-63.8345C85.4113-64.2125 85.7262-64.719 85.7262-65.1012C85.7262-65.739 85.2181-66.2467 84.5184-66.2467C84.1374-66.2467 83.8179-66.12 83.4992-65.928L80.3267-63.813C64.719-53.4283 54.6151-37.4245 53.614-29.0201L53.3656-29.0201C52.3646-37.4249 42.2611-53.4283 26.6533-63.813L23.4809-65.928C23.1622-66.12 22.8427-66.2467 22.4613-66.2467C21.7612-66.2467 21.2539-65.7377 21.2539-65.1016C21.2539-64.719 21.5688-64.2125 22.1358-63.8345L25.3197-61.7132C41.4844-51.2069 52.3431-33.7649 52.3431-23.4114L52.3431 9.81681C52.3431 10.5855 52.7881 10.9711 53.4898 10.9711ZM21.0817-53.4452L33.3052-70.275C34.1876-71.4715 33.6824-72.6632 31.8638-72.6645L14.2825-72.9802C12.7771-72.9815 12.1473-72.1012 12.6483-70.7204L18.3795-54.0729C18.9436-52.3784 20.1993-52.1869 21.0817-53.4452ZM85.8933-53.4456C86.7753-52.1865 88.0315-52.3776 88.596-54.0716L94.3314-70.7179C94.8332-72.0987 94.2034-72.9794 92.6984-72.979L75.1167-72.6674C73.2981-72.6051 72.7302-71.4752 73.674-70.2165Z"/>
  </g>
  <g id="Black-S" transform="matrix(1 0 0 1 2881.32 696)">
   <path d="M52.0508 0C55.957 0 58.1055-2.24609 58.1055-6.34766L58.1055-25.1465C58.1055-33.4473 68.6035-43.9941 74.3652-47.6074L77.5391-49.6094C79.3945-50.7812 80.5176-52.7344 80.5176-54.7363C80.5176-58.0078 78.5156-60.6934 74.5605-60.6934C72.998-60.6934 71.3867-60.2051 69.9219-59.2773L67.9688-58.0078C63.4277-55.0781 55.127-47.7051 52.1484-40.7227L51.9531-40.7227C48.9258-47.7051 40.625-55.0781 36.1328-58.0078L34.1797-59.2773C32.7148-60.2539 31.0547-60.7422 29.541-60.7422C25.4883-60.7422 23.584-57.9102 23.584-54.7363C23.584-52.7344 24.6582-50.8301 26.5137-49.6582L29.7363-47.6074C35.4004-43.9941 45.9961-33.4473 45.9961-25.1465L45.9961-6.34766C45.9961-2.24609 48.1445 0 52.0508 0ZM22.4121-42.8223L38.8672-63.8672C41.2109-66.8945 39.1602-70.1172 34.668-70.2148L14.6484-70.7031C11.1328-70.8008 9.0332-67.9688 9.96094-64.6973L15.2344-45.3613C16.4062-41.1133 19.9707-39.7461 22.4121-42.8223ZM80.8594-42.9688C83.1543-39.7461 86.8164-41.0156 88.1348-45.2148L94.0918-64.3555C95.1172-67.627 93.1152-70.5078 89.5996-70.5566L69.5801-70.752C65.0879-70.8008 62.9395-67.6758 65.1855-64.5508Z"/>
  </g>
  <g id="Heavy-S" transform="matrix(1 0 0 1 2586.12 696)">
   <path d="M50.5411 0.276587C54.1131 0.276587 56.0772-1.83121 56.0772-5.67924L56.0772-25.0312C56.0772-33.5856 66.5867-44.7778 73.0399-48.8521L76.2137-50.854C77.9194-51.9337 78.9272-53.737 78.9272-55.5661C78.9272-58.584 77.0405-60.9815 73.5003-60.9815C72.0415-60.9815 70.5339-60.5278 69.1613-59.6461L67.2197-58.3766C61.6991-54.767 53.2024-46.4028 50.6272-39.697L50.4549-39.697C47.8425-46.4143 39.3573-54.767 33.874-58.3766L31.9324-59.6461C30.5598-60.5651 29.0149-61.0188 27.5819-61.0188C23.9555-61.0188 22.1665-58.4749 22.1665-55.5776C22.1665-53.737 23.137-51.971 24.8311-50.8913L28.0538-48.8521C34.4323-44.7778 45.0165-33.5856 45.0165-25.0312L45.0165-5.67924C45.0165-1.83121 46.9806 0.276587 50.5411 0.276587ZM21.64-44.1706L36.7928-63.5676C39.0213-66.4451 37.1779-69.345 33.0891-69.4542L14.2336-70.0001C10.9945-70.1093 9.09083-67.5654 9.96094-64.5359L15.0269-46.3524C16.1181-42.4616 19.3369-41.2558 21.64-44.1706ZM78.6813-44.2941C80.8609-41.2443 84.1658-42.364 85.3804-46.2059L91.0839-64.2057C92.0517-67.2351 90.2226-69.8279 86.9951-69.8536L68.128-69.9452C64.0392-69.971 62.0982-67.1457 64.2405-64.182Z"/>
  </g>
  <g id="Bold-S" transform="matrix(1 0 0 1 2291.1 696)">
   <path d="M48.8525 0.585938C52.0508 0.585938 53.8086-1.36719 53.8086-4.93164L53.8086-24.9023C53.8086-33.7402 64.3311-45.6543 71.5576-50.2441L74.7314-52.2461C76.2695-53.2227 77.1484-54.8584 77.1484-56.4941C77.1484-59.2285 75.3906-61.3037 72.3145-61.3037C70.9717-61.3037 69.5801-60.8887 68.3105-60.0586L66.3818-58.7891C59.7656-54.4189 51.0498-44.9463 48.9258-38.5498L48.7793-38.5498C46.6309-44.9707 37.9395-54.4189 31.3477-58.7891L29.4189-60.0586C28.1494-60.9131 26.7334-61.3281 25.3906-61.3281C22.2412-61.3281 20.5811-59.1064 20.5811-56.5186C20.5811-54.8584 21.4355-53.2471 22.9492-52.2705L26.1719-50.2441C33.3496-45.6543 43.9209-33.7402 43.9209-24.9023L43.9209-4.93164C43.9209-1.36719 45.6787 0.585938 48.8525 0.585938ZM20.7764-45.6787L34.4727-63.2324C36.5723-65.9424 34.9609-68.4814 31.3232-68.6035L13.7695-69.2139C10.8398-69.3359 9.15527-67.1143 9.96094-64.3555L14.7949-47.4609C15.7959-43.9697 18.6279-42.9443 20.7764-45.6787ZM76.2451-45.7764C78.2959-42.9199 81.2012-43.8721 82.2998-47.3145L87.7197-64.0381C88.623-66.7969 86.9873-69.0674 84.082-69.0674L66.5039-69.043C62.8662-69.043 61.1572-66.5527 63.1836-63.7695Z"/>
  </g>
  <g id="Semibold-S" transform="matrix(1 0 0 1 1995.55 696)">
   <path d="M47.6884 0.799219C50.6289 0.799219 52.2445-1.04727 52.2445-4.41621L52.2445-24.8135C52.2445-33.8469 62.7759-46.2586 70.5356-51.2039L73.7095-53.2059C75.132-54.1113 75.9221-55.6315 75.9221-57.134C75.9221-59.6729 74.2531-61.5259 71.4969-61.5259C70.2341-61.5259 68.9225-61.1375 67.724-60.343L65.8042-59.0734C58.4326-54.179 49.5657-43.9421 47.7527-37.7589L47.624-37.7589C45.7955-43.9754 36.9619-54.179 29.6059-59.0734L27.686-60.343C26.4876-61.153 25.1604-61.5414 23.8799-61.5414C21.0593-61.5414 19.488-59.5419 19.488-57.1673C19.488-55.6315 20.2625-54.1269 21.6518-53.2214L24.8744-51.2039C32.6031-46.2586 43.1655-33.8469 43.1655-24.8135L43.1655-4.41621C43.1655-1.04727 44.7812 0.799219 47.6884 0.799219ZM20.181-46.7185L32.873-63.0014C34.8838-65.5958 33.4324-67.886 30.1058-68.017L13.4496-68.6718C10.7332-68.8027 9.19971-66.8032 9.96094-64.2311L14.635-48.2252C15.5737-45.0095 18.1392-44.1085 20.181-46.7185ZM74.5655-46.7983C76.5274-44.0752 79.1572-44.9118 80.1759-48.0787L85.4003-63.9226C86.2592-66.4947 84.7567-68.5431 82.0736-68.5253L65.3842-68.4209C62.0575-68.4031 60.5085-66.1439 62.4549-63.4852Z"/>
  </g>
  <g id="Medium-S" transform="matrix(1 0 0 1 1699.73 696)">
   <path d="M46.8057 0.960938C49.5508 0.960938 51.0586-0.804688 51.0586-4.02539L51.0586-24.7461C51.0586-33.9277 61.5967-46.7168 69.7607-51.9316L72.9346-53.9336C74.2695-54.7852 74.9922-56.2178 74.9922-57.6191C74.9922-60.0098 73.3906-61.6943 70.877-61.6943C69.6748-61.6943 68.4238-61.3262 67.2793-60.5586L65.3662-59.2891C57.4219-53.9971 48.4404-43.1807 46.8633-37.1592L46.748-37.1592C45.1621-43.2207 36.2207-53.9971 28.2852-59.2891L26.3721-60.5586C25.2275-61.335 23.9678-61.7031 22.7344-61.7031C20.1631-61.7031 18.6592-59.8721 18.6592-57.6592C18.6592-56.2178 19.373-54.7939 20.668-53.9424L23.8906-51.9316C32.0371-46.7168 42.5928-33.9277 42.5928-24.7461L42.5928-4.02539C42.5928-0.804688 44.1006 0.960938 46.8057 0.960938ZM19.7295-47.5068L31.6602-62.8262C33.6035-65.333 32.2734-67.4346 29.1826-67.5723L13.207-68.2607C10.6523-68.3984 9.2334-66.5674 9.96094-64.1367L14.5137-48.8047C15.4053-45.7979 17.7686-44.9912 19.7295-47.5068ZM73.292-47.5732C75.1865-44.9512 77.6074-45.7002 78.5654-48.6582L83.6416-63.835C84.4668-66.2656 83.0654-68.1455 80.5508-68.1143L64.5352-67.9492C61.4443-67.918 60.0166-65.834 61.9023-63.2695Z"/>
  </g>
  <g id="Regular-S" transform="matrix(1 0 0 1 1404.17 696)">
   <path d="M45.6543 1.17188C48.1445 1.17188 49.5117-0.488281 49.5117-3.51562L49.5117-24.6582C49.5117-34.0332 60.0586-47.3145 68.75-52.8809L71.9238-54.8828C73.1445-55.6641 73.7793-56.9824 73.7793-58.252C73.7793-60.4492 72.2656-61.9141 70.0684-61.9141C68.9453-61.9141 67.7734-61.5723 66.6992-60.8398L64.7949-59.5703C56.1035-53.7598 46.9727-42.1875 45.7031-36.377L45.6055-36.377C44.3359-42.2363 35.2539-53.7598 26.5625-59.5703L24.6582-60.8398C23.584-61.5723 22.4121-61.9141 21.2402-61.9141C18.9941-61.9141 17.5781-60.3027 17.5781-58.3008C17.5781-56.9824 18.2129-55.6641 19.3848-54.8828L22.6074-52.8809C31.2988-47.3145 41.8457-34.0332 41.8457-24.6582L41.8457-3.51562C41.8457-0.488281 43.2129 1.17188 45.6543 1.17188ZM19.1406-48.5352L30.0781-62.5977C31.9336-64.9902 30.7617-66.8457 27.9785-66.9922L12.8906-67.7246C10.5469-67.8711 9.27734-66.2598 9.96094-64.0137L14.3555-49.5605C15.1855-46.8262 17.2852-46.1426 19.1406-48.5352ZM71.6309-48.584C73.4375-46.0938 75.5859-46.7285 76.4648-49.4141L81.3477-63.7207C82.1289-65.9668 80.8594-67.627 78.5645-67.5781L63.4277-67.334C60.6445-67.2852 59.375-65.4297 61.1816-62.9883Z"/>
  </g>
  <g id="Light-S" transform="matrix(1 0 0 1 1108.63 696)">
   <path d="M44.4888 1.11133C46.3735 1.11133 47.4229-0.125003 47.4229-2.39552L47.4229-25.0669C47.4229-34.0483 57.334-47.4507 67.2515-53.8496L70.2285-55.7456C71.207-56.3755 71.7207-57.4062 71.7207-58.373C71.7207-60.0405 70.5552-61.1724 68.8726-61.1724C68.0068-61.1724 67.1226-60.9063 66.3057-60.3555L64.2197-58.9648C54.4234-52.4277 45.6709-40.5527 44.5527-34.5L44.4248-34.5C43.3066-40.5864 34.5879-52.4277 24.7915-58.9648L22.7056-60.3555C21.8887-60.9063 21.0044-61.1724 20.105-61.1724C18.3887-61.1724 17.2905-59.9395 17.2905-58.4067C17.2905-57.4062 17.8042-56.3755 18.749-55.7456L21.7446-53.8496C31.6772-47.4507 41.5884-34.0483 41.5884-25.0669L41.5884-2.39552C41.5884-0.125003 42.6377 1.11133 44.4888 1.11133ZM18.3232-48.8379L28.8369-62.6279C30.3291-64.5664 29.3994-66.1343 27.04-66.2354L12.3608-66.8164C10.3804-66.9175 9.35303-65.5938 9.9458-63.7109L14.3706-49.6968C15.0796-47.4014 16.8311-46.8843 18.3232-48.8379ZM70.2837-48.8716C71.7422-46.8506 73.5274-47.334 74.27-49.5957L79.0318-63.5088C79.6919-65.3916 78.6646-66.749 76.7178-66.7153L62.0049-66.4712C59.6455-66.4224 58.6333-64.8696 60.1069-62.8823Z"/>
  </g>
  <g id="Thin-S" transform="matrix(1 0 0 1 813.468 696)">
   <path d="M42.9473 1.03125C44.0313 1.03125 44.6602 0.355462 44.6602-0.914083L44.6602-25.6074C44.6602-34.0684 53.7305-47.6309 65.2696-55.1308L67.9864-56.8867C68.6446-57.3164 68.9981-57.9668 68.9981-58.5332C68.9981-59.5 68.293-60.1914 67.291-60.1914C66.7656-60.1914 66.2617-60.0254 65.7852-59.7149L63.459-58.1641C52.2012-50.666 43.9492-38.3907 43.0313-32.0176L42.8633-32.0176C41.9453-38.4043 33.707-50.666 22.4493-58.1641L20.1231-59.7149C19.6465-60.0254 19.1426-60.1914 18.6035-60.1914C17.5879-60.1914 16.9102-59.459 16.9102-58.5469C16.9102-57.9668 17.2637-57.3164 17.9082-56.8867L20.6035-55.1308C32.1777-47.6309 41.2481-34.0684 41.2481-25.6074L41.2481-0.914083C41.2481 0.355462 41.877 1.03125 42.9473 1.03125ZM17.2422-49.2383L27.1953-62.668C28.2071-64.0059 27.5977-65.1934 25.7988-65.2344L11.6602-65.6153C10.1602-65.6563 9.45312-64.7129 9.92578-63.3106L14.3906-49.877C14.9395-48.1621 16.2305-47.8652 17.2422-49.2383ZM68.502-49.2519C69.5-47.8515 70.8047-48.1348 71.3672-49.8359L75.9688-63.2285C76.4688-64.6309 75.7618-65.5879 74.2754-65.5742L60.1231-65.3301C58.3242-65.2813 57.6524-64.1289 58.6856-62.7422Z"/>
  </g>
  <g id="Ultralight-S" transform="matrix(1 0 0 1 517.552 696)">
   <path d="M42.1577 0.990236C42.8316 0.990236 43.2452 0.601554 43.2452-0.1553L43.2452-25.8843C43.2452-34.0786 51.8848-47.7231 64.2544-55.7871L66.8379-57.4712C67.3321-57.7983 67.6036-58.2539 67.6036-58.6152C67.6036-59.2232 67.1343-59.689 66.481-59.689C66.1299-59.689 65.8208-59.5742 65.5186-59.3867L63.0693-57.7539C51.063-49.7637 43.0674-37.2832 42.252-30.7461L42.0635-30.7461C41.2481-37.2867 33.2559-49.7637 21.2496-57.7539L18.8003-59.3867C18.4981-59.5742 18.189-59.689 17.8345-59.689C17.1777-59.689 16.7153-59.2129 16.7153-58.6186C16.7153-58.2539 16.9868-57.7983 17.4776-57.4712L20.0191-55.7871C32.4341-47.7231 41.0737-34.0786 41.0737-25.8843L41.0737-0.1553C41.0737 0.601554 41.4873 0.990236 42.1577 0.990236ZM16.6885-49.4434L26.3545-62.6885C27.1202-63.7188 26.6748-64.7114 25.1631-64.7217L11.3013-65C10.0474-65.0103 9.50439-64.2617 9.91553-63.1055L14.4009-49.9692C14.8677-48.5517 15.9229-48.3677 16.6885-49.4434ZM67.5894-49.4468C68.3516-48.3642 69.4102-48.5449 69.8804-49.959L74.4-63.085C74.8179-64.2412 74.275-64.9932 73.0245-64.9898L59.1592-64.7456C57.6475-64.6968 57.1499-63.7495 57.9575-62.6704Z"/>
  </g>
 </g>
</svg>
