<?xml version="1.0" encoding="UTF-8"?>
<!--Generator: Apple Native CoreSVG 175.5-->
<!DOCTYPE svg
PUBLIC "-//W3C//DTD SVG 1.1//EN"
       "http://www.w3.org/Graphics/SVG/1.1/DTD/svg11.dtd">
<svg version="1.1" xmlns="http://www.w3.org/2000/svg" xmlns:xlink="http://www.w3.org/1999/xlink" width="3300" height="2200">
 <!--glyph: "uni100660.medium", point size: 100.0, font version: "18.0d11e1", template writer version: "90"-->
 <g id="Notes">
            <rect id="artboard" stroke="none" fill="rgb(255, 255, 255)" x="0" y="0" width="3300" height="2200" />
            <path id="bezier" stroke="rgb(0, 0, 0)" stroke-width="0.5" stroke-miterlimit="4" fill="none" d="M 263,292 L 3036,292" />
            
            <text  fill="rgb(0, 0, 0)" font-family="Helvetica-Bold, Helvetica, sans-serif" font-weight="bold" font-size="13" x="263" y="308"><tspan x="263" y="321">Weight/Scale Variations</tspan></text>
            
            <text  fill="rgb(0, 0, 0)" font-family="Helvetica, sans-serif" font-size="13" x="-25.65" y="-0" transform="translate(559.71, 308)"  text-anchor="end"><tspan x="0" y="13">Ultralight</tspan></text>
            
            <text  fill="rgb(0, 0, 0)" font-family="Helvetica, sans-serif" font-size="13" x="-12.64" y="-0" transform="translate(856.42, 308)"  text-anchor="end"><tspan x="0" y="13">Thin</tspan></text>
            
            <text  fill="rgb(0, 0, 0)" font-family="Helvetica, sans-serif" font-size="13" x="-14.09" y="-0" transform="translate(1153.13, 308)"  text-anchor="end"><tspan x="0" y="13">Light</tspan></text>
            
            <text  fill="rgb(0, 0, 0)" font-family="Helvetica, sans-serif" font-size="13" x="-22.76" y="-0" transform="translate(1449.84, 308)"  text-anchor="end"><tspan x="0" y="13">Regular</tspan></text>
            
            <text  fill="rgb(0, 0, 0)" font-family="Helvetica, sans-serif" font-size="13" x="-23.12" y="-0" transform="translate(1746.56, 308)"  text-anchor="end"><tspan x="0" y="13">Medium</tspan></text>
            
            <text  fill="rgb(0, 0, 0)" font-family="Helvetica, sans-serif" font-size="13" x="-27.1" y="-0" transform="translate(2043.27, 308)"  text-anchor="end"><tspan x="0" y="13">Semibold</tspan></text>
            
            <text  fill="rgb(0, 0, 0)" font-family="Helvetica, sans-serif" font-size="13" x="-13.01" y="-0" transform="translate(2339.98, 308)"  text-anchor="end"><tspan x="0" y="13">Bold</tspan></text>
            
            <text  fill="rgb(0, 0, 0)" font-family="Helvetica, sans-serif" font-size="13" x="-18.42" y="-0" transform="translate(2636.69, 308)"  text-anchor="end"><tspan x="0" y="13">Heavy</tspan></text>
            
            <text  fill="rgb(0, 0, 0)" font-family="Helvetica, sans-serif" font-size="13" x="-15.89" y="-0" transform="translate(2933.4, 308)"  text-anchor="end"><tspan x="0" y="13">Black</tspan></text>
            <path id="Bezier-2" stroke="rgb(0, 0, 0)" stroke-width="0.5" stroke-miterlimit="4" fill="none" d="M 263,1903 L 3036,1903" />
            <g id="Group-3">
                <path id="Bezier-3" stroke="none" fill="rgb(0, 0, 0)" d="M 272.25,1933.83 C 276.55,1933.83 280.14,1930.26 280.14,1925.95 280.14,1921.64 276.54,1918.07 272.24,1918.07 267.94,1918.07 264.37,1921.64 264.37,1925.95 264.37,1930.26 267.95,1933.83 272.25,1933.83 Z M 272.25,1932.35 C 268.7,1932.35 265.87,1929.5 265.87,1925.95 265.87,1922.39 268.69,1919.55 272.24,1919.55 275.79,1919.55 278.64,1922.39 278.64,1925.95 278.64,1929.5 275.8,1932.35 272.25,1932.35 Z M 268.65,1925.95 C 268.65,1926.38 268.96,1926.67 269.41,1926.67 L 271.51,1926.67 271.51,1928.79 C 271.51,1929.23 271.8,1929.53 272.23,1929.53 272.68,1929.53 272.97,1929.23 272.97,1928.79 L 272.97,1926.67 275.09,1926.67 C 275.53,1926.67 275.83,1926.38 275.83,1925.95 275.83,1925.51 275.53,1925.21 275.09,1925.21 L 272.97,1925.21 272.97,1923.1 C 272.97,1922.65 272.68,1922.35 272.23,1922.35 271.8,1922.35 271.51,1922.65 271.51,1923.1 L 271.51,1925.21 269.41,1925.21 C 268.96,1925.21 268.65,1925.51 268.65,1925.95 Z M 268.65,1925.95" />
            </g>
            <g id="Group-4">
                <path id="Bezier-4" stroke="none" fill="rgb(0, 0, 0)" d="M 293.58,1935.91 C 299.03,1935.91 303.54,1931.39 303.54,1925.95 303.54,1920.5 299.02,1915.99 293.57,1915.99 288.13,1915.99 283.62,1920.5 283.62,1925.95 283.62,1931.39 288.14,1935.91 293.58,1935.91 Z M 293.58,1934.25 C 288.97,1934.25 285.28,1930.56 285.28,1925.95 285.28,1921.34 288.96,1917.65 293.57,1917.65 298.18,1917.65 301.88,1921.34 301.88,1925.95 301.88,1930.56 298.19,1934.25 293.58,1934.25 Z M 289.04,1925.95 C 289.04,1926.43 289.38,1926.75 289.87,1926.75 L 292.75,1926.75 292.75,1929.63 C 292.75,1930.12 293.08,1930.46 293.56,1930.46 294.04,1930.46 294.39,1930.13 294.39,1929.63 L 294.39,1926.75 297.27,1926.75 C 297.76,1926.75 298.1,1926.43 298.1,1925.95 298.1,1925.46 297.76,1925.12 297.27,1925.12 L 294.39,1925.12 294.39,1922.25 C 294.39,1921.75 294.04,1921.41 293.56,1921.41 293.08,1921.41 292.75,1921.75 292.75,1922.25 L 292.75,1925.12 289.87,1925.12 C 289.38,1925.12 289.04,1925.46 289.04,1925.95 Z M 289.04,1925.95" />
            </g>
            <g id="Group-5">
                <path id="Bezier-5" stroke="none" fill="rgb(0, 0, 0)" d="M 320.62,1938.66 C 327.58,1938.66 333.34,1932.9 333.34,1925.95 333.34,1918.99 327.57,1913.22 320.61,1913.22 313.65,1913.22 307.9,1918.99 307.9,1925.95 307.9,1932.9 313.66,1938.66 320.62,1938.66 Z M 320.62,1936.85 C 314.58,1936.85 309.73,1931.98 309.73,1925.95 309.73,1919.9 314.57,1915.05 320.61,1915.05 326.65,1915.05 331.52,1919.9 331.52,1925.95 331.52,1931.98 326.66,1936.85 320.62,1936.85 Z M 314.85,1925.95 C 314.85,1926.47 315.22,1926.83 315.76,1926.83 L 319.71,1926.83 319.71,1930.78 C 319.71,1931.32 320.08,1931.7 320.6,1931.7 321.13,1931.7 321.51,1931.33 321.51,1930.78 L 321.51,1926.83 325.46,1926.83 C 326,1926.83 326.38,1926.47 326.38,1925.95 326.38,1925.4 326.01,1925.03 325.46,1925.03 L 321.51,1925.03 321.51,1921.09 C 321.51,1920.54 321.13,1920.16 320.6,1920.16 320.08,1920.16 319.71,1920.54 319.71,1921.09 L 319.71,1925.03 315.76,1925.03 C 315.22,1925.03 314.85,1925.4 314.85,1925.95 Z M 314.85,1925.95" />
            </g>
            
            <text  fill="rgb(0, 0, 0)" font-family="Helvetica-Bold, Helvetica, sans-serif" font-weight="bold" font-size="13" x="263" y="1939"><tspan x="263" y="1952">Design Variations</tspan></text>
            
            <text  fill="rgb(0, 0, 0)" font-family="Helvetica, sans-serif" font-size="13" x="263" y="1957"><tspan x="263" y="1970">Symbols are supported in up to nine weights and three scales.</tspan></text>
            
            <text  fill="rgb(0, 0, 0)" font-family="Helvetica, sans-serif" font-size="13" x="263" y="1975"><tspan x="263" y="1988">For optimal layout with text and other symbols, vertically align</tspan></text>
            
            <text  fill="rgb(0, 0, 0)" font-family="Helvetica, sans-serif" font-size="13" x="263" y="1993"><tspan x="263" y="2006">symbols with the adjacent text.</tspan></text>
            <path id="Bezier-6" stroke="rgb(0, 174, 239)" stroke-width="0.5" stroke-miterlimit="4" fill="none" d="M 776,1919 L 776,1933" />
            <g id="Group-6">
                <path id="Bezier-7" stroke="none" fill="rgb(0, 0, 0)" d="M 779.31,1933.16 C 779.83,1933.16 780.08,1932.96 780.27,1932.41 L 781.53,1928.97 787.29,1928.97 788.55,1932.41 C 788.73,1932.96 788.99,1933.16 789.5,1933.16 790.01,1933.16 790.35,1932.84 790.35,1932.36 790.35,1932.19 790.32,1932.03 790.24,1931.83 L 785.66,1919.63 C 785.43,1919.04 785.03,1918.73 784.41,1918.73 783.8,1918.73 783.39,1919.03 783.18,1919.62 L 778.6,1931.84 C 778.52,1932.04 778.49,1932.2 778.49,1932.37 778.49,1932.85 778.8,1933.16 779.31,1933.16 Z M 782.01,1927.48 L 784.38,1920.91 784.43,1920.91 786.8,1927.48 782.01,1927.48 Z M 782.01,1927.48" />
            </g>
            <path id="Bezier-8" stroke="rgb(0, 174, 239)" stroke-width="0.5" stroke-miterlimit="4" fill="none" d="M 793.2,1919 L 793.2,1933" />
            
            <text  fill="rgb(0, 0, 0)" font-family="Helvetica-Bold, Helvetica, sans-serif" font-weight="bold" font-size="13" x="776" y="1939"><tspan x="776" y="1952">Margins</tspan></text>
            
            <text  fill="rgb(0, 0, 0)" font-family="Helvetica, sans-serif" font-size="13" x="776" y="1957"><tspan x="776" y="1970">Leading and trailing margins on the left and right side of each symbol</tspan></text>
            
            <text  fill="rgb(0, 0, 0)" font-family="Helvetica, sans-serif" font-size="13" x="776" y="1975"><tspan x="776" y="1988">can be adjusted by modifying the x-location of the margin guidelines.</tspan></text>
            
            <text  fill="rgb(0, 0, 0)" font-family="Helvetica, sans-serif" font-size="13" x="776" y="1993"><tspan x="776" y="2006">Modifications are automatically applied proportionally to all</tspan></text>
            
            <text  fill="rgb(0, 0, 0)" font-family="Helvetica, sans-serif" font-size="13" x="776" y="2011"><tspan x="776" y="2024">scales and weights.</tspan></text>
            <g id="Group-7">
                <path id="Bezier-9" stroke="none" fill="rgb(0, 0, 0)" d="M 1291.84,1934.87 L 1293.54,1936.57 C 1294.4,1937.44 1295.39,1937.38 1296.31,1936.36 L 1307.01,1924.57 1306.04,1923.6 1295.43,1935.28 C 1295.07,1935.68 1294.74,1935.77 1294.27,1935.3 L 1293.1,1934.14 C 1292.63,1933.68 1292.74,1933.34 1293.14,1932.98 L 1304.62,1922.18 1303.64,1921.21 1292.05,1932.1 C 1291.06,1933.02 1290.98,1934 1291.84,1934.87 Z M 1298.26,1916.67 C 1297.84,1917.08 1297.81,1917.66 1298.04,1918.05 1298.28,1918.41 1298.74,1918.64 1299.38,1918.48 1300.85,1918.14 1302.37,1918.08 1303.79,1919.02 L 1303.21,1920.47 C 1302.87,1921.3 1303.04,1921.89 1303.58,1922.43 L 1305.88,1924.75 C 1306.36,1925.24 1306.77,1925.26 1307.34,1925.16 L 1308.4,1924.96 1309.07,1925.64 1309.03,1926.19 C 1308.99,1926.69 1309.12,1927.07 1309.61,1927.55 L 1310.37,1928.29 C 1310.85,1928.77 1311.46,1928.8 1311.93,1928.33 L 1314.84,1925.41 C 1315.31,1924.94 1315.29,1924.35 1314.81,1923.87 L 1314.04,1923.11 C 1313.56,1922.63 1313.19,1922.47 1312.71,1922.51 L 1312.13,1922.56 1311.49,1921.93 1311.73,1920.8 C 1311.86,1920.24 1311.71,1919.8 1311.12,1919.21 L 1308.92,1917.02 C 1305.58,1913.7 1301.15,1913.78 1298.26,1916.67 Z M 1299.75,1917.04 C 1302.18,1915.27 1305.47,1915.57 1307.7,1917.79 L 1310.13,1920.21 C 1310.37,1920.44 1310.41,1920.63 1310.34,1920.97 L 1310.02,1922.45 1311.52,1923.94 1312.51,1923.88 C 1312.76,1923.87 1312.84,1923.89 1313.03,1924.08 L 1313.61,1924.66 1311.17,1927.1 1310.59,1926.53 C 1310.4,1926.33 1310.37,1926.25 1310.38,1925.99 L 1310.45,1925.01 1308.95,1923.53 1307.43,1923.78 C 1307.11,1923.85 1306.96,1923.82 1306.71,1923.59 L 1304.71,1921.58 C 1304.46,1921.35 1304.43,1921.18 1304.59,1920.81 L 1305.46,1918.72 C 1303.9,1917.27 1301.87,1916.64 1299.84,1917.24 1299.68,1917.28 1299.62,1917.15 1299.75,1917.04 Z M 1299.75,1917.04" />
            </g>
            
            <text  fill="rgb(0, 0, 0)" font-family="Helvetica-Bold, Helvetica, sans-serif" font-weight="bold" font-size="13" x="1289" y="1939"><tspan x="1289" y="1952">Exporting</tspan></text>
            
            <text  fill="rgb(0, 0, 0)" font-family="Helvetica, sans-serif" font-size="13" x="1289" y="1957"><tspan x="1289" y="1970">Symbols should be outlined when exporting to ensure the</tspan></text>
            
            <text  fill="rgb(0, 0, 0)" font-family="Helvetica, sans-serif" font-size="13" x="1289" y="1975"><tspan x="1289" y="1988">design is preserved when submitting to Xcode.</tspan></text>
            
            <text  fill="rgb(0, 0, 0)" font-family="Helvetica, sans-serif" font-size="13" x="-83.59" y="-0" transform="translate(3036, 1919)"  text-anchor="middle"><tspan x="0" y="13">Template v.2.0</tspan></text>
            
            <text  fill="rgb(0, 0, 0)" font-family="Helvetica, sans-serif" font-size="13" x="-170.54" y="-0" transform="translate(3036, 1937)"  text-anchor="middle"><tspan x="0" y="13">Requires Xcode 12 or greater</tspan></text>
            
            <text  fill="rgb(0, 0, 0)" font-family="Helvetica, sans-serif" font-size="13" x="-216.06" y="-0" transform="translate(3036, 1955)"  text-anchor="middle"><tspan x="0" y="13">Generated from arrow.triangle.branch</tspan></text>
            
            <text  fill="rgb(0, 0, 0)" font-family="Helvetica, sans-serif" font-size="13" x="-123.59" y="-0" transform="translate(3036, 1973)"  text-anchor="middle"><tspan x="0" y="13">Typeset at 100 points</tspan></text>
            
            <text  fill="rgb(0, 0, 0)" font-family="Helvetica, sans-serif" font-size="13" x="263" y="712"><tspan x="263" y="725">Small</tspan></text>
            
            <text  fill="rgb(0, 0, 0)" font-family="Helvetica, sans-serif" font-size="13" x="263" y="1142"><tspan x="263" y="1155">Medium</tspan></text>
            
            <text  fill="rgb(0, 0, 0)" font-family="Helvetica, sans-serif" font-size="13" x="263" y="1572"><tspan x="263" y="1585">Large</tspan></text>
        </g>
        <g id="guides">
            <g id="hreference">
                <path id="Bezier-10" stroke="none" fill="rgb(39, 170, 225)" d="M 339.99,696 L 342.64,696 368.33,628.87 369.03,628.87 369.03,625.54 367.12,625.54 339.99,696 Z M 350.69,671.52 L 385.98,671.52 385.23,669.27 351.44,669.27 350.69,671.52 Z M 394.12,696 L 396.76,696 369.64,625.54 368.43,625.54 368.43,628.87 394.12,696 Z M 394.12,696" />
            </g>
            <path id="Baseline-S" stroke="rgb(39, 170, 225)" stroke-width="0.5" stroke-miterlimit="4" fill="none" d="M 263,696 L 3036,696" />
            <path id="Capline-S" stroke="rgb(39, 170, 225)" stroke-width="0.5" stroke-miterlimit="4" fill="none" d="M 263,625.54 L 3036,625.54" />
            <g id="Hreference-2">
                <path id="Bezier-13" stroke="none" fill="rgb(39, 170, 225)" d="M 339.99,1126 L 342.64,1126 368.33,1058.87 369.03,1058.87 369.03,1055.54 367.12,1055.54 339.99,1126 Z M 350.69,1101.52 L 385.98,1101.52 385.23,1099.27 351.44,1099.27 350.69,1101.52 Z M 394.12,1126 L 396.76,1126 369.64,1055.54 368.43,1055.54 368.43,1058.87 394.12,1126 Z M 394.12,1126" />
            </g>
            <path id="Baseline-M" stroke="rgb(39, 170, 225)" stroke-width="0.5" stroke-miterlimit="4" fill="none" d="M 263,1126 L 3036,1126" />
            <path id="Capline-M" stroke="rgb(39, 170, 225)" stroke-width="0.5" stroke-miterlimit="4" fill="none" d="M 263,1055.54 L 3036,1055.54" />
            <g id="Hreference-3">
                <path id="Bezier-16" stroke="none" fill="rgb(39, 170, 225)" d="M 339.99,1556 L 342.64,1556 368.33,1488.87 369.03,1488.87 369.03,1485.54 367.12,1485.54 339.99,1556 Z M 350.69,1531.52 L 385.98,1531.52 385.23,1529.27 351.44,1529.27 350.69,1531.52 Z M 394.12,1556 L 396.76,1556 369.64,1485.54 368.43,1485.54 368.43,1488.87 394.12,1556 Z M 394.12,1556" />
            </g>
            <path id="Baseline-L" stroke="rgb(39, 170, 225)" stroke-width="0.5" stroke-miterlimit="4" fill="none" d="M 263,1556 L 3036,1556" />
            <path id="Capline-L" stroke="rgb(39, 170, 225)" stroke-width="0.5" stroke-miterlimit="4" fill="none" d="M 263,1485.54 L 3036,1485.54" />
            <path id="leftmargin" stroke="rgb(0, 174, 239)" stroke-width="0.5" stroke-miterlimit="4" fill="none" d="M 1392.38,1030.79 L 1392.38,1150.12" />
            <path id="rightmargin" stroke="rgb(0, 174, 239)" stroke-width="0.5" stroke-miterlimit="4" fill="none" d="M 1507.31,1030.79 L 1507.31,1150.12" />
        </g>
        <g id="symbols">
            <g id="Black-L">
                <path id="Bezier-21" stroke="none" fill="rgb(0, 0, 0)" d="M -0.01,57.78 C 5.74,57.78 8.9,54.38 8.9,48.17 L 8.9,16.03 C 8.9,1.9 26.16,-16.71 37.07,-23.61 L 42.28,-26.89 C 45.03,-28.64 46.65,-31.54 46.65,-34.49 46.65,-39.35 43.6,-43.2 37.92,-43.2 35.57,-43.2 33.13,-42.46 30.92,-41.04 L 27.71,-38.94 C 18.27,-32.76 4.25,-18.7 0.13,-7.7 L -0.15,-7.7 C -4.33,-18.72 -18.33,-32.76 -27.71,-38.94 L -30.91,-41.04 C -33.13,-42.52 -35.62,-43.25 -37.94,-43.25 -43.76,-43.25 -46.65,-39.17 -46.65,-34.51 -46.65,-31.54 -45.09,-28.69 -42.36,-26.95 L -37.07,-23.61 C -26.28,-16.71 -8.9,1.9 -8.9,16.03 L -8.9,48.17 C -8.9,54.38 -5.74,57.78 -0.01,57.78 Z M -47.39,-15.87 L -22.81,-47.36 C -19.2,-52.03 -22.16,-56.69 -28.75,-56.87 L -59.47,-57.78 C -64.7,-57.95 -67.77,-53.86 -66.36,-48.97 L -58.07,-19.36 C -56.3,-13.08 -51.12,-11.15 -47.39,-15.87 Z M 46.15,-16.07 C 49.68,-11.13 55,-12.92 56.96,-19.12 L 66.28,-48.43 C 67.85,-53.33 64.9,-57.5 59.69,-57.54 L 28.95,-57.66 C 22.36,-57.7 19.23,-53.15 22.71,-48.34 L 46.15,-16.07 Z M 46.15,-16.07" transform="translate(2933.37, 1521.54) rotate(-180)"  />
            </g>
            <g id="Heavy-L">
                <path id="Bezier-22" stroke="none" fill="rgb(0, 0, 0)" d="M -0.01,57.39 C 5.16,57.39 8,54.27 8,48.59 L 8,15.34 C 8,1.03 25.09,-18.39 37.19,-26.09 L 42.34,-29.34 C 44.84,-30.93 46.29,-33.58 46.29,-36.22 46.29,-40.63 43.48,-44.03 38.44,-44.03 36.29,-44.03 34.06,-43.36 32.03,-42.05 L 28.78,-39.91 C 17.85,-32.7 3.71,-17.37 0.12,-6.64 L -0.15,-6.64 C -3.79,-17.4 -17.9,-32.7 -28.78,-39.91 L -32.03,-42.05 C -34.06,-43.41 -36.33,-44.08 -38.47,-44.08 -43.63,-44.08 -46.29,-40.45 -46.29,-36.25 -46.29,-33.58 -44.89,-30.98 -42.41,-29.39 L -37.19,-26.09 C -25.18,-18.39 -8,1.03 -8,15.34 L -8,48.59 C -8,54.27 -5.16,57.39 -0.01,57.39 Z M -46.41,-18.28 L -23.51,-47.72 C -20.14,-52.07 -22.79,-56.27 -28.77,-56.45 L -57.98,-57.38 C -62.78,-57.56 -65.54,-53.9 -64.22,-49.39 L -56.17,-21.29 C -54.53,-15.57 -49.87,-13.88 -46.41,-18.28 Z M 45.29,-18.44 C 48.58,-13.85 53.37,-15.42 55.17,-21.07 L 64.15,-48.9 C 65.61,-53.4 62.94,-57.14 58.18,-57.15 L 28.94,-57.15 C 22.95,-57.16 20.15,-53.06 23.41,-48.58 L 45.29,-18.44 Z M 45.29,-18.44" transform="translate(2636.67, 1522.24) rotate(-180)"  />
            </g>
            <g id="Bold-L">
                <path id="Bezier-23" stroke="none" fill="rgb(0, 0, 0)" d="M -0.02,56.86 C 4.4,56.86 6.84,54.14 6.84,49.18 L 6.84,14.42 C 6.84,-0.04 23.63,-20.38 37.26,-29.11 L 42.32,-32.31 C 44.5,-33.7 45.73,-36 45.73,-38.26 45.73,-42.06 43.25,-44.91 39.03,-44.91 37.14,-44.91 35.2,-44.33 33.42,-43.17 L 30.1,-40.97 C 17.3,-32.49 3.09,-15.67 0.1,-5.19 L -0.14,-5.19 C -3.15,-15.71 -17.32,-32.49 -30.09,-40.97 L -33.42,-43.17 C -35.2,-44.36 -37.17,-44.94 -39.06,-44.94 -43.38,-44.94 -45.73,-41.89 -45.73,-38.3 -45.73,-36 -44.52,-33.73 -42.38,-32.34 L -37.27,-29.11 C -23.68,-20.38 -6.84,-0.04 -6.84,14.42 L -6.84,49.18 C -6.84,54.14 -4.4,56.86 -0.02,56.86 Z M -45.25,-21.1 L -24.31,-48.2 C -21.28,-52.13 -23.52,-55.75 -28.76,-55.92 L -56.2,-56.85 C -60.44,-57.02 -62.82,-53.89 -61.63,-49.89 L -53.84,-23.55 C -52.37,-18.53 -48.34,-17.14 -45.25,-21.1 Z M 44.3,-21.23 C 47.26,-17.1 51.39,-18.39 52.98,-23.35 L 61.56,-49.46 C 62.89,-53.46 60.57,-56.66 56.36,-56.65 L 28.88,-56.51 C 23.65,-56.49 21.26,-52.94 24.2,-48.9 L 44.3,-21.23 Z M 44.3,-21.23" transform="translate(2339.96, 1523.11) rotate(-180)"  />
            </g>
            <g id="Semibold-L">
                <path id="Bezier-24" stroke="none" fill="rgb(0, 0, 0)" d="M -0.02,56.49 C 3.88,56.49 6.04,54.05 6.04,49.58 L 6.04,13.78 C 6.04,-0.77 22.62,-21.75 37.31,-31.19 L 42.3,-34.36 C 44.26,-35.61 45.34,-37.67 45.34,-39.67 45.34,-43.05 43.09,-45.52 39.43,-45.52 37.73,-45.52 35.98,-44.99 34.38,-43.94 L 31,-41.7 C 16.91,-32.34 2.65,-14.5 0.1,-4.19 L -0.14,-4.19 C -2.71,-14.55 -16.93,-32.34 -31,-41.7 L -34.37,-43.94 C -35.98,-45.01 -37.74,-45.54 -39.47,-45.54 -43.21,-45.54 -45.34,-42.88 -45.34,-39.71 -45.34,-37.67 -44.27,-35.63 -42.36,-34.38 L -37.33,-31.19 C -22.65,-21.75 -6.04,-0.77 -6.04,13.78 L -6.04,49.58 C -6.04,54.05 -3.88,56.49 -0.02,56.49 Z M -44.45,-23.05 L -24.86,-48.54 C -22.06,-52.16 -24.03,-55.39 -28.74,-55.56 L -54.97,-56.48 C -58.83,-56.65 -60.94,-53.89 -59.84,-50.24 L -52.23,-25.11 C -50.88,-20.57 -47.29,-19.39 -44.45,-23.05 Z M 43.62,-23.15 C 46.35,-19.34 50.02,-20.45 51.47,-24.93 L 59.78,-49.85 C 61.01,-53.49 58.93,-56.32 55.11,-56.3 L 28.84,-56.06 C 24.13,-56.02 22.02,-52.85 24.75,-49.13 L 43.62,-23.15 Z M 43.62,-23.15" transform="translate(2043.25, 1523.71) rotate(-180)"  />
            </g>
            <g id="Medium-L">
                <path id="Bezier-25" stroke="none" fill="rgb(0, 0, 0)" d="M -0.02,56.22 C 3.48,56.22 5.43,53.98 5.43,49.89 L 5.43,13.3 C 5.43,-1.32 21.85,-22.79 37.35,-32.77 L 42.29,-35.91 C 44.08,-37.06 45.05,-38.94 45.05,-40.74 45.05,-43.8 42.97,-45.98 39.73,-45.98 38.17,-45.98 36.57,-45.5 35.1,-44.52 L 31.68,-42.25 C 16.62,-32.22 2.32,-13.62 0.09,-3.44 L -0.14,-3.44 C -2.38,-13.66 -16.63,-32.22 -31.68,-42.25 L -35.1,-44.52 C -36.57,-45.51 -38.18,-45.99 -39.78,-45.99 -43.08,-45.99 -45.05,-43.64 -45.05,-40.78 -45.05,-38.94 -44.09,-37.07 -42.35,-35.92 L -37.37,-32.77 C -21.87,-22.79 -5.43,-1.32 -5.43,13.3 L -5.43,49.89 C -5.43,53.98 -3.48,56.22 -0.02,56.22 Z M -43.85,-24.53 L -25.27,-48.79 C -22.65,-52.19 -24.41,-55.12 -28.74,-55.28 L -54.04,-56.21 C -57.61,-56.37 -59.52,-53.88 -58.48,-50.5 L -51.01,-26.3 C -49.75,-22.12 -46.49,-21.09 -43.85,-24.53 Z M 43.1,-24.61 C 45.66,-21.05 48.99,-22 50.33,-26.12 L 58.42,-50.14 C 59.58,-53.52 57.69,-56.07 54.17,-56.03 L 28.82,-55.73 C 24.49,-55.67 22.59,-52.79 25.17,-49.29 L 43.1,-24.61 Z M 43.1,-24.61" transform="translate(1746.55, 1524.17) rotate(-180)"  />
            </g>
            <g id="Regular-L">
                <path id="Bezier-26" stroke="none" fill="rgb(0, 0, 0)" d="M -0.03,55.86 C 2.97,55.86 4.64,53.9 4.64,50.29 L 4.64,12.68 C 4.64,-2.04 20.85,-24.14 37.4,-34.83 L 42.27,-37.93 C 43.84,-38.94 44.66,-40.59 44.66,-42.13 44.66,-44.78 42.81,-46.58 40.13,-46.58 38.75,-46.58 37.35,-46.16 36.05,-45.28 L 32.58,-42.97 C 16.24,-32.07 1.9,-12.46 0.08,-2.45 L -0.13,-2.45 C -1.95,-12.51 -16.24,-32.07 -32.58,-42.97 L -36.04,-45.28 C -37.34,-46.16 -38.75,-46.58 -40.18,-46.58 -42.91,-46.58 -44.66,-44.62 -44.66,-42.18 -44.66,-40.59 -43.84,-38.94 -42.32,-37.93 L -37.43,-34.83 C -20.85,-24.14 -4.64,-2.04 -4.64,12.68 L -4.64,50.29 C -4.64,53.9 -2.97,55.86 -0.03,55.86 Z M -43.06,-26.45 L -25.82,-49.12 C -23.43,-52.23 -24.91,-54.76 -28.72,-54.92 L -52.83,-55.85 C -56.02,-56.01 -57.67,-53.88 -56.71,-50.84 L -49.42,-27.84 C -48.27,-24.14 -45.45,-23.32 -43.06,-26.45 Z M 42.43,-26.51 C 44.77,-23.26 47.64,-24.03 48.84,-27.68 L 56.66,-50.52 C 57.73,-53.56 56.08,-55.74 52.93,-55.69 L 28.78,-55.29 C 24.97,-55.21 23.35,-52.7 25.71,-49.51 L 42.43,-26.51 Z M 42.43,-26.51" transform="translate(1449.84, 1524.76) rotate(-180)"  />
            </g>
            <g id="Light-L">
                <path id="Bezier-27" stroke="none" fill="rgb(0, 0, 0)" d="M -0.02,55.24 C 2.21,55.24 3.48,53.82 3.48,51.17 L 3.48,11.63 C 3.48,-2.6 18.89,-24.85 36.99,-36.59 L 41.61,-39.56 C 42.88,-40.38 43.55,-41.66 43.55,-42.82 43.55,-44.8 42.13,-46.18 40.1,-46.18 39.04,-46.18 38,-45.85 37.03,-45.21 L 33.33,-42.74 C 15.6,-30.93 1.73,-10.94 0.11,-0.62 L -0.14,-0.62 C -1.77,-10.97 -15.6,-30.93 -33.33,-42.74 L -37.03,-45.21 C -38,-45.85 -39.04,-46.18 -40.13,-46.18 -42.2,-46.18 -43.55,-44.7 -43.55,-42.85 -43.55,-41.66 -42.88,-40.38 -41.65,-39.56 L -37.04,-36.59 C -18.89,-24.85 -3.49,-2.6 -3.49,11.63 L -3.49,51.17 C -3.49,53.82 -2.22,55.24 -0.02,55.24 Z M -42.61,-27.37 L -25.9,-49.69 C -23.97,-52.23 -25.15,-54.4 -28.43,-54.5 L -52.02,-55.24 C -54.75,-55.34 -56.1,-53.57 -55.25,-51 L -47.92,-28.55 C -46.93,-25.4 -44.54,-24.79 -42.61,-27.37 Z M 42.21,-27.41 C 44.11,-24.75 46.52,-25.33 47.55,-28.45 L 55.22,-50.79 C 56.13,-53.37 54.79,-55.17 52.08,-55.14 L 28.46,-54.74 C 25.19,-54.65 23.89,-52.53 25.84,-49.92 L 42.21,-27.41 Z M 42.21,-27.41" transform="translate(1153.13, 1525.29) rotate(-180)"  />
            </g>
            <g id="Thin-L">
                <path id="Bezier-28" stroke="none" fill="rgb(0, 0, 0)" d="M -0,54.43 C 1.22,54.43 1.96,53.71 1.96,52.33 L 1.96,10.24 C 1.96,-3.33 16.31,-25.78 36.45,-38.91 L 40.74,-41.7 C 41.6,-42.27 42.07,-43.07 42.07,-43.73 42.07,-44.83 41.23,-45.65 40.06,-45.65 39.44,-45.65 38.87,-45.45 38.33,-45.11 L 34.33,-42.44 C 14.76,-29.42 1.52,-8.92 0.15,1.8 L -0.16,1.8 C -1.53,-8.93 -14.76,-29.42 -34.33,-42.44 L -38.33,-45.11 C -38.87,-45.45 -39.44,-45.65 -40.07,-45.65 -41.25,-45.65 -42.07,-44.8 -42.07,-43.73 -42.07,-43.07 -41.6,-42.27 -40.75,-41.7 L -36.52,-38.91 C -16.31,-25.78 -1.96,-3.33 -1.96,10.24 L -1.96,52.33 C -1.96,53.71 -1.22,54.43 -0,54.43 Z M -42.02,-28.59 L -26.02,-50.45 C -24.69,-52.23 -25.47,-53.92 -28.04,-53.95 L -50.94,-54.43 C -53.08,-54.46 -54.01,-53.17 -53.32,-51.2 L -45.94,-29.48 C -45.15,-27.07 -43.35,-26.73 -42.02,-28.59 Z M 41.91,-28.59 C 43.23,-26.72 45.05,-27.05 45.85,-29.46 L 53.31,-51.15 C 54.02,-53.12 53.08,-54.42 50.96,-54.41 L 28.04,-54.01 C 25.48,-53.92 24.61,-52.31 26,-50.45 L 41.91,-28.59 Z M 41.91,-28.59" transform="translate(856.42, 1526) rotate(-180)"  />
            </g>
            <g id="Ultralight-L">
                <path id="Bezier-29" stroke="none" fill="rgb(0, 0, 0)" d="M 0,54.03 C 0.71,54.03 1.18,53.67 1.18,52.93 L 1.18,9.53 C 1.18,-3.7 14.98,-26.26 36.17,-40.09 L 40.3,-42.8 C 40.95,-43.23 41.31,-43.79 41.31,-44.18 41.31,-44.83 40.77,-45.38 40.04,-45.38 39.64,-45.38 39.32,-45.24 38.99,-45.05 L 34.84,-42.28 C 14.33,-28.63 1.41,-7.88 0.17,3.05 L -0.16,3.05 C -1.4,-7.87 -14.32,-28.63 -34.84,-42.28 L -38.99,-45.05 C -39.32,-45.24 -39.64,-45.38 -40.04,-45.38 -40.76,-45.38 -41.31,-44.85 -41.31,-44.18 -41.31,-43.79 -40.95,-43.23 -40.29,-42.8 L -36.26,-40.09 C -14.98,-26.26 -1.18,-3.7 -1.18,9.53 L -1.18,52.93 C -1.18,53.67 -0.71,54.03 0,54.03 Z M -41.71,-29.2 L -26.08,-50.83 C -25.06,-52.23 -25.63,-53.67 -27.84,-53.66 L -50.39,-54.01 C -52.22,-54 -52.95,-52.96 -52.33,-51.3 L -44.92,-29.96 C -44.24,-27.91 -42.73,-27.72 -41.71,-29.2 Z M 41.77,-29.2 C 42.79,-27.73 44.29,-27.92 44.97,-29.97 L 52.34,-51.32 C 52.94,-52.99 52.21,-54.02 50.38,-54.03 L 27.83,-53.62 C 25.63,-53.54 24.98,-52.19 26.09,-50.71 L 41.77,-29.2 Z M 41.77,-29.2" transform="translate(559.71, 1526.36) rotate(-180)"  />
            </g>
            <g id="Black-M">
                <path id="Bezier-30" stroke="none" fill="rgb(0, 0, 0)" d="M -0,45.03 C 4.84,45.03 7.51,42.22 7.51,37.08 L 7.51,12.88 C 7.51,2.16 20.92,-11.59 28.56,-16.39 L 32.61,-18.95 C 34.92,-20.4 36.3,-22.83 36.3,-25.31 36.3,-29.38 33.79,-32.69 28.92,-32.69 26.97,-32.69 24.96,-32.08 23.12,-30.91 L 20.64,-29.29 C 14.43,-25.26 3.74,-15.41 0.12,-6.63 L -0.12,-6.63 C -3.8,-15.42 -14.48,-25.26 -20.64,-29.29 L -23.12,-30.91 C -24.96,-32.13 -27.03,-32.74 -28.93,-32.74 -33.92,-32.74 -36.3,-29.25 -36.3,-25.32 -36.3,-22.83 -34.97,-20.46 -32.68,-19 L -28.56,-16.39 C -21.03,-11.59 -7.51,2.16 -7.51,12.88 L -7.51,37.08 C -7.51,42.22 -4.84,45.03 -0,45.03 Z M -37.49,-10.34 L -17.08,-36.46 C -14.13,-40.26 -16.66,-44.23 -22.22,-44.36 L -47.25,-45.01 C -51.61,-45.14 -54.21,-41.66 -53.05,-37.58 L -46.41,-13.42 C -44.95,-8.16 -40.55,-6.48 -37.49,-10.34 Z M 36.46,-10.52 C 39.34,-6.48 43.86,-8.03 45.5,-13.24 L 52.99,-37.15 C 54.27,-41.22 51.79,-44.77 47.43,-44.83 L 22.4,-45.03 C 16.84,-45.08 14.19,-41.22 17.01,-37.3 L 36.46,-10.52 Z M 36.46,-10.52" transform="translate(2933.37, 1090.82) rotate(-180)"  />
            </g>
            <g id="Heavy-M">
                <path id="Bezier-31" stroke="none" fill="rgb(0, 0, 0)" d="M -0.01,44.69 C 4.34,44.69 6.74,42.11 6.74,37.41 L 6.74,12.29 C 6.74,1.35 20.06,-13.17 28.71,-18.66 L 32.73,-21.2 C 34.82,-22.52 36.05,-24.73 36.05,-26.95 36.05,-30.64 33.74,-33.55 29.44,-33.55 27.65,-33.55 25.81,-32.99 24.13,-31.91 L 21.63,-30.27 C 14.08,-25.32 3.22,-14.26 0.1,-5.76 L -0.12,-5.76 C -3.28,-14.28 -14.12,-25.32 -21.62,-30.27 L -24.13,-31.91 C -25.81,-33.04 -27.69,-33.59 -29.45,-33.59 -33.86,-33.59 -36.05,-30.5 -36.05,-26.97 -36.05,-24.73 -34.87,-22.56 -32.79,-21.24 L -28.72,-18.66 C -20.14,-13.17 -6.74,1.35 -6.74,12.29 L -6.74,37.41 C -6.74,42.11 -4.34,44.69 -0.01,44.69 Z M -36.58,-12.62 L -17.76,-36.76 C -15.01,-40.31 -17.25,-43.86 -22.27,-43.99 L -45.86,-44.69 C -49.85,-44.82 -52.17,-41.72 -51.09,-37.99 L -44.7,-15.26 C -43.35,-10.48 -39.42,-9.02 -36.58,-12.62 Z M 35.64,-12.77 C 38.33,-9.01 42.37,-10.36 43.86,-15.08 L 51.03,-37.59 C 52.23,-41.32 49.99,-44.48 46.03,-44.51 L 22.41,-44.59 C 17.4,-44.61 15.03,-41.16 17.68,-37.5 L 35.64,-12.77 Z M 35.64,-12.77" transform="translate(2636.66, 1091.47) rotate(-180)"  />
            </g>
            <g id="Bold-M">
                <path id="Bezier-32" stroke="none" fill="rgb(0, 0, 0)" d="M -0.01,44.32 C 3.79,44.32 5.88,42.01 5.88,37.77 L 5.88,11.64 C 5.88,0.44 19.09,-14.95 28.89,-21.19 L 32.87,-23.71 C 34.72,-24.88 35.77,-26.84 35.77,-28.78 35.77,-32.03 33.67,-34.5 30.01,-34.5 28.41,-34.5 26.76,-34.01 25.25,-33.02 L 22.73,-31.36 C 13.69,-25.38 2.65,-12.97 0.08,-4.79 L -0.11,-4.79 C -2.71,-13 -13.71,-25.38 -22.72,-31.36 L -25.24,-33.02 C -26.76,-34.04 -28.44,-34.53 -30.04,-34.53 -33.79,-34.53 -35.77,-31.89 -35.77,-28.81 -35.77,-26.84 -34.74,-24.91 -32.93,-23.74 L -28.89,-21.19 C -19.15,-14.95 -5.88,0.44 -5.88,11.64 L -5.88,37.77 C -5.88,42.01 -3.79,44.32 -0.01,44.32 Z M -35.55,-15.16 L -18.52,-37.09 C -15.99,-40.36 -17.91,-43.43 -22.32,-43.58 L -44.32,-44.32 C -47.87,-44.46 -49.89,-41.79 -48.91,-38.45 L -42.78,-17.3 C -41.56,-13.07 -38.14,-11.86 -35.55,-15.16 Z M 34.73,-15.27 C 37.2,-11.83 40.7,-12.96 42.03,-17.13 L 48.85,-38.07 C 49.95,-41.42 47.98,-44.15 44.46,-44.15 L 22.44,-44.09 C 18.03,-44.09 15.98,-41.08 18.43,-37.72 L 34.73,-15.27 Z M 34.73,-15.27" transform="translate(2339.96, 1092.19) rotate(-180)"  />
            </g>
            <g id="Semibold-M">
                <path id="Bezier-33" stroke="none" fill="rgb(0, 0, 0)" d="M -0.02,44.07 C 3.4,44.07 5.29,41.93 5.29,38.02 L 5.29,11.2 C 5.29,-0.18 18.43,-16.17 29.01,-22.93 L 32.96,-25.44 C 34.64,-26.51 35.58,-28.29 35.58,-30.04 35.58,-33 33.63,-35.16 30.41,-35.16 28.94,-35.16 27.41,-34.71 26.02,-33.79 L 23.48,-32.11 C 13.42,-25.43 2.25,-12.08 0.07,-4.12 L -0.11,-4.12 C -2.31,-12.12 -13.44,-25.43 -23.48,-32.11 L -26.02,-33.79 C -27.41,-34.73 -28.95,-35.18 -30.45,-35.18 -33.74,-35.18 -35.58,-32.85 -35.58,-30.08 -35.58,-28.29 -34.66,-26.53 -33.02,-25.46 L -29.01,-22.93 C -18.46,-16.17 -5.29,-0.18 -5.29,11.2 L -5.29,38.02 C -5.29,41.93 -3.4,44.07 -0.02,44.07 Z M -34.85,-16.91 L -19.04,-37.32 C -16.66,-40.4 -18.37,-43.14 -22.36,-43.29 L -43.25,-44.06 C -46.51,-44.21 -48.32,-41.83 -47.4,-38.76 L -41.45,-18.71 C -40.32,-14.86 -37.26,-13.81 -34.85,-16.91 Z M 34.1,-17 C 36.42,-13.77 39.55,-14.75 40.77,-18.54 L 47.35,-38.41 C 48.38,-41.48 46.6,-43.91 43.38,-43.9 L 22.45,-43.75 C 18.46,-43.72 16.64,-41.02 18.95,-37.87 L 34.1,-17 Z M 34.1,-17" transform="translate(2043.25, 1092.69) rotate(-180)"  />
            </g>
            <g id="Medium-M">
                <path id="Bezier-34" stroke="none" fill="rgb(0, 0, 0)" d="M -0.02,43.87 C 3.11,43.87 4.84,41.87 4.84,38.21 L 4.84,10.86 C 4.84,-0.65 17.93,-17.09 29.1,-24.26 L 33.03,-26.75 C 34.59,-27.74 35.43,-29.4 35.43,-31 35.43,-33.73 33.59,-35.66 30.71,-35.66 29.33,-35.66 27.91,-35.24 26.6,-34.37 L 24.06,-32.68 C 13.22,-25.46 1.95,-11.4 0.06,-3.6 L -0.1,-3.6 C -2.01,-11.45 -13.22,-25.46 -24.06,-32.68 L -26.6,-34.37 C -27.91,-35.25 -29.34,-35.67 -30.76,-35.67 -33.7,-35.67 -35.43,-33.58 -35.43,-31.04 -35.43,-29.4 -34.6,-27.75 -33.09,-26.76 L -29.1,-24.26 C -17.94,-17.09 -4.84,-0.65 -4.84,10.86 L -4.84,38.21 C -4.84,41.87 -3.11,43.87 -0.02,43.87 Z M -34.31,-18.24 L -19.44,-37.5 C -17.17,-40.43 -18.71,-42.92 -22.38,-43.07 L -42.44,-43.87 C -45.47,-44.02 -47.13,-41.87 -46.26,-38.99 L -40.45,-19.77 C -39.39,-16.21 -36.6,-15.29 -34.31,-18.24 Z M 33.62,-18.31 C 35.83,-15.25 38.68,-16.11 39.82,-19.61 L 46.21,-38.66 C 47.19,-41.54 45.55,-43.74 42.56,-43.71 L 22.46,-43.49 C 18.79,-43.45 17.13,-40.98 19.34,-37.98 L 33.62,-18.31 Z M 33.62,-18.31" transform="translate(1746.55, 1093.06) rotate(-180)"  />
            </g>
            <g id="Regular-M">
                <path id="Bezier-35" stroke="none" fill="rgb(0, 0, 0)" d="M -0.02,43.62 C 2.73,43.62 4.25,41.8 4.25,38.46 L 4.25,10.42 C 4.25,-1.27 17.27,-18.3 29.21,-25.98 L 33.13,-28.46 C 34.51,-29.35 35.24,-30.84 35.24,-32.24 35.24,-34.68 33.55,-36.32 31.11,-36.32 29.85,-36.32 28.56,-35.93 27.37,-35.12 L 24.81,-33.42 C 12.95,-25.5 1.56,-10.52 0.05,-2.94 L -0.1,-2.94 C -1.61,-10.57 -12.95,-25.5 -24.81,-33.42 L -27.36,-35.12 C -28.56,-35.93 -29.85,-36.32 -31.16,-36.32 -33.65,-36.32 -35.24,-34.52 -35.24,-32.3 -35.24,-30.84 -34.51,-29.35 -33.18,-28.46 L -29.22,-25.98 C -17.27,-18.3 -4.25,-1.27 -4.25,10.42 L -4.25,38.46 C -4.25,41.8 -2.73,43.62 -0.02,43.62 Z M -33.61,-19.97 L -19.95,-37.73 C -17.84,-40.46 -19.16,-42.63 -22.42,-42.78 L -41.39,-43.61 C -44.13,-43.77 -45.58,-41.91 -44.77,-39.3 L -39.14,-21.16 C -38.16,-17.98 -35.73,-17.23 -33.61,-19.97 Z M 32.99,-20.02 C 35.06,-17.17 37.55,-17.88 38.57,-21.01 L 44.72,-38.99 C 45.63,-41.6 44.18,-43.51 41.49,-43.46 L 22.47,-43.15 C 19.22,-43.08 17.78,-40.93 19.85,-38.13 L 32.99,-20.02 Z M 32.99,-20.02" transform="translate(1449.85, 1093.55) rotate(-180)"  />
            </g>
            <g id="Light-M">
                <path id="Bezier-36" stroke="none" fill="rgb(0, 0, 0)" d="M -0.02,43.07 C 2.05,43.07 3.22,41.73 3.22,39.25 L 3.22,9.48 C 3.22,-1.77 15.51,-18.93 28.84,-27.56 L 32.53,-29.92 C 33.65,-30.64 34.24,-31.8 34.24,-32.86 34.24,-34.7 32.94,-35.96 31.08,-35.96 30.12,-35.96 29.15,-35.66 28.25,-35.06 L 25.49,-33.22 C 12.38,-24.47 1.42,-9.16 0.07,-1.3 L -0.11,-1.3 C -1.45,-9.19 -12.38,-24.47 -25.48,-33.22 L -28.25,-35.06 C -29.15,-35.66 -30.12,-35.96 -31.11,-35.96 -33.01,-35.96 -34.24,-34.59 -34.24,-32.9 -34.24,-31.8 -33.65,-30.64 -32.57,-29.92 L -28.87,-27.56 C -15.51,-18.93 -3.22,-1.77 -3.22,9.48 L -3.22,39.25 C -3.22,41.73 -2.05,43.07 -0.02,43.07 Z M -33.21,-20.8 L -20.03,-38.24 C -18.33,-40.46 -19.38,-42.31 -22.16,-42.41 L -40.66,-43.07 C -42.99,-43.17 -44.17,-41.64 -43.46,-39.44 L -37.8,-21.8 C -36.96,-19.11 -34.92,-18.54 -33.21,-20.8 Z M 32.8,-20.83 C 34.47,-18.51 36.54,-19.04 37.42,-21.7 L 43.43,-39.23 C 44.2,-41.43 43.02,-43 40.73,-42.96 L 22.19,-42.65 C 19.41,-42.59 18.27,-40.78 19.96,-38.49 L 32.8,-20.83 Z M 32.8,-20.83" transform="translate(1153.13, 1094.03) rotate(-180)"  />
            </g>
            <g id="Thin-M">
                <path id="Bezier-37" stroke="none" fill="rgb(0, 0, 0)" d="M -0.01,42.35 C 1.16,42.35 1.85,41.64 1.85,40.29 L 1.85,8.23 C 1.85,-2.42 13.19,-19.77 28.36,-29.64 L 31.75,-31.84 C 32.51,-32.34 32.91,-33.06 32.91,-33.68 32.91,-34.72 32.14,-35.49 31.05,-35.49 30.47,-35.49 29.93,-35.3 29.41,-34.97 L 26.38,-32.95 C 11.62,-23.12 1.22,-7.35 0.11,0.87 L -0.12,0.87 C -1.24,-7.36 -11.62,-23.12 -26.38,-32.95 L -29.41,-34.97 C -29.93,-35.3 -30.47,-35.49 -31.06,-35.49 -32.16,-35.49 -32.91,-34.69 -32.91,-33.69 -32.91,-33.06 -32.51,-32.34 -31.77,-31.84 L -28.41,-29.64 C -13.19,-19.77 -1.85,-2.42 -1.85,8.23 L -1.85,40.29 C -1.85,41.64 -1.16,42.35 -0.01,42.35 Z M -32.68,-21.88 L -20.13,-38.92 C -18.97,-40.47 -19.66,-41.88 -21.81,-41.91 L -39.7,-42.35 C -41.48,-42.38 -42.3,-41.28 -41.73,-39.62 L -36.02,-22.64 C -35.36,-20.61 -33.84,-20.29 -32.68,-21.88 Z M 32.54,-21.9 C 33.68,-20.28 35.22,-20.58 35.89,-22.6 L 41.72,-39.55 C 42.31,-41.21 41.5,-42.32 39.72,-42.31 L 21.82,-42 C 19.67,-41.94 18.91,-40.57 20.11,-38.97 L 32.54,-21.9 Z M 32.54,-21.9" transform="translate(856.42, 1094.67) rotate(-180)"  />
            </g>
            <g id="Ultralight-M">
                <path id="Bezier-38" stroke="none" fill="rgb(0, 0, 0)" d="M -0,41.98 C 0.7,41.98 1.15,41.59 1.15,40.82 L 1.15,7.59 C 1.15,-2.76 12.01,-20.2 28.11,-30.71 L 31.35,-32.83 C 31.92,-33.21 32.24,-33.71 32.24,-34.1 32.24,-34.73 31.73,-35.24 31.03,-35.24 30.65,-35.24 30.33,-35.12 30.01,-34.92 L 26.84,-32.81 C 11.23,-22.42 1.13,-6.42 0.12,1.98 L -0.12,1.98 C -1.13,-6.42 -11.23,-22.42 -26.84,-32.81 L -30.01,-34.92 C -30.33,-35.12 -30.65,-35.24 -31.03,-35.24 -31.73,-35.24 -32.24,-34.73 -32.24,-34.1 -32.24,-33.71 -31.92,-33.21 -31.35,-32.83 L -28.17,-30.71 C -12.01,-20.2 -1.15,-2.76 -1.15,7.59 L -1.15,40.82 C -1.15,41.59 -0.7,41.98 -0,41.98 Z M -32.41,-22.44 L -20.18,-39.27 C -19.3,-40.47 -19.81,-41.66 -21.63,-41.66 L -39.21,-41.98 C -40.71,-41.98 -41.34,-41.1 -40.84,-39.72 L -35.11,-23.07 C -34.55,-21.37 -33.29,-21.18 -32.41,-22.44 Z M 32.4,-22.44 C 33.29,-21.18 34.54,-21.37 35.11,-23.07 L 40.84,-39.71 C 41.34,-41.09 40.71,-41.97 39.21,-41.97 L 21.63,-41.66 C 19.81,-41.6 19.24,-40.47 20.18,-39.21 L 32.4,-22.44 Z M 32.4,-22.44" transform="translate(559.71, 1095) rotate(-180)"  />
            </g>
            <g id="Black-S">
                <path id="Bezier-39" stroke="none" fill="rgb(0, 0, 0)" d="M -0,35.38 C 3.91,35.38 6.05,33.13 6.05,29.03 L 6.05,10.23 C 6.05,1.93 16.55,-8.62 22.31,-12.23 L 25.49,-14.23 C 27.34,-15.4 28.47,-17.36 28.47,-19.36 28.47,-22.63 26.46,-25.32 22.51,-25.32 20.95,-25.32 19.34,-24.83 17.87,-23.9 L 15.92,-22.63 C 11.38,-19.7 3.08,-12.33 0.1,-5.35 L -0.1,-5.35 C -3.13,-12.33 -11.43,-19.7 -15.92,-22.63 L -17.87,-23.9 C -19.34,-24.88 -21,-25.37 -22.51,-25.37 -26.56,-25.37 -28.47,-22.53 -28.47,-19.36 -28.47,-17.36 -27.39,-15.45 -25.54,-14.28 L -22.31,-12.23 C -16.65,-8.62 -6.05,1.93 -6.05,10.23 L -6.05,29.03 C -6.05,33.13 -3.91,35.38 -0,35.38 Z M -29.64,-7.45 L -13.18,-28.49 C -10.84,-31.52 -12.89,-34.74 -17.38,-34.84 L -37.4,-35.33 C -40.92,-35.42 -43.02,-32.59 -42.09,-29.32 L -36.82,-9.99 C -35.64,-5.74 -32.08,-4.37 -29.64,-7.45 Z M 28.81,-7.59 C 31.1,-4.37 34.77,-5.64 36.08,-9.84 L 42.04,-28.98 C 43.07,-32.25 41.06,-35.13 37.55,-35.18 L 17.53,-35.38 C 13.04,-35.42 10.89,-32.3 13.13,-29.17 L 28.81,-7.59 Z M 28.81,-7.59" transform="translate(2933.37, 660.62) rotate(-180)"  />
            </g>
            <g id="Heavy-S">
                <path id="Bezier-40" stroke="none" fill="rgb(0, 0, 0)" d="M -0.01,35.14 C 3.57,35.14 5.53,33.03 5.53,29.18 L 5.53,9.83 C 5.53,1.28 16.04,-9.91 22.49,-13.99 L 25.67,-15.99 C 27.37,-17.07 28.38,-18.87 28.38,-20.7 28.38,-23.72 26.49,-26.12 22.95,-26.12 21.49,-26.12 19.99,-25.66 18.61,-24.78 L 16.67,-23.51 C 11.15,-19.9 2.66,-11.54 0.08,-4.83 L -0.09,-4.83 C -2.7,-11.55 -11.19,-19.9 -16.67,-23.51 L -18.61,-24.78 C -19.99,-25.7 -21.53,-26.16 -22.96,-26.16 -26.59,-26.16 -28.38,-23.61 -28.38,-20.71 -28.38,-18.87 -27.41,-17.11 -25.72,-16.03 L -22.49,-13.99 C -16.11,-9.91 -5.53,1.28 -5.53,9.83 L -5.53,29.18 C -5.53,33.03 -3.57,35.14 -0.01,35.14 Z M -28.91,-9.31 L -13.75,-28.7 C -11.53,-31.58 -13.37,-34.48 -17.46,-34.59 L -36.31,-35.14 C -39.55,-35.25 -41.46,-32.7 -40.59,-29.67 L -35.52,-11.49 C -34.43,-7.6 -31.21,-6.39 -28.91,-9.31 Z M 28.13,-9.43 C 30.31,-6.38 33.62,-7.5 34.83,-11.34 L 40.54,-29.34 C 41.51,-32.37 39.68,-34.96 36.45,-34.99 L 17.58,-35.08 C 13.49,-35.11 11.55,-32.28 13.69,-29.32 L 28.13,-9.43 Z M 28.13,-9.43" transform="translate(2636.67, 661.14) rotate(-180)"  />
            </g>
            <g id="Bold-S">
                <path id="Bezier-41" stroke="none" fill="rgb(0, 0, 0)" d="M -0.01,34.9 C 3.19,34.9 4.94,32.95 4.94,29.38 L 4.94,9.41 C 4.94,0.58 15.47,-11.34 22.69,-15.93 L 25.87,-17.93 C 27.41,-18.91 28.28,-20.54 28.28,-22.18 28.28,-24.91 26.53,-26.99 23.45,-26.99 22.11,-26.99 20.72,-26.57 19.45,-25.74 L 17.52,-24.47 C 10.9,-20.1 2.19,-10.63 0.06,-4.23 L -0.08,-4.23 C -2.23,-10.65 -10.92,-20.1 -17.52,-24.47 L -19.45,-25.74 C -20.71,-26.6 -22.13,-27.01 -23.47,-27.01 -26.62,-27.01 -28.28,-24.79 -28.28,-22.2 -28.28,-20.54 -27.43,-18.93 -25.91,-17.95 L -22.69,-15.93 C -15.51,-11.34 -4.94,0.58 -4.94,9.41 L -4.94,29.38 C -4.94,32.95 -3.19,34.9 -0.01,34.9 Z M -28.09,-11.36 L -14.39,-28.92 C -12.29,-31.63 -13.9,-34.17 -17.54,-34.29 L -35.09,-34.9 C -38.02,-35.02 -39.71,-32.8 -38.9,-30.04 L -34.07,-13.14 C -33.07,-9.65 -30.24,-8.63 -28.09,-11.36 Z M 27.38,-11.46 C 29.43,-8.6 32.34,-9.56 33.44,-13 L 38.86,-29.72 C 39.76,-32.48 38.12,-34.75 35.22,-34.75 L 17.64,-34.73 C 14,-34.73 12.29,-32.24 14.32,-29.45 L 27.38,-11.46 Z M 27.38,-11.46" transform="translate(2339.96, 661.68) rotate(-180)"  />
            </g>
            <g id="Semibold-S">
                <path id="Bezier-42" stroke="none" fill="rgb(0, 0, 0)" d="M -0.02,34.74 C 2.92,34.74 4.54,32.89 4.54,29.52 L 4.54,9.13 C 4.54,0.09 15.07,-12.32 22.83,-17.26 L 26.01,-19.27 C 27.43,-20.17 28.22,-21.69 28.22,-23.19 28.22,-25.73 26.55,-27.59 23.79,-27.59 22.53,-27.59 21.22,-27.2 20.02,-26.4 L 18.1,-25.13 C 10.73,-20.24 1.86,-10 0.05,-3.82 L -0.08,-3.82 C -1.91,-10.04 -10.74,-20.24 -18.1,-25.13 L -20.02,-26.4 C -21.22,-27.21 -22.54,-27.6 -23.82,-27.6 -26.64,-27.6 -28.22,-25.6 -28.22,-23.23 -28.22,-21.69 -27.44,-20.19 -26.05,-19.28 L -22.83,-17.26 C -15.1,-12.32 -4.54,0.09 -4.54,9.13 L -4.54,29.52 C -4.54,32.89 -2.92,34.74 -0.02,34.74 Z M -27.52,-12.78 L -14.83,-29.06 C -12.82,-31.66 -14.27,-33.95 -17.6,-34.08 L -34.25,-34.73 C -36.97,-34.86 -38.5,-32.86 -37.74,-30.29 L -33.07,-14.29 C -32.13,-11.07 -29.56,-10.17 -27.52,-12.78 Z M 26.86,-12.86 C 28.82,-10.14 31.45,-10.97 32.47,-14.14 L 37.7,-29.98 C 38.56,-32.56 37.05,-34.6 34.37,-34.59 L 17.68,-34.48 C 14.35,-34.46 12.8,-32.2 14.75,-29.55 L 26.86,-12.86 Z M 26.86,-12.86" transform="translate(2043.25, 662.06) rotate(-180)"  />
            </g>
            <g id="Medium-S">
                <path id="Bezier-43" stroke="none" fill="rgb(0, 0, 0)" d="M -0.02,34.61 C 2.73,34.61 4.23,32.85 4.23,29.63 L 4.23,8.91 C 4.23,-0.27 14.77,-13.06 22.94,-18.28 L 26.11,-20.28 C 27.44,-21.13 28.17,-22.56 28.17,-23.97 28.17,-26.36 26.57,-28.04 24.05,-28.04 22.85,-28.04 21.6,-27.67 20.45,-26.91 L 18.54,-25.64 C 10.6,-20.34 1.62,-9.53 0.04,-3.51 L -0.08,-3.51 C -1.66,-9.57 -10.6,-20.34 -18.54,-25.64 L -20.45,-26.91 C -21.6,-27.68 -22.86,-28.05 -24.09,-28.05 -26.66,-28.05 -28.17,-26.22 -28.17,-24.01 -28.17,-22.56 -27.45,-21.14 -26.16,-20.29 L -22.93,-18.28 C -14.79,-13.06 -4.23,-0.27 -4.23,8.91 L -4.23,29.63 C -4.23,32.85 -2.72,34.61 -0.02,34.61 Z M -27.1,-13.85 L -15.16,-29.17 C -13.22,-31.68 -14.55,-33.78 -17.64,-33.92 L -33.62,-34.61 C -36.17,-34.74 -37.59,-32.91 -36.86,-30.48 L -32.31,-15.15 C -31.42,-12.14 -29.06,-11.34 -27.1,-13.85 Z M 26.47,-13.92 C 28.36,-11.3 30.78,-12.05 31.74,-15 L 36.82,-30.18 C 37.64,-32.61 36.24,-34.49 33.73,-34.46 L 17.71,-34.3 C 14.62,-34.26 13.19,-32.18 15.08,-29.62 L 26.47,-13.92 Z M 26.47,-13.92" transform="translate(1746.55, 662.35) rotate(-180)"  />
            </g>
            <g id="Regular-S">
                <path id="Bezier-44" stroke="none" fill="rgb(0, 0, 0)" d="M -0.02,34.45 C 2.47,34.45 3.83,32.79 3.83,29.77 L 3.83,8.62 C 3.83,-0.75 14.38,-14.03 23.07,-19.6 L 26.25,-21.6 C 27.47,-22.38 28.1,-23.7 28.1,-24.97 28.1,-27.17 26.59,-28.63 24.39,-28.63 23.27,-28.63 22.1,-28.29 21.02,-27.56 L 19.12,-26.29 C 10.43,-20.48 1.3,-8.91 0.03,-3.1 L -0.07,-3.1 C -1.34,-8.96 -10.42,-20.48 -19.12,-26.29 L -21.02,-27.56 C -22.09,-28.29 -23.27,-28.63 -24.44,-28.63 -26.68,-28.63 -28.1,-27.02 -28.1,-25.02 -28.1,-23.7 -27.46,-22.38 -26.29,-21.6 L -23.07,-19.6 C -14.38,-14.03 -3.83,-0.75 -3.83,8.62 L -3.83,29.77 C -3.83,32.79 -2.46,34.45 -0.02,34.45 Z M -26.54,-15.25 L -15.6,-29.32 C -13.74,-31.71 -14.92,-33.56 -17.7,-33.71 L -32.79,-34.44 C -35.13,-34.59 -36.4,-32.98 -35.72,-30.73 L -31.32,-16.28 C -30.49,-13.55 -28.39,-12.86 -26.54,-15.25 Z M 25.95,-15.3 C 27.76,-12.81 29.91,-13.45 30.79,-16.13 L 35.67,-30.44 C 36.45,-32.69 35.18,-34.35 32.89,-34.3 L 17.75,-34.05 C 14.97,-34 13.7,-32.15 15.5,-29.71 L 25.95,-15.3 Z M 25.95,-15.3" transform="translate(1449.85, 662.72) rotate(-180)"  />
            </g>
            <g id="Light-S">
                <path id="Bezier-45" stroke="none" fill="rgb(0, 0, 0)" d="M -0.02,33.97 C 1.87,33.97 2.92,32.73 2.92,30.46 L 2.92,7.79 C 2.92,-1.19 12.83,-14.6 22.75,-20.99 L 25.72,-22.89 C 26.7,-23.52 27.22,-24.55 27.22,-25.52 27.22,-27.19 26.05,-28.32 24.37,-28.32 23.5,-28.32 22.62,-28.05 21.8,-27.5 L 19.71,-26.11 C 9.92,-19.57 1.17,-7.7 0.05,-1.64 L -0.08,-1.64 C -1.2,-7.73 -9.92,-19.57 -19.71,-26.11 L -21.8,-27.5 C -22.62,-28.05 -23.5,-28.32 -24.4,-28.32 -26.12,-28.32 -27.21,-27.08 -27.21,-25.55 -27.21,-24.55 -26.7,-23.52 -25.76,-22.89 L -22.76,-20.99 C -12.83,-14.6 -2.92,-1.19 -2.92,7.79 L -2.92,30.46 C -2.92,32.73 -1.87,33.97 -0.02,33.97 Z M -26.18,-15.98 L -15.67,-29.77 C -14.18,-31.71 -15.11,-33.28 -17.47,-33.38 L -32.14,-33.96 C -34.12,-34.06 -35.15,-32.74 -34.56,-30.86 L -30.13,-16.84 C -29.43,-14.55 -27.67,-14.03 -26.18,-15.98 Z M 25.78,-16.02 C 27.24,-14 29.02,-14.48 29.76,-16.74 L 34.53,-30.65 C 35.19,-32.54 34.16,-33.89 32.21,-33.86 L 17.5,-33.62 C 15.14,-33.57 14.13,-32.01 15.6,-30.03 L 25.78,-16.02 Z M 25.78,-16.02" transform="translate(1153.14, 663.14) rotate(-180)"  />
            </g>
            <g id="Thin-S">
                <path id="Bezier-46" stroke="none" fill="rgb(0, 0, 0)" d="M -0.01,33.32 C 1.08,33.32 1.71,32.65 1.71,31.38 L 1.71,6.69 C 1.71,-1.78 10.78,-15.34 22.32,-22.84 L 25.03,-24.59 C 25.69,-25.02 26.04,-25.67 26.04,-26.24 26.04,-27.21 25.34,-27.9 24.34,-27.9 23.81,-27.9 23.31,-27.73 22.83,-27.42 L 20.5,-25.87 C 9.25,-18.37 0.99,-6.1 0.08,0.28 L -0.09,0.28 C -1.01,-6.11 -9.25,-18.37 -20.51,-25.87 L -22.83,-27.42 C -23.31,-27.73 -23.81,-27.9 -24.35,-27.9 -25.37,-27.9 -26.04,-27.17 -26.04,-26.25 -26.04,-25.67 -25.69,-25.02 -25.05,-24.59 L -22.35,-22.84 C -10.78,-15.34 -1.71,-1.78 -1.71,6.69 L -1.71,31.38 C -1.71,32.65 -1.08,33.32 -0.01,33.32 Z M -25.71,-16.95 L -15.76,-30.38 C -14.75,-31.71 -15.36,-32.9 -17.16,-32.94 L -31.29,-33.32 C -32.79,-33.36 -33.5,-32.42 -33.03,-31.02 L -28.56,-17.58 C -28.01,-15.87 -26.72,-15.57 -25.71,-16.95 Z M 25.55,-16.96 C 26.55,-15.56 27.85,-15.84 28.41,-17.54 L 33.01,-30.94 C 33.51,-32.34 32.81,-33.3 31.32,-33.28 L 17.17,-33.04 C 15.37,-32.99 14.7,-31.84 15.73,-30.45 L 25.55,-16.96 Z M 25.55,-16.96" transform="translate(856.42, 665.71) rotate(-180)"  />
            </g>
            <g id="Ultralight-S">
                <path id="Bezier-47" stroke="none" fill="rgb(0, 0, 0)" d="M -0,33 C 0.67,33 1.09,32.61 1.09,31.85 L 1.09,6.12 C 1.09,-2.07 9.73,-15.72 22.09,-23.78 L 24.68,-25.47 C 25.17,-25.79 25.44,-26.25 25.44,-26.61 25.44,-27.22 24.97,-27.68 24.32,-27.68 23.97,-27.68 23.66,-27.57 23.36,-27.38 L 20.91,-25.75 C 8.9,-17.76 0.91,-5.28 0.09,1.26 L -0.1,1.26 C -0.91,-5.28 -8.9,-17.76 -20.91,-25.75 L -23.36,-27.38 C -23.66,-27.57 -23.97,-27.68 -24.33,-27.68 -24.98,-27.68 -25.44,-27.21 -25.44,-26.61 -25.44,-26.25 -25.17,-25.79 -24.68,-25.47 L -22.14,-23.78 C -9.73,-15.72 -1.09,-2.07 -1.09,6.12 L -1.09,31.85 C -1.09,32.61 -0.67,33 -0,33 Z M -25.47,-17.44 L -15.81,-30.68 C -15.04,-31.71 -15.48,-32.71 -17,-32.72 L -30.86,-33 C -32.11,-33.01 -32.66,-32.26 -32.24,-31.1 L -27.76,-17.96 C -27.29,-16.55 -26.24,-16.36 -25.47,-17.44 Z M 25.43,-17.44 C 26.19,-16.36 27.25,-16.54 27.72,-17.95 L 32.24,-31.08 C 32.66,-32.24 32.12,-32.99 30.86,-32.98 L 17,-32.74 C 15.49,-32.69 14.99,-31.74 15.8,-30.67 L 25.43,-17.44 Z M 25.43,-17.44" transform="translate(559.71, 664) rotate(-180)"  />
            </g>
    </g>
</svg>
