<?xml version="1.0" encoding="UTF-8"?>
<!--Generator: Apple Native CoreSVG 175-->
<!DOCTYPE svg
PUBLIC "-//W3C//DTD SVG 1.1//EN"
       "http://www.w3.org/Graphics/SVG/1.1/DTD/svg11.dtd">
<svg version="1.1" xmlns="http://www.w3.org/2000/svg" xmlns:xlink="http://www.w3.org/1999/xlink" width="3300" height="2200">
 <!--glyph: "uni1002AB.medium", point size: 100.0, font version: "17.0d12e1", template writer version: "65.1"-->
 <g id="Notes">
  <rect height="2200" id="artboard" style="fill:white;opacity:1" width="3300" x="0" y="0"/>
  <line style="fill:none;stroke:black;opacity:1;stroke-width:0.5;" x1="263" x2="3036" y1="292" y2="292"/>
  <text style="stroke:none;fill:black;font-family:sans-serif;font-size:13;font-weight:bold;" transform="matrix(1 0 0 1 263 322)">Weight/Scale Variations</text>
  <text style="stroke:none;fill:black;font-family:sans-serif;font-size:13;text-anchor:middle;" transform="matrix(1 0 0 1 559.711 322)">Ultralight</text>
  <text style="stroke:none;fill:black;font-family:sans-serif;font-size:13;text-anchor:middle;" transform="matrix(1 0 0 1 856.422 322)">Thin</text>
  <text style="stroke:none;fill:black;font-family:sans-serif;font-size:13;text-anchor:middle;" transform="matrix(1 0 0 1 1153.13 322)">Light</text>
  <text style="stroke:none;fill:black;font-family:sans-serif;font-size:13;text-anchor:middle;" transform="matrix(1 0 0 1 1449.84 322)">Regular</text>
  <text style="stroke:none;fill:black;font-family:sans-serif;font-size:13;text-anchor:middle;" transform="matrix(1 0 0 1 1746.56 322)">Medium</text>
  <text style="stroke:none;fill:black;font-family:sans-serif;font-size:13;text-anchor:middle;" transform="matrix(1 0 0 1 2043.27 322)">Semibold</text>
  <text style="stroke:none;fill:black;font-family:sans-serif;font-size:13;text-anchor:middle;" transform="matrix(1 0 0 1 2339.98 322)">Bold</text>
  <text style="stroke:none;fill:black;font-family:sans-serif;font-size:13;text-anchor:middle;" transform="matrix(1 0 0 1 2636.69 322)">Heavy</text>
  <text style="stroke:none;fill:black;font-family:sans-serif;font-size:13;text-anchor:middle;" transform="matrix(1 0 0 1 2933.4 322)">Black</text>
  <line style="fill:none;stroke:black;opacity:1;stroke-width:0.5;" x1="263" x2="3036" y1="1903" y2="1903"/>
  <g transform="matrix(1 0 0 1 263 1933)">
   <path d="M9.24805 0.830078Q10.8691 0.830078 12.2949 0.214844Q13.7207-0.400391 14.8096-1.49414Q15.8984-2.58789 16.5186-4.01367Q17.1387-5.43945 17.1387-7.05078Q17.1387-8.66211 16.5186-10.0879Q15.8984-11.5137 14.8047-12.6074Q13.7109-13.7012 12.2852-14.3164Q10.8594-14.9316 9.23828-14.9316Q7.62695-14.9316 6.20117-14.3164Q4.77539-13.7012 3.69141-12.6074Q2.60742-11.5137 1.9873-10.0879Q1.36719-8.66211 1.36719-7.05078Q1.36719-5.43945 1.9873-4.01367Q2.60742-2.58789 3.69629-1.49414Q4.78516-0.400391 6.21094 0.214844Q7.63672 0.830078 9.24805 0.830078ZM9.24805-0.654297Q7.91992-0.654297 6.7627-1.14746Q5.60547-1.64062 4.73145-2.51953Q3.85742-3.39844 3.36426-4.56055Q2.87109-5.72266 2.87109-7.05078Q2.87109-8.37891 3.35938-9.54102Q3.84766-10.7031 4.72168-11.582Q5.5957-12.4609 6.75293-12.9541Q7.91016-13.4473 9.23828-13.4473Q10.5762-13.4473 11.7334-12.9541Q12.8906-12.4609 13.7695-11.582Q14.6484-10.7031 15.1465-9.54102Q15.6445-8.37891 15.6445-7.05078Q15.6445-5.72266 15.1514-4.56055Q14.6582-3.39844 13.7842-2.51953Q12.9102-1.64062 11.748-1.14746Q10.5859-0.654297 9.24805-0.654297ZM5.6543-7.05078Q5.6543-6.72852 5.85938-6.52832Q6.06445-6.32812 6.40625-6.32812L8.51562-6.32812L8.51562-4.20898Q8.51562-3.88672 8.71094-3.67676Q8.90625-3.4668 9.23828-3.4668Q9.56055-3.4668 9.77051-3.67676Q9.98047-3.88672 9.98047-4.20898L9.98047-6.32812L12.0898-6.32812Q12.4219-6.32812 12.627-6.52832Q12.832-6.72852 12.832-7.05078Q12.832-7.38281 12.627-7.58789Q12.4219-7.79297 12.0898-7.79297L9.98047-7.79297L9.98047-9.90234Q9.98047-10.2344 9.77051-10.4443Q9.56055-10.6543 9.23828-10.6543Q8.90625-10.6543 8.71094-10.4443Q8.51562-10.2344 8.51562-9.90234L8.51562-7.79297L6.40625-7.79297Q6.06445-7.79297 5.85938-7.58789Q5.6543-7.38281 5.6543-7.05078Z"/>
  </g>
  <g transform="matrix(1 0 0 1 281.867 1933)">
   <path d="M11.709 2.91016Q13.75 2.91016 15.5518 2.12891Q17.3535 1.34766 18.7305-0.0292969Q20.1074-1.40625 20.8887-3.20801Q21.6699-5.00977 21.6699-7.05078Q21.6699-9.0918 20.8887-10.8936Q20.1074-12.6953 18.7305-14.0723Q17.3535-15.4492 15.5469-16.2305Q13.7402-17.0117 11.6992-17.0117Q9.6582-17.0117 7.85645-16.2305Q6.05469-15.4492 4.68262-14.0723Q3.31055-12.6953 2.5293-10.8936Q1.74805-9.0918 1.74805-7.05078Q1.74805-5.00977 2.5293-3.20801Q3.31055-1.40625 4.6875-0.0292969Q6.06445 1.34766 7.86621 2.12891Q9.66797 2.91016 11.709 2.91016ZM11.709 1.25Q9.98047 1.25 8.47656 0.605469Q6.97266-0.0390625 5.83496-1.17676Q4.69727-2.31445 4.05762-3.81836Q3.41797-5.32227 3.41797-7.05078Q3.41797-8.7793 4.05762-10.2832Q4.69727-11.7871 5.83008-12.9297Q6.96289-14.0723 8.4668-14.7119Q9.9707-15.3516 11.6992-15.3516Q13.4277-15.3516 14.9316-14.7119Q16.4355-14.0723 17.5781-12.9297Q18.7207-11.7871 19.3652-10.2832Q20.0098-8.7793 20.0098-7.05078Q20.0098-5.32227 19.3701-3.81836Q18.7305-2.31445 17.5928-1.17676Q16.4551-0.0390625 14.9463 0.605469Q13.4375 1.25 11.709 1.25ZM7.17773-7.05078Q7.17773-6.69922 7.41211-6.47461Q7.64648-6.25 8.01758-6.25L10.8887-6.25L10.8887-3.36914Q10.8887-2.99805 11.1133-2.76855Q11.3379-2.53906 11.6895-2.53906Q12.0605-2.53906 12.29-2.76855Q12.5195-2.99805 12.5195-3.36914L12.5195-6.25L15.4004-6.25Q15.7715-6.25 16.001-6.47461Q16.2305-6.69922 16.2305-7.05078Q16.2305-7.42188 16.001-7.65137Q15.7715-7.88086 15.4004-7.88086L12.5195-7.88086L12.5195-10.752Q12.5195-11.1328 12.29-11.3623Q12.0605-11.5918 11.6895-11.5918Q11.3379-11.5918 11.1133-11.3574Q10.8887-11.123 10.8887-10.752L10.8887-7.88086L8.01758-7.88086Q7.63672-7.88086 7.40723-7.65137Q7.17773-7.42188 7.17773-7.05078Z"/>
  </g>
  <g transform="matrix(1 0 0 1 305.646 1933)">
   <path d="M14.9707 5.66406Q17.0605 5.66406 18.96 5.01465Q20.8594 4.36523 22.4512 3.19336Q24.043 2.02148 25.2197 0.429688Q26.3965-1.16211 27.0459-3.06641Q27.6953-4.9707 27.6953-7.05078Q27.6953-9.14062 27.0459-11.04Q26.3965-12.9395 25.2197-14.5312Q24.043-16.123 22.4512-17.2998Q20.8594-18.4766 18.9551-19.126Q17.0508-19.7754 14.9609-19.7754Q12.8711-19.7754 10.9717-19.126Q9.07227-18.4766 7.48535-17.2998Q5.89844-16.123 4.72168-14.5312Q3.54492-12.9395 2.90039-11.04Q2.25586-9.14062 2.25586-7.05078Q2.25586-4.9707 2.90527-3.06641Q3.55469-1.16211 4.72656 0.429688Q5.89844 2.02148 7.49023 3.19336Q9.08203 4.36523 10.9814 5.01465Q12.8809 5.66406 14.9707 5.66406ZM14.9707 3.84766Q13.1641 3.84766 11.5283 3.2959Q9.89258 2.74414 8.53516 1.74805Q7.17773 0.751953 6.17676-0.610352Q5.17578-1.97266 4.62891-3.6084Q4.08203-5.24414 4.08203-7.05078Q4.08203-8.86719 4.62891-10.5029Q5.17578-12.1387 6.17188-13.501Q7.16797-14.8633 8.52539-15.8594Q9.88281-16.8555 11.5186-17.4023Q13.1543-17.9492 14.9609-17.9492Q16.7773-17.9492 18.4131-17.4023Q20.0488-16.8555 21.4111-15.8594Q22.7734-14.8633 23.7695-13.501Q24.7656-12.1387 25.3174-10.5029Q25.8691-8.86719 25.8691-7.05078Q25.8789-5.24414 25.332-3.6084Q24.7852-1.97266 23.7842-0.610352Q22.7832 0.751953 21.4209 1.74805Q20.0586 2.74414 18.4229 3.2959Q16.7871 3.84766 14.9707 3.84766ZM9.19922-7.05078Q9.19922-6.66992 9.45801-6.4209Q9.7168-6.17188 10.1172-6.17188L14.0625-6.17188L14.0625-2.2168Q14.0625-1.81641 14.3115-1.55762Q14.5605-1.29883 14.9512-1.29883Q15.3516-1.29883 15.6104-1.55273Q15.8691-1.80664 15.8691-2.2168L15.8691-6.17188L19.8242-6.17188Q20.2246-6.17188 20.4785-6.4209Q20.7324-6.66992 20.7324-7.05078Q20.7324-7.46094 20.4785-7.71484Q20.2246-7.96875 19.8242-7.96875L15.8691-7.96875L15.8691-11.9141Q15.8691-12.3242 15.6104-12.583Q15.3516-12.8418 14.9512-12.8418Q14.5605-12.8418 14.3115-12.583Q14.0625-12.3242 14.0625-11.9141L14.0625-7.96875L10.1172-7.96875Q9.70703-7.96875 9.45312-7.71484Q9.19922-7.46094 9.19922-7.05078Z"/>
  </g>
  <text style="stroke:none;fill:black;font-family:sans-serif;font-size:13;font-weight:bold;" transform="matrix(1 0 0 1 263 1953)">Design Variations</text>
  <text style="stroke:none;fill:black;font-family:sans-serif;font-size:13;" transform="matrix(1 0 0 1 263 1971)">Symbols are supported in up to nine weights and three scales.</text>
  <text style="stroke:none;fill:black;font-family:sans-serif;font-size:13;" transform="matrix(1 0 0 1 263 1989)">For optimal layout with text and other symbols, vertically align</text>
  <text style="stroke:none;fill:black;font-family:sans-serif;font-size:13;" transform="matrix(1 0 0 1 263 2007)">symbols with the adjacent text.</text>
  <line style="fill:none;stroke:#00AEEF;stroke-width:0.5;opacity:1.0;" x1="776" x2="776" y1="1919" y2="1933"/>
  <g transform="matrix(1 0 0 1 776 1933)">
   <path d="M3.31055 0.15625Q3.70117 0.15625 3.91602-0.00976562Q4.13086-0.175781 4.26758-0.585938L5.52734-4.0332L11.2891-4.0332L12.5488-0.585938Q12.6855-0.175781 12.9004-0.00976562Q13.1152 0.15625 13.4961 0.15625Q13.8867 0.15625 14.1162-0.0585938Q14.3457-0.273438 14.3457-0.644531Q14.3457-0.869141 14.2383-1.17188L9.6582-13.3691Q9.48242-13.8184 9.17969-14.043Q8.87695-14.2676 8.4082-14.2676Q7.5-14.2676 7.17773-13.3789L2.59766-1.16211Q2.49023-0.859375 2.49023-0.634766Q2.49023-0.263672 2.70996-0.0537109Q2.92969 0.15625 3.31055 0.15625ZM6.00586-5.51758L8.37891-12.0898L8.42773-12.0898L10.8008-5.51758Z"/>
  </g>
  <line style="fill:none;stroke:#00AEEF;stroke-width:0.5;opacity:1.0;" x1="793.197" x2="793.197" y1="1919" y2="1933"/>
  <text style="stroke:none;fill:black;font-family:sans-serif;font-size:13;font-weight:bold;" transform="matrix(1 0 0 1 776 1953)">Margins</text>
  <text style="stroke:none;fill:black;font-family:sans-serif;font-size:13;" transform="matrix(1 0 0 1 776 1971)">Leading and trailing margins on the left and right side of each symbol</text>
  <text style="stroke:none;fill:black;font-family:sans-serif;font-size:13;" transform="matrix(1 0 0 1 776 1989)">can be adjusted by modifying the x-location of the margin guidelines.</text>
  <text style="stroke:none;fill:black;font-family:sans-serif;font-size:13;" transform="matrix(1 0 0 1 776 2007)">Modifications are automatically applied proportionally to all</text>
  <text style="stroke:none;fill:black;font-family:sans-serif;font-size:13;" transform="matrix(1 0 0 1 776 2025)">scales and weights.</text>
  <g transform="matrix(1 0 0 1 1289 1933)">
   <path d="M2.8418 1.86523L4.54102 3.57422Q5.18555 4.22852 5.90332 4.17969Q6.62109 4.13086 7.31445 3.35938L18.0078-8.42773L17.041-9.4043L6.42578 2.27539Q6.16211 2.57812 5.89355 2.61719Q5.625 2.65625 5.27344 2.30469L4.10156 1.14258Q3.75 0.791016 3.79395 0.522461Q3.83789 0.253906 4.14062-0.0195312L15.6152-10.8203L14.6387-11.7871L3.04688-0.898438Q2.30469-0.214844 2.25098 0.498047Q2.19727 1.21094 2.8418 1.86523ZM9.25781-16.3281Q8.94531-16.0254 8.90625-15.6348Q8.86719-15.2441 9.04297-14.9512Q9.21875-14.6777 9.55566-14.541Q9.89258-14.4043 10.3809-14.5215Q11.4746-14.7754 12.5977-14.7314Q13.7207-14.6875 14.7949-13.9844L14.209-12.5293Q13.9551-11.9043 14.0674-11.4404Q14.1797-10.9766 14.5801-10.5664L16.875-8.25195Q17.2363-7.88086 17.5781-7.82227Q17.9199-7.76367 18.3398-7.8418L19.4043-8.03711L20.0684-7.36328L20.0293-6.80664Q20-6.43555 20.1221-6.12305Q20.2441-5.81055 20.6055-5.44922L21.3672-4.70703Q21.7285-4.3457 22.1533-4.33105Q22.5781-4.31641 22.9297-4.66797L25.8398-7.58789Q26.1914-7.93945 26.1816-8.35449Q26.1719-8.76953 25.8105-9.13086L25.0391-9.89258Q24.6875-10.2539 24.3799-10.3857Q24.0723-10.5176 23.7109-10.4883L23.1348-10.4395L22.4902-11.0742L22.7344-12.1973Q22.832-12.6172 22.6953-12.9834Q22.5586-13.3496 22.1191-13.7891L19.9219-15.9766Q18.6719-17.2168 17.2607-17.8369Q15.8496-18.457 14.4189-18.4814Q12.9883-18.5059 11.665-17.959Q10.3418-17.4121 9.25781-16.3281ZM10.752-15.957Q11.6602-16.6211 12.7002-16.9043Q13.7402-17.1875 14.8047-17.085Q15.8691-16.9824 16.8701-16.5137Q17.8711-16.0449 18.7012-15.2051L21.1328-12.793Q21.3086-12.6172 21.3525-12.4512Q21.3965-12.2852 21.3379-12.0312L21.0156-10.5469L22.5195-9.0625L23.5059-9.12109Q23.6914-9.13086 23.7891-9.09668Q23.8867-9.0625 24.0332-8.91602L24.6094-8.33984L22.168-5.89844L21.5918-6.47461Q21.4453-6.62109 21.4062-6.71875Q21.3672-6.81641 21.377-7.01172L21.4453-7.98828L19.9512-9.47266L18.4277-9.21875Q18.1836-9.16992 18.042-9.2041Q17.9004-9.23828 17.7148-9.41406L15.7129-11.416Q15.5176-11.5918 15.4932-11.7529Q15.4688-11.9141 15.5859-12.1875L16.4648-14.2773Q15.293-15.3711 13.8281-15.791Q12.3633-16.2109 10.8398-15.7617Q10.7227-15.7324 10.6885-15.8057Q10.6543-15.8789 10.752-15.957Z"/>
  </g>
  <text style="stroke:none;fill:black;font-family:sans-serif;font-size:13;font-weight:bold;" transform="matrix(1 0 0 1 1289 1953)">Exporting</text>
  <text style="stroke:none;fill:black;font-family:sans-serif;font-size:13;" transform="matrix(1 0 0 1 1289 1971)">Symbols should be outlined when exporting to ensure the</text>
  <text style="stroke:none;fill:black;font-family:sans-serif;font-size:13;" transform="matrix(1 0 0 1 1289 1989)">design is preserved when submitting to Xcode.</text>
  <text id="template-version" style="stroke:none;fill:black;font-family:sans-serif;font-size:13;text-anchor:end;" transform="matrix(1 0 0 1 3036 1933)">Template v.3.0</text>
  <text style="stroke:none;fill:black;font-family:sans-serif;font-size:13;text-anchor:end;" transform="matrix(1 0 0 1 3036 1951)">Requires Xcode 13 or greater</text>
  <text id="descriptive-name" style="stroke:none;fill:black;font-family:sans-serif;font-size:13;text-anchor:end;" transform="matrix(1 0 0 1 3036 1969)">Generated from magnifyingglass</text>
  <text style="stroke:none;fill:black;font-family:sans-serif;font-size:13;text-anchor:end;" transform="matrix(1 0 0 1 3036 1987)">Typeset at 100 points</text>
  <text style="stroke:none;fill:black;font-family:sans-serif;font-size:13;" transform="matrix(1 0 0 1 263 726)">Small</text>
  <text style="stroke:none;fill:black;font-family:sans-serif;font-size:13;" transform="matrix(1 0 0 1 263 1156)">Medium</text>
  <text style="stroke:none;fill:black;font-family:sans-serif;font-size:13;" transform="matrix(1 0 0 1 263 1586)">Large</text>
 </g>
 <g id="Guides">
  <g id="H-reference" style="fill:#27AAE1;stroke:none;" transform="matrix(1 0 0 1 339 696)">
   <path d="M0.993347 0L3.6377 0L29.3282-67.1326L30.0301-67.1326L30.0301-70.459L28.1227-70.459ZM11.6882-24.4797L46.9818-24.4797L46.2311-26.7288L12.4382-26.7288ZM55.1193 0L57.7637 0L30.6381-70.459L29.4327-70.459L29.4327-67.1326Z"/>
  </g>
  <line id="Baseline-S" style="fill:none;stroke:#27AAE1;opacity:1;stroke-width:0.5;" x1="263" x2="3036" y1="696" y2="696"/>
  <line id="Capline-S" style="fill:none;stroke:#27AAE1;opacity:1;stroke-width:0.5;" x1="263" x2="3036" y1="625.541" y2="625.541"/>
  <g id="H-reference" style="fill:#27AAE1;stroke:none;" transform="matrix(1 0 0 1 339 1126)">
   <path d="M0.993347 0L3.6377 0L29.3282-67.1326L30.0301-67.1326L30.0301-70.459L28.1227-70.459ZM11.6882-24.4797L46.9818-24.4797L46.2311-26.7288L12.4382-26.7288ZM55.1193 0L57.7637 0L30.6381-70.459L29.4327-70.459L29.4327-67.1326Z"/>
  </g>
  <line id="Baseline-M" style="fill:none;stroke:#27AAE1;opacity:1;stroke-width:0.5;" x1="263" x2="3036" y1="1126" y2="1126"/>
  <line id="Capline-M" style="fill:none;stroke:#27AAE1;opacity:1;stroke-width:0.5;" x1="263" x2="3036" y1="1055.54" y2="1055.54"/>
  <g id="H-reference" style="fill:#27AAE1;stroke:none;" transform="matrix(1 0 0 1 339 1556)">
   <path d="M0.993347 0L3.6377 0L29.3282-67.1326L30.0301-67.1326L30.0301-70.459L28.1227-70.459ZM11.6882-24.4797L46.9818-24.4797L46.2311-26.7288L12.4382-26.7288ZM55.1193 0L57.7637 0L30.6381-70.459L29.4327-70.459L29.4327-67.1326Z"/>
  </g>
  <line id="Baseline-L" style="fill:none;stroke:#27AAE1;opacity:1;stroke-width:0.5;" x1="263" x2="3036" y1="1556" y2="1556"/>
  <line id="Capline-L" style="fill:none;stroke:#27AAE1;opacity:1;stroke-width:0.5;" x1="263" x2="3036" y1="1485.54" y2="1485.54"/>
  <line id="left-margin-Regular-M" style="fill:none;stroke:#00AEEF;stroke-width:0.5;opacity:1.0;" x1="1390.91" x2="1390.91" y1="1030.79" y2="1150.12"/>
  <line id="right-margin-Regular-M" style="fill:none;stroke:#00AEEF;stroke-width:0.5;opacity:1.0;" x1="1508.78" x2="1508.78" y1="1030.79" y2="1150.12"/>
 </g>
 <g id="Symbols">
  <g id="Black-L" transform="matrix(1 0 0 1 2854.42 1556)">
   <path d="M14.4531-45.3613Q14.4531-33.9355 18.7256-23.9746Q22.998-14.0137 30.542-6.46973Q38.0859 1.07422 48.0469 5.34668Q58.0078 9.61914 69.3848 9.61914Q76.123 9.61914 82.373 8.03223Q88.623 6.44531 94.1895 3.56445L115.869 25.1953Q118.164 27.5391 121.191 28.6621Q124.219 29.7852 127.441 29.7852Q132.031 29.7852 135.669 27.6611Q139.307 25.5371 141.406 21.875Q143.506 18.2129 143.506 13.6719Q143.506 10.5469 142.383 7.59277Q141.26 4.63867 138.867 2.24609L117.529-19.1406Q120.801-24.9512 122.583-31.5674Q124.365-38.1836 124.365-45.3613Q124.365-56.7383 120.093-66.6992Q115.82-76.6602 108.276-84.2041Q100.732-91.748 90.7715-96.0205Q80.8105-100.293 69.3848-100.293Q58.0078-100.293 48.0469-96.0205Q38.0859-91.748 30.542-84.2041Q22.998-76.6602 18.7256-66.6992Q14.4531-56.7383 14.4531-45.3613ZM37.0605-45.3613Q37.0605-52.0508 39.5752-57.9102Q42.0898-63.7695 46.5332-68.2129Q50.9766-72.6562 56.8359-75.1709Q62.6953-77.6855 69.3848-77.6855Q76.123-77.6855 81.9824-75.1709Q87.8418-72.6562 92.2852-68.2129Q96.7285-63.7695 99.2432-57.9102Q101.758-52.0508 101.758-45.3613Q101.758-38.623 99.2432-32.7637Q96.7285-26.9043 92.2852-22.4609Q87.8418-18.0176 81.9824-15.5273Q76.123-13.0371 69.3848-13.0371Q62.6953-13.0371 56.8359-15.5273Q50.9766-18.0176 46.5332-22.4609Q42.0898-26.9043 39.5752-32.7637Q37.0605-38.623 37.0605-45.3613Z"/>
  </g>
  <g id="Heavy-L" transform="matrix(1 0 0 1 2558.54 1556)">
   <path d="M14.4531-45.845Q14.4531-34.7076 18.6218-24.9886Q22.7905-15.2695 30.1617-7.89871Q37.5328-0.527954 47.2576 3.64075Q56.9824 7.80945 68.0824 7.80945Q75.1778 7.80945 81.7104 5.99213Q88.2431 4.1748 93.9476 0.891113L118.105 25.0221Q120.078 27.0317 122.678 28.0052Q125.279 28.9787 128.053 28.9787Q132.008 28.9787 135.133 27.1484Q138.258 25.3181 140.052 22.163Q141.846 19.0079 141.846 15.1123Q141.846 12.4138 140.879 9.88045Q139.912 7.34711 137.876 5.30014L114.014-18.6333Q117.69-24.5476 119.719-31.4404Q121.749-38.3331 121.749-45.845Q121.749-56.9572 117.575-66.6763Q113.4-76.3954 106.035-83.7662Q98.6694-91.1369 88.9446-95.306Q79.2198-99.4751 68.0824-99.4751Q56.9824-99.4751 47.2576-95.306Q37.5328-91.1369 30.1617-83.7662Q22.7905-76.3954 18.6218-66.6763Q14.4531-56.9572 14.4531-45.845ZM33.8799-45.845Q33.8799-52.9266 36.5444-59.1259Q39.209-65.3252 43.9056-70.0279Q48.6023-74.7307 54.8019-77.3895Q61.0016-80.0484 68.0824-80.0484Q75.1892-80.0484 81.3889-77.3895Q87.5885-74.7307 92.2909-70.0279Q96.9933-65.3252 99.6521-59.1259Q102.311-52.9266 102.311-45.845Q102.311-38.7383 99.6521-32.539Q96.9933-26.3397 92.2909-21.637Q87.5885-16.9342 81.3889-14.2941Q75.1892-11.6539 68.0824-11.6539Q61.0016-11.6539 54.8019-14.2941Q48.6023-16.9342 43.9056-21.637Q39.209-26.3397 36.5444-32.539Q33.8799-38.7383 33.8799-45.845Z"/>
  </g>
  <g id="Bold-L" transform="matrix(1 0 0 1 2262.76 1556)">
   <path d="M14.4531-46.3867Q14.4531-35.5713 18.5059-26.123Q22.5586-16.6748 29.7363-9.49707Q36.9141-2.31934 46.3745 1.7334Q55.835 5.78613 66.626 5.78613Q74.1211 5.78613 80.9692 3.71094Q87.8174 1.63574 93.6768-2.09961L120.605 24.8291Q122.217 26.4648 124.341 27.2705Q126.465 28.0762 128.735 28.0762Q131.982 28.0762 134.534 26.5747Q137.085 25.0732 138.538 22.4854Q139.99 19.8975 139.99 16.7236Q139.99 14.502 139.197 12.439Q138.403 10.376 136.768 8.71582L110.083-18.0664Q114.209-24.0967 116.516-31.2988Q118.823-38.501 118.823-46.3867Q118.823-57.2021 114.758-66.6504Q110.693-76.0986 103.528-83.2764Q96.3623-90.4541 86.9019-94.5068Q77.4414-98.5596 66.626-98.5596Q55.835-98.5596 46.3745-94.5068Q36.9141-90.4541 29.7363-83.2764Q22.5586-76.0986 18.5059-66.6504Q14.4531-57.2021 14.4531-46.3867ZM30.3223-46.3867Q30.3223-53.9062 33.1543-60.4858Q35.9863-67.0654 40.9668-72.0581Q45.9473-77.0508 52.5269-79.8706Q59.1064-82.6904 66.626-82.6904Q74.1455-82.6904 80.7251-79.8706Q87.3047-77.0508 92.2974-72.0581Q97.29-67.0654 100.11-60.4858Q102.93-53.9062 102.93-46.3867Q102.93-38.8672 100.11-32.2876Q97.29-25.708 92.2974-20.7153Q87.3047-15.7227 80.7251-12.915Q74.1455-10.1074 66.626-10.1074Q59.1064-10.1074 52.5269-12.915Q45.9473-15.7227 40.9668-20.7153Q35.9863-25.708 33.1543-32.2876Q30.3223-38.8672 30.3223-46.3867Z"/>
  </g>
  <g id="Semibold-L" transform="matrix(1 0 0 1 1966.68 1556)">
   <path d="M14.4531-46.7598Q14.4531-36.1664 18.4258-26.9051Q22.3984-17.6437 29.443-10.5991Q36.4876-3.55453 45.7657 0.418091Q55.0438 4.39072 65.6219 4.39072Q73.3925 4.39072 80.4585 2.13776Q87.5244-0.115204 93.4898-4.16107L122.33 24.6956Q123.692 26.0735 125.488 26.7639Q127.283 27.4544 129.206 27.4544Q131.965 27.4544 134.121 26.1795Q136.276 24.9046 137.494 22.7077Q138.711 20.5109 138.711 17.8345Q138.711 15.9416 138.037 14.2029Q137.363 12.4641 136.003 11.071L107.372-17.675Q111.81-23.7854 114.308-31.2008Q116.806-38.6162 116.806-46.7598Q116.806-57.3708 112.817-66.6325Q108.827-75.8942 101.799-82.9388Q94.7716-89.9834 85.4935-93.956Q76.2154-97.9286 65.6219-97.9286Q55.0438-97.9286 45.7657-93.956Q36.4876-89.9834 29.443-82.9388Q22.3984-75.8942 18.4258-66.6325Q14.4531-57.3708 14.4531-46.7598ZM27.8694-46.7598Q27.8694-54.5815 30.817-61.4235Q33.7646-68.2655 38.9404-73.4581Q44.1162-78.6507 50.9583-81.5815Q57.8003-84.5123 65.6219-84.5123Q73.4253-84.5123 80.2673-81.5815Q87.1094-78.6507 92.3019-73.4581Q97.4945-68.2655 100.425-61.4235Q103.356-54.5815 103.356-46.7598Q103.356-38.9557 100.425-32.114Q97.4945-25.2724 92.3019-20.0798Q87.1094-14.8872 80.2673-11.964Q73.4253-9.04083 65.6219-9.04083Q57.8003-9.04083 50.9583-11.964Q44.1162-14.8872 38.9404-20.0798Q33.7646-25.2724 30.817-32.114Q27.8694-38.9557 27.8694-46.7598Z"/>
  </g>
  <g id="Medium-L" transform="matrix(1 0 0 1 1670.46 1556)">
   <path d="M14.4531-47.0428Q14.4531-36.618 18.3651-27.4979Q22.2771-18.3777 29.2206-11.4346Q36.1641-4.49142 45.3041-0.579071Q54.4441 3.33328 64.8605 3.33328Q72.8401 3.33328 80.0709 0.945282Q87.3016-1.44272 93.3487-5.72433L123.637 24.5949Q124.811 25.7774 126.357 26.3798Q127.902 26.9821 129.563 26.9821Q131.951 26.9821 133.807 25.8793Q135.663 24.7765 136.702 22.876Q137.74 20.9755 137.74 18.6768Q137.74 17.0334 137.158 15.5407Q136.575 14.048 135.424 12.8563L105.317-17.379Q109.99-23.5497 112.633-31.1268Q115.276-38.7039 115.276-47.0428Q115.276-57.4989 111.344-66.6191Q107.412-75.7393 100.489-82.6828Q93.5654-89.6263 84.4254-93.5383Q75.2853-97.4503 64.8605-97.4503Q54.4441-97.4503 45.3041-93.5383Q36.1641-89.6263 29.2206-82.6828Q22.2771-75.7393 18.3651-66.6191Q14.4531-57.4989 14.4531-47.0428ZM26.0094-47.0428Q26.0094-55.0941 29.0447-62.1346Q32.0801-69.175 37.4043-74.519Q42.7284-79.863 49.7688-82.8785Q56.8092-85.894 64.8605-85.894Q72.8798-85.894 79.9202-82.8785Q86.9606-79.863 92.305-74.519Q97.6494-69.175 100.665-62.1346Q103.68-55.0941 103.68-47.0428Q103.68-39.0236 100.665-31.9828Q97.6494-24.942 92.305-19.598Q86.9606-14.254 79.9202-11.2431Q72.8798-8.23212 64.8605-8.23212Q56.8092-8.23212 49.7688-11.2431Q42.7284-14.254 37.4043-19.598Q32.0801-24.942 29.0447-31.9828Q26.0094-39.0236 26.0094-47.0428Z"/>
  </g>
  <g id="Regular-L" transform="matrix(1 0 0 1 1374.38 1556)">
   <path d="M14.4531-47.4121Q14.4531-37.207 18.2861-28.2715Q22.1191-19.3359 28.9307-12.5244Q35.7422-5.71289 44.7021-1.87988Q53.6621 1.95312 63.8672 1.95312Q72.1191 1.95312 79.5654-0.610352Q87.0117-3.17383 93.1641-7.76367L125.342 24.4629Q126.27 25.3906 127.49 25.8789Q128.711 26.3672 130.029 26.3672Q131.934 26.3672 133.398 25.4883Q134.863 24.6094 135.669 23.0957Q136.475 21.582 136.475 19.7754Q136.475 18.457 136.011 17.2852Q135.547 16.1133 134.668 15.1855L102.637-16.9922Q107.617-23.2422 110.449-31.0303Q113.281-38.8184 113.281-47.4121Q113.281-57.666 109.424-66.6016Q105.566-75.5371 98.7793-82.3486Q91.9922-89.1602 83.0322-92.9932Q74.0723-96.8262 63.8672-96.8262Q53.6621-96.8262 44.7021-92.9932Q35.7422-89.1602 28.9307-82.3486Q22.1191-75.5371 18.2861-66.6016Q14.4531-57.666 14.4531-47.4121ZM23.584-47.4121Q23.584-55.7617 26.7334-63.0615Q29.8828-70.3613 35.4004-75.9033Q40.918-81.4453 48.2178-84.5703Q55.5176-87.6953 63.8672-87.6953Q72.168-87.6953 79.4678-84.5703Q86.7676-81.4453 92.3096-75.9033Q97.8516-70.3613 100.977-63.0615Q104.102-55.7617 104.102-47.4121Q104.102-39.1113 100.977-31.8115Q97.8516-24.5117 92.3096-18.9697Q86.7676-13.4277 79.4678-10.3027Q72.168-7.17773 63.8672-7.17773Q55.5176-7.17773 48.2178-10.3027Q40.918-13.4277 35.4004-18.9697Q29.8828-24.5117 26.7334-31.8115Q23.584-39.1113 23.584-47.4121Z"/>
  </g>
  <g id="Light-L" transform="matrix(1 0 0 1 1078.4 1556)">
   <path d="M14.4531-47.8661Q14.4531-37.9036 18.203-29.1798Q21.9528-20.4559 28.5976-13.8111Q35.2425-7.16629 43.9831-3.41644Q52.7237 0.333405 62.6862 0.333405Q70.9991 0.333405 78.4908-2.33612Q85.9825-5.00565 92.0891-9.77707L125.796 24.0242Q126.542 24.7551 127.543 25.1827Q128.545 25.6104 129.636 25.6104Q131.268 25.6104 132.483 24.86Q133.698 24.1096 134.359 22.8535Q135.021 21.5973 135.021 20.1233Q135.021 19.0475 134.641 18.0874Q134.261 17.1272 133.502 16.3513L99.8817-17.3859Q105.029-23.5748 107.967-31.3934Q110.905-39.212 110.905-47.8661Q110.905-57.8476 107.138-66.5714Q103.371-75.2953 96.7434-81.9477Q90.1154-88.6002 81.3747-92.3424Q72.6341-96.0846 62.6862-96.0846Q52.7237-96.0846 43.9831-92.3424Q35.2425-88.6002 28.5976-81.9477Q21.9528-75.2953 18.203-66.5714Q14.4531-57.8476 14.4531-47.8661ZM21.3737-47.8661Q21.3737-56.4125 24.5991-63.8939Q27.8244-71.3753 33.4934-77.0611Q39.1624-82.7469 46.6515-85.9627Q54.1405-89.1785 62.6862-89.1785Q71.1838-89.1785 78.6728-85.9627Q86.1618-82.7469 91.8476-77.0611Q97.5334-71.3753 100.742-63.8939Q103.951-56.4125 103.951-47.8661Q103.951-39.3532 100.742-31.8718Q97.5334-24.3904 91.8476-18.697Q86.1618-13.0035 78.6728-9.79538Q71.1838-6.58722 62.6862-6.58722Q54.1405-6.58722 46.6515-9.79538Q39.1624-13.0035 33.4934-18.697Q27.8244-24.3904 24.5991-31.8718Q21.3737-39.3532 21.3737-47.8661Z"/>
  </g>
  <g id="Thin-L" transform="matrix(1 0 0 1 782.646 1556)">
   <path d="M14.4531-48.4665Q14.4531-38.8245 18.0927-30.381Q21.7323-21.9376 28.157-15.5128Q34.5818-9.08813 43.0321-5.44815Q51.4824-1.80817 61.1252-1.80817Q69.5175-1.80817 77.0695-4.61769Q84.6214-7.42722 90.6677-12.439L126.396 23.4436Q126.902 23.9143 127.613 24.2619Q128.324 24.6094 129.115 24.6094Q130.387 24.6094 131.272 24.0292Q132.156 23.4489 132.628 22.533Q133.1 21.6171 133.1 20.5841Q133.1 19.828 132.829 19.1483Q132.558 18.4685 131.961 17.8925L96.2387-17.9062Q101.606-24.0158 104.684-31.8741Q107.762-39.7324 107.762-48.4665Q107.762-58.0879 104.116-66.5314Q100.469-74.9748 94.051-81.4171Q87.6328-87.8593 79.1828-91.4814Q70.7329-95.1035 61.1252-95.1035Q51.4824-95.1035 43.0321-91.4814Q34.5818-87.8593 28.157-81.4171Q21.7323-74.9748 18.0927-66.5314Q14.4531-58.0879 14.4531-48.4665ZM18.4517-48.4665Q18.4517-57.2731 21.7766-64.9948Q25.1015-72.7165 30.9708-78.5927Q36.8401-84.4688 44.5793-87.8048Q52.3186-91.1407 61.1252-91.1407Q69.883-91.1407 77.6222-87.8048Q85.3615-84.4688 91.2373-78.5927Q97.113-72.7165 100.431-64.9948Q103.75-57.2731 103.75-48.4665Q103.75-39.6736 100.431-31.9519Q97.113-24.2302 91.2373-18.3369Q85.3615-12.4435 77.6222-9.12514Q69.883-5.80673 61.1252-5.80673Q52.3186-5.80673 44.5793-9.12514Q36.8401-12.4435 30.9708-18.3369Q25.1015-24.2302 21.7766-31.9519Q18.4517-39.6736 18.4517-48.4665Z"/>
  </g>
  <g id="Ultralight-L" transform="matrix(1 0 0 1 486.427 1556)">
   <path d="M14.4531-48.7747Q14.4531-39.296 18.0363-30.9959Q21.6194-22.6959 27.9316-16.3841Q34.2438-10.0723 42.5453-6.48918Q50.8469-2.90604 60.3249-2.90604Q68.7592-2.90604 76.3416-5.78728Q83.9241-8.66852 89.9399-13.8031L126.704 23.1461Q127.087 23.4833 127.649 23.79Q128.211 24.0967 128.849 24.0967Q129.935 24.0967 130.651 23.6038Q131.367 23.111 131.741 22.3694Q132.115 21.6278 132.115 20.8199Q132.115 20.2278 131.901 19.6918Q131.687 19.1559 131.171 18.6821L94.3718-18.1732Q99.852-24.2409 103.002-32.1201Q106.152-39.9994 106.152-48.7747Q106.152-58.2108 102.567-66.5108Q98.9822-74.8108 92.672-81.1455Q86.3617-87.4802 78.0602-91.0408Q69.7586-94.6014 60.3249-94.6014Q50.8469-94.6014 42.5453-91.0408Q34.2438-87.4802 27.9316-81.1455Q21.6194-74.8108 18.0363-66.5108Q14.4531-58.2108 14.4531-48.7747ZM16.954-48.7747Q16.954-57.7141 20.3304-65.559Q23.7068-73.4039 29.6787-79.3774Q35.6506-85.3508 43.5181-88.7482Q51.3855-92.1455 60.3249-92.1455Q69.2162-92.1455 77.0836-88.7482Q84.951-85.3508 90.9245-79.3774Q96.8979-73.4039 100.273-65.559Q103.648-57.7141 103.648-48.7747Q103.648-39.8376 100.273-31.9931Q96.8979-24.1486 90.9245-18.1522Q84.951-12.1559 77.0836-8.78143Q69.2162-5.40695 60.3249-5.40695Q51.3855-5.40695 43.5181-8.78143Q35.6506-12.1559 29.6787-18.1522Q23.7068-24.1486 20.3304-31.9931Q16.954-39.8376 16.954-48.7747Z"/>
  </g>
  <g id="Black-M" transform="matrix(1 0 0 1 2871.71 1126)">
   <path d="M11.2305-42.8223Q11.2305-33.8379 14.5996-25.9766Q17.9688-18.1152 23.9014-12.1582Q29.834-6.20117 37.6953-2.85645Q45.5566 0.488281 54.541 0.488281Q59.4727 0.488281 64.0869-0.561523Q68.7012-1.61133 72.8516-3.56445L88.0371 11.6211Q90.0391 13.623 92.7002 14.5996Q95.3613 15.5762 98.1445 15.5762Q102.148 15.5762 105.322 13.7207Q108.496 11.8652 110.327 8.69141Q112.158 5.51758 112.158 1.5625Q112.158-1.17188 111.182-3.73535Q110.205-6.29883 108.105-8.39844L93.2129-23.3398Q95.4102-27.6855 96.6309-32.6172Q97.8516-37.5488 97.8516-42.8223Q97.8516-51.7578 94.4824-59.6191Q91.1133-67.4805 85.1562-73.4375Q79.1992-79.3945 71.3623-82.7393Q63.5254-86.084 54.541-86.084Q45.5566-86.084 37.6953-82.7393Q29.834-79.3945 23.9014-73.4375Q17.9688-67.4805 14.5996-59.6191Q11.2305-51.7578 11.2305-42.8223ZM30.7129-42.8223Q30.7129-47.7051 32.5684-52.0264Q34.4238-56.3477 37.6953-59.6191Q40.9668-62.8906 45.2881-64.7461Q49.6094-66.6016 54.541-66.6016Q59.4727-66.6016 63.7939-64.7461Q68.1152-62.8906 71.3867-59.6191Q74.6582-56.3477 76.4893-52.0264Q78.3203-47.7051 78.3203-42.8223Q78.3203-37.8906 76.4893-33.5693Q74.6582-29.248 71.3867-25.9766Q68.1152-22.7051 63.7939-20.8496Q59.4727-18.9941 54.541-18.9941Q49.6094-18.9941 45.2881-20.8496Q40.9668-22.7051 37.6953-25.9766Q34.4238-29.248 32.5684-33.5693Q30.7129-37.8906 30.7129-42.8223Z"/>
  </g>
  <g id="Heavy-M" transform="matrix(1 0 0 1 2575.65 1126)">
   <path d="M11.2305-43.2022Q11.2305-34.4368 14.5191-26.7658Q17.8078-19.0948 23.6076-13.2759Q29.4075-7.45697 37.0789-4.18739Q44.7502-0.917816 53.5156-0.917816Q58.7814-0.917816 63.6665-2.18086Q68.5516-3.44391 72.8516-5.74265L90.123 11.5402Q91.8602 13.266 94.141 14.1098Q96.4218 14.9536 98.8243 14.9536Q102.275 14.9536 105 13.3575Q107.724 11.7615 109.29 9.02557Q110.856 6.28967 110.856 2.88773Q110.856 0.522614 110.012-1.67809Q109.168-3.87878 107.379-5.66711L90.3664-22.7524Q92.9321-27.2247 94.3661-32.4097Q95.8-37.5946 95.8-43.2022Q95.8-51.931 92.5117-59.602Q89.2235-67.2729 83.4045-73.0919Q77.5856-78.9108 69.9333-82.1804Q62.281-85.45 53.5156-85.45Q44.7502-85.45 37.0789-82.1804Q29.4075-78.9108 23.6076-73.0919Q17.8078-67.2729 14.5191-59.602Q11.2305-51.931 11.2305-43.2022ZM28.0853-43.2022Q28.0853-48.4314 30.0617-53.0407Q32.0381-57.65 35.5343-61.1462Q39.0305-64.6423 43.6401-66.6187Q48.2498-68.5951 53.5156-68.5951Q58.7814-68.5951 63.3907-66.6187Q68-64.6423 71.4905-61.1462Q74.9809-57.65 76.9444-53.0407Q78.9078-48.4314 78.9078-43.2022Q78.9078-37.9364 76.9444-33.3271Q74.9809-28.7178 71.4905-25.2274Q68-21.7369 63.3907-19.7548Q58.7814-17.7727 53.5156-17.7727Q48.2498-17.7727 43.6401-19.7548Q39.0305-21.7369 35.5343-25.2274Q32.0381-28.7178 30.0617-33.3271Q28.0853-37.9364 28.0853-43.2022Z"/>
  </g>
  <g id="Bold-M" transform="matrix(1 0 0 1 2279.66 1126)">
   <path d="M11.2305-43.6279Q11.2305-35.1074 14.4287-27.6489Q17.627-20.1904 23.2788-14.5264Q28.9307-8.8623 36.3892-5.67627Q43.8477-2.49023 52.3682-2.49023Q58.0078-2.49023 63.1958-3.9917Q68.3838-5.49316 72.8516-8.17871L92.4561 11.4502Q93.8965 12.8662 95.752 13.562Q97.6074 14.2578 99.585 14.2578Q102.417 14.2578 104.639 12.9517Q106.86 11.6455 108.13 9.39941Q109.399 7.15332 109.399 4.37012Q109.399 2.41699 108.704 0.622559Q108.008-1.17188 106.567-2.6123L87.1826-22.0947Q90.1611-26.709 91.8335-32.1777Q93.5059-37.6465 93.5059-43.6279Q93.5059-52.124 90.3076-59.5825Q87.1094-67.041 81.4453-72.7051Q75.7812-78.3691 68.335-81.5552Q60.8887-84.7412 52.3682-84.7412Q43.8477-84.7412 36.3892-81.5552Q28.9307-78.3691 23.2788-72.7051Q17.627-67.041 14.4287-59.5825Q11.2305-52.124 11.2305-43.6279ZM25.1465-43.6279Q25.1465-49.2432 27.2583-54.1748Q29.3701-59.1064 33.1177-62.854Q36.8652-66.6016 41.7969-68.7134Q46.7285-70.8252 52.3682-70.8252Q58.0078-70.8252 62.9395-68.7134Q67.8711-66.6016 71.6064-62.854Q75.3418-59.1064 77.4536-54.1748Q79.5654-49.2432 79.5654-43.6279Q79.5654-37.9883 77.4536-33.0566Q75.3418-28.125 71.6064-24.3896Q67.8711-20.6543 62.9395-18.5303Q58.0078-16.4062 52.3682-16.4062Q46.7285-16.4062 41.7969-18.5303Q36.8652-20.6543 33.1177-24.3896Q29.3701-28.125 27.2583-33.0566Q25.1465-37.9883 25.1465-43.6279Z"/>
  </g>
  <g id="Semibold-M" transform="matrix(1 0 0 1 1983.45 1126)">
   <path d="M11.2305-43.9209Q11.2305-35.5698 14.3665-28.2578Q17.5026-20.9457 23.0522-15.3885Q28.6018-9.83124 35.9138-6.7028Q43.2259-3.57437 51.577-3.57437Q57.4745-3.57437 62.8716-5.24025Q68.2686-6.90613 72.8516-9.8587L94.0643 11.3876Q95.3003 12.5908 96.8628 13.1844Q98.4253 13.7779 100.109 13.7779Q102.515 13.7779 104.39 12.6717Q106.265 11.5654 107.33 9.65691Q108.395 7.74841 108.395 5.39246Q108.395 3.72314 107.802 2.20871Q107.208 0.694275 106.007-0.505829L84.9876-21.6415Q88.2507-26.3535 90.0875-32.0179Q91.9243-37.6823 91.9243-43.9209Q91.9243-52.2575 88.7882-59.5692Q85.6522-66.8808 80.0945-72.4384Q74.5369-77.9961 67.2329-81.1241Q59.9289-84.2522 51.577-84.2522Q43.2259-84.2522 35.9138-81.1241Q28.6018-77.9961 23.0522-72.4384Q17.5026-66.8808 14.3665-59.5692Q11.2305-52.2575 11.2305-43.9209ZM23.1201-43.9209Q23.1201-49.8032 25.3254-54.9568Q27.5307-60.1105 31.4514-64.0316Q35.3722-67.9527 40.5258-70.1576Q45.6795-72.3625 51.577-72.3625Q57.4745-72.3625 62.6286-70.1576Q67.7826-67.9527 71.6866-64.0316Q75.5905-60.1105 77.8046-54.9568Q80.0186-49.8032 80.0186-43.9209Q80.0186-38.0241 77.8046-32.8701Q75.5905-27.7161 71.6866-23.8121Q67.7826-19.9081 62.6286-17.6861Q57.4745-15.464 51.577-15.464Q45.6795-15.464 40.5258-17.6861Q35.3722-19.9081 31.4514-23.8121Q27.5307-27.7161 25.3254-32.8701Q23.1201-38.0241 23.1201-43.9209Z"/>
  </g>
  <g id="Medium-M" transform="matrix(1 0 0 1 1687.12 1126)">
   <path d="M11.2305-44.1437Q11.2305-35.92 14.3192-28.7193Q17.408-21.5187 22.8802-16.0419Q28.3524-10.5652 35.553-7.481Q42.7536-4.39682 50.9773-4.39682Q57.0702-4.39682 62.6255-6.18706Q68.1808-7.97729 72.8516-11.132L95.2843 11.3411Q96.3654 12.3817 97.7051 12.8979Q99.0448 13.414 100.507 13.414Q102.589 13.414 104.201 12.4596Q105.814 11.5051 106.724 9.8526Q107.634 8.20007 107.634 6.16684Q107.634 4.7142 107.118 3.41187Q106.602 2.10953 105.583 1.091L83.3229-21.2975Q86.8019-26.0841 88.763-31.8966Q90.7242-37.709 90.7242-44.1437Q90.7242-52.3582 87.6354-59.5589Q84.5467-66.7595 79.0703-72.2363Q73.5939-77.713 66.3975-80.7976Q59.201-83.8821 50.9773-83.8821Q42.7536-83.8821 35.553-80.7976Q28.3524-77.713 22.8802-72.2363Q17.408-66.7595 14.3192-59.5589Q11.2305-52.3582 11.2305-44.1437ZM21.5836-44.1437Q21.5836-50.2274 23.8598-55.5496Q26.136-60.8719 30.188-64.9242Q34.24-68.9766 39.5622-71.2524Q44.8845-73.5283 50.9773-73.5283Q57.0702-73.5283 62.3924-71.2524Q67.7147-68.9766 71.7468-64.9242Q75.779-60.8719 78.0708-55.5496Q80.3627-50.2274 80.3627-44.1437Q80.3627-38.0508 78.0708-32.7286Q75.779-27.4063 71.7468-23.3742Q67.7147-19.342 62.3924-17.046Q57.0702-14.7499 50.9773-14.7499Q44.8845-14.7499 39.5622-17.046Q34.24-19.342 30.188-23.3742Q26.136-27.4063 23.8598-32.7286Q21.5836-38.0508 21.5836-44.1437Z"/>
  </g>
  <g id="Regular-M" transform="matrix(1 0 0 1 1390.91 1126)">
   <path d="M11.2305-44.4336Q11.2305-36.377 14.2578-29.3213Q17.2852-22.2656 22.6562-16.8945Q28.0273-11.5234 35.083-8.49609Q42.1387-5.46875 50.1953-5.46875Q56.543-5.46875 62.3047-7.42188Q68.0664-9.375 72.8516-12.793L96.875 11.2793Q97.7539 12.1094 98.8037 12.5244Q99.8535 12.9395 101.025 12.9395Q102.686 12.9395 103.955 12.1826Q105.225 11.4258 105.933 10.1074Q106.641 8.78906 106.641 7.17773Q106.641 6.00586 106.226 4.98047Q105.811 3.95508 105.029 3.17383L81.1523-20.8496Q84.9121-25.7324 87.0361-31.7383Q89.1602-37.7441 89.1602-44.4336Q89.1602-52.4902 86.1328-59.5459Q83.1055-66.6016 77.7344-71.9727Q72.3633-77.3438 65.3076-80.3711Q58.252-83.3984 50.1953-83.3984Q42.1387-83.3984 35.083-80.3711Q28.0273-77.3438 22.6562-71.9727Q17.2852-66.6016 14.2578-59.5459Q11.2305-52.4902 11.2305-44.4336ZM19.5801-44.4336Q19.5801-50.7812 21.9482-56.3232Q24.3164-61.8652 28.54-66.0889Q32.7637-70.3125 38.3057-72.6807Q43.8477-75.0488 50.1953-75.0488Q56.543-75.0488 62.085-72.6807Q67.627-70.3125 71.8262-66.0889Q76.0254-61.8652 78.418-56.3232Q80.8105-50.7812 80.8105-44.4336Q80.8105-38.0859 78.418-32.5439Q76.0254-27.002 71.8262-22.8027Q67.627-18.6035 62.085-16.2109Q56.543-13.8184 50.1953-13.8184Q43.8477-13.8184 38.3057-16.2109Q32.7637-18.6035 28.54-22.8027Q24.3164-27.002 21.9482-32.5439Q19.5801-38.0859 19.5801-44.4336Z"/>
  </g>
  <g id="Light-M" transform="matrix(1 0 0 1 1094.85 1126)">
   <path d="M11.2305-44.8273Q11.2305-36.9972 14.1823-30.1384Q17.1341-23.2796 22.3537-18.0523Q27.5734-12.825 34.4398-9.87358Q41.3063-6.92215 49.1356-6.92215Q55.5443-6.92215 61.3438-8.96606Q67.1432-11.01 71.8826-14.6095L97.2992 10.8856Q97.9813 11.5341 98.8419 11.8961Q99.7025 12.2581 100.677 12.2581Q102.08 12.2581 103.13 11.6226Q104.18 10.9871 104.76 9.89571Q105.339 8.80432 105.339 7.49588Q105.339 6.5506 104.992 5.71442Q104.645 4.87823 103.985 4.21829L78.685-21.2128Q82.5966-26.0353 84.8186-32.0713Q87.0407-38.1073 87.0407-44.8273Q87.0407-52.6566 84.0893-59.523Q81.1378-66.3895 75.9106-71.6091Q70.6833-76.8288 63.8245-79.7806Q56.9656-82.7324 49.1356-82.7324Q41.3063-82.7324 34.4398-79.7806Q27.5734-76.8288 22.3537-71.6091Q17.1341-66.3895 14.1823-59.523Q11.2305-52.6566 11.2305-44.8273ZM17.5972-44.8273Q17.5972-51.3565 20.0409-57.0648Q22.4846-62.7731 26.8372-67.1257Q31.1897-71.4783 36.898-73.9296Q42.6064-76.3809 49.1356-76.3809Q55.6648-76.3809 61.3735-73.9296Q67.0822-71.4783 71.4176-67.1257Q75.753-62.7731 78.2135-57.0648Q80.674-51.3565 80.674-44.8273Q80.674-38.3133 78.2135-32.597Q75.753-26.8806 71.4176-22.5529Q67.0822-18.2251 61.3735-15.757Q55.6648-13.2889 49.1356-13.2889Q42.6064-13.2889 36.898-15.757Q31.1897-18.2251 26.8372-22.5529Q22.4846-26.8806 20.0409-32.597Q17.5972-38.3133 17.5972-44.8273Z"/>
  </g>
  <g id="Thin-M" transform="matrix(1 0 0 1 798.998 1126)">
   <path d="M11.2305-45.3476Q11.2305-37.8181 14.082-31.2195Q16.9334-24.6208 21.9532-19.5839Q26.973-14.547 33.5892-11.6955Q40.2054-8.84399 47.7348-8.84399Q54.2229-8.84399 60.0723-11.0077Q65.9218-13.1714 70.6017-17.0113L97.8592 10.3653Q98.2811 10.7735 98.8914 11.0653Q99.5018 11.3571 100.217 11.3571Q101.279 11.3571 102.039 10.8818Q102.799 10.4065 103.208 9.61533Q103.617 8.82416 103.617 7.91626Q103.617 7.27158 103.36 6.68564Q103.104 6.0997 102.604 5.59921L75.4219-21.6934Q79.5334-26.4359 81.8859-32.5119Q84.2384-38.588 84.2384-45.3476Q84.2384-52.877 81.3869-59.4933Q78.5355-66.1095 73.4982-71.1288Q68.4608-76.1482 61.8622-79.0001Q55.2635-81.852 47.7348-81.852Q40.2054-81.852 33.5892-79.0001Q26.973-76.1482 21.9532-71.1288Q16.9334-66.1095 14.082-59.4933Q11.2305-52.877 11.2305-45.3476ZM14.975-45.3476Q14.975-52.1172 17.519-58.046Q20.063-63.9748 24.5853-68.4971Q29.1077-73.0194 35.0365-75.581Q40.9653-78.1425 47.7348-78.1425Q54.5036-78.1425 60.4324-75.581Q66.3612-73.0194 70.8771-68.4971Q75.3929-63.9748 77.9434-58.046Q80.4939-52.1172 80.4939-45.3476Q80.4939-38.6131 77.9434-32.6668Q75.3929-26.7204 70.8771-22.2225Q66.3612-17.7246 60.4324-15.1562Q54.5036-12.5877 47.7348-12.5877Q40.9653-12.5877 35.0365-15.1562Q29.1077-17.7246 24.5853-22.2225Q20.063-26.7204 17.519-32.6668Q14.975-38.6131 14.975-45.3476Z"/>
  </g>
  <g id="Ultralight-M" transform="matrix(1 0 0 1 502.728 1126)">
   <path d="M11.2305-45.6146Q11.2305-38.2385 14.0308-31.7734Q16.8312-25.3082 21.748-20.3686Q26.6647-15.4289 33.1528-12.6286Q39.6408-9.82819 47.0169-9.82819Q53.5461-9.82819 59.4212-12.0537Q65.2962-14.2792 69.9455-18.2419L98.1468 10.0983Q98.4352 10.3836 98.9174 10.64Q99.3996 10.8963 99.9809 10.8963Q100.869 10.8963 101.48 10.5026Q102.091 10.1089 102.413 9.47189Q102.735 8.83484 102.735 8.13141Q102.735 7.64084 102.525 7.18307Q102.314 6.72531 101.896 6.30722L73.7503-21.9391Q77.9648-26.6403 80.3837-32.737Q82.8026-38.8336 82.8026-45.6146Q82.8026-52.99 80.0022-59.478Q77.2018-65.966 72.2622-70.8828Q67.3225-75.7996 60.8574-78.5999Q54.3922-81.4003 47.0169-81.4003Q39.6408-81.4003 33.1528-78.5999Q26.6647-75.7996 21.748-70.8828Q16.8312-65.966 14.0308-59.478Q11.2305-52.99 11.2305-45.6146ZM13.6314-45.6146Q13.6314-52.507 16.2266-58.5484Q18.8217-64.5897 23.4314-69.1994Q28.0411-73.8091 34.0824-76.4271Q40.1237-79.0451 47.0169-79.0451Q53.9093-79.0451 59.9506-76.4271Q65.992-73.8091 70.6001-69.1994Q75.2083-64.5897 77.8049-58.5484Q80.4016-52.507 80.4016-45.6146Q80.4016-38.7672 77.8049-32.703Q75.2083-26.6388 70.6001-22.0535Q65.992-17.4683 59.9506-14.8487Q53.9093-12.2292 47.0169-12.2292Q40.1237-12.2292 34.0824-14.8487Q28.0411-17.4683 23.4314-22.0535Q18.8217-26.6388 16.2266-32.703Q13.6314-38.7672 13.6314-45.6146Z"/>
  </g>
  <g id="Black-S" transform="matrix(1 0 0 1 2884.91 696)">
   <path d="M8.78906-41.0645Q8.78906-33.9844 11.4502-27.7832Q14.1113-21.582 18.7988-16.8945Q23.4863-12.207 29.6875-9.5459Q35.8887-6.88477 42.9688-6.88477Q46.7285-6.88477 50.2686-7.66602Q53.8086-8.44727 57.0312-9.86328L68.3594 1.46484Q70.0195 3.125 72.1924 3.93066Q74.3652 4.73633 76.6602 4.73633Q81.5918 4.73633 84.8877 1.41602Q88.1836-1.9043 88.1836-6.78711Q88.1836-9.0332 87.3779-11.1572Q86.5723-13.2812 84.8633-14.9902L73.7305-26.123Q75.3906-29.4922 76.2695-33.2764Q77.1484-37.0605 77.1484-41.0645Q77.1484-48.1445 74.4873-54.3457Q71.8262-60.5469 67.1387-65.2344Q62.4512-69.9219 56.25-72.583Q50.0488-75.2441 42.9688-75.2441Q35.8887-75.2441 29.6875-72.583Q23.4863-69.9219 18.7988-65.2344Q14.1113-60.5469 11.4502-54.3457Q8.78906-48.1445 8.78906-41.0645ZM24.7559-41.0645Q24.7559-44.8242 26.1719-48.1201Q27.5879-51.416 30.1025-53.9307Q32.6172-56.4453 35.9131-57.8613Q39.209-59.2773 42.9688-59.2773Q46.7285-59.2773 50.0244-57.8613Q53.3203-56.4453 55.835-53.9307Q58.3496-51.416 59.7656-48.1201Q61.1816-44.8242 61.1816-41.0645Q61.1816-37.3047 59.7656-34.0088Q58.3496-30.7129 55.835-28.1982Q53.3203-25.6836 50.0244-24.2676Q46.7285-22.8516 42.9688-22.8516Q39.209-22.8516 35.9131-24.2676Q32.6172-25.6836 30.1025-28.1982Q27.5879-30.7129 26.1719-34.0088Q24.7559-37.3047 24.7559-41.0645Z"/>
  </g>
  <g id="Heavy-S" transform="matrix(1 0 0 1 2588.68 696)">
   <path d="M8.78906-41.3414Q8.78906-34.4223 11.3926-28.3535Q13.9961-22.2847 18.5856-17.6952Q23.175-13.1058 29.2381-10.508Q35.3012-7.91016 42.231-7.91016Q46.2677-7.91016 50.0324-8.85277Q53.7971-9.79538 57.1465-11.4998L70.0882 1.4534Q71.5408 2.89459 73.42 3.59077Q75.2991 4.28696 77.2827 4.28696Q81.5575 4.28696 84.3979 1.41602Q87.2383-1.45493 87.2383-5.69229Q87.2383-7.64999 86.5364-9.48601Q85.8345-11.322 84.3796-12.7892L71.6103-25.5699Q73.558-29.0543 74.6098-33.0574Q75.6615-37.0605 75.6615-41.3414Q75.6615-48.2712 73.0579-54.3343Q70.4544-60.3973 65.8707-64.9868Q61.2869-69.5763 55.2185-72.1798Q49.1501-74.7833 42.231-74.7833Q35.3012-74.7833 29.2381-72.1798Q23.175-69.5763 18.5856-64.9868Q13.9961-60.3973 11.3926-54.3343Q8.78906-48.2712 8.78906-41.3414ZM22.7623-41.3414Q22.7623-45.3659 24.2702-48.8922Q25.7782-52.4185 28.466-55.1003Q31.1539-57.782 34.6802-59.296Q38.2065-60.8101 42.231-60.8101Q46.2563-60.8101 49.7768-59.296Q53.2974-57.782 55.9849-55.1003Q58.6723-52.4185 60.1864-48.8922Q61.7004-45.3659 61.7004-41.3414Q61.7004-37.3161 60.1864-33.7955Q58.6723-30.275 55.9849-27.5875Q53.2974-24.9001 49.7768-23.386Q46.2563-21.8719 42.231-21.8719Q38.2065-21.8719 34.6802-23.386Q31.1539-24.9001 28.466-27.5875Q25.7782-30.275 24.2702-33.7955Q22.7623-37.3161 22.7623-41.3414Z"/>
  </g>
  <g id="Bold-S" transform="matrix(1 0 0 1 2292.49 696)">
   <path d="M8.78906-41.6504Q8.78906-34.9121 11.3281-28.9917Q13.8672-23.0713 18.3472-18.5913Q22.8271-14.1113 28.7354-11.5845Q34.6436-9.05762 41.4062-9.05762Q45.752-9.05762 49.7681-10.1807Q53.7842-11.3037 57.2754-13.3301L72.0215 1.44043Q73.2422 2.63672 74.7925 3.21045Q76.3428 3.78418 77.9785 3.78418Q81.5186 3.78418 83.8501 1.41602Q86.1816-0.952148 86.1816-4.46777Q86.1816-6.10352 85.5957-7.61719Q85.0098-9.13086 83.8379-10.3271L69.2383-24.9512Q71.5088-28.5645 72.7539-32.8125Q73.999-37.0605 73.999-41.6504Q73.999-48.4131 71.46-54.3213Q68.9209-60.2295 64.4531-64.7095Q59.9854-69.1895 54.0649-71.7285Q48.1445-74.2676 41.4062-74.2676Q34.6436-74.2676 28.7354-71.7285Q22.8271-69.1895 18.3472-64.7095Q13.8672-60.2295 11.3281-54.3213Q8.78906-48.4131 8.78906-41.6504ZM20.5322-41.6504Q20.5322-45.9717 22.1436-49.7559Q23.7549-53.54 26.6357-56.4087Q29.5166-59.2773 33.3008-60.9009Q37.085-62.5244 41.4062-62.5244Q45.7275-62.5244 49.4995-60.9009Q53.2715-59.2773 56.1523-56.4087Q59.0332-53.54 60.6567-49.7559Q62.2803-45.9717 62.2803-41.6504Q62.2803-37.3291 60.6567-33.5571Q59.0332-29.7852 56.1523-26.9043Q53.2715-24.0234 49.4995-22.3999Q45.7275-20.7764 41.4062-20.7764Q37.085-20.7764 33.3008-22.3999Q29.5166-24.0234 26.6357-26.9043Q23.7549-29.7852 22.1436-33.5571Q20.5322-37.3291 20.5322-41.6504Z"/>
  </g>
  <g id="Semibold-S" transform="matrix(1 0 0 1 1996.15 696)">
   <path d="M8.78906-41.864Q8.78906-35.2501 11.2839-29.4319Q13.7787-23.6137 18.1828-19.2093Q22.5868-14.8048 28.3886-12.3268Q34.1904-9.84879 40.8379-9.84879Q45.3964-9.84879 49.5857-11.0962Q53.775-12.3436 57.3639-14.592L73.3543 1.43127Q74.4156 2.45895 75.7393 2.94838Q77.063 3.43781 78.4584 3.43781Q81.4919 3.43781 83.4724 1.41602Q85.453-0.605774 85.453-3.6232Q85.453-5.03693 84.9472-6.32858Q84.4414-7.62024 83.4648-8.62961L67.6033-24.5247Q70.0958-28.2265 71.4741-32.6435Q72.8523-37.0605 72.8523-41.864Q72.8523-48.5107 70.3579-54.3125Q67.8635-60.1143 63.4758-64.5187Q59.0881-68.9232 53.2696-71.4176Q47.451-73.912 40.8379-73.912Q34.1904-73.912 28.3886-71.4176Q22.5868-68.9232 18.1828-64.5187Q13.7787-60.1143 11.2839-54.3125Q8.78906-48.5107 8.78906-41.864ZM18.9949-41.864Q18.9949-46.389 20.6772-50.351Q22.3595-54.3129 25.3738-57.3105Q28.3882-60.3081 32.3502-62.0071Q36.3121-63.7062 40.8379-63.7062Q45.3629-63.7062 49.3084-62.0071Q53.2539-60.3081 56.2679-57.3105Q59.2819-54.3129 60.981-50.351Q62.6801-46.389 62.6801-41.864Q62.6801-37.3383 60.981-33.3927Q59.2819-29.4472 56.2679-26.4332Q53.2539-23.4192 49.3084-21.7201Q45.3629-20.0211 40.8379-20.0211Q36.3121-20.0211 32.3502-21.7201Q28.3882-23.4192 25.3738-26.4332Q22.3595-29.4472 20.6772-33.3927Q18.9949-37.3383 18.9949-41.864Z"/>
  </g>
  <g id="Medium-S" transform="matrix(1 0 0 1 1699.71 696)">
   <path d="M8.78906-42.0258Q8.78906-35.5057 11.2499-29.7649Q13.7108-24.0242 18.058-19.677Q22.4052-15.3297 28.1258-12.8891Q33.8463-10.4485 40.406-10.4485Q45.1271-10.4485 49.448-11.7901Q53.7689-13.1317 57.4318-15.5487L74.3652 1.42517Q75.3044 2.32391 76.4565 2.74925Q77.6085 3.17459 78.8223 3.17459Q81.472 3.17459 83.1863 1.41602Q84.9007-0.34256 84.9007-2.98309Q84.9007-4.22821 84.4551-5.35126Q84.0096-6.4743 83.1818-7.34253L66.3635-24.2012Q69.0247-27.9709 70.504-32.5157Q71.9833-37.0605 71.9833-42.0258Q71.9833-48.5847 69.5225-54.3056Q67.0616-60.0266 62.7342-64.3738Q58.4068-68.721 52.6665-71.1819Q46.9261-73.6427 40.406-73.6427Q33.8463-73.6427 28.1258-71.1819Q22.4052-68.721 18.058-64.3738Q13.7108-60.0266 11.2499-54.3056Q8.78906-48.5847 8.78906-42.0258ZM17.8291-42.0258Q17.8291-46.7064 19.5656-50.803Q21.302-54.8996 24.4171-57.9948Q27.5322-61.0901 31.6288-62.8464Q35.7254-64.6027 40.406-64.6027Q45.0867-64.6027 49.1634-62.8464Q53.2402-61.0901 56.3553-57.9948Q59.4704-54.8996 61.227-50.803Q62.9837-46.7064 62.9837-42.0258Q62.9837-37.3444 61.227-33.268Q59.4704-29.1916 56.3553-26.0761Q53.2402-22.9607 49.1634-21.2044Q45.0867-19.4481 40.406-19.4481Q35.7254-19.4481 31.6288-21.2044Q27.5322-22.9607 24.4171-26.0761Q21.302-29.1916 19.5656-33.268Q17.8291-37.3444 17.8291-42.0258Z"/>
  </g>
  <g id="Regular-S" transform="matrix(1 0 0 1 1403.36 696)">
   <path d="M8.78906-42.2363Q8.78906-35.8398 11.2061-30.2002Q13.623-24.5605 17.8955-20.2881Q22.168-16.0156 27.7832-13.623Q33.3984-11.2305 39.8438-11.2305Q44.7754-11.2305 49.2676-12.6953Q53.7598-14.1602 57.5195-16.7969L75.6836 1.41602Q76.4648 2.14844 77.3926 2.49023Q78.3203 2.83203 79.2969 2.83203Q81.4453 2.83203 82.8125 1.41602Q84.1797 0 84.1797-2.14844Q84.1797-3.17383 83.8135-4.07715Q83.4473-4.98047 82.8125-5.66406L64.7461-23.7793Q67.627-27.6367 69.2383-32.3486Q70.8496-37.0605 70.8496-42.2363Q70.8496-48.6816 68.4326-54.2969Q66.0156-59.9121 61.7676-64.1846Q57.5195-68.457 51.8799-70.874Q46.2402-73.291 39.8438-73.291Q33.3984-73.291 27.7832-70.874Q22.168-68.457 17.8955-64.1846Q13.623-59.9121 11.2061-54.2969Q8.78906-48.6816 8.78906-42.2363ZM16.3086-42.2363Q16.3086-47.1191 18.1152-51.3916Q19.9219-55.6641 23.1689-58.8867Q26.416-62.1094 30.6885-63.9404Q34.9609-65.7715 39.8438-65.7715Q44.7266-65.7715 48.9746-63.9404Q53.2227-62.1094 56.4697-58.8867Q59.7168-55.6641 61.5479-51.3916Q63.3789-47.1191 63.3789-42.2363Q63.3789-37.3535 61.5479-33.1055Q59.7168-28.8574 56.4697-25.6104Q53.2227-22.3633 48.9746-20.5322Q44.7266-18.7012 39.8438-18.7012Q34.9609-18.7012 30.6885-20.5322Q26.416-22.3633 23.1689-25.6104Q19.9219-28.8574 18.1152-33.1055Q16.3086-37.3535 16.3086-42.2363Z"/>
  </g>
  <g id="Light-S" transform="matrix(1 0 0 1 1107.23 696)">
   <path d="M8.78906-42.5995Q8.78906-36.3846 11.1378-30.9265Q13.4865-25.4684 17.6304-21.3173Q21.7743-17.1661 27.2156-14.8415Q32.6569-12.5168 38.9053-12.5168Q43.8972-12.5168 48.42-14.0652Q52.9427-15.6136 56.6719-18.3861L76.062 1.05286Q76.6769 1.64871 77.4303 1.93748Q78.1837 2.22626 78.994 2.22626Q80.7945 2.22626 81.9042 1.04485Q83.0139-0.136566 83.0139-1.87607Q83.0139-2.70462 82.716-3.43399Q82.4181-4.16336 81.8893-4.74091L62.5664-24.0974Q65.5838-27.9091 67.2783-32.6439Q68.9728-37.3787 68.9728-42.5995Q68.9728-48.8327 66.6313-54.274Q64.2899-59.7153 60.1631-63.8668Q56.0364-68.0183 50.5707-70.3594Q45.105-72.7005 38.9053-72.7005Q32.6569-72.7005 27.2156-70.3594Q21.7743-68.0183 17.6304-63.8668Q13.4865-59.7153 11.1378-54.274Q8.78906-48.8327 8.78906-42.5995ZM14.5378-42.5995Q14.5378-47.6341 16.42-52.0504Q18.3022-56.4667 21.6629-59.8103Q25.0237-63.1538 29.4399-65.0532Q33.8562-66.9525 38.9053-66.9525Q43.9392-66.9525 48.3387-65.0532Q52.7382-63.1538 56.0989-59.8103Q59.4597-56.4667 61.3586-52.0504Q63.2576-47.6341 63.2576-42.5995Q63.2576-37.5504 61.3586-33.1509Q59.4597-28.7514 56.0989-25.391Q52.7382-22.0306 48.3387-20.1313Q43.9392-18.232 38.9053-18.232Q33.8562-18.232 29.4399-20.1313Q25.0237-22.0306 21.6629-25.391Q18.3022-28.7514 16.42-33.1509Q14.5378-37.5504 14.5378-42.5995Z"/>
  </g>
  <g id="Thin-S" transform="matrix(1 0 0 1 811.291 696)">
   <path d="M8.78906-43.0801Q8.78906-37.1056 11.0477-31.8878Q13.3064-26.6701 17.2802-22.6788Q21.254-18.6874 26.4648-16.4532Q31.6757-14.2189 37.664-14.2189Q42.7361-14.2189 47.2988-15.8772Q51.8616-17.5354 55.5511-20.488L76.5625 0.572205Q76.9569 0.988007 77.4803 1.20697Q78.0037 1.42593 78.5934 1.42593Q79.9339 1.42593 80.7034 0.554657Q81.4728-0.31662 81.4728-1.51596Q81.4728-2.08435 81.2649-2.58331Q81.057-3.08228 80.6679-3.51944L59.684-24.5178Q62.8807-28.2692 64.6854-33.0341Q66.4902-37.7991 66.4902-43.0801Q66.4902-49.0334 64.249-54.2442Q62.0079-59.4551 58.041-63.4464Q54.0741-67.4377 48.8388-69.6789Q43.6035-71.92 37.664-71.92Q31.6757-71.92 26.4648-69.6789Q21.254-67.4377 17.2802-63.4464Q13.3064-59.4551 11.0477-54.2442Q8.78906-49.0334 8.78906-43.0801ZM12.1956-43.0801Q12.1956-48.3147 14.1781-52.9209Q16.1606-57.5272 19.6712-61.031Q23.1819-64.5348 27.7882-66.5241Q32.3944-68.5135 37.664-68.5135Q42.8986-68.5135 47.4983-66.5241Q52.0981-64.5348 55.6087-61.031Q59.1194-57.5272 61.1084-52.9209Q63.0974-48.3147 63.0974-43.0801Q63.0974-37.8105 61.1084-33.2108Q59.1194-28.611 55.6087-25.1003Q52.0981-21.5897 47.4983-19.6007Q42.8986-17.6117 37.664-17.6117Q32.3944-17.6117 27.7882-19.6007Q23.1819-21.5897 19.6712-25.1003Q16.1606-28.611 14.1781-33.2108Q12.1956-37.8105 12.1956-43.0801Z"/>
  </g>
  <g id="Ultralight-S" transform="matrix(1 0 0 1 514.975 696)">
   <path d="M8.78906-43.3258Q8.78906-37.4748 11.0016-32.3799Q13.2141-27.285 17.1005-23.3757Q20.9869-19.4664 26.0803-17.2783Q31.1737-15.0902 37.0285-15.0902Q42.1417-15.0902 46.7247-16.8049Q51.3077-18.5196 54.9767-21.5652L76.8188 0.326538Q77.1004 0.650024 77.5059 0.832748Q77.9114 1.01547 78.389 1.01547Q79.493 1.01547 80.088 0.303268Q80.6831-0.408936 80.6831-1.33133Q80.6831-1.7662 80.5214-2.14729Q80.3596-2.52838 80.0423-2.89383L58.2069-24.733Q61.4967-28.4538 63.3579-33.234Q65.2191-38.0142 65.2191-43.3258Q65.2191-49.1356 63.0291-54.2286Q60.8391-59.3216 56.9542-63.2309Q53.0693-67.1402 47.9519-69.3302Q42.8345-71.5202 37.0285-71.5202Q31.1737-71.5202 26.0803-69.3302Q20.9869-67.1402 17.1005-63.2309Q13.2141-59.3216 11.0016-54.2286Q8.78906-49.1356 8.78906-43.3258ZM10.9955-43.3258Q10.9955-48.6633 13.0291-53.3672Q15.0627-58.0711 18.6504-61.657Q22.2382-65.2428 26.9421-67.2783Q31.646-69.3138 37.0285-69.3138Q42.3653-69.3138 47.0673-67.2783Q51.7693-65.2428 55.357-61.657Q58.9447-58.0711 60.9802-53.3672Q63.0157-48.6633 63.0157-43.3258Q63.0157-37.944 60.9802-33.2417Q58.9447-28.5393 55.357-24.9519Q51.7693-21.3646 47.0673-19.3291Q42.3653-17.2935 37.0285-17.2935Q31.646-17.2935 26.9421-19.3291Q22.2382-21.3646 18.6504-24.9519Q15.0627-28.5393 13.0291-33.2417Q10.9955-37.944 10.9955-43.3258Z"/>
  </g>
 </g>
</svg>
