<?xml version="1.0" encoding="UTF-8"?>
<!--Generator: Apple Native CoreSVG 175.5-->
<!DOCTYPE svg
PUBLIC "-//W3C//DTD SVG 1.1//EN"
       "http://www.w3.org/Graphics/SVG/1.1/DTD/svg11.dtd">
<svg version="1.1" xmlns="http://www.w3.org/2000/svg" xmlns:xlink="http://www.w3.org/1999/xlink" width="3300" height="2200">
 <!--glyph: "uni1002EF.medium", point size: 100.0, font version: "18.0d11e1", template writer version: "90"-->
 <g id="Notes">
  <rect height="2200" id="artboard" style="fill:white;opacity:1" width="3300" x="0" y="0"/>
  <line style="fill:none;stroke:black;opacity:1;stroke-width:0.5;" x1="263" x2="3036" y1="292" y2="292"/>
  <text style="stroke:none;fill:black;font-family:sans-serif;font-size:13;font-weight:bold;" transform="matrix(1 0 0 1 263 322)">Weight/Scale Variations</text>
  <text style="stroke:none;fill:black;font-family:sans-serif;font-size:13;text-anchor:middle;" transform="matrix(1 0 0 1 559.711 322)">Ultralight</text>
  <text style="stroke:none;fill:black;font-family:sans-serif;font-size:13;text-anchor:middle;" transform="matrix(1 0 0 1 856.422 322)">Thin</text>
  <text style="stroke:none;fill:black;font-family:sans-serif;font-size:13;text-anchor:middle;" transform="matrix(1 0 0 1 1153.13 322)">Light</text>
  <text style="stroke:none;fill:black;font-family:sans-serif;font-size:13;text-anchor:middle;" transform="matrix(1 0 0 1 1449.84 322)">Regular</text>
  <text style="stroke:none;fill:black;font-family:sans-serif;font-size:13;text-anchor:middle;" transform="matrix(1 0 0 1 1746.56 322)">Medium</text>
  <text style="stroke:none;fill:black;font-family:sans-serif;font-size:13;text-anchor:middle;" transform="matrix(1 0 0 1 2043.27 322)">Semibold</text>
  <text style="stroke:none;fill:black;font-family:sans-serif;font-size:13;text-anchor:middle;" transform="matrix(1 0 0 1 2339.98 322)">Bold</text>
  <text style="stroke:none;fill:black;font-family:sans-serif;font-size:13;text-anchor:middle;" transform="matrix(1 0 0 1 2636.69 322)">Heavy</text>
  <text style="stroke:none;fill:black;font-family:sans-serif;font-size:13;text-anchor:middle;" transform="matrix(1 0 0 1 2933.4 322)">Black</text>
  <line style="fill:none;stroke:black;opacity:1;stroke-width:0.5;" x1="263" x2="3036" y1="1903" y2="1903"/>
  <g transform="matrix(1 0 0 1 263 1933)">
   <path d="M9.24805 0.830078C13.5547 0.830078 17.1387-2.74414 17.1387-7.05078C17.1387-11.3574 13.5449-14.9316 9.23828-14.9316C4.94141-14.9316 1.36719-11.3574 1.36719-7.05078C1.36719-2.74414 4.95117 0.830078 9.24805 0.830078ZM9.24805-0.654297C5.70312-0.654297 2.87109-3.49609 2.87109-7.05078C2.87109-10.6055 5.69336-13.4473 9.23828-13.4473C12.793-13.4473 15.6445-10.6055 15.6445-7.05078C15.6445-3.49609 12.8027-0.654297 9.24805-0.654297ZM5.6543-7.05078C5.6543-6.62109 5.95703-6.32812 6.40625-6.32812L8.50586-6.32812L8.50586-4.20898C8.50586-3.76953 8.79883-3.4668 9.22852-3.4668C9.67773-3.4668 9.9707-3.76953 9.9707-4.20898L9.9707-6.32812L12.0898-6.32812C12.5293-6.32812 12.832-6.62109 12.832-7.05078C12.832-7.49023 12.5293-7.79297 12.0898-7.79297L9.9707-7.79297L9.9707-9.90234C9.9707-10.3516 9.67773-10.6543 9.22852-10.6543C8.79883-10.6543 8.50586-10.3516 8.50586-9.90234L8.50586-7.79297L6.40625-7.79297C5.95703-7.79297 5.6543-7.49023 5.6543-7.05078Z"/>
  </g>
  <g transform="matrix(1 0 0 1 281.867 1933)">
   <path d="M11.709 2.91016C17.1582 2.91016 21.6699-1.61133 21.6699-7.05078C21.6699-12.5 17.1484-17.0117 11.6992-17.0117C6.25977-17.0117 1.74805-12.5 1.74805-7.05078C1.74805-1.61133 6.26953 2.91016 11.709 2.91016ZM11.709 1.25C7.09961 1.25 3.41797-2.44141 3.41797-7.05078C3.41797-11.6602 7.08984-15.3516 11.6992-15.3516C16.3086-15.3516 20.0098-11.6602 20.0098-7.05078C20.0098-2.44141 16.3184 1.25 11.709 1.25ZM7.17773-7.05078C7.17773-6.57227 7.50977-6.25 8.00781-6.25L10.8789-6.25L10.8789-3.36914C10.8789-2.88086 11.2109-2.53906 11.6895-2.53906C12.1777-2.53906 12.5195-2.87109 12.5195-3.36914L12.5195-6.25L15.4004-6.25C15.8887-6.25 16.2305-6.57227 16.2305-7.05078C16.2305-7.53906 15.8887-7.88086 15.4004-7.88086L12.5195-7.88086L12.5195-10.752C12.5195-11.25 12.1777-11.5918 11.6895-11.5918C11.2109-11.5918 10.8789-11.25 10.8789-10.752L10.8789-7.88086L8.00781-7.88086C7.50977-7.88086 7.17773-7.53906 7.17773-7.05078Z"/>
  </g>
  <g transform="matrix(1 0 0 1 305.646 1933)">
   <path d="M14.9707 5.66406C21.9336 5.66406 27.6953-0.0976562 27.6953-7.05078C27.6953-14.0137 21.9238-19.7754 14.9609-19.7754C8.00781-19.7754 2.25586-14.0137 2.25586-7.05078C2.25586-0.0976562 8.01758 5.66406 14.9707 5.66406ZM14.9707 3.84766C8.93555 3.84766 4.08203-1.01562 4.08203-7.05078C4.08203-13.0957 8.92578-17.9492 14.9609-17.9492C21.0059-17.9492 25.8691-13.0957 25.8691-7.05078C25.8691-1.01562 21.0156 3.84766 14.9707 3.84766ZM9.19922-7.05078C9.19922-6.5332 9.57031-6.17188 10.1172-6.17188L14.0625-6.17188L14.0625-2.2168C14.0625-1.67969 14.4336-1.29883 14.9512-1.29883C15.4883-1.29883 15.8594-1.66992 15.8594-2.2168L15.8594-6.17188L19.8145-6.17188C20.3516-6.17188 20.7324-6.5332 20.7324-7.05078C20.7324-7.59766 20.3613-7.96875 19.8145-7.96875L15.8594-7.96875L15.8594-11.9141C15.8594-12.4609 15.4883-12.8418 14.9512-12.8418C14.4336-12.8418 14.0625-12.4609 14.0625-11.9141L14.0625-7.96875L10.1172-7.96875C9.57031-7.96875 9.19922-7.59766 9.19922-7.05078Z"/>
  </g>
  <text style="stroke:none;fill:black;font-family:sans-serif;font-size:13;font-weight:bold;" transform="matrix(1 0 0 1 263 1953)">Design Variations</text>
  <text style="stroke:none;fill:black;font-family:sans-serif;font-size:13;" transform="matrix(1 0 0 1 263 1971)">Symbols are supported in up to nine weights and three scales.</text>
  <text style="stroke:none;fill:black;font-family:sans-serif;font-size:13;" transform="matrix(1 0 0 1 263 1989)">For optimal layout with text and other symbols, vertically align</text>
  <text style="stroke:none;fill:black;font-family:sans-serif;font-size:13;" transform="matrix(1 0 0 1 263 2007)">symbols with the adjacent text.</text>
  <line style="fill:none;stroke:#00AEEF;stroke-width:0.5;opacity:1.0;" x1="776" x2="776" y1="1919" y2="1933"/>
  <g transform="matrix(1 0 0 1 776 1933)">
   <path d="M3.31055 0.15625C3.82812 0.15625 4.08203-0.0390625 4.26758-0.585938L5.52734-4.0332L11.2891-4.0332L12.5488-0.585938C12.7344-0.0390625 12.9883 0.15625 13.4961 0.15625C14.0137 0.15625 14.3457-0.15625 14.3457-0.644531C14.3457-0.810547 14.3164-0.966797 14.2383-1.17188L9.6582-13.3691C9.43359-13.9648 9.0332-14.2676 8.4082-14.2676C7.80273-14.2676 7.39258-13.9746 7.17773-13.3789L2.59766-1.16211C2.51953-0.957031 2.49023-0.800781 2.49023-0.634766C2.49023-0.146484 2.80273 0.15625 3.31055 0.15625ZM6.00586-5.51758L8.37891-12.0898L8.42773-12.0898L10.8008-5.51758Z"/>
  </g>
  <line style="fill:none;stroke:#00AEEF;stroke-width:0.5;opacity:1.0;" x1="793.197" x2="793.197" y1="1919" y2="1933"/>
  <text style="stroke:none;fill:black;font-family:sans-serif;font-size:13;font-weight:bold;" transform="matrix(1 0 0 1 776 1953)">Margins</text>
  <text style="stroke:none;fill:black;font-family:sans-serif;font-size:13;" transform="matrix(1 0 0 1 776 1971)">Leading and trailing margins on the left and right side of each symbol</text>
  <text style="stroke:none;fill:black;font-family:sans-serif;font-size:13;" transform="matrix(1 0 0 1 776 1989)">can be adjusted by modifying the x-location of the margin guidelines.</text>
  <text style="stroke:none;fill:black;font-family:sans-serif;font-size:13;" transform="matrix(1 0 0 1 776 2007)">Modifications are automatically applied proportionally to all</text>
  <text style="stroke:none;fill:black;font-family:sans-serif;font-size:13;" transform="matrix(1 0 0 1 776 2025)">scales and weights.</text>
  <g transform="matrix(1 0 0 1 1289 1933)">
   <path d="M2.8418 1.86523L4.54102 3.57422C5.40039 4.44336 6.38672 4.38477 7.31445 3.35938L18.0078-8.42773L17.041-9.4043L6.42578 2.27539C6.07422 2.67578 5.74219 2.77344 5.27344 2.30469L4.10156 1.14258C3.63281 0.683594 3.74023 0.341797 4.14062-0.0195312L15.6152-10.8203L14.6387-11.7871L3.04688-0.898438C2.06055 0.0195312 1.98242 0.996094 2.8418 1.86523ZM9.25781-16.3281C8.83789-15.918 8.80859-15.3418 9.04297-14.9512C9.27734-14.5898 9.73633-14.3555 10.3809-14.5215C11.8457-14.8633 13.3691-14.9219 14.7949-13.9844L14.209-12.5293C13.8672-11.6992 14.043-11.1133 14.5801-10.5664L16.875-8.25195C17.3633-7.76367 17.7734-7.74414 18.3398-7.8418L19.4043-8.03711L20.0684-7.36328L20.0293-6.80664C19.9902-6.30859 20.1172-5.92773 20.6055-5.44922L21.3672-4.70703C21.8457-4.22852 22.4609-4.19922 22.9297-4.66797L25.8398-7.58789C26.3086-8.05664 26.2891-8.65234 25.8105-9.13086L25.0391-9.89258C24.5605-10.3711 24.1895-10.5273 23.7109-10.4883L23.1348-10.4395L22.4902-11.0742L22.7344-12.1973C22.8613-12.7637 22.7051-13.2031 22.1191-13.7891L19.9219-15.9766C16.582-19.2969 12.1484-19.2188 9.25781-16.3281ZM10.752-15.957C13.1836-17.7344 16.4746-17.4316 18.7012-15.2051L21.1328-12.793C21.3672-12.5586 21.4062-12.373 21.3379-12.0312L21.0156-10.5469L22.5195-9.0625L23.5059-9.12109C23.7598-9.13086 23.8379-9.11133 24.0332-8.91602L24.6094-8.33984L22.168-5.89844L21.5918-6.47461C21.3965-6.66992 21.3672-6.74805 21.377-7.01172L21.4453-7.98828L19.9512-9.47266L18.4277-9.21875C18.1055-9.15039 17.959-9.17969 17.7148-9.41406L15.7129-11.416C15.459-11.6504 15.4297-11.8164 15.5859-12.1875L16.4648-14.2773C14.9023-15.7324 12.8711-16.3574 10.8398-15.7617C10.6836-15.7227 10.625-15.8496 10.752-15.957Z"/>
  </g>
  <text style="stroke:none;fill:black;font-family:sans-serif;font-size:13;font-weight:bold;" transform="matrix(1 0 0 1 1289 1953)">Exporting</text>
  <text style="stroke:none;fill:black;font-family:sans-serif;font-size:13;" transform="matrix(1 0 0 1 1289 1971)">Symbols should be outlined when exporting to ensure the</text>
  <text style="stroke:none;fill:black;font-family:sans-serif;font-size:13;" transform="matrix(1 0 0 1 1289 1989)">design is preserved when submitting to Xcode.</text>
  <text id="template-version" style="stroke:none;fill:black;font-family:sans-serif;font-size:13;text-anchor:end;" transform="matrix(1 0 0 1 3036 1933)">Template v.2.0</text>
  <text style="stroke:none;fill:black;font-family:sans-serif;font-size:13;text-anchor:end;" transform="matrix(1 0 0 1 3036 1951)">Requires Xcode 12 or greater</text>
  <text id="descriptive-name" style="stroke:none;fill:black;font-family:sans-serif;font-size:13;text-anchor:end;" transform="matrix(1 0 0 1 3036 1969)">Generated from eye.slash</text>
  <text style="stroke:none;fill:black;font-family:sans-serif;font-size:13;text-anchor:end;" transform="matrix(1 0 0 1 3036 1987)">Typeset at 100 points</text>
  <text style="stroke:none;fill:black;font-family:sans-serif;font-size:13;" transform="matrix(1 0 0 1 263 726)">Small</text>
  <text style="stroke:none;fill:black;font-family:sans-serif;font-size:13;" transform="matrix(1 0 0 1 263 1156)">Medium</text>
  <text style="stroke:none;fill:black;font-family:sans-serif;font-size:13;" transform="matrix(1 0 0 1 263 1586)">Large</text>
 </g>
 <g id="Guides">
  <g id="H-reference" style="fill:#27AAE1;stroke:none;" transform="matrix(1 0 0 1 339 696)">
   <path d="M0.993654 0L3.63775 0L29.3281-67.1323L30.0303-67.1323L30.0303-70.459L28.1226-70.459ZM11.6885-24.4799L46.9815-24.4799L46.2315-26.7285L12.4385-26.7285ZM55.1196 0L57.7637 0L30.6382-70.459L29.4326-70.459L29.4326-67.1323Z"/>
  </g>
  <line id="Baseline-S" style="fill:none;stroke:#27AAE1;opacity:1;stroke-width:0.5;" x1="263" x2="3036" y1="696" y2="696"/>
  <line id="Capline-S" style="fill:none;stroke:#27AAE1;opacity:1;stroke-width:0.5;" x1="263" x2="3036" y1="625.541" y2="625.541"/>
  <g id="H-reference" style="fill:#27AAE1;stroke:none;" transform="matrix(1 0 0 1 339 1126)">
   <path d="M0.993654 0L3.63775 0L29.3281-67.1323L30.0303-67.1323L30.0303-70.459L28.1226-70.459ZM11.6885-24.4799L46.9815-24.4799L46.2315-26.7285L12.4385-26.7285ZM55.1196 0L57.7637 0L30.6382-70.459L29.4326-70.459L29.4326-67.1323Z"/>
  </g>
  <line id="Baseline-M" style="fill:none;stroke:#27AAE1;opacity:1;stroke-width:0.5;" x1="263" x2="3036" y1="1126" y2="1126"/>
  <line id="Capline-M" style="fill:none;stroke:#27AAE1;opacity:1;stroke-width:0.5;" x1="263" x2="3036" y1="1055.54" y2="1055.54"/>
  <g id="H-reference" style="fill:#27AAE1;stroke:none;" transform="matrix(1 0 0 1 339 1556)">
   <path d="M0.993654 0L3.63775 0L29.3281-67.1323L30.0303-67.1323L30.0303-70.459L28.1226-70.459ZM11.6885-24.4799L46.9815-24.4799L46.2315-26.7285L12.4385-26.7285ZM55.1196 0L57.7637 0L30.6382-70.459L29.4326-70.459L29.4326-67.1323Z"/>
  </g>
  <line id="Baseline-L" style="fill:none;stroke:#27AAE1;opacity:1;stroke-width:0.5;" x1="263" x2="3036" y1="1556" y2="1556"/>
  <line id="Capline-L" style="fill:none;stroke:#27AAE1;opacity:1;stroke-width:0.5;" x1="263" x2="3036" y1="1485.54" y2="1485.54"/>
  <line id="left-margin" style="fill:none;stroke:#00AEEF;stroke-width:0.5;opacity:1.0;" x1="1373.17" x2="1373.17" y1="1030.79" y2="1150.12"/>
  <line id="right-margin" style="fill:none;stroke:#00AEEF;stroke-width:0.5;opacity:1.0;" x1="1526.51" x2="1526.51" y1="1030.79" y2="1150.12"/>
 </g>
 <g id="Symbols">
  <g id="Black-L" transform="matrix(1 0 0 1 2832.29 1556)">
   <path d="M101.086 21.2461C112.373 21.2461 122.782 19.4197 132.132 16.3626L115.95 0.0635604C111.228 1.10747 106.281 1.74765 101.086 1.74765C65.013 1.74765 38.3469-26.7196 38.3469-35.1309C38.3469-38.7181 45.9665-49.0066 58.6127-57.6862L43.4131-72.8638C24.0141-59.4293 12.8672-42.4775 12.8672-35.1309C12.8672-22.1356 47.7253 21.2461 101.086 21.2461ZM101.086-91.4495C90.1078-91.4495 79.9765-89.6271 70.7715-86.6728L86.9942-70.393C91.469-71.3745 96.1975-71.9534 101.086-71.9534C137.144-71.9534 163.862-41.9965 163.862-35.1309C163.862-30.7902 156.586-20.9283 144.531-12.5721L159.455 2.46909C178.597-10.885 189.363-27.8467 189.363-35.1309C189.363-48.0885 155.355-91.4495 101.086-91.4495ZM101.086-5.66958C103.734-5.66958 106.153-6.13095 108.433-6.88282L72.8503-42.4643C72.0788-40.1647 71.6394-37.7234 71.6394-35.0725C71.6626-19.1241 84.7526-5.66958 101.086-5.66958ZM129.623-28.5944C130.25-30.691 130.571-32.8866 130.571-35.1893C130.571-51.4646 117.51-64.5338 101.145-64.5338C98.82-64.5338 96.7025-64.2361 94.607-63.6311ZM152.81 23.9531C155.016 26.1601 158.592 26.2018 160.761 23.9531C162.952 21.6837 162.968 18.2083 160.761 16.0025L49.5455-95.1347C47.3397-97.3393 43.7226-97.3417 41.5144-95.1347C39.3878-93.0069 39.3878-89.3107 41.5144-87.1829Z"/>
  </g>
  <g id="Heavy-L" transform="matrix(1 0 0 1 2536.18 1556)">
   <path d="M100.487 20.6351C111.904 20.6351 122.399 18.7325 131.858 15.5766L117.674 1.30319C112.241 2.67859 106.546 3.52286 100.487 3.52286C63.0467 3.52286 34.7774-26.5982 34.7774-35.1447C34.7774-38.9658 43.374-50.3545 57.4704-59.6468L44.1178-72.9637C24.3295-59.6345 12.8672-42.5558 12.8672-35.1447C12.8672-22.2029 47.9264 20.6351 100.487 20.6351ZM100.487-90.8798C89.477-90.8798 79.3788-89.0231 70.1313-86.0125L84.3702-71.7346C89.4809-73.0195 94.8239-73.7788 100.487-73.7788C137.92-73.7788 166.206-42.215 166.206-35.1447C166.206-30.5955 158.019-19.7375 144.631-10.8017L157.745 2.40138C177.108-10.8474 188.146-27.824 188.146-35.1447C188.146-48.0719 153.88-90.8798 100.487-90.8798ZM100.487-4.3138C103.866-4.3138 106.97-5.00736 109.827-6.15965L71.464-44.5168C70.2871-41.6359 69.6293-38.4954 69.6293-35.1C69.6708-18.3842 83.3534-4.3138 100.487-4.3138ZM129.854-26.7716C130.826-29.4022 131.359-32.2264 131.359-35.1893C131.359-52.2784 117.652-65.9309 100.532-65.9309C97.5331-65.9309 94.7781-65.4385 92.1532-64.5031ZM151.655 22.8775C153.759 24.9868 157.152 25.0471 159.241 22.8775C161.372 20.6776 161.351 17.3948 159.241 15.2911L49.3274-94.5535C47.2237-96.6516 43.7756-96.6628 41.6607-94.5535C39.6318-92.519 39.6318-88.9961 41.6607-86.9615Z"/>
  </g>
  <g id="Bold-L" transform="matrix(1 0 0 1 2240.33 1556)">
   <path d="M99.6376 19.8819C111.246 19.8819 121.848 17.8647 131.46 14.5635L119.728 2.77287C113.412 4.57798 106.794 5.69069 99.6376 5.69069C60.4991 5.69069 30.5006-26.4223 30.5006-35.1601C30.5006-39.3179 40.2143-52.0444 56.0268-62.0675L44.9489-73.0941C24.7064-59.8881 12.8672-42.6407 12.8672-35.1601C12.8672-22.3023 48.0979 19.8819 99.6376 19.8819ZM99.6376-90.1729C88.5145-90.1729 78.4399-88.2404 69.0939-85.116L80.8889-73.305C86.8208-74.9961 92.9393-76.0081 99.6376-76.0081C138.791-76.0081 168.753-42.5585 168.753-35.1601C168.753-30.3348 159.489-18.2101 144.478-8.56695L155.364 2.37649C175.026-10.7491 186.424-27.7934 186.424-35.1601C186.424-48.0266 151.894-90.1729 99.6376-90.1729ZM99.6376-2.80252C103.893-2.80252 107.821-3.78794 111.362-5.44703L69.8249-46.9707C68.141-43.4049 67.2068-39.426 67.2068-35.1309C67.2713-17.5591 81.617-2.80252 99.6376-2.80252ZM129.811-24.5051C131.242-27.789 132.06-31.3969 132.06-35.1893C132.06-53.1807 117.612-67.4884 99.6668-67.4884C95.8232-67.4884 92.2693-66.7354 88.9986-65.3554ZM150.323 21.6822C152.258 23.6313 155.369 23.7073 157.314 21.6822C159.323 19.619 159.263 16.6267 157.314 14.6907L48.7007-93.8685C46.7648-95.7912 43.5913-95.8177 41.6289-93.8685C39.7601-91.9865 39.7601-88.7458 41.6289-86.8639Z"/>
  </g>
  <g id="Semibold-L" transform="matrix(1 0 0 1 1944.21 1556)">
   <path d="M99.0519 19.3627C110.792 19.3627 121.469 17.2665 131.186 13.8651L121.144 3.78606C114.219 5.8874 106.966 7.18519 99.0519 7.18519C58.7428 7.18519 27.5522-26.301 27.5522-35.1707C27.5522-39.5606 38.0361-53.2093 55.0315-63.7363L45.5219-73.184C24.9663-60.0629 12.8672-42.6993 12.8672-35.1707C12.8672-22.3709 48.2161 19.3627 99.0519 19.3627ZM99.0519-89.6856C87.8509-89.6856 77.7926-87.7008 68.3787-84.4979L78.4889-74.3876C84.9869-76.3588 91.6401-77.545 99.0519-77.545C139.392-77.545 170.508-42.7953 170.508-35.1707C170.508-30.1551 160.502-17.157 144.373-7.02634L153.722 2.35933C173.59-10.6813 185.237-27.7723 185.237-35.1707C185.237-47.9953 150.526-89.6856 99.0519-89.6856ZM99.0519-1.76066C103.912-1.76066 108.407-2.94728 112.42-4.95575L68.6949-48.6624C66.6615-44.6244 65.5367-40.0675 65.5367-35.1521C65.6171-16.9904 80.4199-1.76066 99.0519-1.76066ZM129.781-22.9426C131.529-26.677 132.542-30.825 132.542-35.1893C132.542-53.8027 117.585-68.5622 99.0705-68.5622C94.6444-68.5622 90.5398-67.6294 86.8239-65.943ZM149.404 20.8582C151.224 22.6969 154.14 22.7837 155.985 20.8582C157.911 18.8893 157.824 16.0971 155.985 14.2768L48.2687-93.3963C46.4484-95.1981 43.4642-95.2351 41.607-93.3963C39.8486-91.6195 39.8486-88.5733 41.607-86.7965Z"/>
  </g>
  <g id="Medium-L" transform="matrix(1 0 0 1 1647.95 1556)">
   <path d="M98.6078 18.969C110.448 18.969 121.181 16.8129 130.978 13.3356L122.218 4.5543C114.831 6.88026 107.096 8.31838 98.6078 8.31838C57.4111 8.31838 25.3167-26.209 25.3167-35.1788C25.3167-39.7446 36.3844-54.0927 54.2768-65.0016L45.9564-73.2522C25.1633-60.1955 12.8672-42.7436 12.8672-35.1788C12.8672-22.4228 48.3057 18.969 98.6078 18.969ZM98.6078-89.316C87.3478-89.316 77.3018-87.2917 67.8364-84.0292L76.6691-75.2085C83.5963-77.3921 90.655-78.7103 98.6078-78.7103C139.847-78.7103 171.84-42.9749 171.84-35.1788C171.84-30.0189 161.27-16.3586 144.293-5.85819L152.477 2.34633C172.501-10.6299 184.336-27.7562 184.336-35.1788C184.336-47.9717 149.488-89.316 98.6078-89.316ZM98.6078-0.970668C103.926-0.970668 108.851-2.30985 113.222-4.58325L67.8381-49.9452C65.5397-45.5491 64.2704-40.5539 64.2704-35.1683C64.3628-16.5591 79.5122-0.970668 98.6078-0.970668ZM129.758-21.7579C131.747-25.8338 132.908-30.3914 132.908-35.1893C132.908-54.2744 117.565-69.3764 98.6183-69.3764C93.7506-69.3764 89.2284-68.3074 85.175-66.3885ZM148.708 20.2334C150.44 21.9884 153.208 22.0833 154.978 20.2334C156.84 18.336 156.733 15.6956 154.978 13.963L47.9411-93.0383C46.2085-94.7484 43.3679-94.7933 41.5903-93.0383C39.9157-91.3412 39.9157-88.4425 41.5903-86.7454Z"/>
  </g>
  <g id="Regular-L" transform="matrix(1 0 0 1 1351.83 1556)">
   <path d="M98.0285 18.4555C109.999 18.4555 120.805 16.2212 130.707 12.6449L123.619 5.55636C115.629 8.1753 107.265 9.79645 98.0285 9.79645C55.6741 9.79645 22.4007-26.0891 22.4007-35.1893C22.4007-39.9847 34.23-55.2448 53.2925-66.6521L46.5231-73.3411C25.4203-60.3684 12.8672-42.8015 12.8672-35.1893C12.8672-22.4906 48.4226 18.4555 98.0285 18.4555ZM98.0285-88.8341C86.6915-88.8341 76.6616-86.7581 67.1291-83.4179L74.2954-76.2792C81.7825-78.7398 89.3701-80.2303 98.0285-80.2303C140.441-80.2303 173.576-43.2091 173.576-35.1893C173.576-29.8412 162.272-15.3171 144.189-4.33451L150.853 2.32936C171.081-10.5629 183.162-27.7353 183.162-35.1893C183.162-47.9407 148.134-88.8341 98.0285-88.8341ZM98.0285 0.0597501C103.945 0.0597501 109.431-1.47843 114.269-4.09737L66.7205-51.6183C64.0764-46.7552 62.6187-41.1884 62.6187-35.1893C62.7268-15.9966 78.3282 0.0597501 98.0285 0.0597501ZM129.729-20.2125C132.031-24.7339 133.386-29.8259 133.386-35.1893C133.386-54.8896 117.538-70.4383 98.0285-70.4383C92.5847-70.4383 87.5179-69.1916 83.0241-66.9697ZM147.799 19.4184C149.417 21.0643 151.993 21.1698 153.664 19.4184C155.443 17.6142 155.31 15.1718 153.664 13.5536L47.5138-92.5712C45.8956-94.1618 43.2422-94.2171 41.5687-92.5712C40.0032-90.9782 40.0032-88.2719 41.5687-86.6788Z"/>
  </g>
  <g id="Light-L" transform="matrix(1 0 0 1 1056.41 1556)">
   <path d="M96.7498 17.9593C109.044 17.9593 119.927 15.5151 130.058 11.6906L124.516 6.148C115.896 9.18682 106.921 11.0942 96.7498 11.0942C53.193 11.0942 20.3776-25.8028 20.3776-35.1893C20.3776-40.5191 32.3788-56.5426 52.1092-68.2744L46.8285-73.4747C25.5921-60.5401 12.8672-42.7824 12.8672-35.1893C12.8672-22.6624 48.0409 17.9593 96.7498 17.9593ZM96.7498-88.3379C84.8593-88.3379 74.7339-85.9947 64.8388-82.2919L70.402-76.7754C78.6716-79.7132 86.889-81.5663 96.7498-81.5663C140.46-81.5663 173.042-43.9153 173.042-35.1893C173.042-29.5358 161.317-13.9239 142.3-2.5214L147.513 2.69198C168.104-10.1621 180.586-27.6972 180.586-35.1893C180.586-47.7499 145.749-88.3379 96.7498-88.3379ZM96.7498 0.0215796C103.086 0.0215796 108.973-1.74562 114.097-4.78444L66.0907-52.7443C63.0649-47.6332 61.3781-41.6655 61.3781-35.1893C61.5053-16.0157 77.1068 0.0215796 96.7498 0.0215796ZM127.572-18.5903C130.409-23.5124 132.088-29.177 132.088-35.1893C132.088-54.8324 116.126-70.4001 96.7498-70.4001C90.6571-70.4001 84.9795-68.8481 80.1041-66.0917ZM147.513 19.4757C148.749 20.7589 150.771 20.8262 152.042 19.4757C153.439 18.0914 153.325 16.1834 152.042 14.9469L44.7847-92.3231C43.5482-93.5129 41.5054-93.6064 40.1754-92.3231C38.9726-91.0736 38.9726-88.9972 40.1754-87.7476Z"/>
  </g>
  <g id="Thin-L" transform="matrix(1 0 0 1 761.4 1556)">
   <path d="M95.0586 17.303C107.782 17.303 118.766 14.5811 129.2 10.4285L125.702 6.9305C116.25 10.5246 106.467 12.8107 95.0586 12.8107C49.9116 12.8107 17.702-25.4242 17.702-35.1893C17.702-41.2258 29.9303-58.2591 50.5442-70.4199L47.2324-73.6514C25.8193-60.7673 12.8672-42.7572 12.8672-35.1893C12.8672-22.8895 47.5361 17.303 95.0586 17.303ZM95.0586-87.6816C82.4361-87.6816 72.1845-84.985 61.8098-80.8026L65.2527-77.4317C74.5572-81.0005 83.6075-83.3332 95.0586-83.3332C140.485-83.3332 172.335-44.8492 172.335-35.1893C172.335-29.1319 160.055-12.0812 139.801-0.123432L143.096 3.17157C164.166-9.63207 177.178-27.6467 177.178-35.1893C177.178-47.4975 142.594-87.6816 95.0586-87.6816ZM95.0586-0.0289041C101.95-0.0289041 108.367-2.09901 113.87-5.69315L65.2577-54.2336C61.7271-48.7943 59.7374-42.2966 59.7374-35.1893C59.8898-16.0409 75.4913-0.0289041 95.0586-0.0289041ZM124.72-16.4447C128.263-21.897 130.371-28.3187 130.371-35.1893C130.371-54.7566 114.258-70.3497 95.0586-70.3497C88.1077-70.3497 81.6224-68.3937 76.2421-64.9306ZM147.134 19.5514C147.866 20.355 149.156 20.3719 149.896 19.5514C150.789 18.7224 150.7 17.5212 149.896 16.7895L41.1751-91.995C40.4434-92.6547 39.2084-92.7986 38.3328-91.995C37.6096-91.1998 37.6096-89.9564 38.3328-89.1611Z"/>
  </g>
  <g id="Ultralight-L" transform="matrix(1 0 0 1 465.561 1556)">
   <path d="M94.1924 16.9669C107.136 16.9669 118.171 14.1027 128.76 9.78208L126.31 7.33129C116.431 11.2099 106.234 13.6898 94.1924 13.6898C48.2309 13.6898 16.3316-25.2302 16.3316-35.1893C16.3316-41.5878 28.6762-59.1382 49.7427-71.5189L47.4392-73.7419C25.9356-60.8837 12.8672-42.7443 12.8672-35.1893C12.8672-23.0059 47.2775 16.9669 94.1924 16.9669ZM94.1924-87.3454C81.1949-87.3454 70.8787-84.4678 60.2584-80.0398L62.6153-77.7678C72.4498-81.6599 81.9268-84.2382 94.1924-84.2382C140.498-84.2382 171.973-45.3276 171.973-35.1893C171.973-28.9251 159.409-11.1374 138.521 1.1048L140.833 3.41722C162.149-9.36056 175.433-27.6208 175.433-35.1893C175.433-47.3682 140.977-87.3454 94.1924-87.3454ZM94.1924-0.0547615C101.368-0.0547615 108.057-2.28001 113.754-6.15858L64.831-54.9964C61.0419-49.389 58.897-42.6198 58.897-35.1893C59.0624-16.0538 74.6638-0.0547615 94.1924-0.0547615ZM123.259-15.3458C127.164-21.0695 129.492-27.8792 129.492-35.1893C129.492-54.7178 113.301-70.3238 94.1924-70.3238C86.8019-70.3238 79.9028-68.161 74.264-64.3359ZM146.94 19.5902C147.413 20.1482 148.328 20.1392 148.797 19.5902C149.431 19.0456 149.355 18.2064 148.797 17.7333L39.3263-91.8269C38.8532-92.2151 38.0319-92.3849 37.389-91.8269C36.9114-91.2644 36.9114-90.4476 37.389-89.8852Z"/>
  </g>
  <g id="Black-M" transform="matrix(1 0 0 1 2854.71 1126)">
   <path d="M78.6575 8.98246C87.3339 8.98246 95.3338 7.60445 102.516 5.28723L88.4715-8.8717C85.339-8.29095 82.066-7.93159 78.6575-7.93159C51.7221-7.93159 32.5027-28.7021 32.5027-35.1412C32.5027-37.7918 37.5894-44.9206 46.231-51.1625L33.0696-64.3187C18.3569-53.8251 9.96875-40.775 9.96875-35.1412C9.96875-25.0505 36.7502 8.98246 78.6575 8.98246ZM78.6575-79.2078C70.1041-79.2078 62.2137-77.7892 55.0696-75.4997L69.1256-61.3864C72.1519-61.9506 75.3726-62.2932 78.6575-62.2932C105.586-62.2932 124.864-40.38 124.864-35.1412C124.864-31.9162 119.953-24.9844 111.632-18.9517L124.554-5.9155C139.242-16.3468 147.404-29.524 147.404-35.1412C147.404-45.1803 121.305-79.2078 78.6575-79.2078ZM78.6575-13.4986C80.137-13.4986 81.4765-13.6875 82.7864-13.9827L57.5463-39.2232C57.2452-37.9075 57.0615-36.5627 57.0615-35.0841C57.0664-23.3904 66.6984-13.4986 78.6575-13.4986ZM99.9332-31.4357C100.196-32.6556 100.305-33.8938 100.305-35.1983C100.305-47.1004 90.7267-56.7268 78.7146-56.7268C77.4048-56.7268 76.2295-56.6222 75.0093-56.3651ZM119.342 11.554C121.087 13.2987 123.941 13.3097 125.634 11.554C127.332 9.79283 127.379 7.00723 125.634 5.26225L38.2026-82.1064C36.4576-83.8517 33.5929-83.8511 31.8485-82.1064C30.1661-80.4243 30.1661-77.4971 31.8485-75.815Z"/>
  </g>
  <g id="Heavy-M" transform="matrix(1 0 0 1 2558.48 1126)">
   <path d="M78.1898 8.43089C86.9635 8.43089 95.041 6.99781 102.308 4.60693L90.0739-7.71446C86.3046-6.84838 82.3568-6.31592 78.1898-6.31592C50.0287-6.31592 29.1998-28.6098 29.1998-35.1547C29.1998-37.9846 35.2259-46.1186 45.2236-52.9294L33.7304-64.404C18.6494-54.0098 9.96875-40.8533 9.96875-35.1547C9.96875-25.1005 36.982 8.43089 78.1898 8.43089ZM78.1898-78.6967C69.6565-78.6967 61.8072-77.2692 54.655-74.9581L66.9197-62.6521C70.4955-63.4689 74.2587-63.9544 78.1898-63.9544C106.343-63.9544 127.205-40.5285 127.205-35.1547C127.205-31.754 121.442-23.9489 111.904-17.3883L123.19-6.01514C138.062-16.347 146.452-29.5054 146.452-35.1547C146.452-45.1817 120.083-78.6967 78.1898-78.6967ZM78.1898-12.1697C80.3453-12.1697 82.3179-12.5644 84.1648-13.2124L56.2492-41.1257C55.5871-39.2647 55.211-37.2735 55.211-35.1111C55.2319-22.6654 65.4433-12.1697 78.1898-12.1697ZM100.358-29.8035C100.908-31.5083 101.196-33.3083 101.196-35.1983C101.196-47.9012 90.9957-58.0961 78.2334-58.0961C76.3246-58.0961 74.5824-57.8293 72.8799-57.2985ZM118.24 10.4972C119.92 12.1798 122.645 12.2126 124.298 10.4972C125.973 8.76529 125.981 6.11866 124.298 4.43829L38.2412-81.5612C36.5608-83.2393 33.8049-83.2438 32.12-81.5612C30.4997-79.9386 30.4997-77.1226 32.12-75.5Z"/>
  </g>
  <g id="Bold-M" transform="matrix(1 0 0 1 2262.3 1126)">
   <path d="M77.6665 7.81388C86.5492 7.81388 94.7135 6.31919 102.075 3.8459L91.8664-6.41992C87.3847-5.23467 82.6822-4.50857 77.6665-4.50857C48.1345-4.50857 25.5051-28.5066 25.5051-35.1698C25.5051-38.2004 32.5819-47.4586 44.0966-54.906L34.4695-64.4993C18.9766-54.2164 9.96875-40.9409 9.96875-35.1698C9.96875-25.1564 37.2414 7.81388 77.6665 7.81388ZM77.6665-78.1249C69.1559-78.1249 61.3525-76.6875 54.1912-74.3522L64.452-64.068C68.6425-65.1674 73.0126-65.8127 77.6665-65.8127C107.19-65.8127 129.823-40.6946 129.823-35.1698C129.823-31.5725 123.108-22.7905 112.209-15.6394L121.665-6.12661C136.741-16.3472 145.388-29.4846 145.388-35.1698C145.388-45.1833 118.715-78.1249 77.6665-78.1249ZM77.6665-10.6831C80.5783-10.6831 83.2592-11.3082 85.7067-12.3507L54.7982-43.254C53.7322-40.7831 53.1409-38.0685 53.1409-35.1412C53.1798-21.8543 64.0393-10.6831 77.6665-10.6831ZM100.834-27.9777C101.705-30.2249 102.192-32.6533 102.192-35.1983C102.192-48.797 91.2965-59.6279 77.6951-59.6279C75.1163-59.6279 72.7399-59.1797 70.4978-58.3426ZM117.006 9.31495C118.614 10.9282 121.196 10.9854 122.804 9.31495C124.451 7.61585 124.417 5.12467 122.804 3.51658L38.2844-80.9512C36.6763-82.5542 34.0421-82.5644 32.4237-80.9512C30.8728-79.3951 30.8728-76.7038 32.4237-75.1477Z"/>
  </g>
  <g id="Semibold-M" transform="matrix(1 0 0 1 1965.96 1126)">
   <path d="M77.3058 7.38852C86.2635 7.38852 94.4877 5.85135 101.915 3.32126L93.1022-5.52747C88.1293-4.12218 82.9065-3.26259 77.3058-3.26259C46.8286-3.26259 22.958-28.4355 22.958-35.1802C22.958-38.3491 30.7592-48.3825 43.3197-56.2686L34.9791-64.5651C19.2022-54.3589 9.96875-41.0012 9.96875-35.1802C9.96875-25.1949 37.4201 7.38852 77.3058 7.38852ZM77.3058-77.7307C68.8107-77.7307 61.0391-76.2865 53.8715-73.9345L62.7509-65.0441C67.3651-66.3383 72.1536-67.0938 77.3058-67.0938C107.774-67.0938 131.628-40.8091 131.628-35.1802C131.628-31.4475 124.256-21.9918 112.419-14.4337L120.613-6.20345C135.831-16.3474 144.654-29.4703 144.654-35.1802C144.654-45.1843 117.773-77.7307 77.3058-77.7307ZM77.3058-9.6583C80.739-9.6583 83.9081-10.4421 86.7696-11.7566L53.7978-44.7213C52.4534-41.8298 51.7138-38.6166 51.7138-35.162C51.765-21.2951 63.0714-9.6583 77.3058-9.6583ZM101.162-26.719C102.254-29.3401 102.879-32.2018 102.879-35.1983C102.879-49.4146 91.5039-60.6839 77.3239-60.6839C74.2832-60.6839 71.4696-60.1106 68.8556-59.0625ZM116.155 8.49993C117.714 10.0653 120.197 10.1394 121.774 8.49993C123.403 6.82343 123.339 4.43942 121.774 2.88115L38.3142-80.5307C36.7559-82.0818 34.2056-82.0961 32.6331-80.5307C31.13-79.0205 31.13-76.415 32.6331-74.9048Z"/>
  </g>
  <g id="Medium-M" transform="matrix(1 0 0 1 1669.52 1126)">
   <path d="M77.0323 7.06599C86.0469 7.06599 94.3165 5.49662 101.793 2.92345L94.0392-4.85077C88.6939-3.27865 83.0765-2.31784 77.0323-2.31784C45.8384-2.31784 21.0267-28.3815 21.0267-35.1881C21.0267-38.4619 29.3771-49.083 42.7306-57.3018L35.3654-64.615C19.3732-54.4669 9.96875-41.047 9.96875-35.1881C9.96875-25.2241 37.5557 7.06599 77.0323 7.06599ZM77.0323-77.4318C68.549-77.4318 60.8014-75.9825 53.629-73.6178L61.4609-65.7842C66.3965-67.2261 71.5022-68.0652 77.0323-68.0652C108.217-68.0652 132.996-40.896 132.996-35.1881C132.996-31.3526 125.127-21.3863 112.578-13.5195L119.816-6.26172C135.141-16.3475 144.097-29.4594 144.097-35.1881C144.097-45.1851 117.058-77.4318 77.0323-77.4318ZM77.0323-8.88124C80.8608-8.88124 84.4001-9.78542 87.5756-11.3062L53.0394-45.8338C51.4838-42.6235 50.6317-39.0322 50.6317-35.1778C50.6923-20.8711 62.3375-8.88124 77.0323-8.88124ZM101.411-25.7645C102.671-28.6692 103.4-31.8594 103.4-35.1983C103.4-49.8828 91.6612-61.4846 77.0425-61.4846C73.6516-61.4846 70.5065-60.8164 67.6104-59.6083ZM115.51 7.88195C117.031 9.41104 119.439 9.49789 120.993 7.88195C122.607 6.22259 122.522 3.91984 120.993 2.39935L38.3368-80.2118C36.8163-81.7237 34.3295-81.7409 32.7918-80.2118C31.3251-78.7364 31.3251-76.196 32.7918-74.7206Z"/>
  </g>
  <g id="Regular-M" transform="matrix(1 0 0 1 1373.17 1126)">
   <path d="M76.6755 6.6453C85.7644 6.6453 94.0932 5.03393 101.634 2.40458L95.2613-3.96813C89.4303-2.17839 83.2984-1.08556 76.6755-1.08556C44.5469-1.08556 18.5076-28.3112 18.5076-35.1983C18.5076-38.609 27.5744-49.9967 41.9622-58.6495L35.8694-64.68C19.5963-54.6078 9.96875-41.1067 9.96875-35.1983C9.96875-25.2622 37.7325 6.6453 76.6755 6.6453ZM76.6755-77.042C68.2076-77.042 60.4914-75.5859 53.3128-73.2047L59.7784-66.7496C65.1331-68.3841 70.6526-69.3322 76.6755-69.3322C108.795-69.3322 134.781-41.0092 134.781-35.1983C134.781-31.2289 126.262-20.5965 112.786-12.327L118.775-6.33771C134.241-16.3477 143.372-29.4452 143.372-35.1983C143.372-45.1862 116.125-77.042 76.6755-77.042ZM76.6755-7.86768C81.0197-7.86768 85.0419-8.92887 88.6269-10.7186L52.0501-47.2849C50.2191-43.6587 49.2202-39.5742 49.2202-35.1983C49.2931-20.3181 61.3802-7.86768 76.6755-7.86768ZM101.735-24.5197C103.214-27.7942 104.079-31.4128 104.079-35.1983C104.079-50.4936 91.8663-62.529 76.6755-62.529C72.8277-62.529 69.2502-61.7371 65.9863-60.3202ZM114.669 7.07589C116.14 8.55765 118.451 8.66116 119.974 7.07589C121.57 5.43887 121.456 3.24212 119.974 1.77091L38.3662-79.7959C36.895-81.2566 34.4912-81.2777 32.9989-79.7959C31.5795-78.3659 31.5795-75.9104 32.9989-74.4804Z"/>
  </g>
  <g id="Light-M" transform="matrix(1 0 0 1 1077.62 1126)">
   <path d="M75.5291 6.20042C84.9089 6.20042 93.3061 4.40082 101.052 1.54903L96.0655-3.43769C89.6699-1.27151 82.9904 0.077987 75.5291 0.077987C42.3225 0.077987 16.6938-28.0545 16.6938-35.1983C16.6938-39.0881 25.9146-51.1602 40.9014-60.1039L36.1432-64.7998C19.7503-54.7618 9.96875-41.0896 9.96875-35.1983C9.96875-25.4162 37.3903 6.20042 75.5291 6.20042ZM75.5291-76.5971C66.565-76.5971 58.7632-74.9014 51.2595-72.1952L56.2878-67.1945C62.344-69.2568 68.4282-70.53 75.5291-70.53C108.812-70.53 134.302-41.6423 134.302-35.1983C134.302-30.9552 125.407-19.3474 111.092-10.7015L115.781-6.01261C131.571-15.9883 141.062-29.411 141.062-35.1983C141.062-45.0151 113.987-76.5971 75.5291-76.5971ZM75.5291-7.90191C80.2497-7.90191 84.6312-9.16842 88.4729-11.3346L51.4854-48.2945C49.3122-44.4458 48.108-40.002 48.108-35.1983C48.198-20.3352 60.2851-7.90191 75.5291-7.90191ZM99.8015-23.0652C101.76-26.6991 102.915-30.8311 102.915-35.1983C102.915-50.4423 90.6001-62.4948 75.5291-62.4948C71.0995-62.4948 66.9745-61.4291 63.3683-59.5331ZM114.413 7.12722C115.542 8.28387 117.356 8.35316 118.52 7.12722C119.773 5.86665 119.676 4.14899 118.52 3.02001L35.9193-79.5735C34.7904-80.6748 32.9341-80.7301 31.7498-79.5735C30.6555-78.4515 30.6555-76.5606 31.7498-75.4386Z"/>
  </g>
  <g id="Thin-M" transform="matrix(1 0 0 1 782.435 1126)">
   <path d="M74.0128 5.61202C83.7774 5.61202 92.2651 3.56349 100.283 0.4175L97.1292-2.73615C89.9867-0.0720913 82.583 1.61687 74.0128 1.61687C39.3805 1.61687 14.295-27.715 14.295-35.1983C14.295-39.7218 23.7195-52.6991 39.4983-62.0275L36.5053-64.9582C19.954-54.9654 9.96875-41.067 9.96875-35.1983C9.96875-25.6199 36.9377 5.61202 74.0128 5.61202ZM74.0128-76.0087C64.3924-76.0087 56.4775-73.9962 48.5438-70.86L51.6712-67.7829C58.6552-70.4109 65.4862-72.1141 74.0128-72.1141C108.834-72.1141 133.668-42.4797 133.668-35.1983C133.668-30.5931 124.275-17.6953 108.852-8.5516L111.821-5.58262C128.041-15.5131 138.007-29.3657 138.007-35.1983C138.007-44.7888 111.158-76.0087 74.0128-76.0087ZM74.0128-7.94717C79.2314-7.94717 84.0881-9.48525 88.2692-12.1493L50.7386-49.6297C48.1128-45.4868 46.637-40.5678 46.637-35.1983C46.7496-20.3578 58.8367-7.94717 74.0128-7.94717ZM97.2443-21.1416C99.8363-25.2507 101.377-30.0616 101.377-35.1983C101.377-50.3744 88.9254-62.4495 74.0128-62.4495C68.8138-62.4495 63.9646-61.0218 59.9058-58.4921ZM114.073 7.19512C114.75 7.92178 115.908 7.94581 116.596 7.19512C117.397 6.43241 117.323 5.34842 116.596 4.67204L32.6832-79.2793C32.0068-79.9054 30.8747-80.006 30.0978-79.2793C29.4334-78.5646 29.4334-77.4206 30.0978-76.7059Z"/>
  </g>
  <g id="Ultralight-M" transform="matrix(1 0 0 1 486.506 1126)">
   <path d="M73.2362 5.31065C83.1978 5.31065 91.7319 3.13461 99.8887-0.162064L97.674-2.37682C90.149 0.542247 82.3744 2.40507 73.2362 2.40507C37.8737 2.40507 13.0663-27.5412 13.0663-35.1983C13.0663-40.0463 22.5951-53.4873 38.7796-63.0128L36.6907-65.0393C20.0583-55.0697 9.96875-41.0554 9.96875-35.1983C9.96875-25.7242 36.7059 5.31065 73.2362 5.31065ZM73.2362-75.7073C63.2797-75.7073 55.3068-73.5326 47.1528-70.1761L49.3066-68.0843C56.7659-71.0021 63.9793-72.9255 73.2362-72.9255C108.846-72.9255 133.344-42.9086 133.344-35.1983C133.344-30.4076 123.696-16.8492 107.704-7.45043L109.792-5.36239C126.233-15.2697 136.442-29.3425 136.442-35.1983C136.442-44.6729 109.709-75.7073 73.2362-75.7073ZM73.2362-7.97035C78.7098-7.97035 83.8099-9.64753 88.1649-12.5666L50.3561-50.3135C47.4985-46.02 45.8836-40.8575 45.8836-35.1983C46.0078-20.3694 58.0949-7.97035 73.2362-7.97035ZM95.9345-20.1564C98.851-24.5089 100.588-29.6675 100.588-35.1983C100.588-50.3396 88.0677-62.4263 73.2362-62.4263C67.6431-62.4263 62.423-60.8131 58.1324-57.9589ZM113.899 7.22989C114.344 7.73632 115.166 7.73716 115.611 7.22989C116.18 6.72219 116.117 5.96275 115.611 5.5182L31.0256-79.1286C30.5811-79.5113 29.8199-79.635 29.2516-79.1286C28.8075-78.6226 28.8075-77.8611 29.2516-77.355Z"/>
  </g>
  <g id="Black-S" transform="matrix(1 0 0 1 2871.66 696)">
   <path d="M61.7188-0.439453C68.5059-0.439453 74.7559-1.51367 80.3711-3.32031L68.8965-14.8926C66.6016-14.502 64.209-14.2578 61.7188-14.2578C40.918-14.2578 26.3672-30.127 26.3672-35.1562C26.3672-37.207 30.0781-42.5293 36.4746-47.2656L25.7324-58.0078C14.3066-49.7559 7.8125-39.5508 7.8125-35.1562C7.8125-27.2461 28.7109-0.439453 61.7188-0.439453ZM61.7188-69.8242C54.9805-69.8242 48.7793-68.7012 43.1641-66.8945L54.6387-55.3711C56.8848-55.7617 59.2773-56.0059 61.7188-56.0059C82.5195-56.0059 97.1191-39.2578 97.1191-35.1562C97.1191-32.666 93.5059-27.4414 87.3047-22.8516L97.8516-12.207C109.326-20.4102 115.674-30.7617 115.674-35.1562C115.674-43.0176 95.3125-69.8242 61.7188-69.8242ZM61.7188-18.6035C62.6953-18.6035 63.5742-18.7012 64.4531-18.8477L45.459-37.8418C45.3125-36.9629 45.2148-36.084 45.2148-35.1074C45.2148-26.1719 52.5879-18.6035 61.7188-18.6035ZM78.0762-32.666C78.2227-33.4961 78.2715-34.3262 78.2715-35.2051C78.2715-44.2871 70.9473-51.6602 61.7676-51.6602C60.8887-51.6602 60.1074-51.6113 59.2773-51.4648ZM93.8477 1.75781C95.2148 3.125 97.4609 3.125 98.7793 1.75781C100.098 0.390625 100.146-1.80664 98.7793-3.17383L29.7852-72.1191C28.418-73.4863 26.1719-73.4863 24.8047-72.1191C23.4863-70.8008 23.4863-68.5059 24.8047-67.1875Z"/>
  </g>
  <g id="Heavy-S" transform="matrix(1 0 0 1 2575.21 696)">
   <path d="M61.4652-0.854334C68.2984-0.854334 74.606-1.9516 80.2674-3.79282L70.1642-13.9706C67.3968-13.3841 64.4971-13.0247 61.4652-13.0247C39.754-13.0247 23.7742-30.0809 23.7742-35.1678C23.7742-37.3108 28.2688-43.4052 35.7486-48.5909L26.2625-58.0654C14.5371-49.8942 7.8125-39.6199 7.8125-35.1678C7.8125-27.2691 28.953-0.854334 61.4652-0.854334ZM61.4652-69.4439C54.8076-69.4439 48.6525-68.3439 43.0719-66.5603L53.1981-56.3968C55.8245-56.9487 58.6089-57.2736 61.4652-57.2736C83.1649-57.2736 99.182-39.3039 99.182-35.1678C99.182-32.5623 94.8888-26.7154 87.7541-21.7222L97.0679-12.3338C108.658-20.4563 115.155-30.7502 115.155-35.1678C115.155-43.0406 94.5404-69.4439 61.4652-69.4439ZM61.4652-17.4626C62.9719-17.4626 64.3464-17.7101 65.6517-18.1101L44.4218-39.34C44.0102-38.0231 43.7743-36.6372 43.7743-35.1305C43.7858-25.5496 51.6544-17.4626 61.4652-17.4626ZM78.687-31.4559C79.0178-32.6548 79.1819-33.8998 79.1819-35.2051C79.1819-44.9786 71.3391-52.8357 61.5025-52.8357C60.1857-52.8357 58.9895-52.6831 57.7907-52.3638ZM92.9372 0.84738C94.2929 2.20304 96.4929 2.22609 97.8228 0.84738C99.1642-0.542857 99.1784-2.6825 97.8228-4.03816L30.1309-71.6812C28.7752-73.0369 26.5522-73.0369 25.1965-71.6812C23.8897-70.3744 23.8897-68.1025 25.1965-66.7957Z"/>
  </g>
  <g id="Bold-S" transform="matrix(1 0 0 1 2278.78 696)">
   <path d="M61.1816-1.31836C68.0664-1.31836 74.4385-2.44141 80.1514-4.32129L71.582-12.9395C68.2861-12.1338 64.8193-11.6455 61.1816-11.6455C38.4521-11.6455 20.874-30.0293 20.874-35.1807C20.874-37.4268 26.2451-44.3848 34.9365-50.0732L26.8555-58.1299C14.7949-50.0488 7.8125-39.6973 7.8125-35.1807C7.8125-27.2949 29.2236-1.31836 61.1816-1.31836ZM61.1816-69.0186C54.6143-69.0186 48.5107-67.9443 42.9688-66.1865L51.5869-57.5439C54.6387-58.2764 57.8613-58.6914 61.1816-58.6914C83.8867-58.6914 101.489-39.3555 101.489-35.1807C101.489-32.4463 96.4355-25.9033 88.2568-20.459L96.1914-12.4756C107.91-20.5078 114.575-30.7373 114.575-35.1807C114.575-43.0664 93.6768-69.0186 61.1816-69.0186ZM61.1816-16.1865C63.2812-16.1865 65.21-16.6016 66.9922-17.2852L43.2617-41.0156C42.5537-39.209 42.1631-37.2559 42.1631-35.1562C42.1875-24.8535 50.6104-16.1865 61.1816-16.1865ZM79.3701-30.1025C79.9072-31.7139 80.2002-33.4229 80.2002-35.2051C80.2002-45.752 71.7773-54.1504 61.2061-54.1504C59.3994-54.1504 57.7393-53.8818 56.1279-53.3691ZM91.9189-0.170898C93.2617 1.17188 95.4102 1.2207 96.7529-0.170898C98.1201-1.58691 98.0957-3.66211 96.7529-5.00488L30.5176-71.1914C29.1748-72.5342 26.9775-72.5342 25.6348-71.1914C24.3408-69.8975 24.3408-67.6514 25.6348-66.3574Z"/>
  </g>
  <g id="Semibold-S" transform="matrix(1 0 0 1 1982.27 696)">
   <path d="M60.9861-1.63828C67.9064-1.63828 74.3229-2.7791 80.0714-4.68564L72.5596-12.2285C68.8993-11.2718 65.0415-10.6946 60.9861-10.6946C37.5546-10.6946 18.8745-29.9937 18.8745-35.1896C18.8745-37.5067 24.8499-45.0602 34.3767-51.0952L27.2643-58.1743C14.9727-50.1555 7.8125-39.7506 7.8125-35.1896C7.8125-27.3127 29.4103-1.63828 60.9861-1.63828ZM60.9861-68.7253C54.481-68.7253 48.413-67.6688 42.8977-65.9288L50.4761-58.3349C53.8211-59.1917 57.3459-59.6689 60.9861-59.6689C84.3844-59.6689 103.08-39.391 103.08-35.1896C103.08-32.3663 97.502-25.3435 88.6034-19.5881L95.5871-12.5733C107.395-20.5434 114.175-30.7284 114.175-35.1896C114.175-43.0842 93.0813-68.7253 60.9861-68.7253ZM60.9861-15.3067C63.4945-15.3067 65.8054-15.8373 67.9164-16.7164L42.4619-42.1709C41.5495-40.0266 41.0522-37.6824 41.0522-35.174C41.0855-24.3736 49.8905-15.3067 60.9861-15.3067ZM79.8411-29.1694C80.5204-31.0651 80.9022-33.094 80.9022-35.2051C80.9022-46.2852 72.0795-55.0568 61.0017-55.0568C58.8573-55.0568 56.8772-54.7083 54.9815-54.0623ZM91.2169-0.872949C92.5508 0.460938 94.6637 0.527539 96.0153-0.872949C97.4003-2.30674 97.3492-4.3375 96.0153-5.67139L30.7842-70.8537C29.4503-72.1876 27.2708-72.1876 25.9369-70.8537C24.6519-69.5687 24.6519-67.3403 25.9369-66.0553Z"/>
  </g>
  <g id="Medium-S" transform="matrix(1 0 0 1 1685.71 696)">
   <path d="M60.8379-1.88086C67.7852-1.88086 74.2354-3.03516 80.0107-4.96191L73.3008-11.6895C69.3643-10.6182 65.21-9.97363 60.8379-9.97363C36.874-9.97363 17.3584-29.9668 17.3584-35.1963C17.3584-37.5674 23.792-45.5723 33.9521-51.8701L27.5742-58.208C15.1074-50.2363 7.8125-39.791 7.8125-35.1963C7.8125-27.3262 29.5518-1.88086 60.8379-1.88086ZM60.8379-68.5029C54.3799-68.5029 48.3389-67.46 42.8438-65.7334L49.6338-58.9346C53.2012-59.8857 56.9551-60.4102 60.8379-60.4102C84.7617-60.4102 104.286-39.418 104.286-35.1963C104.286-32.3057 98.3105-24.9189 88.8662-18.9277L95.1289-12.6475C107.004-20.5703 113.872-30.7217 113.872-35.1963C113.872-43.0977 92.6299-68.5029 60.8379-68.5029ZM60.8379-14.6396C63.6562-14.6396 66.2568-15.2578 68.6172-16.2852L41.8555-43.0469C40.7881-40.6465 40.21-38.0059 40.21-35.1875C40.25-24.0098 49.3447-14.6396 60.8379-14.6396ZM80.1982-28.4619C80.9854-30.5732 81.4346-32.8447 81.4346-35.2051C81.4346-46.6895 72.3086-55.7441 60.8467-55.7441C58.4463-55.7441 56.2236-55.335 54.1123-54.5879ZM90.6846-1.40527C92.0117-0.078125 94.0977 0.00195312 95.4561-1.40527C96.8545-2.85254 96.7832-4.84961 95.4561-6.17676L30.9863-70.5977C29.6592-71.9248 27.4932-71.9248 26.166-70.5977C24.8877-69.3193 24.8877-67.1045 26.166-65.8262Z"/>
  </g>
  <g id="Regular-S" transform="matrix(1 0 0 1 1389.2 696)">
   <path d="M60.6445-2.19727C67.627-2.19727 74.1211-3.36914 79.9316-5.32227L74.2676-10.9863C69.9707-9.76562 65.4297-9.0332 60.6445-9.0332C35.9863-9.0332 15.3809-29.9316 15.3809-35.2051C15.3809-37.6465 22.4121-46.2402 33.3984-52.8809L27.9785-58.252C15.2832-50.3418 7.8125-39.8438 7.8125-35.2051C7.8125-27.3438 29.7363-2.19727 60.6445-2.19727ZM60.6445-68.2129C54.248-68.2129 48.2422-67.1875 42.7734-65.4785L48.5352-59.7168C52.3926-60.791 56.4453-61.377 60.6445-61.377C85.2539-61.377 105.859-39.4531 105.859-35.2051C105.859-32.2266 99.3652-24.3652 89.209-18.0664L94.5312-12.7441C106.494-20.6055 113.477-30.7129 113.477-35.2051C113.477-43.1152 92.041-68.2129 60.6445-68.2129ZM60.6445-13.7695C63.8672-13.7695 66.8457-14.502 69.5312-15.7227L41.0645-44.1895C39.7949-41.4551 39.1113-38.4277 39.1113-35.2051C39.1602-23.5352 48.6328-13.7695 60.6445-13.7695ZM80.6641-27.5391C81.5918-29.9316 82.1289-32.5195 82.1289-35.2051C82.1289-47.2168 72.6074-56.6406 60.6445-56.6406C57.9102-56.6406 55.3711-56.1523 52.9785-55.2734ZM89.9902-2.09961C91.3086-0.78125 93.3594-0.683594 94.7266-2.09961C96.1426-3.56445 96.0449-5.51758 94.7266-6.83594L31.25-70.2637C29.9316-71.582 27.7832-71.582 26.4648-70.2637C25.1953-68.9941 25.1953-66.7969 26.4648-65.5273Z"/>
  </g>
  <g id="Light-S" transform="matrix(1 0 0 1 1093.51 696)">
   <path d="M59.6304-2.59082C66.8701-2.59082 73.4248-3.92919 79.417-6.0791L74.979-10.5171C70.1826-8.96339 65.1572-8.00391 59.6304-8.00391C34.0186-8.00391 13.7764-29.7046 13.7764-35.2051C13.7764-38.0703 20.9439-47.2695 32.46-54.1675L28.2207-58.3579C15.4194-50.478 7.8125-39.8286 7.8125-35.2051C7.8125-27.48 29.4336-2.59082 59.6304-2.59082ZM59.6304-67.8193C52.7949-67.8193 46.7134-66.582 40.957-64.5855L45.4473-60.1103C49.9253-61.563 54.4776-62.4365 59.6304-62.4365C85.269-62.4365 105.436-40.0132 105.436-35.2051C105.436-31.9844 98.6084-23.2603 87.7105-16.6284L91.8823-12.4565C104.133-20.2876 111.433-30.6826 111.433-35.2051C111.433-42.9639 90.1489-67.8193 59.6304-67.8193ZM59.6304-13.7998C63.186-13.7998 66.4824-14.7139 69.395-16.2676L40.5649-45.0825C38.9927-42.1514 38.1274-38.8061 38.1274-35.2051C38.1914-23.5503 47.6641-13.7998 59.6304-13.7998ZM78.9536-26.2525C80.3052-28.9629 81.0996-32.0049 81.0996-35.2051C81.0996-47.1714 71.4873-56.6104 59.6304-56.6104C56.3814-56.6104 53.3579-55.8799 50.6626-54.5772ZM89.7632-2.0542C90.7788-1.02344 92.3906-0.956053 93.44-2.0542C94.5532-3.18604 94.4707-4.71534 93.44-5.73097L29.0855-70.0669C28.0698-71.0674 26.4058-71.0977 25.3599-70.0669C24.3779-69.0698 24.3779-67.3721 25.3599-66.375Z"/>
  </g>
  <g id="Thin-S" transform="matrix(1 0 0 1 798.151 696)">
   <path d="M58.2891-3.11132C65.8692-3.11132 72.5039-4.66991 78.7363-7.08006L75.9199-9.89649C70.4629-7.90236 64.7969-6.6426 58.2891-6.6426C31.4161-6.6426 11.6543-29.4043 11.6543-35.2051C11.6543-38.6309 19.002-48.6308 31.2188-55.8691L28.541-58.498C15.5996-50.6582 7.8125-39.8086 7.8125-35.2051C7.8125-27.6602 29.0332-3.11132 58.2891-3.11132ZM58.2891-67.2988C50.8731-67.2988 44.6914-65.7813 38.5547-63.4043L41.3633-60.6309C46.6622-62.584 51.875-63.8379 58.2891-63.8379C85.2891-63.8379 104.875-40.7539 104.875-35.2051C104.875-31.6641 97.6074-21.7988 85.7285-14.7266L88.379-12.0762C101.01-19.8672 108.731-30.6426 108.731-35.2051C108.731-42.7637 87.6465-67.2988 58.2891-67.2988ZM58.2891-13.8398C62.2852-13.8398 66.002-14.9941 69.2148-16.9883L39.9043-46.2637C37.9317-43.0723 36.8262-39.3066 36.8262-35.2051C36.9102-23.5703 46.3828-13.8398 58.2891-13.8398ZM76.6914-24.5508C78.6035-27.6817 79.7383-31.3242 79.7383-35.2051C79.7383-47.1113 70.0059-56.5703 58.2891-56.5703C54.3594-56.5703 50.6953-55.5195 47.5997-53.6563ZM89.4629-1.99414C90.0781-1.34375 91.1094-1.3164 91.7383-1.99414C92.4512-2.68555 92.3887-3.65431 91.7383-4.26955L26.2227-69.8066C25.6075-70.3867 24.584-70.457 23.8985-69.8066C23.2969-69.1699 23.2969-68.1328 23.8985-67.4961Z"/>
  </g>
  <g id="Ultralight-S" transform="matrix(1 0 0 1 502.132 696)">
   <path d="M57.6021-3.37792C65.3565-3.37792 72.0322-5.0493 78.3877-7.59276L76.4018-9.57862C70.6064-7.35891 64.6123-5.94534 57.6021-5.94534C30.0831-5.94534 10.5674-29.2505 10.5674-35.2051C10.5674-38.918 18.0074-49.3281 30.583-56.7407L28.7051-58.5698C15.6919-50.7505 7.8125-39.7983 7.8125-35.2051C7.8125-27.7524 28.8281-3.37792 57.6021-3.37792ZM57.6021-67.0322C49.8887-67.0322 43.6558-65.3711 37.3243-62.7993L39.2716-60.8975C44.9908-63.1069 50.542-64.5556 57.6021-64.5556C85.2993-64.5556 104.588-41.1333 104.588-35.2051C104.588-31.5 97.0947-21.0503 84.7134-13.7525L86.5845-11.8814C99.4102-19.6519 107.346-30.6221 107.346-35.2051C107.346-42.6611 86.3648-67.0322 57.6021-67.0322ZM57.6021-13.8604C61.8237-13.8604 65.7559-15.1377 69.1226-17.3574L39.5659-46.8686C37.3882-43.5439 36.1597-39.563 36.1597-35.2051C36.2539-23.5806 45.7266-13.8604 57.6021-13.8604ZM75.5328-23.6792C77.732-27.0254 79.041-30.9756 79.041-35.2051C79.041-47.0806 69.2471-56.5498 57.6021-56.5498C53.3238-56.5498 49.3316-55.335 46.0308-53.1846ZM89.3091-1.96338C89.7193-1.50781 90.4531-1.50097 90.8667-1.96338C91.3745-2.42921 91.3223-3.11086 90.8667-3.52102L24.7564-69.6733C24.3462-70.0381 23.6509-70.1289 23.1499-69.6733C22.7432-69.2212 22.7432-68.5224 23.1499-68.0703Z"/>
  </g>
 </g>
</svg>
