<?xml version="1.0" encoding="UTF-8"?>
<!--Generator: Apple Native CoreSVG 175.5-->
<!DOCTYPE svg
PUBLIC "-//W3C//DTD SVG 1.1//EN"
       "http://www.w3.org/Graphics/SVG/1.1/DTD/svg11.dtd">
<svg version="1.1" xmlns="http://www.w3.org/2000/svg" xmlns:xlink="http://www.w3.org/1999/xlink" width="3300" height="2200">
 <!--glyph: "uni100129.medium", point size: 100.0, font version: "18.0d11e1", template writer version: "90"-->
 <g id="Notes">
  <rect height="2200" id="artboard" style="fill:white;opacity:1" width="3300" x="0" y="0"/>
  <line style="fill:none;stroke:black;opacity:1;stroke-width:0.5;" x1="263" x2="3036" y1="292" y2="292"/>
  <text style="stroke:none;fill:black;font-family:sans-serif;font-size:13;font-weight:bold;" transform="matrix(1 0 0 1 263 322)">Weight/Scale Variations</text>
  <text style="stroke:none;fill:black;font-family:sans-serif;font-size:13;text-anchor:middle;" transform="matrix(1 0 0 1 559.711 322)">Ultralight</text>
  <text style="stroke:none;fill:black;font-family:sans-serif;font-size:13;text-anchor:middle;" transform="matrix(1 0 0 1 856.422 322)">Thin</text>
  <text style="stroke:none;fill:black;font-family:sans-serif;font-size:13;text-anchor:middle;" transform="matrix(1 0 0 1 1153.13 322)">Light</text>
  <text style="stroke:none;fill:black;font-family:sans-serif;font-size:13;text-anchor:middle;" transform="matrix(1 0 0 1 1449.84 322)">Regular</text>
  <text style="stroke:none;fill:black;font-family:sans-serif;font-size:13;text-anchor:middle;" transform="matrix(1 0 0 1 1746.56 322)">Medium</text>
  <text style="stroke:none;fill:black;font-family:sans-serif;font-size:13;text-anchor:middle;" transform="matrix(1 0 0 1 2043.27 322)">Semibold</text>
  <text style="stroke:none;fill:black;font-family:sans-serif;font-size:13;text-anchor:middle;" transform="matrix(1 0 0 1 2339.98 322)">Bold</text>
  <text style="stroke:none;fill:black;font-family:sans-serif;font-size:13;text-anchor:middle;" transform="matrix(1 0 0 1 2636.69 322)">Heavy</text>
  <text style="stroke:none;fill:black;font-family:sans-serif;font-size:13;text-anchor:middle;" transform="matrix(1 0 0 1 2933.4 322)">Black</text>
  <line style="fill:none;stroke:black;opacity:1;stroke-width:0.5;" x1="263" x2="3036" y1="1903" y2="1903"/>
  <g transform="matrix(1 0 0 1 263 1933)">
   <path d="M9.24805 0.830078C13.5547 0.830078 17.1387-2.74414 17.1387-7.05078C17.1387-11.3574 13.5449-14.9316 9.23828-14.9316C4.94141-14.9316 1.36719-11.3574 1.36719-7.05078C1.36719-2.74414 4.95117 0.830078 9.24805 0.830078ZM9.24805-0.654297C5.70312-0.654297 2.87109-3.49609 2.87109-7.05078C2.87109-10.6055 5.69336-13.4473 9.23828-13.4473C12.793-13.4473 15.6445-10.6055 15.6445-7.05078C15.6445-3.49609 12.8027-0.654297 9.24805-0.654297ZM5.6543-7.05078C5.6543-6.62109 5.95703-6.32812 6.40625-6.32812L8.50586-6.32812L8.50586-4.20898C8.50586-3.76953 8.79883-3.4668 9.22852-3.4668C9.67773-3.4668 9.9707-3.76953 9.9707-4.20898L9.9707-6.32812L12.0898-6.32812C12.5293-6.32812 12.832-6.62109 12.832-7.05078C12.832-7.49023 12.5293-7.79297 12.0898-7.79297L9.9707-7.79297L9.9707-9.90234C9.9707-10.3516 9.67773-10.6543 9.22852-10.6543C8.79883-10.6543 8.50586-10.3516 8.50586-9.90234L8.50586-7.79297L6.40625-7.79297C5.95703-7.79297 5.6543-7.49023 5.6543-7.05078Z"/>
  </g>
  <g transform="matrix(1 0 0 1 281.867 1933)">
   <path d="M11.709 2.91016C17.1582 2.91016 21.6699-1.61133 21.6699-7.05078C21.6699-12.5 17.1484-17.0117 11.6992-17.0117C6.25977-17.0117 1.74805-12.5 1.74805-7.05078C1.74805-1.61133 6.26953 2.91016 11.709 2.91016ZM11.709 1.25C7.09961 1.25 3.41797-2.44141 3.41797-7.05078C3.41797-11.6602 7.08984-15.3516 11.6992-15.3516C16.3086-15.3516 20.0098-11.6602 20.0098-7.05078C20.0098-2.44141 16.3184 1.25 11.709 1.25ZM7.17773-7.05078C7.17773-6.57227 7.50977-6.25 8.00781-6.25L10.8789-6.25L10.8789-3.36914C10.8789-2.88086 11.2109-2.53906 11.6895-2.53906C12.1777-2.53906 12.5195-2.87109 12.5195-3.36914L12.5195-6.25L15.4004-6.25C15.8887-6.25 16.2305-6.57227 16.2305-7.05078C16.2305-7.53906 15.8887-7.88086 15.4004-7.88086L12.5195-7.88086L12.5195-10.752C12.5195-11.25 12.1777-11.5918 11.6895-11.5918C11.2109-11.5918 10.8789-11.25 10.8789-10.752L10.8789-7.88086L8.00781-7.88086C7.50977-7.88086 7.17773-7.53906 7.17773-7.05078Z"/>
  </g>
  <g transform="matrix(1 0 0 1 305.646 1933)">
   <path d="M14.9707 5.66406C21.9336 5.66406 27.6953-0.0976562 27.6953-7.05078C27.6953-14.0137 21.9238-19.7754 14.9609-19.7754C8.00781-19.7754 2.25586-14.0137 2.25586-7.05078C2.25586-0.0976562 8.01758 5.66406 14.9707 5.66406ZM14.9707 3.84766C8.93555 3.84766 4.08203-1.01562 4.08203-7.05078C4.08203-13.0957 8.92578-17.9492 14.9609-17.9492C21.0059-17.9492 25.8691-13.0957 25.8691-7.05078C25.8691-1.01562 21.0156 3.84766 14.9707 3.84766ZM9.19922-7.05078C9.19922-6.5332 9.57031-6.17188 10.1172-6.17188L14.0625-6.17188L14.0625-2.2168C14.0625-1.67969 14.4336-1.29883 14.9512-1.29883C15.4883-1.29883 15.8594-1.66992 15.8594-2.2168L15.8594-6.17188L19.8145-6.17188C20.3516-6.17188 20.7324-6.5332 20.7324-7.05078C20.7324-7.59766 20.3613-7.96875 19.8145-7.96875L15.8594-7.96875L15.8594-11.9141C15.8594-12.4609 15.4883-12.8418 14.9512-12.8418C14.4336-12.8418 14.0625-12.4609 14.0625-11.9141L14.0625-7.96875L10.1172-7.96875C9.57031-7.96875 9.19922-7.59766 9.19922-7.05078Z"/>
  </g>
  <text style="stroke:none;fill:black;font-family:sans-serif;font-size:13;font-weight:bold;" transform="matrix(1 0 0 1 263 1953)">Design Variations</text>
  <text style="stroke:none;fill:black;font-family:sans-serif;font-size:13;" transform="matrix(1 0 0 1 263 1971)">Symbols are supported in up to nine weights and three scales.</text>
  <text style="stroke:none;fill:black;font-family:sans-serif;font-size:13;" transform="matrix(1 0 0 1 263 1989)">For optimal layout with text and other symbols, vertically align</text>
  <text style="stroke:none;fill:black;font-family:sans-serif;font-size:13;" transform="matrix(1 0 0 1 263 2007)">symbols with the adjacent text.</text>
  <line style="fill:none;stroke:#00AEEF;stroke-width:0.5;opacity:1.0;" x1="776" x2="776" y1="1919" y2="1933"/>
  <g transform="matrix(1 0 0 1 776 1933)">
   <path d="M3.31055 0.15625C3.82812 0.15625 4.08203-0.0390625 4.26758-0.585938L5.52734-4.0332L11.2891-4.0332L12.5488-0.585938C12.7344-0.0390625 12.9883 0.15625 13.4961 0.15625C14.0137 0.15625 14.3457-0.15625 14.3457-0.644531C14.3457-0.810547 14.3164-0.966797 14.2383-1.17188L9.6582-13.3691C9.43359-13.9648 9.0332-14.2676 8.4082-14.2676C7.80273-14.2676 7.39258-13.9746 7.17773-13.3789L2.59766-1.16211C2.51953-0.957031 2.49023-0.800781 2.49023-0.634766C2.49023-0.146484 2.80273 0.15625 3.31055 0.15625ZM6.00586-5.51758L8.37891-12.0898L8.42773-12.0898L10.8008-5.51758Z"/>
  </g>
  <line style="fill:none;stroke:#00AEEF;stroke-width:0.5;opacity:1.0;" x1="793.197" x2="793.197" y1="1919" y2="1933"/>
  <text style="stroke:none;fill:black;font-family:sans-serif;font-size:13;font-weight:bold;" transform="matrix(1 0 0 1 776 1953)">Margins</text>
  <text style="stroke:none;fill:black;font-family:sans-serif;font-size:13;" transform="matrix(1 0 0 1 776 1971)">Leading and trailing margins on the left and right side of each symbol</text>
  <text style="stroke:none;fill:black;font-family:sans-serif;font-size:13;" transform="matrix(1 0 0 1 776 1989)">can be adjusted by modifying the x-location of the margin guidelines.</text>
  <text style="stroke:none;fill:black;font-family:sans-serif;font-size:13;" transform="matrix(1 0 0 1 776 2007)">Modifications are automatically applied proportionally to all</text>
  <text style="stroke:none;fill:black;font-family:sans-serif;font-size:13;" transform="matrix(1 0 0 1 776 2025)">scales and weights.</text>
  <g transform="matrix(1 0 0 1 1289 1933)">
   <path d="M2.8418 1.86523L4.54102 3.57422C5.40039 4.44336 6.38672 4.38477 7.31445 3.35938L18.0078-8.42773L17.041-9.4043L6.42578 2.27539C6.07422 2.67578 5.74219 2.77344 5.27344 2.30469L4.10156 1.14258C3.63281 0.683594 3.74023 0.341797 4.14062-0.0195312L15.6152-10.8203L14.6387-11.7871L3.04688-0.898438C2.06055 0.0195312 1.98242 0.996094 2.8418 1.86523ZM9.25781-16.3281C8.83789-15.918 8.80859-15.3418 9.04297-14.9512C9.27734-14.5898 9.73633-14.3555 10.3809-14.5215C11.8457-14.8633 13.3691-14.9219 14.7949-13.9844L14.209-12.5293C13.8672-11.6992 14.043-11.1133 14.5801-10.5664L16.875-8.25195C17.3633-7.76367 17.7734-7.74414 18.3398-7.8418L19.4043-8.03711L20.0684-7.36328L20.0293-6.80664C19.9902-6.30859 20.1172-5.92773 20.6055-5.44922L21.3672-4.70703C21.8457-4.22852 22.4609-4.19922 22.9297-4.66797L25.8398-7.58789C26.3086-8.05664 26.2891-8.65234 25.8105-9.13086L25.0391-9.89258C24.5605-10.3711 24.1895-10.5273 23.7109-10.4883L23.1348-10.4395L22.4902-11.0742L22.7344-12.1973C22.8613-12.7637 22.7051-13.2031 22.1191-13.7891L19.9219-15.9766C16.582-19.2969 12.1484-19.2188 9.25781-16.3281ZM10.752-15.957C13.1836-17.7344 16.4746-17.4316 18.7012-15.2051L21.1328-12.793C21.3672-12.5586 21.4062-12.373 21.3379-12.0312L21.0156-10.5469L22.5195-9.0625L23.5059-9.12109C23.7598-9.13086 23.8379-9.11133 24.0332-8.91602L24.6094-8.33984L22.168-5.89844L21.5918-6.47461C21.3965-6.66992 21.3672-6.74805 21.377-7.01172L21.4453-7.98828L19.9512-9.47266L18.4277-9.21875C18.1055-9.15039 17.959-9.17969 17.7148-9.41406L15.7129-11.416C15.459-11.6504 15.4297-11.8164 15.5859-12.1875L16.4648-14.2773C14.9023-15.7324 12.8711-16.3574 10.8398-15.7617C10.6836-15.7227 10.625-15.8496 10.752-15.957Z"/>
  </g>
  <text style="stroke:none;fill:black;font-family:sans-serif;font-size:13;font-weight:bold;" transform="matrix(1 0 0 1 1289 1953)">Exporting</text>
  <text style="stroke:none;fill:black;font-family:sans-serif;font-size:13;" transform="matrix(1 0 0 1 1289 1971)">Symbols should be outlined when exporting to ensure the</text>
  <text style="stroke:none;fill:black;font-family:sans-serif;font-size:13;" transform="matrix(1 0 0 1 1289 1989)">design is preserved when submitting to Xcode.</text>
  <text id="template-version" style="stroke:none;fill:black;font-family:sans-serif;font-size:13;text-anchor:end;" transform="matrix(1 0 0 1 3036 1933)">Template v.2.0</text>
  <text style="stroke:none;fill:black;font-family:sans-serif;font-size:13;text-anchor:end;" transform="matrix(1 0 0 1 3036 1951)">Requires Xcode 12 or greater</text>
  <text id="descriptive-name" style="stroke:none;fill:black;font-family:sans-serif;font-size:13;text-anchor:end;" transform="matrix(1 0 0 1 3036 1969)">Generated from arrow.down</text>
  <text style="stroke:none;fill:black;font-family:sans-serif;font-size:13;text-anchor:end;" transform="matrix(1 0 0 1 3036 1987)">Typeset at 100 points</text>
  <text style="stroke:none;fill:black;font-family:sans-serif;font-size:13;" transform="matrix(1 0 0 1 263 726)">Small</text>
  <text style="stroke:none;fill:black;font-family:sans-serif;font-size:13;" transform="matrix(1 0 0 1 263 1156)">Medium</text>
  <text style="stroke:none;fill:black;font-family:sans-serif;font-size:13;" transform="matrix(1 0 0 1 263 1586)">Large</text>
 </g>
 <g id="Guides">
  <g id="H-reference" style="fill:#27AAE1;stroke:none;" transform="matrix(1 0 0 1 339 696)">
   <path d="M0.993654 0L3.63775 0L29.3281-67.1323L30.0303-67.1323L30.0303-70.459L28.1226-70.459ZM11.6885-24.4799L46.9815-24.4799L46.2315-26.7285L12.4385-26.7285ZM55.1196 0L57.7637 0L30.6382-70.459L29.4326-70.459L29.4326-67.1323Z"/>
  </g>
  <line id="Baseline-S" style="fill:none;stroke:#27AAE1;opacity:1;stroke-width:0.5;" x1="263" x2="3036" y1="696" y2="696"/>
  <line id="Capline-S" style="fill:none;stroke:#27AAE1;opacity:1;stroke-width:0.5;" x1="263" x2="3036" y1="625.541" y2="625.541"/>
  <g id="H-reference" style="fill:#27AAE1;stroke:none;" transform="matrix(1 0 0 1 339 1126)">
   <path d="M0.993654 0L3.63775 0L29.3281-67.1323L30.0303-67.1323L30.0303-70.459L28.1226-70.459ZM11.6885-24.4799L46.9815-24.4799L46.2315-26.7285L12.4385-26.7285ZM55.1196 0L57.7637 0L30.6382-70.459L29.4326-70.459L29.4326-67.1323Z"/>
  </g>
  <line id="Baseline-M" style="fill:none;stroke:#27AAE1;opacity:1;stroke-width:0.5;" x1="263" x2="3036" y1="1126" y2="1126"/>
  <line id="Capline-M" style="fill:none;stroke:#27AAE1;opacity:1;stroke-width:0.5;" x1="263" x2="3036" y1="1055.54" y2="1055.54"/>
  <g id="H-reference" style="fill:#27AAE1;stroke:none;" transform="matrix(1 0 0 1 339 1556)">
   <path d="M0.993654 0L3.63775 0L29.3281-67.1323L30.0303-67.1323L30.0303-70.459L28.1226-70.459ZM11.6885-24.4799L46.9815-24.4799L46.2315-26.7285L12.4385-26.7285ZM55.1196 0L57.7637 0L30.6382-70.459L29.4326-70.459L29.4326-67.1323Z"/>
  </g>
  <line id="Baseline-L" style="fill:none;stroke:#27AAE1;opacity:1;stroke-width:0.5;" x1="263" x2="3036" y1="1556" y2="1556"/>
  <line id="Capline-L" style="fill:none;stroke:#27AAE1;opacity:1;stroke-width:0.5;" x1="263" x2="3036" y1="1485.54" y2="1485.54"/>
  <line id="left-margin" style="fill:none;stroke:#00AEEF;stroke-width:0.5;opacity:1.0;" x1="1400.38" x2="1400.38" y1="1030.79" y2="1150.12"/>
  <line id="right-margin" style="fill:none;stroke:#00AEEF;stroke-width:0.5;opacity:1.0;" x1="1499.31" x2="1499.31" y1="1030.79" y2="1150.12"/>
 </g>
 <g id="Symbols">
  <g id="Black-L" transform="matrix(1 0 0 1 2865.05 1556)">
   <path d="M68.3229-96.0663C61.5503-96.0663 57.0377-91.3397 57.0377-84.2179L57.0377-22.2492L58.24 4.39591L64.5046-0.421289L48.5366-19.6098L34.7983-33.4412C32.7511-35.5456 30.2041-37.1163 26.7239-37.1163C20.6938-37.1163 16.084-32.6997 16.084-26.2804C16.084-23.3246 17.3042-20.5296 19.5903-18.2031L60.0496 22.3318C62.0436 24.3467 65.2891 25.6073 68.3229 25.6073C71.358 25.6073 74.6022 24.3467 76.5963 22.3318L117.115-18.2031C119.401-20.5296 120.62-23.3246 120.62-26.2804C120.62-32.6997 116.01-37.1163 109.982-37.1163C106.5-37.1163 103.953-35.5456 101.907-33.4412L88.1092-19.6098L72.1204-0.421289L78.4058 4.39591L79.6093-22.2492L79.6093-84.2179C79.6093-91.3397 75.0955-96.0663 68.3229-96.0663Z"/>
  </g>
  <g id="Heavy-L" transform="matrix(1 0 0 1 2569.45 1556)">
   <path d="M67.2128-95.726C61.3204-95.726 57.3544-91.606 57.3544-85.4515L57.3544-18.2173L58.4204 6.46072L63.9537 2.50925L46.6472-17.7479L32.4457-31.9682C30.6676-33.7853 28.3936-35.1089 25.4113-35.1089C20.1147-35.1089 16.084-31.202 16.084-25.6176C16.084-23.0313 17.1399-20.6058 19.148-18.5429L59.9741 22.3411C61.7591 24.1563 64.5573 25.267 67.2128 25.267C69.874 25.267 72.6666 24.1563 74.4516 22.3411L115.328-18.5429C117.336-20.6058 118.386-23.0313 118.386-25.6176C118.386-31.202 114.356-35.1089 109.065-35.1089C106.077-35.1089 103.803-33.7853 102.03-31.9682L87.7785-17.7479L70.4418 2.50925L76.0053 6.46072L77.0769-18.2173L77.0769-85.4515C77.0769-91.606 73.1053-95.726 67.2128-95.726Z"/>
  </g>
  <g id="Bold-L" transform="matrix(1 0 0 1 2274.09 1556)">
   <path d="M65.8747-95.2811C61.0659-95.2811 57.7835-91.9066 57.7835-86.9359L57.7835-13.26L58.6731 9.01944L63.2624 6.07655L44.8254-14.921L29.5408-30.1544C28.0932-31.618 26.1648-32.6492 23.7824-32.6492C19.4-32.6492 16.084-29.3873 16.084-24.8252C16.084-22.6924 16.94-20.7204 18.6024-18.9953L59.9191 22.3489C61.4355 23.9033 63.6879 24.8221 65.8747 24.8221C68.0747 24.8221 70.3139 23.9033 71.8303 22.3489L113.189-18.9953C114.852-20.7204 115.695-22.6924 115.695-24.8252C115.695-29.3873 112.379-32.6492 108.009-32.6492C105.614-32.6492 103.685-31.618 102.251-30.1544L86.924-14.921L68.449 6.07655L73.0763 9.01944L73.9791-13.26L73.9791-86.9359C73.9791-91.9066 70.6835-95.2811 65.8747-95.2811Z"/>
  </g>
  <g id="Semibold-L" transform="matrix(1 0 0 1 1978.31 1556)">
   <path d="M64.9522-94.9743C60.8904-94.9743 58.0794-92.1139 58.0794-87.9592L58.0794-9.84249L58.8473 10.7834L62.7858 8.53582L43.5694-12.9722L27.5383-28.904C26.3185-30.1239 24.6283-30.9535 22.6594-30.9535C18.9073-30.9535 16.084-28.1363 16.084-24.279C16.084-22.4588 16.8022-20.7994 18.2262-19.3071L59.8812 22.3543C61.2124 23.7289 63.0885 24.5153 64.9522 24.5153C66.8343 24.5153 68.6919 23.7289 70.0231 22.3543L111.715-19.3071C113.139-20.7994 113.839-22.4588 113.839-24.279C113.839-28.1363 111.016-30.9535 107.282-30.9535C105.295-30.9535 103.604-30.1239 102.403-28.904L86.3349-12.9722L67.0751 8.53582L71.0571 10.7834L71.8434-9.84249L71.8434-87.9592C71.8434-92.1139 69.0139-94.9743 64.9522-94.9743Z"/>
  </g>
  <g id="Medium-L" transform="matrix(1 0 0 1 1682.3 1556)">
   <path d="M64.2527-94.7417C60.7574-94.7417 58.3037-92.271 58.3037-88.7351L58.3037-7.25118L58.9793 12.1209L62.4245 10.4005L42.6171-11.4945L26.0198-27.9559C24.9728-28.991 23.4633-29.6678 21.808-29.6678C18.5337-29.6678 16.084-27.1877 16.084-23.8648C16.084-22.2817 16.6977-20.8593 17.941-19.5436L59.8525 22.3584C61.0432 23.5966 62.634 24.2827 64.2527 24.2827C65.8938 24.2827 67.4621 23.5966 68.6529 22.3584L110.597-19.5436C111.841-20.8593 112.432-22.2817 112.432-23.8648C112.432-27.1877 109.982-29.6678 106.73-29.6678C105.053-29.6678 103.543-28.991 102.518-27.9559L85.8883-11.4945L66.0334 10.4005L69.526 12.1209L70.2241-7.25118L70.2241-88.7351C70.2241-92.271 67.748-94.7417 64.2527-94.7417Z"/>
  </g>
  <g id="Regular-L" transform="matrix(1 0 0 1 1386.5 1556)">
   <path d="M63.3403-94.4384C60.5839-94.4384 58.5963-92.4759 58.5963-89.7471L58.5963-3.8712L59.1516 13.8655L61.9532 12.8328L41.3749-9.56709L24.0393-26.7193C23.2176-27.5133 21.9436-27.9907 20.6973-27.9907C18.0464-27.9907 16.084-25.9504 16.084-23.3246C16.084-22.0506 16.5614-20.9375 17.569-19.852L59.815 22.3637C60.8226 23.4241 62.0412 23.9794 63.3403 23.9794C64.667 23.9794 65.858 23.4241 66.8656 22.3637L109.139-19.852C110.147-20.9375 110.597-22.0506 110.597-23.3246C110.597-25.9504 108.634-27.9907 106.011-27.9907C104.737-27.9907 103.463-27.5133 102.669-26.7193L85.3057-9.56709L64.6747 12.8328L67.529 13.8655L68.1119-3.8712L68.1119-89.7471C68.1119-92.4759 66.0967-94.4384 63.3403-94.4384Z"/>
  </g>
  <g id="Light-L" transform="matrix(1 0 0 1 1090.48 1556)">
   <path d="M62.6532-93.9803C60.6029-93.9803 59.1307-92.495 59.1307-90.4915L59.1307-0.683963L59.5142 15.6404L61.4188 14.894L43.4552-4.26138L22.0926-25.536C21.4809-26.101 20.4932-26.4639 19.5522-26.4639C17.5693-26.4639 16.084-24.958 16.084-22.962C16.084-21.9743 16.4469-21.1474 17.2064-20.3673L60.0249 22.3446C60.7844 23.1378 61.6786 23.5213 62.6532 23.5213C63.6746 23.5213 64.5221 23.1378 65.2816 22.3446L108.147-20.3673C108.906-21.1474 109.222-21.9743 109.222-22.962C109.222-24.958 107.737-26.4639 105.801-26.4639C104.813-26.4639 103.826-26.101 103.261-25.536L81.8513-4.26138L63.854 14.894L65.7922 15.6404L66.2225-0.683963L66.2225-90.4915C66.2225-92.495 64.7035-93.9803 62.6532-93.9803Z"/>
  </g>
  <g id="Thin-L" transform="matrix(1 0 0 1 794.678 1556)">
   <path d="M61.7445-93.3745C60.6282-93.3745 59.8375-92.5203 59.8375-91.4759L59.8375 3.53142L59.9938 17.9879L60.712 17.6201L46.2065 2.75585L19.5179-23.971C19.1839-24.2331 18.5748-24.4445 18.0377-24.4445C16.9382-24.4445 16.084-23.6454 16.084-22.4824C16.084-21.8733 16.2954-21.4251 16.7268-21.0489L60.3026 22.3194C60.7339 22.7592 61.199 22.9155 61.7445 22.9155C62.362 22.9155 62.7551 22.7592 63.1865 22.3194L106.834-21.0489C107.266-21.4251 107.405-21.8733 107.405-22.4824C107.405-23.6454 106.551-24.4445 105.523-24.4445C104.914-24.4445 104.305-24.2331 104.043-23.971L77.2825 2.75585L62.7686 17.6201L63.4952 17.9879L63.7236 3.53142L63.7236-91.4759C63.7236-92.5203 62.8609-93.3745 61.7445-93.3745Z"/>
  </g>
  <g id="Ultralight-L" transform="matrix(1 0 0 1 498.432 1556)">
   <path d="M61.2791-93.0642C60.6411-93.0642 60.1995-92.5332 60.1995-91.9801L60.1995 5.69052L60.2395 19.1903L60.35 19.0164L47.6158 6.35004L18.1992-23.1694C18.0073-23.2764 17.5922-23.4102 17.262-23.4102C16.615-23.4102 16.084-22.9731 16.084-22.2367C16.084-21.8216 16.2179-21.5673 16.4811-21.3979L60.4448 22.3065C60.7081 22.5653 60.9534 22.6052 61.2791 22.6052C61.6897 22.6052 61.8501 22.5653 62.1134 22.3065L106.162-21.3979C106.425-21.5673 106.474-21.8216 106.474-22.2367C106.474-22.9731 105.943-23.4102 105.381-23.4102C104.966-23.4102 104.551-23.2764 104.444-23.1694L74.9424 6.35004L62.2127 19.0164L62.3187 19.1903L62.4436 5.69052L62.4436-91.9801C62.4436-92.5332 61.9171-93.0642 61.2791-93.0642Z"/>
  </g>
  <g id="Black-M" transform="matrix(1 0 0 1 2879.58 1126)">
   <path d="M53.7936-82.5928C47.8858-82.5928 43.9898-78.4742 43.9898-72.2235L43.9898-28.2065L45.0151-6.06412L50.3756-10.5014L39.5091-24.0095L28.7179-34.9497C26.929-36.796 24.7599-38.2097 21.677-38.2097C16.4653-38.2097 12.4609-34.4224 12.4609-28.8168C12.4609-26.248 13.532-23.8039 15.5084-21.8162L46.6162 9.355C48.3071 11.0514 51.162 12.1338 53.7936 12.1338C56.4249 12.1338 59.28 11.0514 60.971 9.355L92.1356-21.8162C94.112-23.8039 95.1833-26.248 95.1833-28.8168C95.1833-34.4224 91.1789-38.2097 85.967-38.2097C82.8843-38.2097 80.7153-36.796 78.9261-34.9497L68.0781-24.0095L57.2061-10.5014L62.5721-6.06412L63.5971-28.2065L63.5971-72.2235C63.5971-78.4742 59.7014-82.5928 53.7936-82.5928Z"/>
  </g>
  <g id="Heavy-M" transform="matrix(1 0 0 1 2583.9 1126)">
   <path d="M52.7718-82.3023C47.6593-82.3023 44.25-78.7327 44.25-73.3608L44.25-24.559L45.158-4.20936L49.8863-7.82679L37.4701-22.6789L26.5976-33.6189C25.0524-35.2054 23.1238-36.3881 20.4995-36.3881C15.9433-36.3881 12.4609-33.0497 12.4609-28.2023C12.4609-25.9683 13.3819-23.859 15.1095-22.1008L46.5231 9.36592C48.0325 10.8918 50.4801 11.8433 52.7718 11.8433C55.0658 11.8433 57.511 10.8918 59.0205 9.36592L90.48-22.1008C92.2075-23.859 93.1263-25.9683 93.1263-28.2023C93.1263-33.0497 89.6439-36.3881 85.0899-36.3881C82.4634-36.3881 80.5348-35.2054 78.9918-33.6189L68.0735-22.6789L55.6409-7.82679L60.3856-4.20936L61.2958-24.559L61.2958-73.3608C61.2958-78.7327 57.8843-82.3023 52.7718-82.3023Z"/>
  </g>
  <g id="Bold-M" transform="matrix(1 0 0 1 2288.33 1126)">
   <path d="M51.6288-81.9774C47.4059-81.9774 44.5411-79.022 44.5411-74.633L44.5411-20.4788L45.3178-2.13455L49.3389-4.83482L35.1892-21.1904L24.2257-32.1301C22.9532-33.4261 21.2936-34.3505 19.1823-34.3505C15.3593-34.3505 12.4609-31.5143 12.4609-27.5149C12.4609-25.6554 13.2141-23.9206 14.6633-22.4192L46.4189 9.37813C47.7253 10.7132 49.7173 11.5185 51.6288 11.5185C53.5454 11.5185 55.5322 10.7132 56.8386 9.37813L88.6279-22.4192C90.0771-23.9206 90.8251-25.6554 90.8251-27.5149C90.8251-31.5143 87.9268-34.3505 84.1089-34.3505C81.9925-34.3505 80.3329-33.4261 79.0654-32.1301L68.0683-21.1904L53.89-4.83482L57.9397-2.13455L58.7215-20.4788L58.7215-74.633C58.7215-79.022 55.8516-81.9774 51.6288-81.9774Z"/>
  </g>
  <g id="Semibold-M" transform="matrix(1 0 0 1 1992.42 1126)">
   <path d="M50.8407-81.7535C47.2312-81.7535 44.7418-79.2214 44.7418-75.51L44.7418-17.666L45.428-0.704188L48.9615-2.77217L33.6168-20.1642L22.5906-31.1038C21.506-32.1995 20.0318-32.9458 18.2743-32.9458C14.9567-32.9458 12.4609-30.4557 12.4609-27.0409C12.4609-25.4397 13.0983-23.963 14.3556-22.6388L46.347 9.38655C47.5136 10.5901 49.1914 11.2945 50.8407 11.2945C52.4972 11.2945 54.1679 10.5901 55.3345 9.38655L87.3511-22.6388C88.6085-23.963 89.2387-25.4397 89.2387-27.0409C89.2387-30.4557 86.743-32.9458 83.4325-32.9458C81.6678-32.9458 80.1937-32.1995 79.1162-31.1038L68.0647-20.1642L52.6829-2.77217L56.2535-0.704188L56.9468-17.666L56.9468-75.51C56.9468-79.2214 54.4503-81.7535 50.8407-81.7535Z"/>
  </g>
  <g id="Medium-M" transform="matrix(1 0 0 1 1696.31 1126)">
   <path d="M50.2433-81.5836C47.0987-81.5836 44.894-79.3726 44.894-76.175L44.894-15.5331L45.5116 0.380372L48.6754-1.20818L32.4245-19.3861L21.3507-30.3256C20.4087-31.2694 19.0751-31.8807 17.5857-31.8807C14.6514-31.8807 12.4609-29.6531 12.4609-26.6816C12.4609-25.2761 13.0105-23.9952 14.1223-22.8052L46.2926 9.39294C47.353 10.4968 48.7927 11.1246 50.2433 11.1246C51.7024 11.1246 53.1335 10.4968 54.1939 9.39294L86.383-22.8052C87.4948-23.9952 88.0358-25.2761 88.0358-26.6816C88.0358-29.6531 85.8454-31.8807 82.9197-31.8807C81.4217-31.8807 80.0881-31.2694 79.1546-30.3256L68.062-19.3861L51.7677-1.20818L54.9749 0.380372L55.6011-15.5331L55.6011-76.175C55.6011-79.3726 53.3878-81.5836 50.2433-81.5836Z"/>
  </g>
  <g id="Regular-M" transform="matrix(1 0 0 1 1400.38 1126)">
   <path d="M49.4639-81.3621C46.926-81.3621 45.0925-79.5698 45.0925-77.0424L45.0925-12.7512L45.6206 1.79502L48.3022 0.831797L30.8694-18.3712L19.7336-29.3106C18.9774-30.0562 17.8272-30.4914 16.6876-30.4914C14.2532-30.4914 12.4609-28.6061 12.4609-26.2129C12.4609-25.0628 12.8961-24.0373 13.8181-23.0223L46.2215 9.40127C47.1435 10.375 48.2726 10.9031 49.4639 10.9031C50.6658 10.9031 51.7843 10.375 52.7063 9.40127L85.1203-23.0223C86.0423-24.0373 86.4669-25.0628 86.4669-26.2129C86.4669-28.6061 84.6746-30.4914 82.2507-30.4914C81.1006-30.4914 79.9505-30.0562 79.2048-29.3106L68.0584-18.3712L50.5738 0.831797L53.3072 1.79502L53.8459-12.7512L53.8459-77.0424C53.8459-79.5698 52.0018-81.3621 49.4639-81.3621Z"/>
  </g>
  <g id="Light-M" transform="matrix(1 0 0 1 1104.29 1126)">
   <path d="M48.8479-80.9514C46.9431-80.9514 45.5716-79.5869 45.5716-77.7098L45.5716-9.89363L45.9457 3.38633L47.8231 2.67978L32.7345-13.6144L17.9882-28.2497C17.4203-28.79 16.5268-29.1225 15.661-29.1225C13.8254-29.1225 12.4609-27.7164 12.4609-25.8878C12.4609-24.9943 12.7934-24.2255 13.493-23.4843L46.4098 9.38415C47.1093 10.1184 47.9475 10.4925 48.8479 10.4925C49.776 10.4925 50.5865 10.1184 51.2861 9.38415L84.2305-23.4843C84.9301-24.2255 85.2349-24.9943 85.2349-25.8878C85.2349-27.7164 83.8704-29.1225 82.0625-29.1225C81.169-29.1225 80.2756-28.79 79.7353-28.2497L64.9613-13.6144L49.8381 2.67978L51.7501 3.38633L52.1519-9.89363L52.1519-77.7098C52.1519-79.5869 50.7527-80.9514 48.8479-80.9514Z"/>
  </g>
  <g id="Thin-M" transform="matrix(1 0 0 1 808.389 1126)">
   <path d="M48.0332-80.4083C46.9657-80.4083 46.2053-79.6096 46.2053-78.5924L46.2053-6.11432L46.3757 5.49098L47.1895 5.12388L35.2012-7.32306L15.6799-26.8466C15.3609-27.1154 14.8069-27.312 14.3031-27.312C13.2597-27.312 12.4609-26.5396 12.4609-25.4578C12.4609-24.9038 12.6576-24.4744 13.063-24.0953L46.6587 9.36152C47.0641 9.77891 47.5175 9.94933 48.0332 9.94933C48.5992 9.94933 49.0024 9.77891 49.4077 9.36152L83.0537-24.0953C83.4591-24.4744 83.6055-24.9038 83.6055-25.4578C83.6055-26.5396 82.8068-27.312 81.8136-27.312C81.2596-27.312 80.7056-27.1154 80.4368-26.8466L60.8652-7.32306L48.865 5.12388L49.6908 5.49098L49.9115-6.11432L49.9115-78.5924C49.9115-79.6096 49.1007-80.4083 48.0332-80.4083Z"/>
  </g>
  <g id="Ultralight-M" transform="matrix(1 0 0 1 512.095 1126)">
   <path d="M47.6159-80.1301C46.9773-80.1301 46.5298-79.6212 46.5298-79.0444L46.5298-4.17858L46.5959 6.56897L46.8649 6.37574L36.4647-4.10068L14.4976-26.1279C14.3061-26.2576 13.9259-26.3847 13.6077-26.3847C12.9699-26.3847 12.4609-25.9368 12.4609-25.2376C12.4609-24.8574 12.5881-24.6019 12.8428-24.4083L46.7862 9.34993C47.0409 9.60504 47.2973 9.67114 47.6159 9.67114C47.9965 9.67114 48.191 9.60504 48.4457 9.34993L82.451-24.4083C82.7057-24.6019 82.7709-24.8574 82.7709-25.2376C82.7709-25.9368 82.262-26.3847 81.6861-26.3847C81.3059-26.3847 80.9258-26.2576 80.7961-26.1279L58.7672-4.10068L48.3665 6.37574L48.636 6.56897L48.7639-4.17858L48.7639-79.0444C48.7639-79.6212 48.2545-80.1301 47.6159-80.1301Z"/>
  </g>
  <g id="Black-S" transform="matrix(1 0 0 1 2890.94 696)">
   <path d="M42.4316-72.4121C37.5977-72.4121 34.4238-69.043 34.4238-63.916L34.4238-30.6641L35.2539-12.8418L39.5996-16.5527L31.6895-26.5625L23.0469-35.3516C21.582-36.8652 19.8242-38.0371 17.2852-38.0371C13.0371-38.0371 9.76562-34.9609 9.76562-30.3711C9.76562-28.2715 10.6445-26.2695 12.2559-24.6582L36.5723-0.292969C37.9395 1.07422 40.2832 1.95312 42.4316 1.95312C44.5801 1.95312 46.9238 1.07422 48.291-0.292969L72.6562-24.6582C74.2676-26.2695 75.1465-28.2715 75.1465-30.3711C75.1465-34.9609 71.875-38.0371 67.627-38.0371C65.0879-38.0371 63.3301-36.8652 61.8652-35.3516L53.1738-26.5625L45.2637-16.5527L49.6094-12.8418L50.4395-30.6641L50.4395-63.916C50.4395-69.043 47.2656-72.4121 42.4316-72.4121Z"/>
  </g>
  <g id="Heavy-S" transform="matrix(1 0 0 1 2595.03 696)">
   <path d="M41.6365-72.2162C37.4017-72.2162 34.5852-69.2619 34.5852-64.8034L34.5852-27.9097L35.3346-11.4589L39.2424-14.5014L29.7072-26.0324L21.4565-34.3489C20.176-35.6667 18.5911-36.6542 16.4093-36.6542C12.6453-36.6542 9.76562-33.9007 9.76562-29.8871C9.76562-28.041 10.5293-26.2926 11.9562-24.8426L36.4685-0.281444C37.709 0.970499 39.7416 1.75721 41.6365 1.75721C43.5314 1.75721 45.5639 0.970499 46.8044-0.281444L71.354-24.8426C72.7809-26.2926 73.5446-28.041 73.5446-29.8871C73.5446-33.9007 70.6649-36.6542 66.9009-36.6542C64.7191-36.6542 63.1342-35.6667 61.8537-34.3489L53.5657-26.0324L44.019-14.5014L47.9383-11.4589L48.6877-27.9097L48.6877-64.8034C48.6877-69.2619 45.8712-72.2162 41.6365-72.2162Z"/>
  </g>
  <g id="Bold-S" transform="matrix(1 0 0 1 2299.22 696)">
   <path d="M40.7471-71.9971C37.1826-71.9971 34.7656-69.5068 34.7656-65.7959L34.7656-24.8291L35.4248-9.91211L38.8428-12.207L27.4902-25.4395L19.6777-33.2275C18.6035-34.3262 17.2119-35.1074 15.4297-35.1074C12.207-35.1074 9.76562-32.7148 9.76562-29.3457C9.76562-27.7832 10.4004-26.3184 11.6211-25.0488L36.3525-0.268555C37.4512 0.854492 39.1357 1.53809 40.7471 1.53809C42.3584 1.53809 44.043 0.854492 45.1416-0.268555L69.8975-25.0488C71.1182-26.3184 71.7529-27.7832 71.7529-29.3457C71.7529-32.7148 69.3115-35.1074 66.0889-35.1074C64.3066-35.1074 62.915-34.3262 61.8408-33.2275L54.0039-25.4395L42.627-12.207L46.0693-9.91211L46.7285-24.8291L46.7285-65.7959C46.7285-69.5068 44.3115-71.9971 40.7471-71.9971Z"/>
  </g>
  <g id="Semibold-S" transform="matrix(1 0 0 1 2003.13 696)">
   <path d="M40.1339-71.846C37.0315-71.846 34.89-69.6757 34.89-66.4802L34.89-22.7052L35.487-8.8457L38.5673-10.6252L25.9617-25.0307L18.4514-32.4544C17.5193-33.402 16.261-34.041 14.7543-34.041C11.9049-34.041 9.76562-31.8973 9.76562-28.9725C9.76562-27.6055 10.3115-26.3361 11.39-25.191L36.2726-0.259668C37.2734 0.774512 38.7181 1.38701 40.1339 1.38701C41.5497 1.38701 42.9943 0.774512 43.9952-0.259668L68.8933-25.191C69.9718-26.3361 70.5177-27.6055 70.5177-28.9725C70.5177-31.8973 68.3784-34.041 65.529-34.041C64.0223-34.041 62.764-33.402 61.8319-32.4544L54.3061-25.0307L41.6672-10.6252L44.7808-8.8457L45.3777-22.7052L45.3777-66.4802C45.3777-69.6757 43.2362-71.846 40.1339-71.846Z"/>
  </g>
  <g id="Medium-S" transform="matrix(1 0 0 1 1706.88 696)">
   <path d="M39.6689-71.7314C36.917-71.7314 34.9844-69.8037 34.9844-66.999L34.9844-21.0947L35.5342-8.03711L38.3584-9.42578L24.8027-24.7207L17.5215-31.8682C16.6973-32.7012 15.54-33.2324 14.2422-33.2324C11.6758-33.2324 9.76562-31.2773 9.76562-28.6895C9.76562-27.4707 10.2441-26.3496 11.2148-25.2988L36.2119-0.25293C37.1387 0.713867 38.4014 1.27246 39.6689 1.27246C40.9365 1.27246 42.1992 0.713867 43.126-0.25293L68.1318-25.2988C69.1025-26.3496 69.5811-27.4707 69.5811-28.6895C69.5811-31.2773 67.6709-33.2324 65.1045-33.2324C63.8066-33.2324 62.6494-32.7012 61.8252-31.8682L54.5352-24.7207L40.9395-9.42578L43.8037-8.03711L44.3535-21.0947L44.3535-66.999C44.3535-69.8037 42.4209-71.7314 39.6689-71.7314Z"/>
  </g>
  <g id="Regular-S" transform="matrix(1 0 0 1 1410.78 696)">
   <path d="M39.0625-71.582C36.7676-71.582 35.1074-69.9707 35.1074-67.6758L35.1074-18.9941L35.5957-6.98242L38.0859-7.86133L23.291-24.3164L16.3086-31.1035C15.625-31.7871 14.5996-32.1777 13.5742-32.1777C11.377-32.1777 9.76562-30.4688 9.76562-28.3203C9.76562-27.2949 10.1562-26.3672 10.9863-25.4395L36.1328-0.244141C36.9629 0.634766 37.9883 1.12305 39.0625 1.12305C40.1367 1.12305 41.1621 0.634766 41.9922-0.244141L67.1387-25.4395C67.9688-26.3672 68.3594-27.2949 68.3594-28.3203C68.3594-30.4688 66.748-32.1777 64.5508-32.1777C63.5254-32.1777 62.5-31.7871 61.8164-31.1035L54.834-24.3164L39.9902-7.86133L42.5293-6.98242L43.0176-18.9941L43.0176-67.6758C43.0176-69.9707 41.3574-71.582 39.0625-71.582Z"/>
  </g>
  <g id="Light-S" transform="matrix(1 0 0 1 1114.62 696)">
   <path d="M38.5176-71.2188C36.7827-71.2188 35.5312-69.9858 35.5312-68.2661L35.5312-16.4663L35.8833-5.57472L37.6621-6.22658L24.9409-20.1084L14.7647-30.165C14.2476-30.667 13.4492-30.9668 12.666-30.9668C10.9985-30.9668 9.76562-29.6816 9.76562-28.0327C9.76562-27.2344 10.0654-26.5337 10.6987-25.8481L36.2993-0.259277C36.9326 0.407717 37.7007 0.759768 38.5176 0.759768C39.3496 0.759768 40.1025 0.407717 40.7358-0.259277L66.3516-25.8481C66.9849-26.5337 67.2695-27.2344 67.2695-28.0327C67.2695-29.6816 66.0366-30.9668 64.3843-30.9668C63.5859-30.9668 62.7876-30.667 62.2856-30.165L52.0943-20.1084L39.3394-6.22658L41.1519-5.57472L41.5191-16.4663L41.5191-68.2661C41.5191-69.9858 40.2525-71.2188 38.5176-71.2188Z"/>
  </g>
  <g id="Thin-S" transform="matrix(1 0 0 1 818.625 696)">
   <path d="M37.7969-70.7383C36.8027-70.7383 36.0918-70.0059 36.0918-69.0469L36.0918-13.1231L36.2637-3.71292L37.1016-4.06448L27.123-14.543L12.7227-28.9238C12.4258-29.1856 11.9278-29.3653 11.4649-29.3653C10.4981-29.3653 9.76562-28.6406 9.76562-27.6523C9.76562-27.1543 9.94531-26.7539 10.3184-26.3887L36.5195-0.279297C36.8926 0.107426 37.3203 0.279304 37.7969 0.279304C38.3086 0.279304 38.7012 0.107426 39.0742-0.279297L65.3106-26.3887C65.6836-26.7539 65.8281-27.1543 65.8281-27.6523C65.8281-28.6406 65.0957-29.3653 64.1641-29.3653C63.666-29.3653 63.168-29.1856 62.9062-28.9238L48.4708-14.543L38.4785-4.06448L39.3301-3.71292L39.5371-13.1231L39.5371-69.0469C39.5371-70.0059 38.791-70.7383 37.7969-70.7383Z"/>
  </g>
  <g id="Ultralight-S" transform="matrix(1 0 0 1 522.283 696)">
   <path d="M37.4277-70.4922C36.813-70.4922 36.3789-70.0161 36.3789-69.4468L36.3789-11.4107L36.4585-2.75931L36.8145-2.95707L28.2407-11.6925L11.6768-28.2881C11.4927-28.4268 11.1485-28.545 10.8496-28.545C10.2417-28.545 9.76562-28.1074 9.76562-27.4575C9.76562-27.1133 9.88379-26.8667 10.1235-26.6655L36.6323-0.28955C36.8721-0.0463814 37.1255 0.0332117 37.4277 0.0332117C37.7754 0.0332117 37.9834-0.0463814 38.2232-0.28955L64.7774-26.6655C65.0171-26.8667 65.0899-27.1133 65.0899-27.4575C65.0899-28.1074 64.6138-28.545 64.0513-28.545C63.707-28.545 63.3628-28.4268 63.2241-28.2881L46.6148-11.6925L38.0376-2.95707L38.397-2.75931L38.522-11.4107L38.522-69.4468C38.522-70.0161 38.0425-70.4922 37.4277-70.4922Z"/>
  </g>
 </g>
</svg>
